999
"DXF R12 Output" (www.mydxf.blogspot.com)
 0 
SECTION
 2 
HEADER
 9 
$ACADVER
 1 
AC1009
 9 
$EXTMIN
 10 
 0 
 20 
 0 
 9 
$EXTMAX
 10 
 8.5 
 20 
 11 
 0 
ENDSEC
 0 
SECTION
 2 
ENTITIES
0
LINE
8
Layer 1
10
14.717400
20
34.781700
11
14.717400
21
16.933400
0
LINE
8
Layer 1
10
14.717400
20
16.933400
11
10.263600
21
16.933400
0
LINE
8
Layer 1
10
10.263600
20
16.933400
11
10.263600
21
26.502500
0
LINE
8
Layer 1
10
10.263600
20
26.502500
11
10.164382
21
28.993990
0
LINE
8
Layer 1
10
10.164382
20
28.993990
11
9.976993
21
29.360522
0
LINE
8
Layer 1
10
9.976993
20
29.360522
11
9.613190
21
29.622300
0
LINE
8
Layer 1
10
9.613190
20
29.622300
11
8.896605
21
29.787675
0
LINE
8
Layer 1
10
8.896605
20
29.787675
11
7.628810
21
29.842800
0
LINE
8
Layer 1
10
7.628810
20
29.842800
11
7.187840
21
29.842800
0
LINE
8
Layer 1
10
7.187840
20
29.842800
11
7.187840
21
31.926400
0
LINE
8
Layer 1
10
7.187840
20
31.926400
11
8.705766
21
32.365331
0
LINE
8
Layer 1
10
8.705766
20
32.365331
11
10.029385
21
32.987525
0
LINE
8
Layer 1
10
10.029385
20
32.987525
11
11.158696
21
33.792981
0
LINE
8
Layer 1
10
11.158696
20
33.792981
11
12.093700
21
34.781700
0
LINE
8
Layer 1
10
12.093700
20
34.781700
11
14.717400
21
34.781700
0
LINE
8
Layer 1
10
26.954400
20
28.740400
11
26.954400
21
22.787300
0
LINE
8
Layer 1
10
26.954400
20
22.787300
11
26.899278
21
21.034437
0
LINE
8
Layer 1
10
26.899278
20
21.034437
11
26.733914
21
19.832790
0
LINE
8
Layer 1
10
26.733914
20
19.832790
11
26.394917
21
18.937067
0
LINE
8
Layer 1
10
26.394917
20
18.937067
11
25.818898
21
18.101980
0
LINE
8
Layer 1
10
25.818898
20
18.101980
11
25.052710
21
17.410205
0
LINE
8
Layer 1
10
25.052710
20
17.410205
11
24.143208
21
16.944430
0
LINE
8
Layer 1
10
24.143208
20
16.944430
11
23.104166
21
16.679847
0
LINE
8
Layer 1
10
23.104166
20
16.679847
11
21.949368
21
16.591653
0
LINE
8
Layer 1
10
21.949368
20
16.591653
11
20.485893
21
16.682603
0
LINE
8
Layer 1
10
20.485893
20
16.682603
11
19.292508
21
16.955455
0
LINE
8
Layer 1
10
19.292508
20
16.955455
11
18.341663
21
17.432255
0
LINE
8
Layer 1
10
18.341663
20
17.432255
11
17.605788
21
18.113005
0
LINE
8
Layer 1
10
17.605788
20
18.113005
11
17.068347
21
18.915001
0
LINE
8
Layer 1
10
17.068347
20
18.915001
11
16.712800
21
19.755600
0
LINE
8
Layer 1
10
16.712800
20
19.755600
11
16.514425
21
20.880075
0
LINE
8
Layer 1
10
16.514425
20
20.880075
11
16.448300
21
22.511700
0
LINE
8
Layer 1
10
16.448300
20
22.511700
11
16.448300
21
28.740400
0
LINE
8
Layer 1
10
16.448300
20
28.740400
11
16.553031
21
30.890140
0
LINE
8
Layer 1
10
16.553031
20
30.890140
11
16.867223
21
32.422520
0
LINE
8
Layer 1
10
16.867223
20
32.422520
11
17.503876
21
33.524950
0
LINE
8
Layer 1
10
17.503876
20
33.524950
11
18.553943
21
34.384840
0
LINE
8
Layer 1
10
18.553943
20
34.384840
11
19.954026
21
34.938811
0
LINE
8
Layer 1
10
19.954026
20
34.938811
11
21.618693
21
35.123468
0
LINE
8
Layer 1
10
21.618693
20
35.123468
11
23.007753
21
34.993932
0
LINE
8
Layer 1
10
23.007753
20
34.993932
11
24.242473
21
34.605326
0
LINE
8
Layer 1
10
24.242473
20
34.605326
11
25.253918
21
34.040331
0
LINE
8
Layer 1
10
25.253918
20
34.040331
11
25.973200
21
33.359600
0
LINE
8
Layer 1
10
25.973200
20
33.359600
11
26.452775
21
32.574125
0
LINE
8
Layer 1
10
26.452775
20
32.574125
11
26.744900
21
31.694900
0
LINE
8
Layer 1
10
26.744900
20
31.694900
11
26.954400
21
28.740400
0
LINE
8
Layer 1
10
26.954400
20
28.740400
11
26.954400
21
28.740400
0
LINE
8
Layer 1
10
22.500600
20
30.239700
11
22.357300
21
32.014600
0
LINE
8
Layer 1
10
22.357300
20
32.014600
11
22.131300
21
32.287450
0
LINE
8
Layer 1
10
22.131300
20
32.287450
11
21.717900
21
32.378400
0
LINE
8
Layer 1
10
21.717900
20
32.378400
11
21.304488
21
32.281937
0
LINE
8
Layer 1
10
21.304488
20
32.281937
11
21.056442
21
31.992550
0
LINE
8
Layer 1
10
21.056442
20
31.992550
11
20.902100
21
30.239700
0
LINE
8
Layer 1
10
20.902100
20
30.239700
11
20.902100
21
21.530500
0
LINE
8
Layer 1
10
20.902100
20
21.530500
11
21.045416
21
19.656370
0
LINE
8
Layer 1
10
21.045416
20
19.656370
11
21.285194
21
19.416591
0
LINE
8
Layer 1
10
21.285194
20
19.416591
11
21.695850
21
19.336665
0
LINE
8
Layer 1
10
21.695850
20
19.336665
11
22.106505
21
19.430371
0
LINE
8
Layer 1
10
22.106505
20
19.430371
11
22.346283
21
19.711491
0
LINE
8
Layer 1
10
22.346283
20
19.711491
11
22.500623
21
21.398211
0
LINE
8
Layer 1
10
22.500623
20
21.398211
11
22.500600
21
30.239700
0
LINE
8
Layer 1
10
31.915300
20
28.553000
11
31.915300
21
24.926000
0
LINE
8
Layer 1
10
31.915300
20
24.926000
11
28.552900
21
24.926000
0
LINE
8
Layer 1
10
28.552900
20
24.926000
11
28.552900
21
28.553000
0
LINE
8
Layer 1
10
28.552900
20
28.553000
11
31.915300
21
28.553000
0
LINE
8
Layer 1
10
31.915300
20
20.571410
11
31.915300
21
16.933400
0
LINE
8
Layer 1
10
31.915300
20
16.933400
11
28.552900
21
16.933400
0
LINE
8
Layer 1
10
28.552900
20
16.933400
11
28.552900
21
20.571400
0
LINE
8
Layer 1
10
28.552900
20
20.571400
11
31.915300
21
20.571410
0
LINE
8
Layer 1
10
39.985100
20
34.781700
11
39.985100
21
16.933400
0
LINE
8
Layer 1
10
39.985100
20
16.933400
11
35.531300
21
16.933400
0
LINE
8
Layer 1
10
35.531300
20
16.933400
11
35.531300
21
26.502500
0
LINE
8
Layer 1
10
35.531300
20
26.502500
11
35.432082
21
28.993990
0
LINE
8
Layer 1
10
35.432082
20
28.993990
11
35.244668
21
29.360548
0
LINE
8
Layer 1
10
35.244668
20
29.360548
11
34.880866
21
29.622375
0
LINE
8
Layer 1
10
34.880866
20
29.622375
11
34.164288
21
29.787739
0
LINE
8
Layer 1
10
34.164288
20
29.787739
11
32.896496
21
29.842861
0
LINE
8
Layer 1
10
32.896496
20
29.842861
11
32.455500
21
29.842800
0
LINE
8
Layer 1
10
32.455500
20
29.842800
11
32.455500
21
31.926400
0
LINE
8
Layer 1
10
32.455500
20
31.926400
11
33.973408
21
32.365305
0
LINE
8
Layer 1
10
33.973408
20
32.365305
11
35.297012
21
32.987488
0
LINE
8
Layer 1
10
35.297012
20
32.987488
11
36.426313
21
33.792950
0
LINE
8
Layer 1
10
36.426313
20
33.792950
11
37.361310
21
34.781690
0
LINE
8
Layer 1
10
37.361310
20
34.781690
11
39.985100
21
34.781700
 0 
ENDSEC
 0 
EOF