999
"DXF R12 Output" (www.mydxf.blogspot.com)
 0 
SECTION
 2 
HEADER
 9 
$ACADVER
 1 
AC1009
 9 
$EXTMIN
 10 
 0 
 20 
 0 
 9 
$EXTMAX
 10 
 8.5 
 20 
 11 
 0 
ENDSEC
 0 
SECTION
 2 
ENTITIES
0
LINE
8
Layer 1
10
14.717400
20
34.781700
11
14.717400
21
16.933400
0
LINE
8
Layer 1
10
14.717400
20
16.933400
11
10.263600
21
16.933400
0
LINE
8
Layer 1
10
10.263600
20
16.933400
11
10.263600
21
26.502500
0
LINE
8
Layer 1
10
10.263600
20
26.502500
11
10.164382
21
28.993990
0
LINE
8
Layer 1
10
10.164382
20
28.993990
11
9.976993
21
29.360522
0
LINE
8
Layer 1
10
9.976993
20
29.360522
11
9.613190
21
29.622300
0
LINE
8
Layer 1
10
9.613190
20
29.622300
11
8.896605
21
29.787675
0
LINE
8
Layer 1
10
8.896605
20
29.787675
11
7.628810
21
29.842800
0
LINE
8
Layer 1
10
7.628810
20
29.842800
11
7.187840
21
29.842800
0
LINE
8
Layer 1
10
7.187840
20
29.842800
11
7.187840
21
31.926400
0
LINE
8
Layer 1
10
7.187840
20
31.926400
11
8.705766
21
32.365331
0
LINE
8
Layer 1
10
8.705766
20
32.365331
11
10.029385
21
32.987525
0
LINE
8
Layer 1
10
10.029385
20
32.987525
11
11.158696
21
33.792981
0
LINE
8
Layer 1
10
11.158696
20
33.792981
11
12.093700
21
34.781700
0
LINE
8
Layer 1
10
12.093700
20
34.781700
11
14.717400
21
34.781700
0
LINE
8
Layer 1
10
26.171700
20
34.781700
11
26.171700
21
31.926400
0
LINE
8
Layer 1
10
26.171700
20
31.926400
11
20.648500
21
31.926400
0
LINE
8
Layer 1
10
20.648500
20
31.926400
11
20.648500
21
28.894700
0
LINE
8
Layer 1
10
20.648500
20
28.894700
11
21.203848
21
29.430069
0
LINE
8
Layer 1
10
21.203848
20
29.430069
11
21.833610
21
29.812475
0
LINE
8
Layer 1
10
21.833610
20
29.812475
11
22.537788
21
30.041919
0
LINE
8
Layer 1
10
22.537788
20
30.041919
11
23.316380
21
30.118400
0
LINE
8
Layer 1
10
23.316380
20
30.118400
11
24.931440
21
29.859330
0
LINE
8
Layer 1
10
24.931440
20
29.859330
11
25.569470
21
29.535493
0
LINE
8
Layer 1
10
25.569470
20
29.535493
11
26.094500
21
29.082120
0
LINE
8
Layer 1
10
26.094500
20
29.082120
11
26.509289
21
28.450290
0
LINE
8
Layer 1
10
26.509289
20
28.450290
11
26.805568
21
27.580060
0
LINE
8
Layer 1
10
26.805568
20
27.580060
11
27.042590
21
25.124400
0
LINE
8
Layer 1
10
27.042590
20
25.124400
11
27.042600
21
22.577800
0
LINE
8
Layer 1
10
27.042600
20
22.577800
11
26.855187
21
19.788650
0
LINE
8
Layer 1
10
26.855187
20
19.788650
11
26.574067
21
18.937023
0
LINE
8
Layer 1
10
26.574067
20
18.937023
11
26.083486
21
18.146030
0
LINE
8
Layer 1
10
26.083486
20
18.146030
11
25.369662
21
17.481816
0
LINE
8
Layer 1
10
25.369662
20
17.481816
11
24.418816
21
16.988480
0
LINE
8
Layer 1
10
24.418816
20
16.988480
11
23.241973
21
16.690824
0
LINE
8
Layer 1
10
23.241973
20
16.690824
11
21.828106
21
16.591605
0
LINE
8
Layer 1
10
21.828106
20
16.591605
11
20.210291
21
16.740433
0
LINE
8
Layer 1
10
20.210291
20
16.740433
11
18.796426
21
17.186917
0
LINE
8
Layer 1
10
18.796426
20
17.186917
11
17.674681
21
17.939354
0
LINE
8
Layer 1
10
17.674681
20
17.939354
11
16.933300
21
18.983900
0
LINE
8
Layer 1
10
16.933300
20
18.983900
11
16.519900
21
20.499725
0
LINE
8
Layer 1
10
16.519900
20
20.499725
11
16.382100
21
22.666000
0
LINE
8
Layer 1
10
16.382100
20
22.666000
11
16.382100
21
23.636200
0
LINE
8
Layer 1
10
16.382100
20
23.636200
11
20.835900
21
23.636200
0
LINE
8
Layer 1
10
20.835900
20
23.636200
11
20.835900
21
22.522700
0
LINE
8
Layer 1
10
20.835900
20
22.522700
11
20.957167
21
20.064280
0
LINE
8
Layer 1
10
20.957167
20
20.064280
11
21.227262
21
19.518577
0
LINE
8
Layer 1
10
21.227262
20
19.518577
11
21.795014
21
19.336676
0
LINE
8
Layer 1
10
21.795014
20
19.336676
11
22.324180
21
19.546138
0
LINE
8
Layer 1
10
22.324180
20
19.546138
11
22.544700
21
19.998100
0
LINE
8
Layer 1
10
22.544700
20
19.998100
11
22.588797
21
22.103740
0
LINE
8
Layer 1
10
22.588797
20
22.103740
11
22.588800
21
25.642600
0
LINE
8
Layer 1
10
22.588800
20
25.642600
11
22.536435
21
26.485958
0
LINE
8
Layer 1
10
22.536435
20
26.485958
11
22.379339
21
27.009610
0
LINE
8
Layer 1
10
22.379339
20
27.009610
11
22.100975
21
27.282462
0
LINE
8
Layer 1
10
22.100975
20
27.282462
11
21.684808
21
27.373412
0
LINE
8
Layer 1
10
21.684808
20
27.373412
11
21.166666
21
27.185999
0
LINE
8
Layer 1
10
21.166666
20
27.185999
11
20.891058
21
26.778100
0
LINE
8
Layer 1
10
20.891058
20
26.778100
11
20.835937
21
25.785913
0
LINE
8
Layer 1
10
20.835937
20
25.785913
11
16.426200
21
25.785900
0
LINE
8
Layer 1
10
16.426200
20
25.785900
11
16.613613
21
34.781730
0
LINE
8
Layer 1
10
16.613613
20
34.781730
11
26.171700
21
34.781700
0
LINE
8
Layer 1
10
31.926400
20
28.553000
11
31.926400
21
24.926000
0
LINE
8
Layer 1
10
31.926400
20
24.926000
11
28.564000
21
24.926000
0
LINE
8
Layer 1
10
28.564000
20
24.926000
11
28.564000
21
28.553000
0
LINE
8
Layer 1
10
28.564000
20
28.553000
11
31.926400
21
28.553000
0
LINE
8
Layer 1
10
31.926400
20
20.571410
11
31.926400
21
16.933400
0
LINE
8
Layer 1
10
31.926400
20
16.933400
11
28.564000
21
16.933400
0
LINE
8
Layer 1
10
28.564000
20
16.933400
11
28.564000
21
20.571400
0
LINE
8
Layer 1
10
28.564000
20
20.571400
11
31.926400
21
20.571410
0
LINE
8
Layer 1
10
39.996100
20
34.781700
11
39.996100
21
16.933400
0
LINE
8
Layer 1
10
39.996100
20
16.933400
11
35.542300
21
16.933400
0
LINE
8
Layer 1
10
35.542300
20
16.933400
11
35.542300
21
26.502500
0
LINE
8
Layer 1
10
35.542300
20
26.502500
11
35.443082
21
28.993990
0
LINE
8
Layer 1
10
35.443082
20
28.993990
11
35.255669
21
29.360548
0
LINE
8
Layer 1
10
35.255669
20
29.360548
11
34.891866
21
29.622375
0
LINE
8
Layer 1
10
34.891866
20
29.622375
11
34.175287
21
29.787739
0
LINE
8
Layer 1
10
34.175287
20
29.787739
11
32.907496
21
29.842861
0
LINE
8
Layer 1
10
32.907496
20
29.842861
11
32.466600
21
29.842800
0
LINE
8
Layer 1
10
32.466600
20
29.842800
11
32.466600
21
31.926400
0
LINE
8
Layer 1
10
32.466600
20
31.926400
11
33.984508
21
32.365305
0
LINE
8
Layer 1
10
33.984508
20
32.365305
11
35.308112
21
32.987488
0
LINE
8
Layer 1
10
35.308112
20
32.987488
11
36.437413
21
33.792950
0
LINE
8
Layer 1
10
36.437413
20
33.792950
11
37.372410
21
34.781690
0
LINE
8
Layer 1
10
37.372410
20
34.781690
11
39.996100
21
34.781700
 0 
ENDSEC
 0 
EOF