999
"DXF R12 Output" (www.mydxf.blogspot.com)
 0 
SECTION
 2 
HEADER
 9 
$ACADVER
 1 
AC1009
 9 
$EXTMIN
 10 
 0 
 20 
 0 
 9 
$EXTMAX
 10 
 8.5 
 20 
 11 
 0 
ENDSEC
 0 
SECTION
 2 
ENTITIES
0
LINE
8
Layer 1
10
12.435400
20
23.156600
11
10.280200
21
23.156600
0
LINE
8
Layer 1
10
10.280200
20
23.156600
11
10.280200
21
23.818100
0
LINE
8
Layer 1
10
10.280200
20
23.818100
11
10.197518
21
24.407900
0
LINE
8
Layer 1
10
10.197518
20
24.407900
11
9.921911
21
24.534679
0
LINE
8
Layer 1
10
9.921911
20
24.534679
11
9.602206
21
24.363802
0
LINE
8
Layer 1
10
9.602206
20
24.363802
11
9.497475
21
23.845660
0
LINE
8
Layer 1
10
9.497475
20
23.845660
11
9.618742
21
23.173178
0
LINE
8
Layer 1
10
9.618742
20
23.173178
11
10.274688
21
22.627475
0
LINE
8
Layer 1
10
10.274688
20
22.627475
11
11.536968
21
21.789628
0
LINE
8
Layer 1
10
11.536968
20
21.789628
11
12.225988
21
21.117145
0
LINE
8
Layer 1
10
12.225988
20
21.117145
11
12.527778
21
20.346823
0
LINE
8
Layer 1
10
12.527778
20
20.346823
11
12.628375
21
19.215455
0
LINE
8
Layer 1
10
12.628375
20
19.215455
11
12.571875
21
18.387254
0
LINE
8
Layer 1
10
12.571875
20
18.387254
11
12.402377
21
17.809855
0
LINE
8
Layer 1
10
12.402377
20
17.809855
11
12.077160
21
17.393688
0
LINE
8
Layer 1
10
12.077160
20
17.393688
11
11.542482
21
17.049178
0
LINE
8
Layer 1
10
11.542482
20
17.049178
11
10.850707
21
16.821802
0
LINE
8
Layer 1
10
10.850707
20
16.821802
11
10.054202
21
16.746010
0
LINE
8
Layer 1
10
10.054202
20
16.746010
11
9.190173
21
16.834204
0
LINE
8
Layer 1
10
9.190173
20
16.834204
11
8.461192
21
17.098787
0
LINE
8
Layer 1
10
8.461192
20
17.098787
11
7.918245
21
17.499796
0
LINE
8
Layer 1
10
7.918245
20
17.499796
11
7.601297
21
17.997267
0
LINE
8
Layer 1
10
7.601297
20
17.997267
11
7.397347
21
19.546177
0
LINE
8
Layer 1
10
7.397347
20
19.546177
11
7.397300
21
20.130400
0
LINE
8
Layer 1
10
7.397300
20
20.130400
11
9.552550
21
20.130400
0
LINE
8
Layer 1
10
9.552550
20
20.130400
11
9.552550
21
19.044500
0
LINE
8
Layer 1
10
9.552550
20
19.044500
11
9.640744
21
18.399579
0
LINE
8
Layer 1
10
9.640744
20
18.399579
11
9.965961
21
18.256263
0
LINE
8
Layer 1
10
9.965961
20
18.256263
11
10.307714
21
18.438164
0
LINE
8
Layer 1
10
10.307714
20
18.438164
11
10.423469
21
18.978355
0
LINE
8
Layer 1
10
10.423469
20
18.978355
11
10.369726
21
19.630166
0
LINE
8
Layer 1
10
10.369726
20
19.630166
11
10.208495
21
20.009125
0
LINE
8
Layer 1
10
10.208495
20
20.009125
11
9.122605
21
20.819411
0
LINE
8
Layer 1
10
9.122605
20
20.819411
11
7.976075
21
21.651745
0
LINE
8
Layer 1
10
7.976075
20
21.651745
11
7.507542
21
22.368324
0
LINE
8
Layer 1
10
7.507542
20
22.368324
11
7.325641
21
23.536904
0
LINE
8
Layer 1
10
7.325641
20
23.536904
11
7.390409
21
24.424359
0
LINE
8
Layer 1
10
7.390409
20
24.424359
11
7.584712
21
25.036204
0
LINE
8
Layer 1
10
7.584712
20
25.036204
11
7.929222
21
25.457884
0
LINE
8
Layer 1
10
7.929222
20
25.457884
11
8.433583
21
25.774832
0
LINE
8
Layer 1
10
8.433583
20
25.774832
11
9.078505
21
25.977403
0
LINE
8
Layer 1
10
9.078505
20
25.977403
11
9.844693
21
26.044927
0
LINE
8
Layer 1
10
9.844693
20
26.044927
11
10.681162
21
25.971891
0
LINE
8
Layer 1
10
10.681162
20
25.971891
11
11.382583
21
25.752783
0
LINE
8
Layer 1
10
11.382583
20
25.752783
11
11.913128
21
25.422054
0
LINE
8
Layer 1
10
11.913128
20
25.422054
11
12.225942
21
25.014155
0
LINE
8
Layer 1
10
12.225942
20
25.014155
11
12.435404
21
23.509335
0
LINE
8
Layer 1
10
12.435404
20
23.509335
11
12.435400
21
23.156600
0
LINE
8
Layer 1
10
18.212100
20
21.486400
11
16.112000
21
21.486400
0
LINE
8
Layer 1
10
16.112000
20
21.486400
11
16.112000
21
22.329800
0
LINE
8
Layer 1
10
16.112000
20
22.329800
11
16.040342
21
22.925112
0
LINE
8
Layer 1
10
16.040342
20
22.925112
11
15.775759
21
23.084964
0
LINE
8
Layer 1
10
15.775759
20
23.084964
11
15.516688
21
22.947160
0
LINE
8
Layer 1
10
15.516688
20
22.947160
11
15.450542
21
22.329799
0
LINE
8
Layer 1
10
15.450542
20
22.329799
11
15.450600
21
18.879200
0
LINE
8
Layer 1
10
15.450600
20
18.879200
11
15.549818
21
18.289400
0
LINE
8
Layer 1
10
15.549818
20
18.289400
11
15.841962
21
18.096475
0
LINE
8
Layer 1
10
15.841962
20
18.096475
11
16.145131
21
18.300424
0
LINE
8
Layer 1
10
16.145131
20
18.300424
11
16.227800
21
19.072100
0
LINE
8
Layer 1
10
16.227800
20
19.072100
11
16.227800
21
19.943000
0
LINE
8
Layer 1
10
16.227800
20
19.943000
11
18.212100
21
19.943000
0
LINE
8
Layer 1
10
18.212100
20
19.943000
11
18.145954
21
18.625600
0
LINE
8
Layer 1
10
18.145954
20
18.625600
11
17.776640
21
17.727120
0
LINE
8
Layer 1
10
17.776640
20
17.727120
11
16.966354
21
17.032589
0
LINE
8
Layer 1
10
16.966354
20
17.032589
11
15.726124
21
16.801079
0
LINE
8
Layer 1
10
15.726124
20
16.801079
11
14.881388
21
16.881005
0
LINE
8
Layer 1
10
14.881388
20
16.881005
11
14.232334
21
17.120784
0
LINE
8
Layer 1
10
14.232334
20
17.120784
11
13.761084
21
17.509396
0
LINE
8
Layer 1
10
13.761084
20
17.509396
11
13.449600
21
18.024800
0
LINE
8
Layer 1
10
13.449600
20
18.024800
11
13.223600
21
19.678400
0
LINE
8
Layer 1
10
13.223600
20
19.678400
11
13.223600
21
21.756500
0
LINE
8
Layer 1
10
13.223600
20
21.756500
11
13.411013
21
23.162100
0
LINE
8
Layer 1
10
13.411013
20
23.162100
11
13.704535
21
23.609962
0
LINE
8
Layer 1
10
13.704535
20
23.609962
11
14.210274
21
24.005459
0
LINE
8
Layer 1
10
14.210274
20
24.005459
11
14.888268
21
24.286578
0
LINE
8
Layer 1
10
14.888268
20
24.286578
11
15.698554
21
24.380285
0
LINE
8
Layer 1
10
15.698554
20
24.380285
11
16.506083
21
24.287956
0
LINE
8
Layer 1
10
16.506083
20
24.287956
11
17.186834
21
24.010971
0
LINE
8
Layer 1
10
17.186834
20
24.010971
11
17.700842
21
23.593426
0
LINE
8
Layer 1
10
17.700842
20
23.593426
11
18.008144
21
23.079418
0
LINE
8
Layer 1
10
18.008144
20
23.079418
11
18.212093
21
21.486408
0
LINE
8
Layer 1
10
18.212093
20
21.486408
11
18.212100
21
21.486400
0
LINE
8
Layer 1
10
21.166600
20
25.857500
11
21.166600
21
24.694500
0
LINE
8
Layer 1
10
21.166600
20
24.694500
11
18.873600
21
24.694500
0
LINE
8
Layer 1
10
18.873600
20
24.694500
11
18.873600
21
25.857500
0
LINE
8
Layer 1
10
18.873600
20
25.857500
11
21.166600
21
25.857500
0
LINE
8
Layer 1
10
21.166600
20
24.247950
11
21.166600
21
16.933400
0
LINE
8
Layer 1
10
21.166600
20
16.933400
11
18.873600
21
16.933400
0
LINE
8
Layer 1
10
18.873600
20
16.933400
11
18.873600
21
24.248000
0
LINE
8
Layer 1
10
18.873600
20
24.248000
11
21.166600
21
24.247950
0
LINE
8
Layer 1
10
27.334700
20
20.632000
11
27.268554
21
18.724800
0
LINE
8
Layer 1
10
27.268554
20
18.724800
11
26.871679
21
17.705050
0
LINE
8
Layer 1
10
26.871679
20
17.705050
11
26.481695
21
17.295773
0
LINE
8
Layer 1
10
26.481695
20
17.295773
11
25.973199
21
16.993983
0
LINE
8
Layer 1
10
25.973199
20
16.993983
11
24.650279
21
16.745936
0
LINE
8
Layer 1
10
24.650279
20
16.745936
11
23.360439
21
16.977446
0
LINE
8
Layer 1
10
23.360439
20
16.977446
11
22.847810
21
17.272346
0
LINE
8
Layer 1
10
22.847810
20
17.272346
11
22.445423
21
17.683001
0
LINE
8
Layer 1
10
22.445423
20
17.683001
11
22.032012
21
18.702751
0
LINE
8
Layer 1
10
22.032012
20
18.702751
11
21.965866
21
20.632001
0
LINE
8
Layer 1
10
21.965866
20
20.632001
11
21.965900
21
22.158900
0
LINE
8
Layer 1
10
21.965900
20
22.158900
11
22.026534
21
24.060590
0
LINE
8
Layer 1
10
22.026534
20
24.060590
11
22.423409
21
25.085850
0
LINE
8
Layer 1
10
22.423409
20
25.085850
11
22.817527
21
25.495127
0
LINE
8
Layer 1
10
22.817527
20
25.495127
11
23.327401
21
25.796917
0
LINE
8
Layer 1
10
23.327401
20
25.796917
11
24.650321
21
26.044964
0
LINE
8
Layer 1
10
24.650321
20
26.044964
11
25.934651
21
25.807942
0
LINE
8
Layer 1
10
25.934651
20
25.807942
11
26.451414
21
25.517176
0
LINE
8
Layer 1
10
26.451414
20
25.517176
11
26.855180
21
25.107899
0
LINE
8
Layer 1
10
26.855180
20
25.107899
11
27.268591
21
24.088149
0
LINE
8
Layer 1
10
27.268591
20
24.088149
11
27.334737
21
22.158899
0
LINE
8
Layer 1
10
27.334737
20
22.158899
11
27.334700
21
20.632000
0
LINE
8
Layer 1
10
25.014100
20
23.564500
11
24.942442
21
24.358249
0
LINE
8
Layer 1
10
24.942442
20
24.358249
11
24.661322
21
24.534638
0
LINE
8
Layer 1
10
24.661322
20
24.534638
11
24.380203
21
24.391322
0
LINE
8
Layer 1
10
24.380203
20
24.391322
11
24.286496
21
23.564500
0
LINE
8
Layer 1
10
24.286496
20
23.564500
11
24.286500
21
19.397300
0
LINE
8
Layer 1
10
24.286500
20
19.397300
11
24.347134
21
18.438186
0
LINE
8
Layer 1
10
24.347134
20
18.438186
11
24.644790
21
18.256285
0
LINE
8
Layer 1
10
24.644790
20
18.256285
11
24.947958
21
18.465747
0
LINE
8
Layer 1
10
24.947958
20
18.465747
11
25.014104
21
19.463446
0
LINE
8
Layer 1
10
25.014104
20
19.463446
11
25.014100
21
23.564500
0
LINE
8
Layer 1
10
30.427100
20
25.857500
11
30.427100
21
16.933400
0
LINE
8
Layer 1
10
30.427100
20
16.933400
11
28.134000
21
16.933400
0
LINE
8
Layer 1
10
28.134000
20
16.933400
11
28.134000
21
25.857500
0
LINE
8
Layer 1
10
28.134000
20
25.857500
11
30.427100
21
25.857500
0
LINE
8
Layer 1
10
35.889600
20
24.248000
11
35.250189
21
18.956340
0
LINE
8
Layer 1
10
35.250189
20
18.956340
11
34.996632
21
17.242060
0
LINE
8
Layer 1
10
34.996632
20
17.242060
11
34.660390
21
16.486896
0
LINE
8
Layer 1
10
34.660390
20
16.486896
11
33.998932
21
16.051436
0
LINE
8
Layer 1
10
33.998932
20
16.051436
11
32.653972
21
15.908120
0
LINE
8
Layer 1
10
32.653972
20
15.908120
11
31.303500
21
15.908100
0
LINE
8
Layer 1
10
31.303500
20
15.908100
11
31.303500
21
17.076700
0
LINE
8
Layer 1
10
31.303500
20
17.076700
11
31.970470
21
17.126309
0
LINE
8
Layer 1
10
31.970470
20
17.126309
11
32.119297
21
17.363331
0
LINE
8
Layer 1
10
32.119297
20
17.363331
11
31.981494
21
18.129519
0
LINE
8
Layer 1
10
31.981494
20
18.129519
11
30.763314
21
24.247999
0
LINE
8
Layer 1
10
30.763314
20
24.247999
11
32.786300
21
24.248000
0
LINE
8
Layer 1
10
32.786300
20
24.248000
11
33.513900
21
19.314600
0
LINE
8
Layer 1
10
33.513900
20
19.314600
11
33.866600
21
24.248000
0
LINE
8
Layer 1
10
33.866600
20
24.248000
11
35.889600
21
24.248000
 0 
ENDSEC
 0 
EOF