999
"DXF R12 Output" (www.mydxf.blogspot.com)
 0 
SECTION
 2 
HEADER
 9 
$ACADVER
 1 
AC1009
 9 
$EXTMIN
 10 
 0 
 20 
 0 
 9 
$EXTMAX
 10 
 8.5 
 20 
 11 
 0 
ENDSEC
 0 
SECTION
 2 
ENTITIES
0
LINE
8
Layer 1
10
16.249800
20
25.857500
11
15.219000
21
16.933400
0
LINE
8
Layer 1
10
15.219000
20
16.933400
11
12.319700
21
16.933400
0
LINE
8
Layer 1
10
12.319700
20
16.933400
11
11.619600
21
21.607700
0
LINE
8
Layer 1
10
11.619600
20
21.607700
11
10.974700
21
16.933400
0
LINE
8
Layer 1
10
10.974700
20
16.933400
11
8.091830
21
16.933400
0
LINE
8
Layer 1
10
8.091830
20
16.933400
11
7.055550
21
25.857500
0
LINE
8
Layer 1
10
7.055550
20
25.857500
11
9.310020
21
25.857500
0
LINE
8
Layer 1
10
9.310020
20
25.857500
11
9.547042
21
22.743140
0
LINE
8
Layer 1
10
9.547042
20
22.743140
11
9.789577
21
19.739020
0
LINE
8
Layer 1
10
9.789577
20
19.739020
11
10.428986
21
25.857500
0
LINE
8
Layer 1
10
10.428986
20
25.857500
11
12.843300
21
25.857500
0
LINE
8
Layer 1
10
12.843300
20
25.857500
11
13.096859
21
22.914010
0
LINE
8
Layer 1
10
13.096859
20
22.914010
11
13.350418
21
19.524040
0
LINE
8
Layer 1
10
13.350418
20
19.524040
11
13.995340
21
25.857500
0
LINE
8
Layer 1
10
13.995340
20
25.857500
11
16.249800
21
25.857500
0
LINE
8
Layer 1
10
18.636600
20
21.414800
11
16.547500
21
21.414800
0
LINE
8
Layer 1
10
16.547500
20
21.414800
11
16.547500
21
21.905300
0
LINE
8
Layer 1
10
16.547500
20
21.905300
11
16.740425
21
23.211680
0
LINE
8
Layer 1
10
16.740425
20
23.211680
11
17.036703
21
23.647140
0
LINE
8
Layer 1
10
17.036703
20
23.647140
11
17.528662
21
24.027478
0
LINE
8
Layer 1
10
17.528662
20
24.027478
11
18.206657
21
24.292062
0
LINE
8
Layer 1
10
18.206657
20
24.292062
11
19.061042
21
24.380256
0
LINE
8
Layer 1
10
19.061042
20
24.380256
11
20.051849
21
24.279659
0
LINE
8
Layer 1
10
20.051849
20
24.279659
11
20.764292
21
23.977869
0
LINE
8
Layer 1
10
20.764292
20
23.977869
11
21.223178
21
23.534141
0
LINE
8
Layer 1
10
21.223178
20
23.534141
11
21.453310
21
22.996706
0
LINE
8
Layer 1
10
21.453310
20
22.996706
11
21.569065
21
20.604436
0
LINE
8
Layer 1
10
21.569065
20
20.604436
11
21.569000
21
16.933400
0
LINE
8
Layer 1
10
21.569000
20
16.933400
11
19.402800
21
16.933400
0
LINE
8
Layer 1
10
19.402800
20
16.933400
11
19.402800
21
17.583800
0
LINE
8
Layer 1
10
19.402800
20
17.583800
11
18.873634
21
16.994000
0
LINE
8
Layer 1
10
18.873634
20
16.994000
11
18.107445
21
16.801075
0
LINE
8
Layer 1
10
18.107445
20
16.801075
11
17.546583
21
16.882379
0
LINE
8
Layer 1
10
17.546583
20
16.882379
11
17.032575
21
17.126292
0
LINE
8
Layer 1
10
17.032575
20
17.126292
11
16.668773
21
17.651324
0
LINE
8
Layer 1
10
16.668773
20
17.651324
11
16.547506
21
18.564962
0
LINE
8
Layer 1
10
16.547506
20
18.564962
11
16.547500
21
19.165800
0
LINE
8
Layer 1
10
16.547500
20
19.165800
11
16.612268
21
19.856198
0
LINE
8
Layer 1
10
16.612268
20
19.856198
11
16.806571
21
20.284770
0
LINE
8
Layer 1
10
16.806571
20
20.284770
11
18.090901
21
20.979301
0
LINE
8
Layer 1
10
18.090901
20
20.979301
11
19.264991
21
21.558077
0
LINE
8
Layer 1
10
19.264991
20
21.558077
11
19.342161
21
22.164413
0
LINE
8
Layer 1
10
19.342161
20
22.164413
11
19.253967
21
22.908553
0
LINE
8
Layer 1
10
19.253967
20
22.908553
11
18.972846
21
23.084942
0
LINE
8
Layer 1
10
18.972846
20
23.084942
11
18.691727
21
22.936114
0
LINE
8
Layer 1
10
18.691727
20
22.936114
11
18.636606
21
22.180950
0
LINE
8
Layer 1
10
18.636606
20
22.180950
11
18.636600
21
21.414800
0
LINE
8
Layer 1
10
19.342155
20
20.411590
11
18.719300
21
19.755600
0
LINE
8
Layer 1
10
18.719300
20
19.755600
11
18.636618
21
18.994924
0
LINE
8
Layer 1
10
18.636618
20
18.994924
11
18.708276
21
18.261808
0
LINE
8
Layer 1
10
18.708276
20
18.261808
11
19.005932
21
18.096444
0
LINE
8
Layer 1
10
19.005932
20
18.096444
11
19.276027
21
18.223223
0
LINE
8
Layer 1
10
19.276027
20
18.223223
11
19.342172
21
18.906729
0
LINE
8
Layer 1
10
19.342172
20
18.906729
11
19.342155
21
20.411590
0
LINE
8
Layer 1
10
24.628300
20
25.857500
11
24.628300
21
16.933400
0
LINE
8
Layer 1
10
24.628300
20
16.933400
11
22.335200
21
16.933400
0
LINE
8
Layer 1
10
22.335200
20
16.933400
11
22.335200
21
25.857500
0
LINE
8
Layer 1
10
22.335200
20
25.857500
11
24.628300
21
25.857500
0
LINE
8
Layer 1
10
27.775700
20
25.223700
11
27.775700
21
24.071600
0
LINE
8
Layer 1
10
27.775700
20
24.071600
11
28.376500
21
24.071600
0
LINE
8
Layer 1
10
28.376500
20
24.071600
11
28.376500
21
22.914100
0
LINE
8
Layer 1
10
28.376500
20
22.914100
11
27.775700
21
22.914100
0
LINE
8
Layer 1
10
27.775700
20
22.914100
11
27.775700
21
19.000400
0
LINE
8
Layer 1
10
27.775700
20
19.000400
11
27.847358
21
18.195626
0
LINE
8
Layer 1
10
27.847358
20
18.195626
11
28.470232
21
18.112944
0
LINE
8
Layer 1
10
28.470232
20
18.112944
11
28.470200
21
16.933400
0
LINE
8
Layer 1
10
28.470200
20
16.933400
11
27.571800
21
16.933400
0
LINE
8
Layer 1
10
27.571800
20
16.933400
11
26.485900
21
16.994000
0
LINE
8
Layer 1
10
26.485900
20
16.994000
11
25.912600
21
17.286200
0
LINE
8
Layer 1
10
25.912600
20
17.286200
11
25.603900
21
17.809800
0
LINE
8
Layer 1
10
25.603900
20
17.809800
11
25.543300
21
19.198900
0
LINE
8
Layer 1
10
25.543300
20
19.198900
11
25.543300
21
22.914100
0
LINE
8
Layer 1
10
25.543300
20
22.914100
11
25.063700
21
22.914100
0
LINE
8
Layer 1
10
25.063700
20
22.914100
11
25.063700
21
24.071600
0
LINE
8
Layer 1
10
25.063700
20
24.071600
11
25.543300
21
24.071600
0
LINE
8
Layer 1
10
25.543300
20
24.071600
11
25.543300
21
25.223700
0
LINE
8
Layer 1
10
25.543300
20
25.223700
11
27.775700
21
25.223700
0
LINE
8
Layer 1
10
33.905200
20
21.679300
11
33.905200
21
19.887900
0
LINE
8
Layer 1
10
33.905200
20
19.887900
11
33.805982
21
18.438200
0
LINE
8
Layer 1
10
33.805982
20
18.438200
11
33.381546
21
17.578305
0
LINE
8
Layer 1
10
33.381546
20
17.578305
11
32.543699
21
16.988505
0
LINE
8
Layer 1
10
32.543699
20
16.988505
11
31.375129
21
16.801092
0
LINE
8
Layer 1
10
31.375129
20
16.801092
11
30.123869
21
16.960944
0
LINE
8
Layer 1
10
30.123869
20
16.960944
11
29.324608
21
17.451525
0
LINE
8
Layer 1
10
29.324608
20
17.451525
11
28.922222
21
18.245274
0
LINE
8
Layer 1
10
28.922222
20
18.245274
11
28.800954
21
19.645364
0
LINE
8
Layer 1
10
28.800954
20
19.645364
11
28.801000
21
21.519500
0
LINE
8
Layer 1
10
28.801000
20
21.519500
11
29.021486
21
23.112510
0
LINE
8
Layer 1
10
29.021486
20
23.112510
11
29.330166
21
23.629274
0
LINE
8
Layer 1
10
29.330166
20
23.629274
11
29.815235
21
24.033039
0
LINE
8
Layer 1
10
29.815235
20
24.033039
11
30.468424
21
24.293488
0
LINE
8
Layer 1
10
30.468424
20
24.293488
11
31.281465
21
24.380304
0
LINE
8
Layer 1
10
31.281465
20
24.380304
11
32.565795
21
24.154306
0
LINE
8
Layer 1
10
32.565795
20
24.154306
11
33.398127
21
23.575530
0
LINE
8
Layer 1
10
33.398127
20
23.575530
11
33.795002
21
22.836902
0
LINE
8
Layer 1
10
33.795002
20
22.836902
11
33.905246
21
21.679352
0
LINE
8
Layer 1
10
33.905246
20
21.679352
11
33.905200
21
21.679300
0
LINE
8
Layer 1
10
31.678290
20
22.230515
11
31.617657
21
22.936070
0
LINE
8
Layer 1
10
31.617657
20
22.936070
11
31.358586
21
23.084898
0
LINE
8
Layer 1
10
31.358586
20
23.084898
11
31.094003
21
22.936070
0
LINE
8
Layer 1
10
31.094003
20
22.936070
11
31.027859
21
22.230515
0
LINE
8
Layer 1
10
31.027859
20
22.230515
11
31.027900
21
18.928800
0
LINE
8
Layer 1
10
31.027900
20
18.928800
11
31.094044
21
18.250806
0
LINE
8
Layer 1
10
31.094044
20
18.250806
11
31.353115
21
18.096466
0
LINE
8
Layer 1
10
31.353115
20
18.096466
11
31.612186
21
18.239782
0
LINE
8
Layer 1
10
31.612186
20
18.239782
11
31.678331
21
18.857143
0
LINE
8
Layer 1
10
31.678331
20
18.857143
11
31.678290
21
22.230515
0
LINE
8
Layer 1
10
36.903800
20
24.248000
11
36.865215
21
23.575518
0
LINE
8
Layer 1
10
36.865215
20
23.575518
11
37.455014
21
24.176342
0
LINE
8
Layer 1
10
37.455014
20
24.176342
11
38.265302
21
24.380291
0
LINE
8
Layer 1
10
38.265302
20
24.380291
11
38.786199
21
24.312767
0
LINE
8
Layer 1
10
38.786199
20
24.312767
11
39.202367
21
24.110196
0
LINE
8
Layer 1
10
39.202367
20
24.110196
11
39.670901
21
23.426690
0
LINE
8
Layer 1
10
39.670901
20
23.426690
11
39.775631
21
22.059680
0
LINE
8
Layer 1
10
39.775631
20
22.059680
11
39.775700
21
16.933400
0
LINE
8
Layer 1
10
39.775700
20
16.933400
11
37.548800
21
16.933400
0
LINE
8
Layer 1
10
37.548800
20
16.933400
11
37.548800
21
21.999000
0
LINE
8
Layer 1
10
37.548800
20
21.999000
11
37.499191
21
22.919529
0
LINE
8
Layer 1
10
37.499191
20
22.919529
11
37.223584
21
23.084893
0
LINE
8
Layer 1
10
37.223584
20
23.084893
11
36.925927
21
22.891968
0
LINE
8
Layer 1
10
36.925927
20
22.891968
11
36.865294
21
21.877728
0
LINE
8
Layer 1
10
36.865294
20
21.877728
11
36.865200
21
16.933400
0
LINE
8
Layer 1
10
36.865200
20
16.933400
11
34.638300
21
16.933400
0
LINE
8
Layer 1
10
34.638300
20
16.933400
11
34.638300
21
24.248000
0
LINE
8
Layer 1
10
34.638300
20
24.248000
11
36.903800
21
24.248000
0
LINE
8
Layer 1
10
47.514700
20
23.156600
11
45.359500
21
23.156600
0
LINE
8
Layer 1
10
45.359500
20
23.156600
11
45.359500
21
23.818100
0
LINE
8
Layer 1
10
45.359500
20
23.818100
11
45.276817
21
24.407900
0
LINE
8
Layer 1
10
45.276817
20
24.407900
11
45.001207
21
24.534679
0
LINE
8
Layer 1
10
45.001207
20
24.534679
11
44.681503
21
24.363802
0
LINE
8
Layer 1
10
44.681503
20
24.363802
11
44.576773
21
23.845660
0
LINE
8
Layer 1
10
44.576773
20
23.845660
11
44.698041
21
23.173178
0
LINE
8
Layer 1
10
44.698041
20
23.173178
11
45.353984
21
22.627475
0
LINE
8
Layer 1
10
45.353984
20
22.627475
11
46.616269
21
21.789628
0
LINE
8
Layer 1
10
46.616269
20
21.789628
11
47.305284
21
21.117145
0
LINE
8
Layer 1
10
47.305284
20
21.117145
11
47.607074
21
20.346823
0
LINE
8
Layer 1
10
47.607074
20
20.346823
11
47.707670
21
19.215455
0
LINE
8
Layer 1
10
47.707670
20
19.215455
11
47.651171
21
18.387254
0
LINE
8
Layer 1
10
47.651171
20
18.387254
11
47.481672
21
17.809855
0
LINE
8
Layer 1
10
47.481672
20
17.809855
11
47.156455
21
17.393688
0
LINE
8
Layer 1
10
47.156455
20
17.393688
11
46.621775
21
17.049178
0
LINE
8
Layer 1
10
46.621775
20
17.049178
11
45.930001
21
16.821802
0
LINE
8
Layer 1
10
45.930001
20
16.821802
11
45.133495
21
16.746010
0
LINE
8
Layer 1
10
45.133495
20
16.746010
11
44.269466
21
16.834204
0
LINE
8
Layer 1
10
44.269466
20
16.834204
11
43.540485
21
17.098787
0
LINE
8
Layer 1
10
43.540485
20
17.098787
11
42.997539
21
17.499796
0
LINE
8
Layer 1
10
42.997539
20
17.499796
11
42.680591
21
17.997267
0
LINE
8
Layer 1
10
42.680591
20
17.997267
11
42.476640
21
19.546177
0
LINE
8
Layer 1
10
42.476640
20
19.546177
11
42.476600
21
20.130400
0
LINE
8
Layer 1
10
42.476600
20
20.130400
11
44.631900
21
20.130400
0
LINE
8
Layer 1
10
44.631900
20
20.130400
11
44.631900
21
19.044500
0
LINE
8
Layer 1
10
44.631900
20
19.044500
11
44.720094
21
18.399579
0
LINE
8
Layer 1
10
44.720094
20
18.399579
11
45.045310
21
18.256263
0
LINE
8
Layer 1
10
45.045310
20
18.256263
11
45.387064
21
18.438164
0
LINE
8
Layer 1
10
45.387064
20
18.438164
11
45.502820
21
18.978355
0
LINE
8
Layer 1
10
45.502820
20
18.978355
11
45.449077
21
19.630166
0
LINE
8
Layer 1
10
45.449077
20
19.630166
11
45.287846
21
20.009125
0
LINE
8
Layer 1
10
45.287846
20
20.009125
11
44.201956
21
20.819411
0
LINE
8
Layer 1
10
44.201956
20
20.819411
11
43.055426
21
21.651745
0
LINE
8
Layer 1
10
43.055426
20
21.651745
11
42.586895
21
22.368324
0
LINE
8
Layer 1
10
42.586895
20
22.368324
11
42.404994
21
23.536904
0
LINE
8
Layer 1
10
42.404994
20
23.536904
11
42.469762
21
24.424359
0
LINE
8
Layer 1
10
42.469762
20
24.424359
11
42.664063
21
25.036204
0
LINE
8
Layer 1
10
42.664063
20
25.036204
11
43.008573
21
25.457884
0
LINE
8
Layer 1
10
43.008573
20
25.457884
11
43.512936
21
25.774832
0
LINE
8
Layer 1
10
43.512936
20
25.774832
11
44.157857
21
25.977403
0
LINE
8
Layer 1
10
44.157857
20
25.977403
11
44.924046
21
26.044927
0
LINE
8
Layer 1
10
44.924046
20
26.044927
11
45.760514
21
25.971891
0
LINE
8
Layer 1
10
45.760514
20
25.971891
11
46.461936
21
25.752783
0
LINE
8
Layer 1
10
46.461936
20
25.752783
11
46.992480
21
25.422054
0
LINE
8
Layer 1
10
46.992480
20
25.422054
11
47.305294
21
25.014155
0
LINE
8
Layer 1
10
47.305294
20
25.014155
11
47.514754
21
23.509335
0
LINE
8
Layer 1
10
47.514754
20
23.509335
11
47.514700
21
23.156600
0
LINE
8
Layer 1
10
53.737900
20
20.632000
11
53.671753
21
18.724800
0
LINE
8
Layer 1
10
53.671753
20
18.724800
11
53.274878
21
17.705050
0
LINE
8
Layer 1
10
53.274878
20
17.705050
11
52.884895
21
17.295773
0
LINE
8
Layer 1
10
52.884895
20
17.295773
11
52.376399
21
16.993983
0
LINE
8
Layer 1
10
52.376399
20
16.993983
11
51.053479
21
16.745936
0
LINE
8
Layer 1
10
51.053479
20
16.745936
11
49.763639
21
16.977446
0
LINE
8
Layer 1
10
49.763639
20
16.977446
11
49.251011
21
17.272346
0
LINE
8
Layer 1
10
49.251011
20
17.272346
11
48.848624
21
17.683001
0
LINE
8
Layer 1
10
48.848624
20
17.683001
11
48.435211
21
18.702751
0
LINE
8
Layer 1
10
48.435211
20
18.702751
11
48.369066
21
20.632001
0
LINE
8
Layer 1
10
48.369066
20
20.632001
11
48.369100
21
22.158900
0
LINE
8
Layer 1
10
48.369100
20
22.158900
11
48.429733
21
24.060590
0
LINE
8
Layer 1
10
48.429733
20
24.060590
11
48.826608
21
25.085850
0
LINE
8
Layer 1
10
48.826608
20
25.085850
11
49.220727
21
25.495127
0
LINE
8
Layer 1
10
49.220727
20
25.495127
11
49.730602
21
25.796917
0
LINE
8
Layer 1
10
49.730602
20
25.796917
11
51.053522
21
26.044964
0
LINE
8
Layer 1
10
51.053522
20
26.044964
11
52.337852
21
25.807942
0
LINE
8
Layer 1
10
52.337852
20
25.807942
11
52.854615
21
25.517176
0
LINE
8
Layer 1
10
52.854615
20
25.517176
11
53.258381
21
25.107899
0
LINE
8
Layer 1
10
53.258381
20
25.107899
11
53.671791
21
24.088149
0
LINE
8
Layer 1
10
53.671791
20
24.088149
11
53.737938
21
22.158899
0
LINE
8
Layer 1
10
53.737938
20
22.158899
11
53.737900
21
20.632000
0
LINE
8
Layer 1
10
51.417300
20
23.564500
11
51.345641
21
24.358249
0
LINE
8
Layer 1
10
51.345641
20
24.358249
11
51.064522
21
24.534638
0
LINE
8
Layer 1
10
51.064522
20
24.534638
11
50.783403
21
24.391322
0
LINE
8
Layer 1
10
50.783403
20
24.391322
11
50.689694
21
23.564500
0
LINE
8
Layer 1
10
50.689694
20
23.564500
11
50.689700
21
19.397300
0
LINE
8
Layer 1
10
50.689700
20
19.397300
11
50.750335
21
18.438186
0
LINE
8
Layer 1
10
50.750335
20
18.438186
11
51.047992
21
18.256285
0
LINE
8
Layer 1
10
51.047992
20
18.256285
11
51.351158
21
18.465747
0
LINE
8
Layer 1
10
51.351158
20
18.465747
11
51.417306
21
19.463446
0
LINE
8
Layer 1
10
51.417306
20
19.463446
11
51.417300
21
23.564500
 0 
ENDSEC
 0 
EOF