solid OpenSCAD_Model
  facet normal 0 -0 1
    outer loop
      vertex 9.49902 -5.16895 3
      vertex 9.66992 -4.5957 3
      vertex 8.64453 -5.16895 3
    endloop
  endfacet
  facet normal 0 0 1
    outer loop
      vertex 9.70312 2.22852 3
      vertex 11.4121 2.22852 3
      vertex 11.4121 3.06641 3
    endloop
  endfacet
  facet normal 0 0 1
    outer loop
      vertex 9.70312 -3.27246 3
      vertex 9.66992 -4.5957 3
      vertex 10.0674 -4.24805 3
    endloop
  endfacet
  facet normal 0 0 1
    outer loop
      vertex 9.70312 2.22852 3
      vertex 6.96973 3.06641 3
      vertex 8.64453 2.22852 3
    endloop
  endfacet
  facet normal 0 0 1
    outer loop
      vertex 10.668 -4.07715 3
      vertex 11.4121 -4.02246 3
      vertex 11.4121 -3.27246 3
    endloop
  endfacet
  facet normal -0 0 1
    outer loop
      vertex 9.70312 -3.27246 3
      vertex 10.668 -4.07715 3
      vertex 11.4121 -3.27246 3
    endloop
  endfacet
  facet normal 0 0 1
    outer loop
      vertex 9.70312 -3.27246 3
      vertex 10.0674 -4.24805 3
      vertex 10.668 -4.07715 3
    endloop
  endfacet
  facet normal 0 0 1
    outer loop
      vertex 8.64453 -5.16895 3
      vertex 9.66992 -4.5957 3
      vertex 9.70312 -3.27246 3
    endloop
  endfacet
  facet normal 0 0 1
    outer loop
      vertex 8.64453 2.22852 3
      vertex 8.64453 -5.16895 3
      vertex 9.70312 -3.27246 3
    endloop
  endfacet
  facet normal 0 0 1
    outer loop
      vertex 9.70312 2.22852 3
      vertex 8.64453 2.22852 3
      vertex 9.70312 -3.27246 3
    endloop
  endfacet
  facet normal 0 0 1
    outer loop
      vertex -12.5107 3.06641 3
      vertex -10.835 2.22852 3
      vertex -9.77637 2.22852 3
    endloop
  endfacet
  facet normal 0 0 1
    outer loop
      vertex 6.96973 3.06641 3
      vertex 6.96973 2.22852 3
      vertex 8.64453 2.22852 3
    endloop
  endfacet
  facet normal 0 0 1
    outer loop
      vertex 11.4121 3.06641 3
      vertex 6.96973 3.06641 3
      vertex 9.70312 2.22852 3
    endloop
  endfacet
  facet normal 0 -0 1
    outer loop
      vertex 4.7373 1.59473 3
      vertex 4.7373 2.75781 3
      vertex 4.66016 1.59473 3
    endloop
  endfacet
  facet normal 0 0 1
    outer loop
      vertex 3.68359 3.09375 3
      vertex 3.60156 2.08594 3
      vertex 4.7373 2.75781 3
    endloop
  endfacet
  facet normal 0 -0 1
    outer loop
      vertex 1 1.78809 3
      vertex 1.12109 3.0332 3
      vertex 0.172852 2.43848 3
    endloop
  endfacet
  facet normal 0 -0 1
    outer loop
      vertex -9.98047 -5.16895 3
      vertex -9.80957 -4.5957 3
      vertex -10.835 -5.16895 3
    endloop
  endfacet
  facet normal 0 0 1
    outer loop
      vertex -8.06836 3.06641 3
      vertex -9.77637 2.22852 3
      vertex -8.06836 2.22852 3
    endloop
  endfacet
  facet normal 0 0 1
    outer loop
      vertex 2.41113 2.28418 3
      vertex 2.38867 3.2373 3
      vertex 1.65527 2.17383 3
    endloop
  endfacet
  facet normal 0 0 1
    outer loop
      vertex -9.77637 -3.27246 3
      vertex -9.80957 -4.5957 3
      vertex -9.41309 -4.24805 3
    endloop
  endfacet
  facet normal 0 0 1
    outer loop
      vertex -8.8125 -4.07715 3
      vertex -8.06836 -4.02246 3
      vertex -8.06836 -3.27246 3
    endloop
  endfacet
  facet normal -0 0 1
    outer loop
      vertex -9.77637 -3.27246 3
      vertex -8.8125 -4.07715 3
      vertex -8.06836 -3.27246 3
    endloop
  endfacet
  facet normal 0 0 1
    outer loop
      vertex -9.77637 -3.27246 3
      vertex -9.41309 -4.24805 3
      vertex -8.8125 -4.07715 3
    endloop
  endfacet
  facet normal 0 0 1
    outer loop
      vertex -10.835 -5.16895 3
      vertex -9.80957 -4.5957 3
      vertex -9.77637 -3.27246 3
    endloop
  endfacet
  facet normal 0 0 1
    outer loop
      vertex -10.835 2.22852 3
      vertex -10.835 -5.16895 3
      vertex -9.77637 -3.27246 3
    endloop
  endfacet
  facet normal 0 0 1
    outer loop
      vertex -9.77637 2.22852 3
      vertex -10.835 2.22852 3
      vertex -9.77637 -3.27246 3
    endloop
  endfacet
  facet normal 0 0 1
    outer loop
      vertex -12.5107 3.06641 3
      vertex -12.5107 2.22852 3
      vertex -10.835 2.22852 3
    endloop
  endfacet
  facet normal 0 0 1
    outer loop
      vertex -8.06836 3.06641 3
      vertex -12.5107 3.06641 3
      vertex -9.77637 2.22852 3
    endloop
  endfacet
  facet normal 0 0 1
    outer loop
      vertex 3.32031 -4.17676 3
      vertex -0.554688 -4.17676 3
      vertex -0.554688 -5.14062 3
    endloop
  endfacet
  facet normal 0 -0 1
    outer loop
      vertex 4.66016 1.59473 3
      vertex 4.7373 2.75781 3
      vertex 3.60156 2.08594 3
    endloop
  endfacet
  facet normal 0 0 1
    outer loop
      vertex 3.68359 3.09375 3
      vertex 2.41113 2.28418 3
      vertex 3.60156 2.08594 3
    endloop
  endfacet
  facet normal 0 0 1
    outer loop
      vertex 3.68359 3.09375 3
      vertex 2.38867 3.2373 3
      vertex 2.41113 2.28418 3
    endloop
  endfacet
  facet normal 0 -0 1
    outer loop
      vertex 0.635742 1.21973 3
      vertex 1 1.78809 3
      vertex 0.172852 2.43848 3
    endloop
  endfacet
  facet normal 0 -0 1
    outer loop
      vertex 0.508789 0.454102 3
      vertex 0.635742 1.21973 3
      vertex -0.400391 1.55664 3
    endloop
  endfacet
  facet normal 0 0 1
    outer loop
      vertex -0.610352 0.458984 3
      vertex 0.658203 -0.262695 3
      vertex 0.508789 0.454102 3
    endloop
  endfacet
  facet normal 0 0 1
    outer loop
      vertex 0.658203 -0.262695 3
      vertex -0.367188 -0.742188 3
      vertex 0.316406 -1.52539 3
    endloop
  endfacet
  facet normal 0 0 1
    outer loop
      vertex 1.06055 -0.731445 3
      vertex 0.316406 -1.52539 3
      vertex 1.23633 -1.92188 3
    endloop
  endfacet
  facet normal 0 0 1
    outer loop
      vertex 1.76074 -1.02344 3
      vertex 1.23633 -1.92188 3
      vertex 2.40527 -2.03711 3
    endloop
  endfacet
  facet normal 0 0 1
    outer loop
      vertex -0.554688 -5.14062 3
      vertex 4.38379 -5.14062 3
      vertex 3.32031 -4.17676 3
    endloop
  endfacet
  facet normal 0 -0 1
    outer loop
      vertex 4.38379 -5.14062 3
      vertex 4.38379 -0.913086 3
      vertex 3.32031 -1.99316 3
    endloop
  endfacet
  facet normal -0 0 1
    outer loop
      vertex 3.32031 -4.17676 3
      vertex 4.38379 -5.14062 3
      vertex 3.32031 -1.99316 3
    endloop
  endfacet
  facet normal 0 -0 1
    outer loop
      vertex 2.83496 -2.02637 3
      vertex 3.32031 -1.99316 3
      vertex 2.67578 -1.11133 3
    endloop
  endfacet
  facet normal 0 0 1
    outer loop
      vertex 4.38379 -0.913086 3
      vertex 3.6123 -1.0459 3
      vertex 3.32031 -1.99316 3
    endloop
  endfacet
  facet normal 0 -0 1
    outer loop
      vertex 3.32031 -1.99316 3
      vertex 3.6123 -1.0459 3
      vertex 2.67578 -1.11133 3
    endloop
  endfacet
  facet normal 0 0 1
    outer loop
      vertex 2.83496 -2.02637 3
      vertex 2.67578 -1.11133 3
      vertex 2.40527 -2.03711 3
    endloop
  endfacet
  facet normal 0 -0 1
    outer loop
      vertex 2.40527 -2.03711 3
      vertex 2.67578 -1.11133 3
      vertex 1.76074 -1.02344 3
    endloop
  endfacet
  facet normal 0 -0 1
    outer loop
      vertex 1.23633 -1.92188 3
      vertex 1.76074 -1.02344 3
      vertex 1.06055 -0.731445 3
    endloop
  endfacet
  facet normal 0 0 1
    outer loop
      vertex 0.316406 -1.52539 3
      vertex 1.06055 -0.731445 3
      vertex 0.658203 -0.262695 3
    endloop
  endfacet
  facet normal 0 0 1
    outer loop
      vertex -0.610352 0.458984 3
      vertex -0.367188 -0.742188 3
      vertex 0.658203 -0.262695 3
    endloop
  endfacet
  facet normal 0 0 1
    outer loop
      vertex -0.400391 1.55664 3
      vertex -0.610352 0.458984 3
      vertex 0.508789 0.454102 3
    endloop
  endfacet
  facet normal -0 0 1
    outer loop
      vertex -0.400391 1.55664 3
      vertex 0.635742 1.21973 3
      vertex 0.172852 2.43848 3
    endloop
  endfacet
  facet normal 0 0 1
    outer loop
      vertex 1 1.78809 3
      vertex 1.65527 2.17383 3
      vertex 1.12109 3.0332 3
    endloop
  endfacet
  facet normal -0 0 1
    outer loop
      vertex 1.12109 3.0332 3
      vertex 1.65527 2.17383 3
      vertex 2.38867 3.2373 3
    endloop
  endfacet
  facet normal 0 0 1
    outer loop
      vertex -3.31641 -1.51953 3
      vertex -4.63379 -3.09082 3
      vertex -3.31641 -3.09082 3
    endloop
  endfacet
  facet normal 0 0 1
    outer loop
      vertex -4.63379 1.49609 3
      vertex -3.31641 1.49609 3
      vertex -3.31641 3.06641 3
    endloop
  endfacet
  facet normal -0 0 1
    outer loop
      vertex -4.63379 -1.51953 3
      vertex -4.63379 -3.09082 3
      vertex -3.31641 -1.51953 3
    endloop
  endfacet
  facet normal 0 0 1
    outer loop
      vertex -4.63379 1.49609 3
      vertex -3.31641 3.06641 3
      vertex -4.63379 3.06641 3
    endloop
  endfacet
  facet normal 0 0 -1
    outer loop
      vertex 8.64453 -5.16895 2
      vertex 9.66992 -4.5957 2
      vertex 9.49902 -5.16895 2
    endloop
  endfacet
  facet normal 0 -0 -1
    outer loop
      vertex 11.4121 3.06641 2
      vertex 11.4121 2.22852 2
      vertex 9.70312 2.22852 2
    endloop
  endfacet
  facet normal -0 0 -1
    outer loop
      vertex 10.0674 -4.24805 2
      vertex 9.66992 -4.5957 2
      vertex 9.70312 -3.27246 2
    endloop
  endfacet
  facet normal 0 0 -1
    outer loop
      vertex 8.64453 2.22852 2
      vertex 6.96973 3.06641 2
      vertex 9.70312 2.22852 2
    endloop
  endfacet
  facet normal 0 -0 -1
    outer loop
      vertex 11.4121 -3.27246 2
      vertex 11.4121 -4.02246 2
      vertex 10.668 -4.07715 2
    endloop
  endfacet
  facet normal -0 0 -1
    outer loop
      vertex 11.4121 -3.27246 2
      vertex 10.668 -4.07715 2
      vertex 9.70312 -3.27246 2
    endloop
  endfacet
  facet normal -0 0 -1
    outer loop
      vertex 10.668 -4.07715 2
      vertex 10.0674 -4.24805 2
      vertex 9.70312 -3.27246 2
    endloop
  endfacet
  facet normal 0 0 -1
    outer loop
      vertex 9.70312 -3.27246 2
      vertex 9.66992 -4.5957 2
      vertex 8.64453 -5.16895 2
    endloop
  endfacet
  facet normal -0 0 -1
    outer loop
      vertex 9.70312 -3.27246 2
      vertex 8.64453 -5.16895 2
      vertex 8.64453 2.22852 2
    endloop
  endfacet
  facet normal 0 0 -1
    outer loop
      vertex 9.70312 -3.27246 2
      vertex 8.64453 2.22852 2
      vertex 9.70312 2.22852 2
    endloop
  endfacet
  facet normal 0 0 -1
    outer loop
      vertex -9.77637 2.22852 2
      vertex -10.835 2.22852 2
      vertex -12.5107 3.06641 2
    endloop
  endfacet
  facet normal 0 0 -1
    outer loop
      vertex 8.64453 2.22852 2
      vertex 6.96973 2.22852 2
      vertex 6.96973 3.06641 2
    endloop
  endfacet
  facet normal 0 0 -1
    outer loop
      vertex 9.70312 2.22852 2
      vertex 6.96973 3.06641 2
      vertex 11.4121 3.06641 2
    endloop
  endfacet
  facet normal 0 0 -1
    outer loop
      vertex 4.66016 1.59473 2
      vertex 4.7373 2.75781 2
      vertex 4.7373 1.59473 2
    endloop
  endfacet
  facet normal -0 0 -1
    outer loop
      vertex 4.7373 2.75781 2
      vertex 3.60156 2.08594 2
      vertex 3.68359 3.09375 2
    endloop
  endfacet
  facet normal 0 0 -1
    outer loop
      vertex 0.172852 2.43848 2
      vertex 1.12109 3.0332 2
      vertex 1 1.78809 2
    endloop
  endfacet
  facet normal 0 0 -1
    outer loop
      vertex -10.835 -5.16895 2
      vertex -9.80957 -4.5957 2
      vertex -9.98047 -5.16895 2
    endloop
  endfacet
  facet normal 0 0 -1
    outer loop
      vertex -8.06836 2.22852 2
      vertex -9.77637 2.22852 2
      vertex -8.06836 3.06641 2
    endloop
  endfacet
  facet normal 0 0 -1
    outer loop
      vertex 1.65527 2.17383 2
      vertex 2.38867 3.2373 2
      vertex 2.41113 2.28418 2
    endloop
  endfacet
  facet normal -0 0 -1
    outer loop
      vertex -9.41309 -4.24805 2
      vertex -9.80957 -4.5957 2
      vertex -9.77637 -3.27246 2
    endloop
  endfacet
  facet normal 0 -0 -1
    outer loop
      vertex -8.06836 -3.27246 2
      vertex -8.06836 -4.02246 2
      vertex -8.8125 -4.07715 2
    endloop
  endfacet
  facet normal -0 0 -1
    outer loop
      vertex -8.06836 -3.27246 2
      vertex -8.8125 -4.07715 2
      vertex -9.77637 -3.27246 2
    endloop
  endfacet
  facet normal -0 0 -1
    outer loop
      vertex -8.8125 -4.07715 2
      vertex -9.41309 -4.24805 2
      vertex -9.77637 -3.27246 2
    endloop
  endfacet
  facet normal 0 0 -1
    outer loop
      vertex -9.77637 -3.27246 2
      vertex -9.80957 -4.5957 2
      vertex -10.835 -5.16895 2
    endloop
  endfacet
  facet normal -0 0 -1
    outer loop
      vertex -9.77637 -3.27246 2
      vertex -10.835 -5.16895 2
      vertex -10.835 2.22852 2
    endloop
  endfacet
  facet normal 0 0 -1
    outer loop
      vertex -9.77637 -3.27246 2
      vertex -10.835 2.22852 2
      vertex -9.77637 2.22852 2
    endloop
  endfacet
  facet normal 0 0 -1
    outer loop
      vertex -10.835 2.22852 2
      vertex -12.5107 2.22852 2
      vertex -12.5107 3.06641 2
    endloop
  endfacet
  facet normal 0 0 -1
    outer loop
      vertex -9.77637 2.22852 2
      vertex -12.5107 3.06641 2
      vertex -8.06836 3.06641 2
    endloop
  endfacet
  facet normal 0 0 -1
    outer loop
      vertex -0.554688 -5.14062 2
      vertex -0.554688 -4.17676 2
      vertex 3.32031 -4.17676 2
    endloop
  endfacet
  facet normal 0 0 -1
    outer loop
      vertex 3.60156 2.08594 2
      vertex 4.7373 2.75781 2
      vertex 4.66016 1.59473 2
    endloop
  endfacet
  facet normal 0 0 -1
    outer loop
      vertex 3.60156 2.08594 2
      vertex 2.41113 2.28418 2
      vertex 3.68359 3.09375 2
    endloop
  endfacet
  facet normal 0 0 -1
    outer loop
      vertex 2.41113 2.28418 2
      vertex 2.38867 3.2373 2
      vertex 3.68359 3.09375 2
    endloop
  endfacet
  facet normal 0 0 -1
    outer loop
      vertex 0.172852 2.43848 2
      vertex 1 1.78809 2
      vertex 0.635742 1.21973 2
    endloop
  endfacet
  facet normal 0 0 -1
    outer loop
      vertex -0.400391 1.55664 2
      vertex 0.635742 1.21973 2
      vertex 0.508789 0.454102 2
    endloop
  endfacet
  facet normal -0 -0 -1
    outer loop
      vertex 0.508789 0.454102 2
      vertex 0.658203 -0.262695 2
      vertex -0.610352 0.458984 2
    endloop
  endfacet
  facet normal 0 0 -1
    outer loop
      vertex 0.316406 -1.52539 2
      vertex -0.367188 -0.742188 2
      vertex 0.658203 -0.262695 2
    endloop
  endfacet
  facet normal 0 0 -1
    outer loop
      vertex 1.23633 -1.92188 2
      vertex 0.316406 -1.52539 2
      vertex 1.06055 -0.731445 2
    endloop
  endfacet
  facet normal 0 0 -1
    outer loop
      vertex 2.40527 -2.03711 2
      vertex 1.23633 -1.92188 2
      vertex 1.76074 -1.02344 2
    endloop
  endfacet
  facet normal 0 -0 -1
    outer loop
      vertex 3.32031 -4.17676 2
      vertex 4.38379 -5.14062 2
      vertex -0.554688 -5.14062 2
    endloop
  endfacet
  facet normal 0 0 -1
    outer loop
      vertex 3.32031 -1.99316 2
      vertex 4.38379 -0.913086 2
      vertex 4.38379 -5.14062 2
    endloop
  endfacet
  facet normal 0 0 -1
    outer loop
      vertex 3.32031 -1.99316 2
      vertex 4.38379 -5.14062 2
      vertex 3.32031 -4.17676 2
    endloop
  endfacet
  facet normal 0 0 -1
    outer loop
      vertex 2.67578 -1.11133 2
      vertex 3.32031 -1.99316 2
      vertex 2.83496 -2.02637 2
    endloop
  endfacet
  facet normal 0 0 -1
    outer loop
      vertex 3.32031 -1.99316 2
      vertex 3.6123 -1.0459 2
      vertex 4.38379 -0.913086 2
    endloop
  endfacet
  facet normal 0 0 -1
    outer loop
      vertex 2.67578 -1.11133 2
      vertex 3.6123 -1.0459 2
      vertex 3.32031 -1.99316 2
    endloop
  endfacet
  facet normal 0 0 -1
    outer loop
      vertex 2.40527 -2.03711 2
      vertex 2.67578 -1.11133 2
      vertex 2.83496 -2.02637 2
    endloop
  endfacet
  facet normal 0 0 -1
    outer loop
      vertex 1.76074 -1.02344 2
      vertex 2.67578 -1.11133 2
      vertex 2.40527 -2.03711 2
    endloop
  endfacet
  facet normal 0 0 -1
    outer loop
      vertex 1.06055 -0.731445 2
      vertex 1.76074 -1.02344 2
      vertex 1.23633 -1.92188 2
    endloop
  endfacet
  facet normal 0 -0 -1
    outer loop
      vertex 0.658203 -0.262695 2
      vertex 1.06055 -0.731445 2
      vertex 0.316406 -1.52539 2
    endloop
  endfacet
  facet normal -0 0 -1
    outer loop
      vertex 0.658203 -0.262695 2
      vertex -0.367188 -0.742188 2
      vertex -0.610352 0.458984 2
    endloop
  endfacet
  facet normal 0 0 -1
    outer loop
      vertex 0.508789 0.454102 2
      vertex -0.610352 0.458984 2
      vertex -0.400391 1.55664 2
    endloop
  endfacet
  facet normal 0 -0 -1
    outer loop
      vertex 0.172852 2.43848 2
      vertex 0.635742 1.21973 2
      vertex -0.400391 1.55664 2
    endloop
  endfacet
  facet normal 0 -0 -1
    outer loop
      vertex 1.12109 3.0332 2
      vertex 1.65527 2.17383 2
      vertex 1 1.78809 2
    endloop
  endfacet
  facet normal 0 0 -1
    outer loop
      vertex 2.38867 3.2373 2
      vertex 1.65527 2.17383 2
      vertex 1.12109 3.0332 2
    endloop
  endfacet
  facet normal 0 0 -1
    outer loop
      vertex -3.31641 -3.09082 2
      vertex -4.63379 -3.09082 2
      vertex -3.31641 -1.51953 2
    endloop
  endfacet
  facet normal 0 -0 -1
    outer loop
      vertex -3.31641 3.06641 2
      vertex -3.31641 1.49609 2
      vertex -4.63379 1.49609 2
    endloop
  endfacet
  facet normal -0 0 -1
    outer loop
      vertex -3.31641 -1.51953 2
      vertex -4.63379 -3.09082 2
      vertex -4.63379 -1.51953 2
    endloop
  endfacet
  facet normal 0 0 -1
    outer loop
      vertex -4.63379 3.06641 2
      vertex -3.31641 3.06641 2
      vertex -4.63379 1.49609 2
    endloop
  endfacet
  facet normal 0 -1 0
    outer loop
      vertex 9.70312 2.22852 3
      vertex 11.4121 2.22852 2
      vertex 11.4121 2.22852 3
    endloop
  endfacet
  facet normal 0 -1 0
    outer loop
      vertex 9.70312 2.22852 3
      vertex 9.70312 2.22852 2
      vertex 11.4121 2.22852 2
    endloop
  endfacet
  facet normal 1 -0 0
    outer loop
      vertex 9.70312 -3.27246 3
      vertex 9.70312 2.22852 2
      vertex 9.70312 2.22852 3
    endloop
  endfacet
  facet normal 1 0 0
    outer loop
      vertex 9.70312 -3.27246 3
      vertex 9.70312 -3.27246 2
      vertex 9.70312 2.22852 2
    endloop
  endfacet
  facet normal 0 1 0
    outer loop
      vertex 11.4121 -3.27246 3
      vertex 9.70312 -3.27246 2
      vertex 9.70312 -3.27246 3
    endloop
  endfacet
  facet normal 0 1 0
    outer loop
      vertex 11.4121 -3.27246 3
      vertex 11.4121 -3.27246 2
      vertex 9.70312 -3.27246 2
    endloop
  endfacet
  facet normal 1 -0 0
    outer loop
      vertex 11.4121 -4.02246 3
      vertex 11.4121 -3.27246 2
      vertex 11.4121 -3.27246 3
    endloop
  endfacet
  facet normal 1 0 0
    outer loop
      vertex 11.4121 -4.02246 3
      vertex 11.4121 -4.02246 2
      vertex 11.4121 -3.27246 2
    endloop
  endfacet
  facet normal 0.0733005 -0.99731 0
    outer loop
      vertex 10.668 -4.07715 3
      vertex 11.4121 -4.02246 2
      vertex 11.4121 -4.02246 3
    endloop
  endfacet
  facet normal 0.0733005 -0.99731 0
    outer loop
      vertex 10.668 -4.07715 3
      vertex 10.668 -4.07715 2
      vertex 11.4121 -4.02246 2
    endloop
  endfacet
  facet normal 0.273685 -0.96182 0
    outer loop
      vertex 10.0674 -4.24805 3
      vertex 10.668 -4.07715 2
      vertex 10.668 -4.07715 3
    endloop
  endfacet
  facet normal 0.273685 -0.96182 0
    outer loop
      vertex 10.0674 -4.24805 3
      vertex 10.0674 -4.24805 2
      vertex 10.668 -4.07715 2
    endloop
  endfacet
  facet normal 0.658349 -0.752713 0
    outer loop
      vertex 9.66992 -4.5957 3
      vertex 10.0674 -4.24805 2
      vertex 10.0674 -4.24805 3
    endloop
  endfacet
  facet normal 0.658349 -0.752713 0
    outer loop
      vertex 9.66992 -4.5957 3
      vertex 9.66992 -4.5957 2
      vertex 10.0674 -4.24805 2
    endloop
  endfacet
  facet normal 0.958319 -0.285699 0
    outer loop
      vertex 9.49902 -5.16895 3
      vertex 9.66992 -4.5957 2
      vertex 9.66992 -4.5957 3
    endloop
  endfacet
  facet normal 0.958319 -0.285699 0
    outer loop
      vertex 9.49902 -5.16895 3
      vertex 9.49902 -5.16895 2
      vertex 9.66992 -4.5957 2
    endloop
  endfacet
  facet normal 0 -1 0
    outer loop
      vertex 8.64453 -5.16895 3
      vertex 9.49902 -5.16895 2
      vertex 9.49902 -5.16895 3
    endloop
  endfacet
  facet normal 0 -1 0
    outer loop
      vertex 8.64453 -5.16895 3
      vertex 8.64453 -5.16895 2
      vertex 9.49902 -5.16895 2
    endloop
  endfacet
  facet normal -1 -0 0
    outer loop
      vertex 8.64453 2.22852 3
      vertex 8.64453 -5.16895 2
      vertex 8.64453 -5.16895 3
    endloop
  endfacet
  facet normal -1 0 -0
    outer loop
      vertex 8.64453 2.22852 3
      vertex 8.64453 2.22852 2
      vertex 8.64453 -5.16895 2
    endloop
  endfacet
  facet normal 0 -1 0
    outer loop
      vertex 6.96973 2.22852 3
      vertex 8.64453 2.22852 2
      vertex 8.64453 2.22852 3
    endloop
  endfacet
  facet normal 0 -1 0
    outer loop
      vertex 6.96973 2.22852 3
      vertex 6.96973 2.22852 2
      vertex 8.64453 2.22852 2
    endloop
  endfacet
  facet normal -1 -0 0
    outer loop
      vertex 6.96973 3.06641 3
      vertex 6.96973 2.22852 2
      vertex 6.96973 2.22852 3
    endloop
  endfacet
  facet normal -1 0 -0
    outer loop
      vertex 6.96973 3.06641 3
      vertex 6.96973 3.06641 2
      vertex 6.96973 2.22852 2
    endloop
  endfacet
  facet normal 0 1 0
    outer loop
      vertex 11.4121 3.06641 3
      vertex 6.96973 3.06641 2
      vertex 6.96973 3.06641 3
    endloop
  endfacet
  facet normal 0 1 0
    outer loop
      vertex 11.4121 3.06641 3
      vertex 11.4121 3.06641 2
      vertex 6.96973 3.06641 2
    endloop
  endfacet
  facet normal 1 -0 0
    outer loop
      vertex 11.4121 2.22852 3
      vertex 11.4121 3.06641 2
      vertex 11.4121 3.06641 3
    endloop
  endfacet
  facet normal 1 0 0
    outer loop
      vertex 11.4121 2.22852 3
      vertex 11.4121 2.22852 2
      vertex 11.4121 3.06641 2
    endloop
  endfacet
  facet normal 0 -1 0
    outer loop
      vertex -9.77637 2.22852 3
      vertex -8.06836 2.22852 2
      vertex -8.06836 2.22852 3
    endloop
  endfacet
  facet normal 0 -1 0
    outer loop
      vertex -9.77637 2.22852 3
      vertex -9.77637 2.22852 2
      vertex -8.06836 2.22852 2
    endloop
  endfacet
  facet normal 1 -0 0
    outer loop
      vertex -9.77637 -3.27246 3
      vertex -9.77637 2.22852 2
      vertex -9.77637 2.22852 3
    endloop
  endfacet
  facet normal 1 0 0
    outer loop
      vertex -9.77637 -3.27246 3
      vertex -9.77637 -3.27246 2
      vertex -9.77637 2.22852 2
    endloop
  endfacet
  facet normal 0 1 0
    outer loop
      vertex -8.06836 -3.27246 3
      vertex -9.77637 -3.27246 2
      vertex -9.77637 -3.27246 3
    endloop
  endfacet
  facet normal 0 1 0
    outer loop
      vertex -8.06836 -3.27246 3
      vertex -8.06836 -3.27246 2
      vertex -9.77637 -3.27246 2
    endloop
  endfacet
  facet normal 1 -0 0
    outer loop
      vertex -8.06836 -4.02246 3
      vertex -8.06836 -3.27246 2
      vertex -8.06836 -3.27246 3
    endloop
  endfacet
  facet normal 1 0 0
    outer loop
      vertex -8.06836 -4.02246 3
      vertex -8.06836 -4.02246 2
      vertex -8.06836 -3.27246 2
    endloop
  endfacet
  facet normal 0.0732965 -0.99731 0
    outer loop
      vertex -8.8125 -4.07715 3
      vertex -8.06836 -4.02246 2
      vertex -8.06836 -4.02246 3
    endloop
  endfacet
  facet normal 0.0732965 -0.99731 0
    outer loop
      vertex -8.8125 -4.07715 3
      vertex -8.8125 -4.07715 2
      vertex -8.06836 -4.02246 2
    endloop
  endfacet
  facet normal 0.273689 -0.961818 0
    outer loop
      vertex -9.41309 -4.24805 3
      vertex -8.8125 -4.07715 2
      vertex -8.8125 -4.07715 3
    endloop
  endfacet
  facet normal 0.273689 -0.961818 0
    outer loop
      vertex -9.41309 -4.24805 3
      vertex -9.41309 -4.24805 2
      vertex -8.8125 -4.07715 2
    endloop
  endfacet
  facet normal 0.659288 -0.75189 0
    outer loop
      vertex -9.80957 -4.5957 3
      vertex -9.41309 -4.24805 2
      vertex -9.41309 -4.24805 3
    endloop
  endfacet
  facet normal 0.659288 -0.75189 0
    outer loop
      vertex -9.80957 -4.5957 3
      vertex -9.80957 -4.5957 2
      vertex -9.41309 -4.24805 2
    endloop
  endfacet
  facet normal 0.958319 -0.285699 0
    outer loop
      vertex -9.98047 -5.16895 3
      vertex -9.80957 -4.5957 2
      vertex -9.80957 -4.5957 3
    endloop
  endfacet
  facet normal 0.958319 -0.285699 0
    outer loop
      vertex -9.98047 -5.16895 3
      vertex -9.98047 -5.16895 2
      vertex -9.80957 -4.5957 2
    endloop
  endfacet
  facet normal 0 -1 0
    outer loop
      vertex -10.835 -5.16895 3
      vertex -9.98047 -5.16895 2
      vertex -9.98047 -5.16895 3
    endloop
  endfacet
  facet normal 0 -1 0
    outer loop
      vertex -10.835 -5.16895 3
      vertex -10.835 -5.16895 2
      vertex -9.98047 -5.16895 2
    endloop
  endfacet
  facet normal -1 -0 0
    outer loop
      vertex -10.835 2.22852 3
      vertex -10.835 -5.16895 2
      vertex -10.835 -5.16895 3
    endloop
  endfacet
  facet normal -1 0 -0
    outer loop
      vertex -10.835 2.22852 3
      vertex -10.835 2.22852 2
      vertex -10.835 -5.16895 2
    endloop
  endfacet
  facet normal 0 -1 0
    outer loop
      vertex -12.5107 2.22852 3
      vertex -10.835 2.22852 2
      vertex -10.835 2.22852 3
    endloop
  endfacet
  facet normal 0 -1 0
    outer loop
      vertex -12.5107 2.22852 3
      vertex -12.5107 2.22852 2
      vertex -10.835 2.22852 2
    endloop
  endfacet
  facet normal -1 -0 0
    outer loop
      vertex -12.5107 3.06641 3
      vertex -12.5107 2.22852 2
      vertex -12.5107 2.22852 3
    endloop
  endfacet
  facet normal -1 0 -0
    outer loop
      vertex -12.5107 3.06641 3
      vertex -12.5107 3.06641 2
      vertex -12.5107 2.22852 2
    endloop
  endfacet
  facet normal 0 1 0
    outer loop
      vertex -8.06836 3.06641 3
      vertex -12.5107 3.06641 2
      vertex -12.5107 3.06641 3
    endloop
  endfacet
  facet normal 0 1 0
    outer loop
      vertex -8.06836 3.06641 3
      vertex -8.06836 3.06641 2
      vertex -12.5107 3.06641 2
    endloop
  endfacet
  facet normal 1 -0 0
    outer loop
      vertex -8.06836 2.22852 3
      vertex -8.06836 3.06641 2
      vertex -8.06836 3.06641 3
    endloop
  endfacet
  facet normal 1 0 0
    outer loop
      vertex -8.06836 2.22852 3
      vertex -8.06836 2.22852 2
      vertex -8.06836 3.06641 2
    endloop
  endfacet
  facet normal 0.303753 0.952751 0
    outer loop
      vertex 4.7373 2.75781 3
      vertex 3.68359 3.09375 2
      vertex 3.68359 3.09375 3
    endloop
  endfacet
  facet normal 0.303753 0.952751 0
    outer loop
      vertex 4.7373 2.75781 3
      vertex 4.7373 2.75781 2
      vertex 3.68359 3.09375 2
    endloop
  endfacet
  facet normal 1 -0 0
    outer loop
      vertex 4.7373 1.59473 3
      vertex 4.7373 2.75781 2
      vertex 4.7373 2.75781 3
    endloop
  endfacet
  facet normal 1 0 0
    outer loop
      vertex 4.7373 1.59473 3
      vertex 4.7373 1.59473 2
      vertex 4.7373 2.75781 2
    endloop
  endfacet
  facet normal 0 -1 0
    outer loop
      vertex 4.66016 1.59473 3
      vertex 4.7373 1.59473 2
      vertex 4.7373 1.59473 3
    endloop
  endfacet
  facet normal 0 -1 0
    outer loop
      vertex 4.66016 1.59473 3
      vertex 4.66016 1.59473 2
      vertex 4.7373 1.59473 2
    endloop
  endfacet
  facet normal -0.420912 -0.907102 0
    outer loop
      vertex 3.60156 2.08594 3
      vertex 4.66016 1.59473 2
      vertex 4.66016 1.59473 3
    endloop
  endfacet
  facet normal -0.420912 -0.907102 -0
    outer loop
      vertex 3.60156 2.08594 3
      vertex 3.60156 2.08594 2
      vertex 4.66016 1.59473 2
    endloop
  endfacet
  facet normal -0.164266 -0.986416 0
    outer loop
      vertex 2.41113 2.28418 3
      vertex 3.60156 2.08594 2
      vertex 3.60156 2.08594 3
    endloop
  endfacet
  facet normal -0.164266 -0.986416 -0
    outer loop
      vertex 2.41113 2.28418 3
      vertex 2.41113 2.28418 2
      vertex 3.60156 2.08594 2
    endloop
  endfacet
  facet normal 0.144461 -0.98951 0
    outer loop
      vertex 1.65527 2.17383 3
      vertex 2.41113 2.28418 2
      vertex 2.41113 2.28418 3
    endloop
  endfacet
  facet normal 0.144461 -0.98951 0
    outer loop
      vertex 1.65527 2.17383 3
      vertex 1.65527 2.17383 2
      vertex 2.41113 2.28418 2
    endloop
  endfacet
  facet normal 0.507301 -0.861769 0
    outer loop
      vertex 1 1.78809 3
      vertex 1.65527 2.17383 2
      vertex 1.65527 2.17383 3
    endloop
  endfacet
  facet normal 0.507301 -0.861769 0
    outer loop
      vertex 1 1.78809 3
      vertex 1 1.78809 2
      vertex 1.65527 2.17383 2
    endloop
  endfacet
  facet normal 0.84193 -0.539587 0
    outer loop
      vertex 0.635742 1.21973 3
      vertex 1 1.78809 2
      vertex 1 1.78809 3
    endloop
  endfacet
  facet normal 0.84193 -0.539587 0
    outer loop
      vertex 0.635742 1.21973 3
      vertex 0.635742 1.21973 2
      vertex 1 1.78809 2
    endloop
  endfacet
  facet normal 0.98653 -0.163582 0
    outer loop
      vertex 0.508789 0.454102 3
      vertex 0.635742 1.21973 2
      vertex 0.635742 1.21973 3
    endloop
  endfacet
  facet normal 0.98653 -0.163582 0
    outer loop
      vertex 0.508789 0.454102 3
      vertex 0.508789 0.454102 2
      vertex 0.635742 1.21973 2
    endloop
  endfacet
  facet normal 0.978958 0.204061 0
    outer loop
      vertex 0.658203 -0.262695 3
      vertex 0.508789 0.454102 2
      vertex 0.508789 0.454102 3
    endloop
  endfacet
  facet normal 0.978958 0.204061 0
    outer loop
      vertex 0.658203 -0.262695 3
      vertex 0.658203 -0.262695 2
      vertex 0.508789 0.454102 2
    endloop
  endfacet
  facet normal 0.758807 0.651315 0
    outer loop
      vertex 1.06055 -0.731445 3
      vertex 0.658203 -0.262695 2
      vertex 0.658203 -0.262695 3
    endloop
  endfacet
  facet normal 0.758807 0.651315 0
    outer loop
      vertex 1.06055 -0.731445 3
      vertex 1.06055 -0.731445 2
      vertex 0.658203 -0.262695 2
    endloop
  endfacet
  facet normal 0.384895 0.92296 0
    outer loop
      vertex 1.76074 -1.02344 3
      vertex 1.06055 -0.731445 2
      vertex 1.06055 -0.731445 3
    endloop
  endfacet
  facet normal 0.384895 0.92296 0
    outer loop
      vertex 1.76074 -1.02344 3
      vertex 1.76074 -1.02344 2
      vertex 1.06055 -0.731445 2
    endloop
  endfacet
  facet normal 0.0956104 0.995419 0
    outer loop
      vertex 2.67578 -1.11133 3
      vertex 1.76074 -1.02344 2
      vertex 1.76074 -1.02344 3
    endloop
  endfacet
  facet normal 0.0956104 0.995419 0
    outer loop
      vertex 2.67578 -1.11133 3
      vertex 2.67578 -1.11133 2
      vertex 1.76074 -1.02344 2
    endloop
  endfacet
  facet normal -0.0696951 0.997568 0
    outer loop
      vertex 3.6123 -1.0459 3
      vertex 2.67578 -1.11133 2
      vertex 2.67578 -1.11133 3
    endloop
  endfacet
  facet normal -0.0696951 0.997568 0
    outer loop
      vertex 3.6123 -1.0459 3
      vertex 3.6123 -1.0459 2
      vertex 2.67578 -1.11133 2
    endloop
  endfacet
  facet normal -0.169657 0.985503 0
    outer loop
      vertex 4.38379 -0.913086 3
      vertex 3.6123 -1.0459 2
      vertex 3.6123 -1.0459 3
    endloop
  endfacet
  facet normal -0.169657 0.985503 0
    outer loop
      vertex 4.38379 -0.913086 3
      vertex 4.38379 -0.913086 2
      vertex 3.6123 -1.0459 2
    endloop
  endfacet
  facet normal 1 -0 0
    outer loop
      vertex 4.38379 -5.14062 3
      vertex 4.38379 -0.913086 2
      vertex 4.38379 -0.913086 3
    endloop
  endfacet
  facet normal 1 0 0
    outer loop
      vertex 4.38379 -5.14062 3
      vertex 4.38379 -5.14062 2
      vertex 4.38379 -0.913086 2
    endloop
  endfacet
  facet normal 0 -1 0
    outer loop
      vertex -0.554688 -5.14062 3
      vertex 4.38379 -5.14062 2
      vertex 4.38379 -5.14062 3
    endloop
  endfacet
  facet normal 0 -1 0
    outer loop
      vertex -0.554688 -5.14062 3
      vertex -0.554688 -5.14062 2
      vertex 4.38379 -5.14062 2
    endloop
  endfacet
  facet normal -1 -0 0
    outer loop
      vertex -0.554688 -4.17676 3
      vertex -0.554688 -5.14062 2
      vertex -0.554688 -5.14062 3
    endloop
  endfacet
  facet normal -1 0 -0
    outer loop
      vertex -0.554688 -4.17676 3
      vertex -0.554688 -4.17676 2
      vertex -0.554688 -5.14062 2
    endloop
  endfacet
  facet normal 0 1 0
    outer loop
      vertex 3.32031 -4.17676 3
      vertex -0.554688 -4.17676 2
      vertex -0.554688 -4.17676 3
    endloop
  endfacet
  facet normal 0 1 0
    outer loop
      vertex 3.32031 -4.17676 3
      vertex 3.32031 -4.17676 2
      vertex -0.554688 -4.17676 2
    endloop
  endfacet
  facet normal -1 -0 0
    outer loop
      vertex 3.32031 -1.99316 3
      vertex 3.32031 -4.17676 2
      vertex 3.32031 -4.17676 3
    endloop
  endfacet
  facet normal -1 0 -0
    outer loop
      vertex 3.32031 -1.99316 3
      vertex 3.32031 -1.99316 2
      vertex 3.32031 -4.17676 2
    endloop
  endfacet
  facet normal 0.0682652 -0.997667 0
    outer loop
      vertex 2.83496 -2.02637 3
      vertex 3.32031 -1.99316 2
      vertex 3.32031 -1.99316 3
    endloop
  endfacet
  facet normal 0.0682652 -0.997667 0
    outer loop
      vertex 2.83496 -2.02637 3
      vertex 2.83496 -2.02637 2
      vertex 3.32031 -1.99316 2
    endloop
  endfacet
  facet normal 0.024987 -0.999688 0
    outer loop
      vertex 2.40527 -2.03711 3
      vertex 2.83496 -2.02637 2
      vertex 2.83496 -2.02637 3
    endloop
  endfacet
  facet normal 0.024987 -0.999688 0
    outer loop
      vertex 2.40527 -2.03711 3
      vertex 2.40527 -2.03711 2
      vertex 2.83496 -2.02637 2
    endloop
  endfacet
  facet normal -0.098101 -0.995176 0
    outer loop
      vertex 1.23633 -1.92188 3
      vertex 2.40527 -2.03711 2
      vertex 2.40527 -2.03711 3
    endloop
  endfacet
  facet normal -0.098101 -0.995176 -0
    outer loop
      vertex 1.23633 -1.92188 3
      vertex 1.23633 -1.92188 2
      vertex 2.40527 -2.03711 2
    endloop
  endfacet
  facet normal -0.395805 -0.918335 0
    outer loop
      vertex 0.316406 -1.52539 3
      vertex 1.23633 -1.92188 2
      vertex 1.23633 -1.92188 3
    endloop
  endfacet
  facet normal -0.395805 -0.918335 -0
    outer loop
      vertex 0.316406 -1.52539 3
      vertex 0.316406 -1.52539 2
      vertex 1.23633 -1.92188 2
    endloop
  endfacet
  facet normal -0.75339 -0.657574 0
    outer loop
      vertex -0.367188 -0.742188 3
      vertex 0.316406 -1.52539 2
      vertex 0.316406 -1.52539 3
    endloop
  endfacet
  facet normal -0.75339 -0.657574 -0
    outer loop
      vertex -0.367188 -0.742188 3
      vertex -0.367188 -0.742188 2
      vertex 0.316406 -1.52539 2
    endloop
  endfacet
  facet normal -0.980118 -0.198414 0
    outer loop
      vertex -0.610352 0.458984 3
      vertex -0.367188 -0.742188 2
      vertex -0.367188 -0.742188 3
    endloop
  endfacet
  facet normal -0.980118 -0.198414 -0
    outer loop
      vertex -0.610352 0.458984 3
      vertex -0.610352 0.458984 2
      vertex -0.367188 -0.742188 2
    endloop
  endfacet
  facet normal -0.982193 0.187875 0
    outer loop
      vertex -0.400391 1.55664 3
      vertex -0.610352 0.458984 2
      vertex -0.610352 0.458984 3
    endloop
  endfacet
  facet normal -0.982193 0.187875 0
    outer loop
      vertex -0.400391 1.55664 3
      vertex -0.400391 1.55664 2
      vertex -0.610352 0.458984 2
    endloop
  endfacet
  facet normal -0.838423 0.54502 0
    outer loop
      vertex 0.172852 2.43848 3
      vertex -0.400391 1.55664 2
      vertex -0.400391 1.55664 3
    endloop
  endfacet
  facet normal -0.838423 0.54502 0
    outer loop
      vertex 0.172852 2.43848 3
      vertex 0.172852 2.43848 2
      vertex -0.400391 1.55664 2
    endloop
  endfacet
  facet normal -0.531329 0.847166 0
    outer loop
      vertex 1.12109 3.0332 3
      vertex 0.172852 2.43848 2
      vertex 0.172852 2.43848 3
    endloop
  endfacet
  facet normal -0.531329 0.847166 0
    outer loop
      vertex 1.12109 3.0332 3
      vertex 1.12109 3.0332 2
      vertex 0.172852 2.43848 2
    endloop
  endfacet
  facet normal -0.158968 0.987284 0
    outer loop
      vertex 2.38867 3.2373 3
      vertex 1.12109 3.0332 2
      vertex 1.12109 3.0332 3
    endloop
  endfacet
  facet normal -0.158968 0.987284 0
    outer loop
      vertex 2.38867 3.2373 3
      vertex 2.38867 3.2373 2
      vertex 1.12109 3.0332 2
    endloop
  endfacet
  facet normal 0.110181 0.993912 0
    outer loop
      vertex 3.68359 3.09375 3
      vertex 2.38867 3.2373 2
      vertex 2.38867 3.2373 3
    endloop
  endfacet
  facet normal 0.110181 0.993912 0
    outer loop
      vertex 3.68359 3.09375 3
      vertex 3.68359 3.09375 2
      vertex 2.38867 3.2373 2
    endloop
  endfacet
  facet normal 0 -1 0
    outer loop
      vertex -4.63379 -3.09082 3
      vertex -3.31641 -3.09082 2
      vertex -3.31641 -3.09082 3
    endloop
  endfacet
  facet normal 0 -1 0
    outer loop
      vertex -4.63379 -3.09082 3
      vertex -4.63379 -3.09082 2
      vertex -3.31641 -3.09082 2
    endloop
  endfacet
  facet normal -1 -0 0
    outer loop
      vertex -4.63379 -1.51953 3
      vertex -4.63379 -3.09082 2
      vertex -4.63379 -3.09082 3
    endloop
  endfacet
  facet normal -1 0 -0
    outer loop
      vertex -4.63379 -1.51953 3
      vertex -4.63379 -1.51953 2
      vertex -4.63379 -3.09082 2
    endloop
  endfacet
  facet normal 0 1 0
    outer loop
      vertex -3.31641 -1.51953 3
      vertex -4.63379 -1.51953 2
      vertex -4.63379 -1.51953 3
    endloop
  endfacet
  facet normal 0 1 0
    outer loop
      vertex -3.31641 -1.51953 3
      vertex -3.31641 -1.51953 2
      vertex -4.63379 -1.51953 2
    endloop
  endfacet
  facet normal 1 -0 0
    outer loop
      vertex -3.31641 -3.09082 3
      vertex -3.31641 -1.51953 2
      vertex -3.31641 -1.51953 3
    endloop
  endfacet
  facet normal 1 0 0
    outer loop
      vertex -3.31641 -3.09082 3
      vertex -3.31641 -3.09082 2
      vertex -3.31641 -1.51953 2
    endloop
  endfacet
  facet normal 0 -1 0
    outer loop
      vertex -4.63379 1.49609 3
      vertex -3.31641 1.49609 2
      vertex -3.31641 1.49609 3
    endloop
  endfacet
  facet normal 0 -1 0
    outer loop
      vertex -4.63379 1.49609 3
      vertex -4.63379 1.49609 2
      vertex -3.31641 1.49609 2
    endloop
  endfacet
  facet normal -1 -0 0
    outer loop
      vertex -4.63379 3.06641 3
      vertex -4.63379 1.49609 2
      vertex -4.63379 1.49609 3
    endloop
  endfacet
  facet normal -1 0 -0
    outer loop
      vertex -4.63379 3.06641 3
      vertex -4.63379 3.06641 2
      vertex -4.63379 1.49609 2
    endloop
  endfacet
  facet normal 0 1 0
    outer loop
      vertex -3.31641 3.06641 3
      vertex -4.63379 3.06641 2
      vertex -4.63379 3.06641 3
    endloop
  endfacet
  facet normal 0 1 0
    outer loop
      vertex -3.31641 3.06641 3
      vertex -3.31641 3.06641 2
      vertex -4.63379 3.06641 2
    endloop
  endfacet
  facet normal 1 -0 0
    outer loop
      vertex -3.31641 1.49609 3
      vertex -3.31641 3.06641 2
      vertex -3.31641 3.06641 3
    endloop
  endfacet
  facet normal 1 0 0
    outer loop
      vertex -3.31641 1.49609 3
      vertex -3.31641 1.49609 2
      vertex -3.31641 3.06641 2
    endloop
  endfacet
endsolid OpenSCAD_Model
