solid OpenSCAD_Model
  facet normal 1 0 -0
    outer loop
      vertex 6 -14.8359 6.99414
      vertex 6 -13.8408 11.793
      vertex 6 -15.0234 7.36035
    endloop
  endfacet
  facet normal 1 0 0
    outer loop
      vertex 6 -16.2939 10.3652
      vertex 6 -16.1035 7.78809
      vertex 6 -15.3867 7.62207
    endloop
  endfacet
  facet normal 1 0 0
    outer loop
      vertex 6 -14.9707 10.9873
      vertex 6 -15.3867 7.62207
      vertex 6 -15.0234 7.36035
    endloop
  endfacet
  facet normal 1 0 0
    outer loop
      vertex 6 -14.8359 6.99414
      vertex 6 -10.2822 12.7812
      vertex 6 -13.8408 11.793
    endloop
  endfacet
  facet normal 1 0 0
    outer loop
      vertex 6 -16.2939 10.3652
      vertex 6 -17.3711 7.84277
      vertex 6 -16.1035 7.78809
    endloop
  endfacet
  facet normal 1 0 0
    outer loop
      vertex 6 -16.2939 10.3652
      vertex 6 -17.8125 9.92676
      vertex 6 -17.3711 7.84277
    endloop
  endfacet
  facet normal 1 0 0
    outer loop
      vertex 6 -17.3711 7.84277
      vertex 6 -17.8125 9.92676
      vertex 6 -17.8125 7.84277
    endloop
  endfacet
  facet normal 1 0 0
    outer loop
      vertex 6 -14.9707 10.9873
      vertex 6 -16.2939 10.3652
      vertex 6 -15.3867 7.62207
    endloop
  endfacet
  facet normal 1 0 0
    outer loop
      vertex 6 -13.8408 11.793
      vertex 6 -14.9707 10.9873
      vertex 6 -15.0234 7.36035
    endloop
  endfacet
  facet normal 1 -0 0
    outer loop
      vertex 6 -12.9062 12.7812
      vertex 6 -13.8408 11.793
      vertex 6 -10.2822 12.7812
    endloop
  endfacet
  facet normal 1 0 0
    outer loop
      vertex 6 -10.2822 12.7812
      vertex 6 -14.8359 6.99414
      vertex 6 -14.7363 4.50293
    endloop
  endfacet
  facet normal 1 0 -0
    outer loop
      vertex 6 -10.2822 -5.06641
      vertex 6 -10.2822 12.7812
      vertex 6 -14.7363 4.50293
    endloop
  endfacet
  facet normal 1 0 0
    outer loop
      vertex 6 -14.7363 -5.06641
      vertex 6 -10.2822 -5.06641
      vertex 6 -14.7363 4.50293
    endloop
  endfacet
  facet normal 1 0 0
    outer loop
      vertex 6 -2.41113 0.103516
      vertex 6 -2.45508 -2.00195
      vertex 6 1.85547 -2.21094
    endloop
  endfacet
  facet normal 1 0 0
    outer loop
      vertex 6 -4.04297 -1.93555
      vertex 6 -4.16406 0.522461
      vertex 6 -8.48047 -1.5
    endloop
  endfacet
  facet normal 1 0 -0
    outer loop
      vertex 6 -8.48047 -1.5
      vertex 6 -4.16406 0.522461
      vertex 6 -8.61816 0.666016
    endloop
  endfacet
  facet normal 1 0 -0
    outer loop
      vertex 6 -8.06641 -3.01562
      vertex 6 -4.04297 -1.93555
      vertex 6 -8.48047 -1.5
    endloop
  endfacet
  facet normal 1 -0 0
    outer loop
      vertex 6 -8.06641 -3.01562
      vertex 6 -7.3252 -4.06055
      vertex 6 -4.04297 -1.93555
    endloop
  endfacet
  facet normal 1 0 -0
    outer loop
      vertex 6 -4.16406 0.522461
      vertex 6 -4.16406 1.63574
      vertex 6 -8.61816 0.666016
    endloop
  endfacet
  facet normal 1 0 0
    outer loop
      vertex 6 -8.61816 0.666016
      vertex 6 -4.16406 1.63574
      vertex 6 -8.61816 1.63574
    endloop
  endfacet
  facet normal 1 0 0
    outer loop
      vertex 6 -2.62109 5.00977
      vertex 6 0.569336 7.53516
      vertex 6 -0.0683594 7.85938
    endloop
  endfacet
  facet normal 1 -0 0
    outer loop
      vertex 6 -7.3252 -4.06055
      vertex 6 -6.20312 -4.81348
      vertex 6 -4.04297 -1.93555
    endloop
  endfacet
  facet normal 1 0 0
    outer loop
      vertex 6 -3.77246 -2.48145
      vertex 6 -6.20312 -4.81348
      vertex 6 -4.79004 -5.25977
    endloop
  endfacet
  facet normal 1 0 0
    outer loop
      vertex 6 -4.04297 -1.93555
      vertex 6 -6.20312 -4.81348
      vertex 6 -3.77246 -2.48145
    endloop
  endfacet
  facet normal 1 0 0
    outer loop
      vertex 6 -3.20508 -2.66309
      vertex 6 -3.77246 -2.48145
      vertex 6 -4.79004 -5.25977
    endloop
  endfacet
  facet normal 1 0 0
    outer loop
      vertex 6 -3.17188 -5.4082
      vertex 6 -3.20508 -2.66309
      vertex 6 -4.79004 -5.25977
    endloop
  endfacet
  facet normal 1 0 0
    outer loop
      vertex 6 1.50977 6.4502
      vertex 6 -2.62109 5.00977
      vertex 6 -2.46387 4.48633
    endloop
  endfacet
  facet normal 1 0 0
    outer loop
      vertex 6 -1.75781 -5.30957
      vertex 6 -2.67578 -2.4541
      vertex 6 -3.20508 -2.66309
    endloop
  endfacet
  facet normal 1 0 0
    outer loop
      vertex 6 1.50977 6.4502
      vertex 6 1.09473 7.08203
      vertex 6 -2.62109 5.00977
    endloop
  endfacet
  facet normal 1 0 0
    outer loop
      vertex 6 -1.68359 8.11816
      vertex 6 -2.62109 5.00977
      vertex 6 -0.0683594 7.85938
    endloop
  endfacet
  facet normal 1 -0 0
    outer loop
      vertex 6 -3.16602 7.8125
      vertex 6 -2.89941 5.28223
      vertex 6 -2.46191 8.04199
    endloop
  endfacet
  facet normal 1 0 0
    outer loop
      vertex 6 1.17188 12.7812
      vertex 6 -4.35156 9.92676
      vertex 6 1.17188 9.92676
    endloop
  endfacet
  facet normal 1 0 0
    outer loop
      vertex 6 -8.38672 12.7812
      vertex 6 -8.57422 3.78613
      vertex 6 -4.35156 6.89453
    endloop
  endfacet
  facet normal 1 0 0
    outer loop
      vertex 6 -4.10938 4.77832
      vertex 6 -4.35156 6.89453
      vertex 6 -8.57422 3.78613
    endloop
  endfacet
  facet normal 1 0 0
    outer loop
      vertex 6 -4.35156 9.92676
      vertex 6 -8.38672 12.7812
      vertex 6 -4.35156 6.89453
    endloop
  endfacet
  facet normal 1 0 0
    outer loop
      vertex 6 -8.57422 3.78613
      vertex 6 -4.16406 3.78613
      vertex 6 -4.10938 4.77832
    endloop
  endfacet
  facet normal 1 0 -0
    outer loop
      vertex 6 -3.83301 5.18555
      vertex 6 -3.31543 5.37305
      vertex 6 -4.35156 6.89453
    endloop
  endfacet
  facet normal 1 -0 0
    outer loop
      vertex 6 -4.35156 6.89453
      vertex 6 -3.31543 5.37305
      vertex 6 -3.7959 7.42969
    endloop
  endfacet
  facet normal 1 0 0
    outer loop
      vertex 6 1.80566 5.58008
      vertex 6 1.50977 6.4502
      vertex 6 -2.46387 4.48633
    endloop
  endfacet
  facet normal 1 -0 0
    outer loop
      vertex 6 11.4375 11.793
      vertex 6 10.4434 6.99414
      vertex 6 14.9961 12.7812
    endloop
  endfacet
  facet normal 1 -0 0
    outer loop
      vertex 6 -8.38672 12.7812
      vertex 6 -4.35156 9.92676
      vertex 6 1.17188 12.7812
    endloop
  endfacet
  facet normal 1 0 -0
    outer loop
      vertex 6 -3.31543 5.37305
      vertex 6 -3.16602 7.8125
      vertex 6 -3.7959 7.42969
    endloop
  endfacet
  facet normal 1 0 0
    outer loop
      vertex 6 -4.35156 6.89453
      vertex 6 -4.10938 4.77832
      vertex 6 -3.83301 5.18555
    endloop
  endfacet
  facet normal 1 -0 0
    outer loop
      vertex 6 -3.31543 5.37305
      vertex 6 -2.89941 5.28223
      vertex 6 -3.16602 7.8125
    endloop
  endfacet
  facet normal 1 0 0
    outer loop
      vertex 6 -2.89941 5.28223
      vertex 6 -1.68359 8.11816
      vertex 6 -2.46191 8.04199
    endloop
  endfacet
  facet normal 1 -0 0
    outer loop
      vertex 6 -2.89941 5.28223
      vertex 6 -2.62109 5.00977
      vertex 6 -1.68359 8.11816
    endloop
  endfacet
  facet normal 1 0 0
    outer loop
      vertex 6 -2.62109 5.00977
      vertex 6 1.09473 7.08203
      vertex 6 0.569336 7.53516
    endloop
  endfacet
  facet normal 1 0 -0
    outer loop
      vertex 6 -2.41113 3.64258
      vertex 6 1.80566 5.58008
      vertex 6 -2.46387 4.48633
    endloop
  endfacet
  facet normal 1 -0 0
    outer loop
      vertex 6 7.4668 9.92676
      vertex 6 7.90723 7.84277
      vertex 6 8.98438 10.3652
    endloop
  endfacet
  facet normal 1 -0 0
    outer loop
      vertex 6 -2.41113 3.64258
      vertex 6 2.04297 3.12402
      vertex 6 1.80566 5.58008
    endloop
  endfacet
  facet normal 1 0 0
    outer loop
      vertex 6 -2.41113 3.64258
      vertex 6 -2.41113 0.103516
      vertex 6 2.04297 3.12402
    endloop
  endfacet
  facet normal 1 0 0
    outer loop
      vertex 6 2.04297 3.12402
      vertex 6 -2.41113 0.103516
      vertex 6 2.04297 0.578125
    endloop
  endfacet
  facet normal 1 0 0
    outer loop
      vertex 6 7.4668 7.84277
      vertex 6 7.90723 7.84277
      vertex 6 7.4668 9.92676
    endloop
  endfacet
  facet normal 1 0 0
    outer loop
      vertex 6 2.04297 0.578125
      vertex 6 -2.41113 0.103516
      vertex 6 1.85547 -2.21094
    endloop
  endfacet
  facet normal 1 0 0
    outer loop
      vertex 6 1.85547 -2.21094
      vertex 6 -2.45508 -2.00195
      vertex 6 1.57422 -3.0625
    endloop
  endfacet
  facet normal 1 0 0
    outer loop
      vertex 6 1.57422 -3.0625
      vertex 6 -2.45508 -2.00195
      vertex 6 1.08301 -3.85352
    endloop
  endfacet
  facet normal 1 0 0
    outer loop
      vertex 6 1.08301 -3.85352
      vertex 6 -2.45508 -2.00195
      vertex 6 0.370117 -4.51855
    endloop
  endfacet
  facet normal 1 0 0
    outer loop
      vertex 6 0.370117 -4.51855
      vertex 6 -2.45508 -2.00195
      vertex 6 -2.67578 -2.4541
    endloop
  endfacet
  facet normal 1 0 -0
    outer loop
      vertex 6 -0.581055 -5.01172
      vertex 6 0.370117 -4.51855
      vertex 6 -2.67578 -2.4541
    endloop
  endfacet
  facet normal 1 0 -0
    outer loop
      vertex 6 -1.75781 -5.30957
      vertex 6 -0.581055 -5.01172
      vertex 6 -2.67578 -2.4541
    endloop
  endfacet
  facet normal 1 0 -0
    outer loop
      vertex 6 -3.17188 -5.4082
      vertex 6 -1.75781 -5.30957
      vertex 6 -3.20508 -2.66309
    endloop
  endfacet
  facet normal 1 0 0
    outer loop
      vertex 6 11.4375 11.793
      vertex 6 10.2559 7.36035
      vertex 6 10.4434 6.99414
    endloop
  endfacet
  facet normal 1 0 0
    outer loop
      vertex 6 10.3086 10.9873
      vertex 6 9.8916 7.62207
      vertex 6 10.2559 7.36035
    endloop
  endfacet
  facet normal 1 0 0
    outer loop
      vertex 6 8.98438 10.3652
      vertex 6 9.1748 7.78809
      vertex 6 9.8916 7.62207
    endloop
  endfacet
  facet normal 1 0 0
    outer loop
      vertex 6 8.98438 10.3652
      vertex 6 7.90723 7.84277
      vertex 6 9.1748 7.78809
    endloop
  endfacet
  facet normal 1 0 0
    outer loop
      vertex 6 10.3086 10.9873
      vertex 6 8.98438 10.3652
      vertex 6 9.8916 7.62207
    endloop
  endfacet
  facet normal 1 0 0
    outer loop
      vertex 6 11.4375 11.793
      vertex 6 10.3086 10.9873
      vertex 6 10.2559 7.36035
    endloop
  endfacet
  facet normal 1 -0 0
    outer loop
      vertex 6 12.3721 12.7812
      vertex 6 11.4375 11.793
      vertex 6 14.9961 12.7812
    endloop
  endfacet
  facet normal 1 0 0
    outer loop
      vertex 6 14.9961 12.7812
      vertex 6 10.4434 6.99414
      vertex 6 10.542 4.50293
    endloop
  endfacet
  facet normal 1 0 -0
    outer loop
      vertex 6 14.9961 -5.06641
      vertex 6 14.9961 12.7812
      vertex 6 10.542 4.50293
    endloop
  endfacet
  facet normal 1 0 0
    outer loop
      vertex 6 10.542 -5.06641
      vertex 6 14.9961 -5.06641
      vertex 6 10.542 4.50293
    endloop
  endfacet
  facet normal 1 0 0
    outer loop
      vertex 6 6.92676 6.55273
      vertex 6 3.56445 2.92578
      vertex 6 6.92676 2.92578
    endloop
  endfacet
  facet normal 1 0 0
    outer loop
      vertex 6 6.92676 6.55273
      vertex 6 3.56445 6.55273
      vertex 6 3.56445 2.92578
    endloop
  endfacet
  facet normal 1 -0 0
    outer loop
      vertex 6 3.56445 -1.42871
      vertex 6 3.56445 -5.06641
      vertex 6 6.92676 -1.42871
    endloop
  endfacet
  facet normal 1 0 -0
    outer loop
      vertex 6 6.92676 -5.06641
      vertex 6 6.92676 -1.42871
      vertex 6 3.56445 -5.06641
    endloop
  endfacet
  facet normal -1 0 0
    outer loop
      vertex 5 -15.0234 7.36035
      vertex 5 -13.8408 11.793
      vertex 5 -14.8359 6.99414
    endloop
  endfacet
  facet normal -1 0 0
    outer loop
      vertex 5 -15.3867 7.62207
      vertex 5 -16.1035 7.78809
      vertex 5 -16.2939 10.3652
    endloop
  endfacet
  facet normal -1 0 0
    outer loop
      vertex 5 -15.0234 7.36035
      vertex 5 -15.3867 7.62207
      vertex 5 -14.9707 10.9873
    endloop
  endfacet
  facet normal -1 0 -0
    outer loop
      vertex 5 -13.8408 11.793
      vertex 5 -10.2822 12.7812
      vertex 5 -14.8359 6.99414
    endloop
  endfacet
  facet normal -1 0 0
    outer loop
      vertex 5 -16.1035 7.78809
      vertex 5 -17.3711 7.84277
      vertex 5 -16.2939 10.3652
    endloop
  endfacet
  facet normal -1 0 0
    outer loop
      vertex 5 -17.3711 7.84277
      vertex 5 -17.8125 9.92676
      vertex 5 -16.2939 10.3652
    endloop
  endfacet
  facet normal -1 0 0
    outer loop
      vertex 5 -17.8125 7.84277
      vertex 5 -17.8125 9.92676
      vertex 5 -17.3711 7.84277
    endloop
  endfacet
  facet normal -1 0 0
    outer loop
      vertex 5 -15.3867 7.62207
      vertex 5 -16.2939 10.3652
      vertex 5 -14.9707 10.9873
    endloop
  endfacet
  facet normal -1 0 0
    outer loop
      vertex 5 -15.0234 7.36035
      vertex 5 -14.9707 10.9873
      vertex 5 -13.8408 11.793
    endloop
  endfacet
  facet normal -1 -0 0
    outer loop
      vertex 5 -10.2822 12.7812
      vertex 5 -13.8408 11.793
      vertex 5 -12.9062 12.7812
    endloop
  endfacet
  facet normal -1 0 0
    outer loop
      vertex 5 -14.7363 4.50293
      vertex 5 -14.8359 6.99414
      vertex 5 -10.2822 12.7812
    endloop
  endfacet
  facet normal -1 0 0
    outer loop
      vertex 5 -14.7363 4.50293
      vertex 5 -10.2822 12.7812
      vertex 5 -10.2822 -5.06641
    endloop
  endfacet
  facet normal -1 0 0
    outer loop
      vertex 5 -14.7363 4.50293
      vertex 5 -10.2822 -5.06641
      vertex 5 -14.7363 -5.06641
    endloop
  endfacet
  facet normal -1 0 0
    outer loop
      vertex 5 1.85547 -2.21094
      vertex 5 -2.45508 -2.00195
      vertex 5 -2.41113 0.103516
    endloop
  endfacet
  facet normal -1 0 0
    outer loop
      vertex 5 -8.48047 -1.5
      vertex 5 -4.16406 0.522461
      vertex 5 -4.04297 -1.93555
    endloop
  endfacet
  facet normal -1 0 0
    outer loop
      vertex 5 -8.61816 0.666016
      vertex 5 -4.16406 0.522461
      vertex 5 -8.48047 -1.5
    endloop
  endfacet
  facet normal -1 0 0
    outer loop
      vertex 5 -8.48047 -1.5
      vertex 5 -4.04297 -1.93555
      vertex 5 -8.06641 -3.01562
    endloop
  endfacet
  facet normal -1 0 0
    outer loop
      vertex 5 -4.04297 -1.93555
      vertex 5 -7.3252 -4.06055
      vertex 5 -8.06641 -3.01562
    endloop
  endfacet
  facet normal -1 0 0
    outer loop
      vertex 5 -8.61816 0.666016
      vertex 5 -4.16406 1.63574
      vertex 5 -4.16406 0.522461
    endloop
  endfacet
  facet normal -1 0 0
    outer loop
      vertex 5 -8.61816 1.63574
      vertex 5 -4.16406 1.63574
      vertex 5 -8.61816 0.666016
    endloop
  endfacet
  facet normal -1 0 -0
    outer loop
      vertex 5 -0.0683594 7.85938
      vertex 5 0.569336 7.53516
      vertex 5 -2.62109 5.00977
    endloop
  endfacet
  facet normal -1 0 0
    outer loop
      vertex 5 -4.04297 -1.93555
      vertex 5 -6.20312 -4.81348
      vertex 5 -7.3252 -4.06055
    endloop
  endfacet
  facet normal -1 0 0
    outer loop
      vertex 5 -4.79004 -5.25977
      vertex 5 -6.20312 -4.81348
      vertex 5 -3.77246 -2.48145
    endloop
  endfacet
  facet normal -1 -0 0
    outer loop
      vertex 5 -3.77246 -2.48145
      vertex 5 -6.20312 -4.81348
      vertex 5 -4.04297 -1.93555
    endloop
  endfacet
  facet normal -1 0 0
    outer loop
      vertex 5 -4.79004 -5.25977
      vertex 5 -3.77246 -2.48145
      vertex 5 -3.20508 -2.66309
    endloop
  endfacet
  facet normal -1 0 0
    outer loop
      vertex 5 -4.79004 -5.25977
      vertex 5 -3.20508 -2.66309
      vertex 5 -3.17188 -5.4082
    endloop
  endfacet
  facet normal -1 0 0
    outer loop
      vertex 5 -2.46387 4.48633
      vertex 5 -2.62109 5.00977
      vertex 5 1.50977 6.4502
    endloop
  endfacet
  facet normal -1 0 0
    outer loop
      vertex 5 -3.20508 -2.66309
      vertex 5 -2.67578 -2.4541
      vertex 5 -1.75781 -5.30957
    endloop
  endfacet
  facet normal -1 0 0
    outer loop
      vertex 5 -2.62109 5.00977
      vertex 5 1.09473 7.08203
      vertex 5 1.50977 6.4502
    endloop
  endfacet
  facet normal -1 -0 0
    outer loop
      vertex 5 -0.0683594 7.85938
      vertex 5 -2.62109 5.00977
      vertex 5 -1.68359 8.11816
    endloop
  endfacet
  facet normal -1 0 0
    outer loop
      vertex 5 -2.46191 8.04199
      vertex 5 -2.89941 5.28223
      vertex 5 -3.16602 7.8125
    endloop
  endfacet
  facet normal -1 0 0
    outer loop
      vertex 5 1.17188 9.92676
      vertex 5 -4.35156 9.92676
      vertex 5 1.17188 12.7812
    endloop
  endfacet
  facet normal -1 -0 0
    outer loop
      vertex 5 -4.35156 6.89453
      vertex 5 -8.57422 3.78613
      vertex 5 -8.38672 12.7812
    endloop
  endfacet
  facet normal -1 0 0
    outer loop
      vertex 5 -8.57422 3.78613
      vertex 5 -4.35156 6.89453
      vertex 5 -4.10938 4.77832
    endloop
  endfacet
  facet normal -1 0 0
    outer loop
      vertex 5 -4.35156 6.89453
      vertex 5 -8.38672 12.7812
      vertex 5 -4.35156 9.92676
    endloop
  endfacet
  facet normal -1 0 0
    outer loop
      vertex 5 -4.10938 4.77832
      vertex 5 -4.16406 3.78613
      vertex 5 -8.57422 3.78613
    endloop
  endfacet
  facet normal -1 0 0
    outer loop
      vertex 5 -4.35156 6.89453
      vertex 5 -3.31543 5.37305
      vertex 5 -3.83301 5.18555
    endloop
  endfacet
  facet normal -1 0 -0
    outer loop
      vertex 5 -3.7959 7.42969
      vertex 5 -3.31543 5.37305
      vertex 5 -4.35156 6.89453
    endloop
  endfacet
  facet normal -1 0 0
    outer loop
      vertex 5 -2.46387 4.48633
      vertex 5 1.50977 6.4502
      vertex 5 1.80566 5.58008
    endloop
  endfacet
  facet normal -1 0 0
    outer loop
      vertex 5 14.9961 12.7812
      vertex 5 10.4434 6.99414
      vertex 5 11.4375 11.793
    endloop
  endfacet
  facet normal -1 -0 0
    outer loop
      vertex 5 1.17188 12.7812
      vertex 5 -4.35156 9.92676
      vertex 5 -8.38672 12.7812
    endloop
  endfacet
  facet normal -1 0 0
    outer loop
      vertex 5 -3.7959 7.42969
      vertex 5 -3.16602 7.8125
      vertex 5 -3.31543 5.37305
    endloop
  endfacet
  facet normal -1 -0 0
    outer loop
      vertex 5 -3.83301 5.18555
      vertex 5 -4.10938 4.77832
      vertex 5 -4.35156 6.89453
    endloop
  endfacet
  facet normal -1 0 -0
    outer loop
      vertex 5 -3.16602 7.8125
      vertex 5 -2.89941 5.28223
      vertex 5 -3.31543 5.37305
    endloop
  endfacet
  facet normal -1 0 -0
    outer loop
      vertex 5 -2.46191 8.04199
      vertex 5 -1.68359 8.11816
      vertex 5 -2.89941 5.28223
    endloop
  endfacet
  facet normal -1 0 0
    outer loop
      vertex 5 -1.68359 8.11816
      vertex 5 -2.62109 5.00977
      vertex 5 -2.89941 5.28223
    endloop
  endfacet
  facet normal -1 0 -0
    outer loop
      vertex 5 0.569336 7.53516
      vertex 5 1.09473 7.08203
      vertex 5 -2.62109 5.00977
    endloop
  endfacet
  facet normal -1 0 0
    outer loop
      vertex 5 -2.46387 4.48633
      vertex 5 1.80566 5.58008
      vertex 5 -2.41113 3.64258
    endloop
  endfacet
  facet normal -1 0 0
    outer loop
      vertex 5 8.98438 10.3652
      vertex 5 7.90723 7.84277
      vertex 5 7.4668 9.92676
    endloop
  endfacet
  facet normal -1 0 -0
    outer loop
      vertex 5 1.80566 5.58008
      vertex 5 2.04297 3.12402
      vertex 5 -2.41113 3.64258
    endloop
  endfacet
  facet normal -1 -0 0
    outer loop
      vertex 5 2.04297 3.12402
      vertex 5 -2.41113 0.103516
      vertex 5 -2.41113 3.64258
    endloop
  endfacet
  facet normal -1 -0 0
    outer loop
      vertex 5 2.04297 0.578125
      vertex 5 -2.41113 0.103516
      vertex 5 2.04297 3.12402
    endloop
  endfacet
  facet normal -1 0 0
    outer loop
      vertex 5 7.4668 9.92676
      vertex 5 7.90723 7.84277
      vertex 5 7.4668 7.84277
    endloop
  endfacet
  facet normal -1 0 0
    outer loop
      vertex 5 1.85547 -2.21094
      vertex 5 -2.41113 0.103516
      vertex 5 2.04297 0.578125
    endloop
  endfacet
  facet normal -1 0 0
    outer loop
      vertex 5 1.57422 -3.0625
      vertex 5 -2.45508 -2.00195
      vertex 5 1.85547 -2.21094
    endloop
  endfacet
  facet normal -1 0 0
    outer loop
      vertex 5 1.08301 -3.85352
      vertex 5 -2.45508 -2.00195
      vertex 5 1.57422 -3.0625
    endloop
  endfacet
  facet normal -1 0 0
    outer loop
      vertex 5 0.370117 -4.51855
      vertex 5 -2.45508 -2.00195
      vertex 5 1.08301 -3.85352
    endloop
  endfacet
  facet normal -1 0 0
    outer loop
      vertex 5 -2.67578 -2.4541
      vertex 5 -2.45508 -2.00195
      vertex 5 0.370117 -4.51855
    endloop
  endfacet
  facet normal -1 0 0
    outer loop
      vertex 5 -2.67578 -2.4541
      vertex 5 0.370117 -4.51855
      vertex 5 -0.581055 -5.01172
    endloop
  endfacet
  facet normal -1 0 0
    outer loop
      vertex 5 -2.67578 -2.4541
      vertex 5 -0.581055 -5.01172
      vertex 5 -1.75781 -5.30957
    endloop
  endfacet
  facet normal -1 0 0
    outer loop
      vertex 5 -3.20508 -2.66309
      vertex 5 -1.75781 -5.30957
      vertex 5 -3.17188 -5.4082
    endloop
  endfacet
  facet normal -1 0 0
    outer loop
      vertex 5 10.4434 6.99414
      vertex 5 10.2559 7.36035
      vertex 5 11.4375 11.793
    endloop
  endfacet
  facet normal -1 0 0
    outer loop
      vertex 5 10.2559 7.36035
      vertex 5 9.8916 7.62207
      vertex 5 10.3086 10.9873
    endloop
  endfacet
  facet normal -1 0 0
    outer loop
      vertex 5 9.8916 7.62207
      vertex 5 9.1748 7.78809
      vertex 5 8.98438 10.3652
    endloop
  endfacet
  facet normal -1 0 0
    outer loop
      vertex 5 9.1748 7.78809
      vertex 5 7.90723 7.84277
      vertex 5 8.98438 10.3652
    endloop
  endfacet
  facet normal -1 0 0
    outer loop
      vertex 5 9.8916 7.62207
      vertex 5 8.98438 10.3652
      vertex 5 10.3086 10.9873
    endloop
  endfacet
  facet normal -1 0 0
    outer loop
      vertex 5 10.2559 7.36035
      vertex 5 10.3086 10.9873
      vertex 5 11.4375 11.793
    endloop
  endfacet
  facet normal -1 -0 0
    outer loop
      vertex 5 14.9961 12.7812
      vertex 5 11.4375 11.793
      vertex 5 12.3721 12.7812
    endloop
  endfacet
  facet normal -1 0 0
    outer loop
      vertex 5 10.542 4.50293
      vertex 5 10.4434 6.99414
      vertex 5 14.9961 12.7812
    endloop
  endfacet
  facet normal -1 0 0
    outer loop
      vertex 5 10.542 4.50293
      vertex 5 14.9961 12.7812
      vertex 5 14.9961 -5.06641
    endloop
  endfacet
  facet normal -1 0 0
    outer loop
      vertex 5 10.542 4.50293
      vertex 5 14.9961 -5.06641
      vertex 5 10.542 -5.06641
    endloop
  endfacet
  facet normal -1 0 0
    outer loop
      vertex 5 6.92676 2.92578
      vertex 5 3.56445 2.92578
      vertex 5 6.92676 6.55273
    endloop
  endfacet
  facet normal -1 0 0
    outer loop
      vertex 5 3.56445 2.92578
      vertex 5 3.56445 6.55273
      vertex 5 6.92676 6.55273
    endloop
  endfacet
  facet normal -1 -0 0
    outer loop
      vertex 5 6.92676 -1.42871
      vertex 5 3.56445 -5.06641
      vertex 5 3.56445 -1.42871
    endloop
  endfacet
  facet normal -1 0 0
    outer loop
      vertex 5 3.56445 -5.06641
      vertex 5 6.92676 -1.42871
      vertex 5 6.92676 -5.06641
    endloop
  endfacet
  facet normal 0 -0.999202 -0.0399487
    outer loop
      vertex 6 -14.8359 6.99414
      vertex 5 -14.7363 4.50293
      vertex 6 -14.7363 4.50293
    endloop
  endfacet
  facet normal -0 -0.999202 -0.0399487
    outer loop
      vertex 6 -14.8359 6.99414
      vertex 5 -14.8359 6.99414
      vertex 5 -14.7363 4.50293
    endloop
  endfacet
  facet normal 0 -0.890113 -0.455739
    outer loop
      vertex 6 -15.0234 7.36035
      vertex 5 -14.8359 6.99414
      vertex 6 -14.8359 6.99414
    endloop
  endfacet
  facet normal -0 -0.890113 -0.455739
    outer loop
      vertex 6 -15.0234 7.36035
      vertex 5 -15.0234 7.36035
      vertex 5 -14.8359 6.99414
    endloop
  endfacet
  facet normal 0 -0.584517 -0.811382
    outer loop
      vertex 6 -15.3867 7.62207
      vertex 5 -15.0234 7.36035
      vertex 6 -15.0234 7.36035
    endloop
  endfacet
  facet normal -0 -0.584517 -0.811382
    outer loop
      vertex 6 -15.3867 7.62207
      vertex 5 -15.3867 7.62207
      vertex 5 -15.0234 7.36035
    endloop
  endfacet
  facet normal 0 -0.22564 -0.974211
    outer loop
      vertex 6 -16.1035 7.78809
      vertex 5 -15.3867 7.62207
      vertex 6 -15.3867 7.62207
    endloop
  endfacet
  facet normal -0 -0.22564 -0.974211
    outer loop
      vertex 6 -16.1035 7.78809
      vertex 5 -16.1035 7.78809
      vertex 5 -15.3867 7.62207
    endloop
  endfacet
  facet normal 0 -0.0430966 -0.999071
    outer loop
      vertex 6 -17.3711 7.84277
      vertex 5 -16.1035 7.78809
      vertex 6 -16.1035 7.78809
    endloop
  endfacet
  facet normal -0 -0.0430966 -0.999071
    outer loop
      vertex 6 -17.3711 7.84277
      vertex 5 -17.3711 7.84277
      vertex 5 -16.1035 7.78809
    endloop
  endfacet
  facet normal 0 0 -1
    outer loop
      vertex 6 -17.8125 7.84277
      vertex 5 -17.3711 7.84277
      vertex 6 -17.3711 7.84277
    endloop
  endfacet
  facet normal 0 0 -1
    outer loop
      vertex 6 -17.8125 7.84277
      vertex 5 -17.8125 7.84277
      vertex 5 -17.3711 7.84277
    endloop
  endfacet
  facet normal 0 -1 -0
    outer loop
      vertex 6 -17.8125 9.92676
      vertex 5 -17.8125 7.84277
      vertex 6 -17.8125 7.84277
    endloop
  endfacet
  facet normal -0 -1 0
    outer loop
      vertex 6 -17.8125 9.92676
      vertex 5 -17.8125 9.92676
      vertex 5 -17.8125 7.84277
    endloop
  endfacet
  facet normal 0 -0.277384 0.960759
    outer loop
      vertex 6 -16.2939 10.3652
      vertex 5 -17.8125 9.92676
      vertex 6 -17.8125 9.92676
    endloop
  endfacet
  facet normal 0 -0.277384 0.960759
    outer loop
      vertex 6 -16.2939 10.3652
      vertex 5 -16.2939 10.3652
      vertex 5 -17.8125 9.92676
    endloop
  endfacet
  facet normal 0 -0.425471 0.904972
    outer loop
      vertex 6 -14.9707 10.9873
      vertex 5 -16.2939 10.3652
      vertex 6 -16.2939 10.3652
    endloop
  endfacet
  facet normal 0 -0.425471 0.904972
    outer loop
      vertex 6 -14.9707 10.9873
      vertex 5 -14.9707 10.9873
      vertex 5 -16.2939 10.3652
    endloop
  endfacet
  facet normal 0 -0.580584 0.814201
    outer loop
      vertex 6 -13.8408 11.793
      vertex 5 -14.9707 10.9873
      vertex 6 -14.9707 10.9873
    endloop
  endfacet
  facet normal 0 -0.580584 0.814201
    outer loop
      vertex 6 -13.8408 11.793
      vertex 5 -13.8408 11.793
      vertex 5 -14.9707 10.9873
    endloop
  endfacet
  facet normal 0 -0.726536 0.687129
    outer loop
      vertex 6 -12.9062 12.7812
      vertex 5 -13.8408 11.793
      vertex 6 -13.8408 11.793
    endloop
  endfacet
  facet normal 0 -0.726536 0.687129
    outer loop
      vertex 6 -12.9062 12.7812
      vertex 5 -12.9062 12.7812
      vertex 5 -13.8408 11.793
    endloop
  endfacet
  facet normal 0 0 1
    outer loop
      vertex 6 -10.2822 12.7812
      vertex 5 -12.9062 12.7812
      vertex 6 -12.9062 12.7812
    endloop
  endfacet
  facet normal 0 0 1
    outer loop
      vertex 6 -10.2822 12.7812
      vertex 5 -10.2822 12.7812
      vertex 5 -12.9062 12.7812
    endloop
  endfacet
  facet normal 0 1 -0
    outer loop
      vertex 6 -10.2822 -5.06641
      vertex 5 -10.2822 12.7812
      vertex 6 -10.2822 12.7812
    endloop
  endfacet
  facet normal 0 1 0
    outer loop
      vertex 6 -10.2822 -5.06641
      vertex 5 -10.2822 -5.06641
      vertex 5 -10.2822 12.7812
    endloop
  endfacet
  facet normal 0 0 -1
    outer loop
      vertex 6 -14.7363 -5.06641
      vertex 5 -10.2822 -5.06641
      vertex 6 -10.2822 -5.06641
    endloop
  endfacet
  facet normal 0 0 -1
    outer loop
      vertex 6 -14.7363 -5.06641
      vertex 5 -14.7363 -5.06641
      vertex 5 -10.2822 -5.06641
    endloop
  endfacet
  facet normal 0 -1 -0
    outer loop
      vertex 6 -14.7363 4.50293
      vertex 5 -14.7363 -5.06641
      vertex 6 -14.7363 -5.06641
    endloop
  endfacet
  facet normal -0 -1 0
    outer loop
      vertex 6 -14.7363 4.50293
      vertex 5 -14.7363 4.50293
      vertex 5 -14.7363 -5.06641
    endloop
  endfacet
  facet normal 0 -0.301165 -0.953572
    outer loop
      vertex 6 -6.20312 -4.81348
      vertex 5 -4.79004 -5.25977
      vertex 6 -4.79004 -5.25977
    endloop
  endfacet
  facet normal -0 -0.301165 -0.953572
    outer loop
      vertex 6 -6.20312 -4.81348
      vertex 5 -6.20312 -4.81348
      vertex 5 -4.79004 -5.25977
    endloop
  endfacet
  facet normal 0 -0.557196 -0.830381
    outer loop
      vertex 6 -7.3252 -4.06055
      vertex 5 -6.20312 -4.81348
      vertex 6 -6.20312 -4.81348
    endloop
  endfacet
  facet normal -0 -0.557196 -0.830381
    outer loop
      vertex 6 -7.3252 -4.06055
      vertex 5 -7.3252 -4.06055
      vertex 5 -6.20312 -4.81348
    endloop
  endfacet
  facet normal 0 -0.815637 -0.578564
    outer loop
      vertex 6 -8.06641 -3.01562
      vertex 5 -7.3252 -4.06055
      vertex 6 -7.3252 -4.06055
    endloop
  endfacet
  facet normal -0 -0.815637 -0.578564
    outer loop
      vertex 6 -8.06641 -3.01562
      vertex 5 -8.06641 -3.01562
      vertex 5 -7.3252 -4.06055
    endloop
  endfacet
  facet normal 0 -0.964649 -0.263537
    outer loop
      vertex 6 -8.48047 -1.5
      vertex 5 -8.06641 -3.01562
      vertex 6 -8.06641 -3.01562
    endloop
  endfacet
  facet normal -0 -0.964649 -0.263537
    outer loop
      vertex 6 -8.48047 -1.5
      vertex 5 -8.48047 -1.5
      vertex 5 -8.06641 -3.01562
    endloop
  endfacet
  facet normal 0 -0.997986 -0.0634403
    outer loop
      vertex 6 -8.61816 0.666016
      vertex 5 -8.48047 -1.5
      vertex 6 -8.48047 -1.5
    endloop
  endfacet
  facet normal -0 -0.997986 -0.0634403
    outer loop
      vertex 6 -8.61816 0.666016
      vertex 5 -8.61816 0.666016
      vertex 5 -8.48047 -1.5
    endloop
  endfacet
  facet normal 0 -1 -0
    outer loop
      vertex 6 -8.61816 1.63574
      vertex 5 -8.61816 0.666016
      vertex 6 -8.61816 0.666016
    endloop
  endfacet
  facet normal -0 -1 0
    outer loop
      vertex 6 -8.61816 1.63574
      vertex 5 -8.61816 1.63574
      vertex 5 -8.61816 0.666016
    endloop
  endfacet
  facet normal 0 0 1
    outer loop
      vertex 6 -4.16406 1.63574
      vertex 5 -8.61816 1.63574
      vertex 6 -8.61816 1.63574
    endloop
  endfacet
  facet normal 0 0 1
    outer loop
      vertex 6 -4.16406 1.63574
      vertex 5 -4.16406 1.63574
      vertex 5 -8.61816 1.63574
    endloop
  endfacet
  facet normal 0 1 -0
    outer loop
      vertex 6 -4.16406 0.522461
      vertex 5 -4.16406 1.63574
      vertex 6 -4.16406 1.63574
    endloop
  endfacet
  facet normal 0 1 0
    outer loop
      vertex 6 -4.16406 0.522461
      vertex 5 -4.16406 0.522461
      vertex 5 -4.16406 1.63574
    endloop
  endfacet
  facet normal 0 0.998789 0.0492037
    outer loop
      vertex 6 -4.04297 -1.93555
      vertex 5 -4.16406 0.522461
      vertex 6 -4.16406 0.522461
    endloop
  endfacet
  facet normal 0 0.998789 0.0492037
    outer loop
      vertex 6 -4.04297 -1.93555
      vertex 5 -4.04297 -1.93555
      vertex 5 -4.16406 0.522461
    endloop
  endfacet
  facet normal 0 0.896023 0.444007
    outer loop
      vertex 6 -3.77246 -2.48145
      vertex 5 -4.04297 -1.93555
      vertex 6 -4.04297 -1.93555
    endloop
  endfacet
  facet normal 0 0.896023 0.444007
    outer loop
      vertex 6 -3.77246 -2.48145
      vertex 5 -3.77246 -2.48145
      vertex 5 -4.04297 -1.93555
    endloop
  endfacet
  facet normal 0 0.304895 0.952386
    outer loop
      vertex 6 -3.20508 -2.66309
      vertex 5 -3.77246 -2.48145
      vertex 6 -3.77246 -2.48145
    endloop
  endfacet
  facet normal 0 0.304895 0.952386
    outer loop
      vertex 6 -3.20508 -2.66309
      vertex 5 -3.20508 -2.66309
      vertex 5 -3.77246 -2.48145
    endloop
  endfacet
  facet normal 0 -0.367251 0.930122
    outer loop
      vertex 6 -2.67578 -2.4541
      vertex 5 -3.20508 -2.66309
      vertex 6 -3.20508 -2.66309
    endloop
  endfacet
  facet normal 0 -0.367251 0.930122
    outer loop
      vertex 6 -2.67578 -2.4541
      vertex 5 -2.67578 -2.4541
      vertex 5 -3.20508 -2.66309
    endloop
  endfacet
  facet normal 0 -0.89866 0.438647
    outer loop
      vertex 6 -2.45508 -2.00195
      vertex 5 -2.67578 -2.4541
      vertex 6 -2.67578 -2.4541
    endloop
  endfacet
  facet normal 0 -0.89866 0.438647
    outer loop
      vertex 6 -2.45508 -2.00195
      vertex 5 -2.45508 -2.00195
      vertex 5 -2.67578 -2.4541
    endloop
  endfacet
  facet normal 0 -0.999782 0.0208697
    outer loop
      vertex 6 -2.41113 0.103516
      vertex 5 -2.45508 -2.00195
      vertex 6 -2.45508 -2.00195
    endloop
  endfacet
  facet normal 0 -0.999782 0.0208697
    outer loop
      vertex 6 -2.41113 0.103516
      vertex 5 -2.41113 0.103516
      vertex 5 -2.45508 -2.00195
    endloop
  endfacet
  facet normal 0 -1 -0
    outer loop
      vertex 6 -2.41113 3.64258
      vertex 5 -2.41113 0.103516
      vertex 6 -2.41113 0.103516
    endloop
  endfacet
  facet normal -0 -1 0
    outer loop
      vertex 6 -2.41113 3.64258
      vertex 5 -2.41113 3.64258
      vertex 5 -2.41113 0.103516
    endloop
  endfacet
  facet normal 0 -0.998052 -0.0623849
    outer loop
      vertex 6 -2.46387 4.48633
      vertex 5 -2.41113 3.64258
      vertex 6 -2.41113 3.64258
    endloop
  endfacet
  facet normal -0 -0.998052 -0.0623849
    outer loop
      vertex 6 -2.46387 4.48633
      vertex 5 -2.46387 4.48633
      vertex 5 -2.41113 3.64258
    endloop
  endfacet
  facet normal 0 -0.957732 -0.287663
    outer loop
      vertex 6 -2.62109 5.00977
      vertex 5 -2.46387 4.48633
      vertex 6 -2.46387 4.48633
    endloop
  endfacet
  facet normal -0 -0.957732 -0.287663
    outer loop
      vertex 6 -2.62109 5.00977
      vertex 5 -2.62109 5.00977
      vertex 5 -2.46387 4.48633
    endloop
  endfacet
  facet normal 0 -0.699544 -0.71459
    outer loop
      vertex 6 -2.89941 5.28223
      vertex 5 -2.62109 5.00977
      vertex 6 -2.62109 5.00977
    endloop
  endfacet
  facet normal -0 -0.699544 -0.71459
    outer loop
      vertex 6 -2.89941 5.28223
      vertex 5 -2.89941 5.28223
      vertex 5 -2.62109 5.00977
    endloop
  endfacet
  facet normal 0 -0.213284 -0.97699
    outer loop
      vertex 6 -3.31543 5.37305
      vertex 5 -2.89941 5.28223
      vertex 6 -2.89941 5.28223
    endloop
  endfacet
  facet normal -0 -0.213284 -0.97699
    outer loop
      vertex 6 -3.31543 5.37305
      vertex 5 -3.31543 5.37305
      vertex 5 -2.89941 5.28223
    endloop
  endfacet
  facet normal 0 0.340602 -0.940207
    outer loop
      vertex 6 -3.83301 5.18555
      vertex 5 -3.31543 5.37305
      vertex 6 -3.31543 5.37305
    endloop
  endfacet
  facet normal 0 0.340602 -0.940207
    outer loop
      vertex 6 -3.83301 5.18555
      vertex 5 -3.83301 5.18555
      vertex 5 -3.31543 5.37305
    endloop
  endfacet
  facet normal 0 0.827442 -0.561551
    outer loop
      vertex 6 -4.10938 4.77832
      vertex 5 -3.83301 5.18555
      vertex 6 -3.83301 5.18555
    endloop
  endfacet
  facet normal 0 0.827442 -0.561551
    outer loop
      vertex 6 -4.10938 4.77832
      vertex 5 -4.10938 4.77832
      vertex 5 -3.83301 5.18555
    endloop
  endfacet
  facet normal 0 0.998485 -0.0550269
    outer loop
      vertex 6 -4.16406 3.78613
      vertex 5 -4.10938 4.77832
      vertex 6 -4.10938 4.77832
    endloop
  endfacet
  facet normal 0 0.998485 -0.0550269
    outer loop
      vertex 6 -4.16406 3.78613
      vertex 5 -4.16406 3.78613
      vertex 5 -4.10938 4.77832
    endloop
  endfacet
  facet normal 0 0 -1
    outer loop
      vertex 6 -8.57422 3.78613
      vertex 5 -4.16406 3.78613
      vertex 6 -4.16406 3.78613
    endloop
  endfacet
  facet normal 0 0 -1
    outer loop
      vertex 6 -8.57422 3.78613
      vertex 5 -8.57422 3.78613
      vertex 5 -4.16406 3.78613
    endloop
  endfacet
  facet normal 0 -0.999783 0.0208402
    outer loop
      vertex 6 -8.38672 12.7812
      vertex 5 -8.57422 3.78613
      vertex 6 -8.57422 3.78613
    endloop
  endfacet
  facet normal 0 -0.999783 0.0208402
    outer loop
      vertex 6 -8.38672 12.7812
      vertex 5 -8.38672 12.7812
      vertex 5 -8.57422 3.78613
    endloop
  endfacet
  facet normal 0 0 1
    outer loop
      vertex 6 1.17188 12.7812
      vertex 5 -8.38672 12.7812
      vertex 6 -8.38672 12.7812
    endloop
  endfacet
  facet normal 0 0 1
    outer loop
      vertex 6 1.17188 12.7812
      vertex 5 1.17188 12.7812
      vertex 5 -8.38672 12.7812
    endloop
  endfacet
  facet normal 0 1 -0
    outer loop
      vertex 6 1.17188 9.92676
      vertex 5 1.17188 12.7812
      vertex 6 1.17188 12.7812
    endloop
  endfacet
  facet normal 0 1 0
    outer loop
      vertex 6 1.17188 9.92676
      vertex 5 1.17188 9.92676
      vertex 5 1.17188 12.7812
    endloop
  endfacet
  facet normal 0 0 -1
    outer loop
      vertex 6 -4.35156 9.92676
      vertex 5 1.17188 9.92676
      vertex 6 1.17188 9.92676
    endloop
  endfacet
  facet normal 0 0 -1
    outer loop
      vertex 6 -4.35156 9.92676
      vertex 5 -4.35156 9.92676
      vertex 5 1.17188 9.92676
    endloop
  endfacet
  facet normal 0 1 -0
    outer loop
      vertex 6 -4.35156 6.89453
      vertex 5 -4.35156 9.92676
      vertex 6 -4.35156 9.92676
    endloop
  endfacet
  facet normal 0 1 0
    outer loop
      vertex 6 -4.35156 6.89453
      vertex 5 -4.35156 6.89453
      vertex 5 -4.35156 9.92676
    endloop
  endfacet
  facet normal 0 -0.693695 0.720268
    outer loop
      vertex 6 -3.7959 7.42969
      vertex 5 -4.35156 6.89453
      vertex 6 -4.35156 6.89453
    endloop
  endfacet
  facet normal 0 -0.693695 0.720268
    outer loop
      vertex 6 -3.7959 7.42969
      vertex 5 -3.7959 7.42969
      vertex 5 -4.35156 6.89453
    endloop
  endfacet
  facet normal 0 -0.519358 0.854557
    outer loop
      vertex 6 -3.16602 7.8125
      vertex 5 -3.7959 7.42969
      vertex 6 -3.7959 7.42969
    endloop
  endfacet
  facet normal 0 -0.519358 0.854557
    outer loop
      vertex 6 -3.16602 7.8125
      vertex 5 -3.16602 7.8125
      vertex 5 -3.7959 7.42969
    endloop
  endfacet
  facet normal 0 -0.309885 0.950774
    outer loop
      vertex 6 -2.46191 8.04199
      vertex 5 -3.16602 7.8125
      vertex 6 -3.16602 7.8125
    endloop
  endfacet
  facet normal 0 -0.309885 0.950774
    outer loop
      vertex 6 -2.46191 8.04199
      vertex 5 -2.46191 8.04199
      vertex 5 -3.16602 7.8125
    endloop
  endfacet
  facet normal 0 -0.0973993 0.995245
    outer loop
      vertex 6 -1.68359 8.11816
      vertex 5 -2.46191 8.04199
      vertex 6 -2.46191 8.04199
    endloop
  endfacet
  facet normal 0 -0.0973993 0.995245
    outer loop
      vertex 6 -1.68359 8.11816
      vertex 5 -1.68359 8.11816
      vertex 5 -2.46191 8.04199
    endloop
  endfacet
  facet normal 0 0.158195 0.987408
    outer loop
      vertex 6 -0.0683594 7.85938
      vertex 5 -1.68359 8.11816
      vertex 6 -1.68359 8.11816
    endloop
  endfacet
  facet normal 0 0.158195 0.987408
    outer loop
      vertex 6 -0.0683594 7.85938
      vertex 5 -0.0683594 7.85938
      vertex 5 -1.68359 8.11816
    endloop
  endfacet
  facet normal 0 0.453211 0.891403
    outer loop
      vertex 6 0.569336 7.53516
      vertex 5 -0.0683594 7.85938
      vertex 6 -0.0683594 7.85938
    endloop
  endfacet
  facet normal 0 0.453211 0.891403
    outer loop
      vertex 6 0.569336 7.53516
      vertex 5 0.569336 7.53516
      vertex 5 -0.0683594 7.85938
    endloop
  endfacet
  facet normal 0 0.653108 0.757264
    outer loop
      vertex 6 1.09473 7.08203
      vertex 5 0.569336 7.53516
      vertex 6 0.569336 7.53516
    endloop
  endfacet
  facet normal 0 0.653108 0.757264
    outer loop
      vertex 6 1.09473 7.08203
      vertex 5 1.09473 7.08203
      vertex 5 0.569336 7.53516
    endloop
  endfacet
  facet normal 0 0.835804 0.549028
    outer loop
      vertex 6 1.50977 6.4502
      vertex 5 1.09473 7.08203
      vertex 6 1.09473 7.08203
    endloop
  endfacet
  facet normal 0 0.835804 0.549028
    outer loop
      vertex 6 1.50977 6.4502
      vertex 5 1.50977 6.4502
      vertex 5 1.09473 7.08203
    endloop
  endfacet
  facet normal 0 0.946756 0.321951
    outer loop
      vertex 6 1.80566 5.58008
      vertex 5 1.50977 6.4502
      vertex 6 1.50977 6.4502
    endloop
  endfacet
  facet normal 0 0.946756 0.321951
    outer loop
      vertex 6 1.80566 5.58008
      vertex 5 1.80566 5.58008
      vertex 5 1.50977 6.4502
    endloop
  endfacet
  facet normal 0 0.995365 0.0961743
    outer loop
      vertex 6 2.04297 3.12402
      vertex 5 1.80566 5.58008
      vertex 6 1.80566 5.58008
    endloop
  endfacet
  facet normal 0 0.995365 0.0961743
    outer loop
      vertex 6 2.04297 3.12402
      vertex 5 2.04297 3.12402
      vertex 5 1.80566 5.58008
    endloop
  endfacet
  facet normal 0 1 -0
    outer loop
      vertex 6 2.04297 0.578125
      vertex 5 2.04297 3.12402
      vertex 6 2.04297 3.12402
    endloop
  endfacet
  facet normal 0 1 0
    outer loop
      vertex 6 2.04297 0.578125
      vertex 5 2.04297 0.578125
      vertex 5 2.04297 3.12402
    endloop
  endfacet
  facet normal 0 0.997748 -0.0670754
    outer loop
      vertex 6 1.85547 -2.21094
      vertex 5 2.04297 0.578125
      vertex 6 2.04297 0.578125
    endloop
  endfacet
  facet normal 0 0.997748 -0.0670754
    outer loop
      vertex 6 1.85547 -2.21094
      vertex 5 1.85547 -2.21094
      vertex 5 2.04297 0.578125
    endloop
  endfacet
  facet normal 0 0.949551 -0.313614
    outer loop
      vertex 6 1.57422 -3.0625
      vertex 5 1.85547 -2.21094
      vertex 6 1.85547 -2.21094
    endloop
  endfacet
  facet normal 0 0.949551 -0.313614
    outer loop
      vertex 6 1.57422 -3.0625
      vertex 5 1.57422 -3.0625
      vertex 5 1.85547 -2.21094
    endloop
  endfacet
  facet normal 0 0.849528 -0.527543
    outer loop
      vertex 6 1.08301 -3.85352
      vertex 5 1.57422 -3.0625
      vertex 6 1.57422 -3.0625
    endloop
  endfacet
  facet normal 0 0.849528 -0.527543
    outer loop
      vertex 6 1.08301 -3.85352
      vertex 5 1.08301 -3.85352
      vertex 5 1.57422 -3.0625
    endloop
  endfacet
  facet normal 0 0.682134 -0.731228
    outer loop
      vertex 6 0.370117 -4.51855
      vertex 5 1.08301 -3.85352
      vertex 6 1.08301 -3.85352
    endloop
  endfacet
  facet normal 0 0.682134 -0.731228
    outer loop
      vertex 6 0.370117 -4.51855
      vertex 5 0.370117 -4.51855
      vertex 5 1.08301 -3.85352
    endloop
  endfacet
  facet normal 0 0.460295 -0.887766
    outer loop
      vertex 6 -0.581055 -5.01172
      vertex 5 0.370117 -4.51855
      vertex 6 0.370117 -4.51855
    endloop
  endfacet
  facet normal 0 0.460295 -0.887766
    outer loop
      vertex 6 -0.581055 -5.01172
      vertex 5 -0.581055 -5.01172
      vertex 5 0.370117 -4.51855
    endloop
  endfacet
  facet normal 0 0.245373 -0.969429
    outer loop
      vertex 6 -1.75781 -5.30957
      vertex 5 -0.581055 -5.01172
      vertex 6 -0.581055 -5.01172
    endloop
  endfacet
  facet normal 0 0.245373 -0.969429
    outer loop
      vertex 6 -1.75781 -5.30957
      vertex 5 -1.75781 -5.30957
      vertex 5 -0.581055 -5.01172
    endloop
  endfacet
  facet normal 0 0.06958 -0.997576
    outer loop
      vertex 6 -3.17188 -5.4082
      vertex 5 -1.75781 -5.30957
      vertex 6 -1.75781 -5.30957
    endloop
  endfacet
  facet normal 0 0.06958 -0.997576
    outer loop
      vertex 6 -3.17188 -5.4082
      vertex 5 -3.17188 -5.4082
      vertex 5 -1.75781 -5.30957
    endloop
  endfacet
  facet normal 0 -0.0913442 -0.995819
    outer loop
      vertex 6 -4.79004 -5.25977
      vertex 5 -3.17188 -5.4082
      vertex 6 -3.17188 -5.4082
    endloop
  endfacet
  facet normal -0 -0.0913442 -0.995819
    outer loop
      vertex 6 -4.79004 -5.25977
      vertex 5 -4.79004 -5.25977
      vertex 5 -3.17188 -5.4082
    endloop
  endfacet
  facet normal 0 -0.999218 -0.0395482
    outer loop
      vertex 6 10.4434 6.99414
      vertex 5 10.542 4.50293
      vertex 6 10.542 4.50293
    endloop
  endfacet
  facet normal -0 -0.999218 -0.0395482
    outer loop
      vertex 6 10.4434 6.99414
      vertex 5 10.4434 6.99414
      vertex 5 10.542 4.50293
    endloop
  endfacet
  facet normal 0 -0.890113 -0.455739
    outer loop
      vertex 6 10.2559 7.36035
      vertex 5 10.4434 6.99414
      vertex 6 10.4434 6.99414
    endloop
  endfacet
  facet normal -0 -0.890113 -0.455739
    outer loop
      vertex 6 10.2559 7.36035
      vertex 5 10.2559 7.36035
      vertex 5 10.4434 6.99414
    endloop
  endfacet
  facet normal 0 -0.583459 -0.812143
    outer loop
      vertex 6 9.8916 7.62207
      vertex 5 10.2559 7.36035
      vertex 6 10.2559 7.36035
    endloop
  endfacet
  facet normal -0 -0.583459 -0.812143
    outer loop
      vertex 6 9.8916 7.62207
      vertex 5 9.8916 7.62207
      vertex 5 10.2559 7.36035
    endloop
  endfacet
  facet normal 0 -0.22564 -0.974211
    outer loop
      vertex 6 9.1748 7.78809
      vertex 5 9.8916 7.62207
      vertex 6 9.8916 7.62207
    endloop
  endfacet
  facet normal -0 -0.22564 -0.974211
    outer loop
      vertex 6 9.1748 7.78809
      vertex 5 9.1748 7.78809
      vertex 5 9.8916 7.62207
    endloop
  endfacet
  facet normal 0 -0.0430976 -0.999071
    outer loop
      vertex 6 7.90723 7.84277
      vertex 5 9.1748 7.78809
      vertex 6 9.1748 7.78809
    endloop
  endfacet
  facet normal -0 -0.0430976 -0.999071
    outer loop
      vertex 6 7.90723 7.84277
      vertex 5 7.90723 7.84277
      vertex 5 9.1748 7.78809
    endloop
  endfacet
  facet normal 0 0 -1
    outer loop
      vertex 6 7.4668 7.84277
      vertex 5 7.90723 7.84277
      vertex 6 7.90723 7.84277
    endloop
  endfacet
  facet normal 0 0 -1
    outer loop
      vertex 6 7.4668 7.84277
      vertex 5 7.4668 7.84277
      vertex 5 7.90723 7.84277
    endloop
  endfacet
  facet normal 0 -1 -0
    outer loop
      vertex 6 7.4668 9.92676
      vertex 5 7.4668 7.84277
      vertex 6 7.4668 7.84277
    endloop
  endfacet
  facet normal -0 -1 0
    outer loop
      vertex 6 7.4668 9.92676
      vertex 5 7.4668 9.92676
      vertex 5 7.4668 7.84277
    endloop
  endfacet
  facet normal 0 -0.277556 0.960709
    outer loop
      vertex 6 8.98438 10.3652
      vertex 5 7.4668 9.92676
      vertex 6 7.4668 9.92676
    endloop
  endfacet
  facet normal 0 -0.277556 0.960709
    outer loop
      vertex 6 8.98438 10.3652
      vertex 5 8.98438 10.3652
      vertex 5 7.4668 9.92676
    endloop
  endfacet
  facet normal 0 -0.425202 0.905098
    outer loop
      vertex 6 10.3086 10.9873
      vertex 5 8.98438 10.3652
      vertex 6 8.98438 10.3652
    endloop
  endfacet
  facet normal 0 -0.425202 0.905098
    outer loop
      vertex 6 10.3086 10.9873
      vertex 5 10.3086 10.9873
      vertex 5 8.98438 10.3652
    endloop
  endfacet
  facet normal 0 -0.580924 0.813958
    outer loop
      vertex 6 11.4375 11.793
      vertex 5 10.3086 10.9873
      vertex 6 10.3086 10.9873
    endloop
  endfacet
  facet normal 0 -0.580924 0.813958
    outer loop
      vertex 6 11.4375 11.793
      vertex 5 11.4375 11.793
      vertex 5 10.3086 10.9873
    endloop
  endfacet
  facet normal 0 -0.726536 0.687129
    outer loop
      vertex 6 12.3721 12.7812
      vertex 5 11.4375 11.793
      vertex 6 11.4375 11.793
    endloop
  endfacet
  facet normal 0 -0.726536 0.687129
    outer loop
      vertex 6 12.3721 12.7812
      vertex 5 12.3721 12.7812
      vertex 5 11.4375 11.793
    endloop
  endfacet
  facet normal 0 0 1
    outer loop
      vertex 6 14.9961 12.7812
      vertex 5 12.3721 12.7812
      vertex 6 12.3721 12.7812
    endloop
  endfacet
  facet normal 0 0 1
    outer loop
      vertex 6 14.9961 12.7812
      vertex 5 14.9961 12.7812
      vertex 5 12.3721 12.7812
    endloop
  endfacet
  facet normal 0 1 -0
    outer loop
      vertex 6 14.9961 -5.06641
      vertex 5 14.9961 12.7812
      vertex 6 14.9961 12.7812
    endloop
  endfacet
  facet normal 0 1 0
    outer loop
      vertex 6 14.9961 -5.06641
      vertex 5 14.9961 -5.06641
      vertex 5 14.9961 12.7812
    endloop
  endfacet
  facet normal 0 0 -1
    outer loop
      vertex 6 10.542 -5.06641
      vertex 5 14.9961 -5.06641
      vertex 6 14.9961 -5.06641
    endloop
  endfacet
  facet normal 0 0 -1
    outer loop
      vertex 6 10.542 -5.06641
      vertex 5 10.542 -5.06641
      vertex 5 14.9961 -5.06641
    endloop
  endfacet
  facet normal 0 -1 -0
    outer loop
      vertex 6 10.542 4.50293
      vertex 5 10.542 -5.06641
      vertex 6 10.542 -5.06641
    endloop
  endfacet
  facet normal -0 -1 0
    outer loop
      vertex 6 10.542 4.50293
      vertex 5 10.542 4.50293
      vertex 5 10.542 -5.06641
    endloop
  endfacet
  facet normal 0 0 1
    outer loop
      vertex 6 6.92676 6.55273
      vertex 5 3.56445 6.55273
      vertex 6 3.56445 6.55273
    endloop
  endfacet
  facet normal 0 0 1
    outer loop
      vertex 6 6.92676 6.55273
      vertex 5 6.92676 6.55273
      vertex 5 3.56445 6.55273
    endloop
  endfacet
  facet normal 0 1 -0
    outer loop
      vertex 6 6.92676 2.92578
      vertex 5 6.92676 6.55273
      vertex 6 6.92676 6.55273
    endloop
  endfacet
  facet normal 0 1 0
    outer loop
      vertex 6 6.92676 2.92578
      vertex 5 6.92676 2.92578
      vertex 5 6.92676 6.55273
    endloop
  endfacet
  facet normal 0 0 -1
    outer loop
      vertex 6 3.56445 2.92578
      vertex 5 6.92676 2.92578
      vertex 6 6.92676 2.92578
    endloop
  endfacet
  facet normal 0 0 -1
    outer loop
      vertex 6 3.56445 2.92578
      vertex 5 3.56445 2.92578
      vertex 5 6.92676 2.92578
    endloop
  endfacet
  facet normal 0 -1 -0
    outer loop
      vertex 6 3.56445 6.55273
      vertex 5 3.56445 2.92578
      vertex 6 3.56445 2.92578
    endloop
  endfacet
  facet normal -0 -1 0
    outer loop
      vertex 6 3.56445 6.55273
      vertex 5 3.56445 6.55273
      vertex 5 3.56445 2.92578
    endloop
  endfacet
  facet normal 0 0 1
    outer loop
      vertex 6 6.92676 -1.42871
      vertex 5 3.56445 -1.42871
      vertex 6 3.56445 -1.42871
    endloop
  endfacet
  facet normal 0 0 1
    outer loop
      vertex 6 6.92676 -1.42871
      vertex 5 6.92676 -1.42871
      vertex 5 3.56445 -1.42871
    endloop
  endfacet
  facet normal 0 1 -0
    outer loop
      vertex 6 6.92676 -5.06641
      vertex 5 6.92676 -1.42871
      vertex 6 6.92676 -1.42871
    endloop
  endfacet
  facet normal 0 1 0
    outer loop
      vertex 6 6.92676 -5.06641
      vertex 5 6.92676 -5.06641
      vertex 5 6.92676 -1.42871
    endloop
  endfacet
  facet normal 0 0 -1
    outer loop
      vertex 6 3.56445 -5.06641
      vertex 5 6.92676 -5.06641
      vertex 6 6.92676 -5.06641
    endloop
  endfacet
  facet normal 0 0 -1
    outer loop
      vertex 6 3.56445 -5.06641
      vertex 5 3.56445 -5.06641
      vertex 5 6.92676 -5.06641
    endloop
  endfacet
  facet normal 0 -1 -0
    outer loop
      vertex 6 3.56445 -1.42871
      vertex 5 3.56445 -5.06641
      vertex 6 3.56445 -5.06641
    endloop
  endfacet
  facet normal -0 -1 0
    outer loop
      vertex 6 3.56445 -1.42871
      vertex 5 3.56445 -1.42871
      vertex 5 3.56445 -5.06641
    endloop
  endfacet
endsolid OpenSCAD_Model
