solid OpenSCAD_Model
  facet normal 0 -0.997859 0.0654064
    outer loop
      vertex 43 45.5 0
      vertex 46 45.5385 0.587367
      vertex 43 45.5385 0.587367
    endloop
  endfacet
  facet normal 0 -0.997859 0.0654064
    outer loop
      vertex 46 45.5385 0.587367
      vertex 43 45.5 0
      vertex 46 45.5 0
    endloop
  endfacet
  facet normal 0 0.997859 0.0654064
    outer loop
      vertex 46 54.5 0
      vertex 43 54.4615 0.587367
      vertex 46 54.4615 0.587367
    endloop
  endfacet
  facet normal 0 0.997859 0.0654064
    outer loop
      vertex 43 54.4615 0.587367
      vertex 46 54.5 0
      vertex 43 54.5 0
    endloop
  endfacet
  facet normal 0 -0.0654027 0.997859
    outer loop
      vertex 43 50 4.5
      vertex 46 49.4126 4.4615
      vertex 46 50 4.5
    endloop
  endfacet
  facet normal 0 -0.0654027 0.997859
    outer loop
      vertex 46 49.4126 4.4615
      vertex 43 50 4.5
      vertex 43 49.4126 4.4615
    endloop
  endfacet
  facet normal 0 0.0654027 -0.997859
    outer loop
      vertex 43 50 -4.5
      vertex 46 50.5874 -4.4615
      vertex 46 50 -4.5
    endloop
  endfacet
  facet normal 0 0.0654027 -0.997859
    outer loop
      vertex 46 50.5874 -4.4615
      vertex 43 50 -4.5
      vertex 43 50.5874 -4.4615
    endloop
  endfacet
  facet normal 0 -0.751845 0.65934
    outer loop
      vertex 43 46.4299 2.73943
      vertex 46 46.818 3.18198
      vertex 43 46.818 3.18198
    endloop
  endfacet
  facet normal 0 -0.751845 0.65934
    outer loop
      vertex 46 46.818 3.18198
      vertex 43 46.4299 2.73943
      vertex 46 46.4299 2.73943
    endloop
  endfacet
  facet normal -0 0.659308 0.751873
    outer loop
      vertex 43 53.182 3.18198
      vertex 46 52.7394 3.57009
      vertex 46 53.182 3.18198
    endloop
  endfacet
  facet normal 0 0.659308 0.751873
    outer loop
      vertex 46 52.7394 3.57009
      vertex 43 53.182 3.18198
      vertex 43 52.7394 3.57009
    endloop
  endfacet
  facet normal -0 0.321437 0.946931
    outer loop
      vertex 43 51.7221 4.15746
      vertex 46 51.1647 4.34667
      vertex 46 51.7221 4.15746
    endloop
  endfacet
  facet normal 0 0.321437 0.946931
    outer loop
      vertex 46 51.1647 4.34667
      vertex 43 51.7221 4.15746
      vertex 43 51.1647 4.34667
    endloop
  endfacet
  facet normal 0 -0.896837 0.442362
    outer loop
      vertex 43 45.8425 1.72207
      vertex 46 46.1029 2.25
      vertex 43 46.1029 2.25
    endloop
  endfacet
  facet normal 0 -0.896837 0.442362
    outer loop
      vertex 46 46.1029 2.25
      vertex 43 45.8425 1.72207
      vertex 46 45.8425 1.72207
    endloop
  endfacet
  facet normal 0 -0.980797 0.19503
    outer loop
      vertex 43 45.5385 0.587367
      vertex 46 45.6533 1.16469
      vertex 43 45.6533 1.16469
    endloop
  endfacet
  facet normal 0 -0.980797 0.19503
    outer loop
      vertex 46 45.6533 1.16469
      vertex 43 45.5385 0.587367
      vertex 46 45.5385 0.587367
    endloop
  endfacet
  facet normal 0 -0.831491 0.555539
    outer loop
      vertex 43 46.1029 2.25
      vertex 46 46.4299 2.73943
      vertex 43 46.4299 2.73943
    endloop
  endfacet
  facet normal 0 -0.831491 0.555539
    outer loop
      vertex 46 46.4299 2.73943
      vertex 43 46.1029 2.25
      vertex 46 46.1029 2.25
    endloop
  endfacet
  facet normal 0 -0.442314 0.89686
    outer loop
      vertex 43 48.2779 4.15746
      vertex 46 47.75 3.89711
      vertex 46 48.2779 4.15746
    endloop
  endfacet
  facet normal 0 -0.442314 0.89686
    outer loop
      vertex 46 47.75 3.89711
      vertex 43 48.2779 4.15746
      vertex 43 47.75 3.89711
    endloop
  endfacet
  facet normal 0 -0.321437 0.946931
    outer loop
      vertex 43 48.8353 4.34667
      vertex 46 48.2779 4.15746
      vertex 46 48.8353 4.34667
    endloop
  endfacet
  facet normal 0 -0.321437 0.946931
    outer loop
      vertex 46 48.2779 4.15746
      vertex 43 48.8353 4.34667
      vertex 43 48.2779 4.15746
    endloop
  endfacet
  facet normal 0 -0.555586 0.831459
    outer loop
      vertex 43 47.75 3.89711
      vertex 46 47.2606 3.57009
      vertex 46 47.75 3.89711
    endloop
  endfacet
  facet normal 0 -0.555586 0.831459
    outer loop
      vertex 46 47.2606 3.57009
      vertex 43 47.75 3.89711
      vertex 43 47.2606 3.57009
    endloop
  endfacet
  facet normal 0 0.896837 0.442362
    outer loop
      vertex 46 54.1575 1.72207
      vertex 43 53.8971 2.25
      vertex 46 53.8971 2.25
    endloop
  endfacet
  facet normal 0 0.896837 0.442362
    outer loop
      vertex 43 53.8971 2.25
      vertex 46 54.1575 1.72207
      vertex 43 54.1575 1.72207
    endloop
  endfacet
  facet normal 0 0.946933 0.321432
    outer loop
      vertex 46 54.3467 1.16469
      vertex 43 54.1575 1.72207
      vertex 46 54.1575 1.72207
    endloop
  endfacet
  facet normal 0 0.946933 0.321432
    outer loop
      vertex 43 54.1575 1.72207
      vertex 46 54.3467 1.16469
      vertex 43 54.3467 1.16469
    endloop
  endfacet
  facet normal -0 0.442314 0.89686
    outer loop
      vertex 43 52.25 3.89711
      vertex 46 51.7221 4.15746
      vertex 46 52.25 3.89711
    endloop
  endfacet
  facet normal 0 0.442314 0.89686
    outer loop
      vertex 46 51.7221 4.15746
      vertex 43 52.25 3.89711
      vertex 43 51.7221 4.15746
    endloop
  endfacet
  facet normal -0 0.195087 0.980786
    outer loop
      vertex 43 51.1647 4.34667
      vertex 46 50.5874 4.4615
      vertex 46 51.1647 4.34667
    endloop
  endfacet
  facet normal 0 0.195087 0.980786
    outer loop
      vertex 46 50.5874 4.4615
      vertex 43 51.1647 4.34667
      vertex 43 50.5874 4.4615
    endloop
  endfacet
  facet normal 0 -0.442314 -0.89686
    outer loop
      vertex 43 47.75 -3.89711
      vertex 46 48.2779 -4.15746
      vertex 46 47.75 -3.89711
    endloop
  endfacet
  facet normal -0 -0.442314 -0.89686
    outer loop
      vertex 46 48.2779 -4.15746
      vertex 43 47.75 -3.89711
      vertex 43 48.2779 -4.15746
    endloop
  endfacet
  facet normal 0 0.321437 -0.946931
    outer loop
      vertex 43 51.1647 -4.34667
      vertex 46 51.7221 -4.15746
      vertex 46 51.1647 -4.34667
    endloop
  endfacet
  facet normal 0 0.321437 -0.946931
    outer loop
      vertex 46 51.7221 -4.15746
      vertex 43 51.1647 -4.34667
      vertex 43 51.7221 -4.15746
    endloop
  endfacet
  facet normal 0 0.896837 -0.442362
    outer loop
      vertex 46 53.8971 -2.25
      vertex 43 54.1575 -1.72207
      vertex 46 54.1575 -1.72207
    endloop
  endfacet
  facet normal 0 0.896837 -0.442362
    outer loop
      vertex 43 54.1575 -1.72207
      vertex 46 53.8971 -2.25
      vertex 43 53.8971 -2.25
    endloop
  endfacet
  facet normal 1 0 0
    outer loop
      vertex 46 53.1 0
      vertex 46 54.5 0
      vertex 46 54.4615 0.587367
    endloop
  endfacet
  facet normal 1 -0 0
    outer loop
      vertex 46 52.9944 0.802339
      vertex 46 54.4615 0.587367
      vertex 46 54.3467 1.16469
    endloop
  endfacet
  facet normal 1 0 0
    outer loop
      vertex 46 54.5 0
      vertex 46 53.1 0
      vertex 46 54.4615 -0.587367
    endloop
  endfacet
  facet normal 1 0 0
    outer loop
      vertex 46 52.9944 0.802339
      vertex 46 54.3467 1.16469
      vertex 46 54.1575 1.72207
    endloop
  endfacet
  facet normal 1 0 0
    outer loop
      vertex 46 52.9944 -0.802339
      vertex 46 54.4615 -0.587367
      vertex 46 53.1 0
    endloop
  endfacet
  facet normal 1 0 0
    outer loop
      vertex 46 52.6847 1.55
      vertex 46 54.1575 1.72207
      vertex 46 53.8971 2.25
    endloop
  endfacet
  facet normal 1 0 0
    outer loop
      vertex 46 54.4615 -0.587367
      vertex 46 52.9944 -0.802339
      vertex 46 54.3467 -1.16469
    endloop
  endfacet
  facet normal 1 0 0
    outer loop
      vertex 46 52.6847 1.55
      vertex 46 53.8971 2.25
      vertex 46 53.5701 2.73943
    endloop
  endfacet
  facet normal 1 0 0
    outer loop
      vertex 46 54.3467 -1.16469
      vertex 46 52.9944 -0.802339
      vertex 46 54.1575 -1.72207
    endloop
  endfacet
  facet normal 1 0 0
    outer loop
      vertex 46 52.192 2.19203
      vertex 46 53.5701 2.73943
      vertex 46 53.182 3.18198
    endloop
  endfacet
  facet normal 1 -0 0
    outer loop
      vertex 46 52.6847 -1.55
      vertex 46 54.1575 -1.72207
      vertex 46 52.9944 -0.802339
    endloop
  endfacet
  facet normal 1 0 0
    outer loop
      vertex 46 54.1575 -1.72207
      vertex 46 52.6847 -1.55
      vertex 46 53.8971 -2.25
    endloop
  endfacet
  facet normal 1 0 0
    outer loop
      vertex 46 54.4615 0.587367
      vertex 46 52.9944 0.802339
      vertex 46 53.1 0
    endloop
  endfacet
  facet normal 1 0 0
    outer loop
      vertex 46 52.192 2.19203
      vertex 46 53.182 3.18198
      vertex 46 52.7394 3.57009
    endloop
  endfacet
  facet normal 1 0 0
    outer loop
      vertex 46 54.1575 1.72207
      vertex 46 52.6847 1.55
      vertex 46 52.9944 0.802339
    endloop
  endfacet
  facet normal 1 0 0
    outer loop
      vertex 46 51.55 2.68468
      vertex 46 52.7394 3.57009
      vertex 46 52.25 3.89711
    endloop
  endfacet
  facet normal 1 0 0
    outer loop
      vertex 46 53.5701 2.73943
      vertex 46 52.192 2.19203
      vertex 46 52.6847 1.55
    endloop
  endfacet
  facet normal 1 0 0
    outer loop
      vertex 46 51.55 2.68468
      vertex 46 52.25 3.89711
      vertex 46 51.7221 4.15746
    endloop
  endfacet
  facet normal 1 0 0
    outer loop
      vertex 46 52.7394 3.57009
      vertex 46 51.55 2.68468
      vertex 46 52.192 2.19203
    endloop
  endfacet
  facet normal 1 0 0
    outer loop
      vertex 46 50.8023 2.99437
      vertex 46 51.7221 4.15746
      vertex 46 51.1647 4.34667
    endloop
  endfacet
  facet normal 1 0 0
    outer loop
      vertex 46 51.7221 4.15746
      vertex 46 50.8023 2.99437
      vertex 46 51.55 2.68468
    endloop
  endfacet
  facet normal 1 0 0
    outer loop
      vertex 46 50.5874 4.4615
      vertex 46 50.8023 2.99437
      vertex 46 51.1647 4.34667
    endloop
  endfacet
  facet normal 1 0 0
    outer loop
      vertex 46 50 3.1
      vertex 46 50.5874 4.4615
      vertex 46 50 4.5
    endloop
  endfacet
  facet normal 1 0 0
    outer loop
      vertex 46 50.5874 4.4615
      vertex 46 50 3.1
      vertex 46 50.8023 2.99437
    endloop
  endfacet
  facet normal 1 -0 0
    outer loop
      vertex 46 49.4126 4.4615
      vertex 46 50 3.1
      vertex 46 50 4.5
    endloop
  endfacet
  facet normal 1 0 0
    outer loop
      vertex 46 49.4126 4.4615
      vertex 46 49.1977 2.99437
      vertex 46 50 3.1
    endloop
  endfacet
  facet normal 1 -0 0
    outer loop
      vertex 46 48.8353 4.34667
      vertex 46 49.1977 2.99437
      vertex 46 49.4126 4.4615
    endloop
  endfacet
  facet normal 1 -0 0
    outer loop
      vertex 46 48.2779 4.15746
      vertex 46 49.1977 2.99437
      vertex 46 48.8353 4.34667
    endloop
  endfacet
  facet normal 1 0 0
    outer loop
      vertex 46 49.1977 2.99437
      vertex 46 48.2779 4.15746
      vertex 46 48.45 2.68468
    endloop
  endfacet
  facet normal 1 -0 0
    outer loop
      vertex 46 47.75 3.89711
      vertex 46 48.45 2.68468
      vertex 46 48.2779 4.15746
    endloop
  endfacet
  facet normal 1 -0 0
    outer loop
      vertex 46 47.2606 3.57009
      vertex 46 48.45 2.68468
      vertex 46 47.75 3.89711
    endloop
  endfacet
  facet normal 1 0 0
    outer loop
      vertex 46 48.45 2.68468
      vertex 46 47.2606 3.57009
      vertex 46 47.808 2.19203
    endloop
  endfacet
  facet normal 1 -0 0
    outer loop
      vertex 46 46.818 3.18198
      vertex 46 47.808 2.19203
      vertex 46 47.2606 3.57009
    endloop
  endfacet
  facet normal 1 -0 0
    outer loop
      vertex 46 46.4299 2.73943
      vertex 46 47.808 2.19203
      vertex 46 46.818 3.18198
    endloop
  endfacet
  facet normal 1 0 0
    outer loop
      vertex 46 47.808 2.19203
      vertex 46 46.4299 2.73943
      vertex 46 47.3153 1.55
    endloop
  endfacet
  facet normal 1 -0 0
    outer loop
      vertex 46 46.1029 2.25
      vertex 46 47.3153 1.55
      vertex 46 46.4299 2.73943
    endloop
  endfacet
  facet normal 1 0 0
    outer loop
      vertex 46 53.8971 -2.25
      vertex 46 52.6847 -1.55
      vertex 46 53.5701 -2.73943
    endloop
  endfacet
  facet normal 1 -0 0
    outer loop
      vertex 46 52.192 -2.19203
      vertex 46 53.5701 -2.73943
      vertex 46 52.6847 -1.55
    endloop
  endfacet
  facet normal 1 0 0
    outer loop
      vertex 46 53.5701 -2.73943
      vertex 46 52.192 -2.19203
      vertex 46 53.182 -3.18198
    endloop
  endfacet
  facet normal 1 0 0
    outer loop
      vertex 46 53.182 -3.18198
      vertex 46 52.192 -2.19203
      vertex 46 52.7394 -3.57009
    endloop
  endfacet
  facet normal 1 -0 0
    outer loop
      vertex 46 51.55 -2.68468
      vertex 46 52.7394 -3.57009
      vertex 46 52.192 -2.19203
    endloop
  endfacet
  facet normal 1 0 0
    outer loop
      vertex 46 52.7394 -3.57009
      vertex 46 51.55 -2.68468
      vertex 46 52.25 -3.89711
    endloop
  endfacet
  facet normal 1 0 0
    outer loop
      vertex 46 52.25 -3.89711
      vertex 46 51.55 -2.68468
      vertex 46 51.7221 -4.15746
    endloop
  endfacet
  facet normal 1 -0 0
    outer loop
      vertex 46 50.8023 -2.99437
      vertex 46 51.7221 -4.15746
      vertex 46 51.55 -2.68468
    endloop
  endfacet
  facet normal 1 0 0
    outer loop
      vertex 46 51.7221 -4.15746
      vertex 46 50.8023 -2.99437
      vertex 46 51.1647 -4.34667
    endloop
  endfacet
  facet normal 1 0 0
    outer loop
      vertex 46 50.8023 -2.99437
      vertex 46 50.5874 -4.4615
      vertex 46 51.1647 -4.34667
    endloop
  endfacet
  facet normal 1 -0 0
    outer loop
      vertex 46 50 -3.1
      vertex 46 50.5874 -4.4615
      vertex 46 50.8023 -2.99437
    endloop
  endfacet
  facet normal 1 0 0
    outer loop
      vertex 46 50 -3.1
      vertex 46 50 -4.5
      vertex 46 50.5874 -4.4615
    endloop
  endfacet
  facet normal 1 0 0
    outer loop
      vertex 46 50 -3.1
      vertex 46 49.4126 -4.4615
      vertex 46 50 -4.5
    endloop
  endfacet
  facet normal 1 0 0
    outer loop
      vertex 46 49.1977 -2.99437
      vertex 46 49.4126 -4.4615
      vertex 46 50 -3.1
    endloop
  endfacet
  facet normal 1 0 0
    outer loop
      vertex 46 49.1977 -2.99437
      vertex 46 48.8353 -4.34667
      vertex 46 49.4126 -4.4615
    endloop
  endfacet
  facet normal 1 0 0
    outer loop
      vertex 46 48.2779 -4.15746
      vertex 46 49.1977 -2.99437
      vertex 46 48.45 -2.68468
    endloop
  endfacet
  facet normal 1 0 0
    outer loop
      vertex 46 49.1977 -2.99437
      vertex 46 48.2779 -4.15746
      vertex 46 48.8353 -4.34667
    endloop
  endfacet
  facet normal 1 0 0
    outer loop
      vertex 46 47.2606 -3.57009
      vertex 46 48.45 -2.68468
      vertex 46 47.808 -2.19203
    endloop
  endfacet
  facet normal 1 0 0
    outer loop
      vertex 46 48.45 -2.68468
      vertex 46 47.75 -3.89711
      vertex 46 48.2779 -4.15746
    endloop
  endfacet
  facet normal 1 0 0
    outer loop
      vertex 46 46.4299 -2.73943
      vertex 46 47.808 -2.19203
      vertex 46 47.3153 -1.55
    endloop
  endfacet
  facet normal 1 0 0
    outer loop
      vertex 46 48.45 -2.68468
      vertex 46 47.2606 -3.57009
      vertex 46 47.75 -3.89711
    endloop
  endfacet
  facet normal 1 0 0
    outer loop
      vertex 46 45.8425 -1.72207
      vertex 46 47.3153 -1.55
      vertex 46 47.0056 -0.802339
    endloop
  endfacet
  facet normal 1 -0 0
    outer loop
      vertex 46 45.5385 -0.587367
      vertex 46 47.0056 -0.802339
      vertex 46 46.9 0
    endloop
  endfacet
  facet normal 1 0 0
    outer loop
      vertex 46 47.808 -2.19203
      vertex 46 46.818 -3.18198
      vertex 46 47.2606 -3.57009
    endloop
  endfacet
  facet normal 1 -0 0
    outer loop
      vertex 46 45.8425 1.72207
      vertex 46 47.3153 1.55
      vertex 46 46.1029 2.25
    endloop
  endfacet
  facet normal 1 0 0
    outer loop
      vertex 46 47.3153 1.55
      vertex 46 45.8425 1.72207
      vertex 46 47.0056 0.802339
    endloop
  endfacet
  facet normal 1 0 0
    outer loop
      vertex 46 47.808 -2.19203
      vertex 46 46.4299 -2.73943
      vertex 46 46.818 -3.18198
    endloop
  endfacet
  facet normal 1 -0 0
    outer loop
      vertex 46 45.6533 1.16469
      vertex 46 47.0056 0.802339
      vertex 46 45.8425 1.72207
    endloop
  endfacet
  facet normal 1 0 0
    outer loop
      vertex 46 47.3153 -1.55
      vertex 46 46.1029 -2.25
      vertex 46 46.4299 -2.73943
    endloop
  endfacet
  facet normal 1 0 0
    outer loop
      vertex 46 45.5385 0.587367
      vertex 46 47.0056 0.802339
      vertex 46 45.6533 1.16469
    endloop
  endfacet
  facet normal 1 0 0
    outer loop
      vertex 46 47.3153 -1.55
      vertex 46 45.8425 -1.72207
      vertex 46 46.1029 -2.25
    endloop
  endfacet
  facet normal 1 0 0
    outer loop
      vertex 46 47.0056 0.802339
      vertex 46 45.5385 0.587367
      vertex 46 46.9 0
    endloop
  endfacet
  facet normal 1 0 0
    outer loop
      vertex 46 47.0056 -0.802339
      vertex 46 45.6533 -1.16469
      vertex 46 45.8425 -1.72207
    endloop
  endfacet
  facet normal 1 0 0
    outer loop
      vertex 46 45.5 0
      vertex 46 46.9 0
      vertex 46 45.5385 0.587367
    endloop
  endfacet
  facet normal 1 0 0
    outer loop
      vertex 46 47.0056 -0.802339
      vertex 46 45.5385 -0.587367
      vertex 46 45.6533 -1.16469
    endloop
  endfacet
  facet normal 1 0 0
    outer loop
      vertex 46 46.9 0
      vertex 46 45.5 0
      vertex 46 45.5385 -0.587367
    endloop
  endfacet
  facet normal 0 -0.946933 0.321432
    outer loop
      vertex 43 45.6533 1.16469
      vertex 46 45.8425 1.72207
      vertex 43 45.8425 1.72207
    endloop
  endfacet
  facet normal 0 -0.946933 0.321432
    outer loop
      vertex 46 45.8425 1.72207
      vertex 43 45.6533 1.16469
      vertex 46 45.6533 1.16469
    endloop
  endfacet
  facet normal 0 -0.195087 0.980786
    outer loop
      vertex 43 49.4126 4.4615
      vertex 46 48.8353 4.34667
      vertex 46 49.4126 4.4615
    endloop
  endfacet
  facet normal 0 -0.195087 0.980786
    outer loop
      vertex 46 48.8353 4.34667
      vertex 43 49.4126 4.4615
      vertex 43 48.8353 4.34667
    endloop
  endfacet
  facet normal 0 -0.659308 0.751873
    outer loop
      vertex 43 47.2606 3.57009
      vertex 46 46.818 3.18198
      vertex 46 47.2606 3.57009
    endloop
  endfacet
  facet normal 0 -0.659308 0.751873
    outer loop
      vertex 46 46.818 3.18198
      vertex 43 47.2606 3.57009
      vertex 43 46.818 3.18198
    endloop
  endfacet
  facet normal 0 0.831491 0.555539
    outer loop
      vertex 46 53.8971 2.25
      vertex 43 53.5701 2.73943
      vertex 46 53.5701 2.73943
    endloop
  endfacet
  facet normal 0 0.831491 0.555539
    outer loop
      vertex 43 53.5701 2.73943
      vertex 46 53.8971 2.25
      vertex 43 53.8971 2.25
    endloop
  endfacet
  facet normal 0 0.751845 0.65934
    outer loop
      vertex 46 53.5701 2.73943
      vertex 43 53.182 3.18198
      vertex 46 53.182 3.18198
    endloop
  endfacet
  facet normal 0 0.751845 0.65934
    outer loop
      vertex 43 53.182 3.18198
      vertex 46 53.5701 2.73943
      vertex 43 53.5701 2.73943
    endloop
  endfacet
  facet normal 0 0.980797 0.19503
    outer loop
      vertex 46 54.4615 0.587367
      vertex 43 54.3467 1.16469
      vertex 46 54.3467 1.16469
    endloop
  endfacet
  facet normal 0 0.980797 0.19503
    outer loop
      vertex 43 54.3467 1.16469
      vertex 46 54.4615 0.587367
      vertex 43 54.4615 0.587367
    endloop
  endfacet
  facet normal -1 0 0
    outer loop
      vertex 43 53.1 0
      vertex 43 54.5 0
      vertex 43 54.4615 -0.587367
    endloop
  endfacet
  facet normal -1 0 0
    outer loop
      vertex 43 52.9944 -0.802339
      vertex 43 54.4615 -0.587367
      vertex 43 54.3467 -1.16469
    endloop
  endfacet
  facet normal -1 0 0
    outer loop
      vertex 43 54.5 0
      vertex 43 53.1 0
      vertex 43 54.4615 0.587367
    endloop
  endfacet
  facet normal -1 0 0
    outer loop
      vertex 43 52.9944 -0.802339
      vertex 43 54.3467 -1.16469
      vertex 43 54.1575 -1.72207
    endloop
  endfacet
  facet normal -1 0 0
    outer loop
      vertex 43 52.9944 0.802339
      vertex 43 54.4615 0.587367
      vertex 43 53.1 0
    endloop
  endfacet
  facet normal -1 0 0
    outer loop
      vertex 43 52.6847 -1.55
      vertex 43 54.1575 -1.72207
      vertex 43 53.8971 -2.25
    endloop
  endfacet
  facet normal -1 0 0
    outer loop
      vertex 43 54.4615 0.587367
      vertex 43 52.9944 0.802339
      vertex 43 54.3467 1.16469
    endloop
  endfacet
  facet normal -1 0 0
    outer loop
      vertex 43 52.6847 -1.55
      vertex 43 53.8971 -2.25
      vertex 43 53.5701 -2.73943
    endloop
  endfacet
  facet normal -1 -0 0
    outer loop
      vertex 43 54.3467 1.16469
      vertex 43 52.9944 0.802339
      vertex 43 54.1575 1.72207
    endloop
  endfacet
  facet normal -1 0 0
    outer loop
      vertex 43 52.192 -2.19203
      vertex 43 53.5701 -2.73943
      vertex 43 53.182 -3.18198
    endloop
  endfacet
  facet normal -1 0 0
    outer loop
      vertex 43 52.6847 1.55
      vertex 43 54.1575 1.72207
      vertex 43 52.9944 0.802339
    endloop
  endfacet
  facet normal -1 -0 0
    outer loop
      vertex 43 54.1575 1.72207
      vertex 43 52.6847 1.55
      vertex 43 53.8971 2.25
    endloop
  endfacet
  facet normal -1 -0 0
    outer loop
      vertex 43 54.4615 -0.587367
      vertex 43 52.9944 -0.802339
      vertex 43 53.1 0
    endloop
  endfacet
  facet normal -1 0 0
    outer loop
      vertex 43 52.192 -2.19203
      vertex 43 53.182 -3.18198
      vertex 43 52.7394 -3.57009
    endloop
  endfacet
  facet normal -1 0 0
    outer loop
      vertex 43 54.1575 -1.72207
      vertex 43 52.6847 -1.55
      vertex 43 52.9944 -0.802339
    endloop
  endfacet
  facet normal -1 0 0
    outer loop
      vertex 43 51.55 -2.68468
      vertex 43 52.7394 -3.57009
      vertex 43 52.25 -3.89711
    endloop
  endfacet
  facet normal -1 0 0
    outer loop
      vertex 43 53.5701 -2.73943
      vertex 43 52.192 -2.19203
      vertex 43 52.6847 -1.55
    endloop
  endfacet
  facet normal -1 0 0
    outer loop
      vertex 43 51.55 -2.68468
      vertex 43 52.25 -3.89711
      vertex 43 51.7221 -4.15746
    endloop
  endfacet
  facet normal -1 0 0
    outer loop
      vertex 43 52.7394 -3.57009
      vertex 43 51.55 -2.68468
      vertex 43 52.192 -2.19203
    endloop
  endfacet
  facet normal -1 0 0
    outer loop
      vertex 43 50.8023 -2.99437
      vertex 43 51.7221 -4.15746
      vertex 43 51.1647 -4.34667
    endloop
  endfacet
  facet normal -1 0 0
    outer loop
      vertex 43 51.7221 -4.15746
      vertex 43 50.8023 -2.99437
      vertex 43 51.55 -2.68468
    endloop
  endfacet
  facet normal -1 0 0
    outer loop
      vertex 43 50.5874 -4.4615
      vertex 43 50.8023 -2.99437
      vertex 43 51.1647 -4.34667
    endloop
  endfacet
  facet normal -1 0 0
    outer loop
      vertex 43 50 -3.1
      vertex 43 50.5874 -4.4615
      vertex 43 50 -4.5
    endloop
  endfacet
  facet normal -1 0 0
    outer loop
      vertex 43 50.5874 -4.4615
      vertex 43 50 -3.1
      vertex 43 50.8023 -2.99437
    endloop
  endfacet
  facet normal -1 0 0
    outer loop
      vertex 43 49.4126 -4.4615
      vertex 43 50 -3.1
      vertex 43 50 -4.5
    endloop
  endfacet
  facet normal -1 0 0
    outer loop
      vertex 43 49.4126 -4.4615
      vertex 43 49.1977 -2.99437
      vertex 43 50 -3.1
    endloop
  endfacet
  facet normal -1 0 0
    outer loop
      vertex 43 48.8353 -4.34667
      vertex 43 49.1977 -2.99437
      vertex 43 49.4126 -4.4615
    endloop
  endfacet
  facet normal -1 0 0
    outer loop
      vertex 43 48.2779 -4.15746
      vertex 43 49.1977 -2.99437
      vertex 43 48.8353 -4.34667
    endloop
  endfacet
  facet normal -1 -0 0
    outer loop
      vertex 43 49.1977 -2.99437
      vertex 43 48.2779 -4.15746
      vertex 43 48.45 -2.68468
    endloop
  endfacet
  facet normal -1 0 0
    outer loop
      vertex 43 47.75 -3.89711
      vertex 43 48.45 -2.68468
      vertex 43 48.2779 -4.15746
    endloop
  endfacet
  facet normal -1 0 0
    outer loop
      vertex 43 47.2606 -3.57009
      vertex 43 48.45 -2.68468
      vertex 43 47.75 -3.89711
    endloop
  endfacet
  facet normal -1 -0 0
    outer loop
      vertex 43 48.45 -2.68468
      vertex 43 47.2606 -3.57009
      vertex 43 47.808 -2.19203
    endloop
  endfacet
  facet normal -1 0 0
    outer loop
      vertex 43 46.818 -3.18198
      vertex 43 47.808 -2.19203
      vertex 43 47.2606 -3.57009
    endloop
  endfacet
  facet normal -1 0 0
    outer loop
      vertex 43 46.4299 -2.73943
      vertex 43 47.808 -2.19203
      vertex 43 46.818 -3.18198
    endloop
  endfacet
  facet normal -1 -0 0
    outer loop
      vertex 43 47.808 -2.19203
      vertex 43 46.4299 -2.73943
      vertex 43 47.3153 -1.55
    endloop
  endfacet
  facet normal -1 0 0
    outer loop
      vertex 43 46.1029 -2.25
      vertex 43 47.3153 -1.55
      vertex 43 46.4299 -2.73943
    endloop
  endfacet
  facet normal -1 -0 0
    outer loop
      vertex 43 53.8971 2.25
      vertex 43 52.6847 1.55
      vertex 43 53.5701 2.73943
    endloop
  endfacet
  facet normal -1 0 0
    outer loop
      vertex 43 52.192 2.19203
      vertex 43 53.5701 2.73943
      vertex 43 52.6847 1.55
    endloop
  endfacet
  facet normal -1 -0 0
    outer loop
      vertex 43 53.5701 2.73943
      vertex 43 52.192 2.19203
      vertex 43 53.182 3.18198
    endloop
  endfacet
  facet normal -1 -0 0
    outer loop
      vertex 43 53.182 3.18198
      vertex 43 52.192 2.19203
      vertex 43 52.7394 3.57009
    endloop
  endfacet
  facet normal -1 0 0
    outer loop
      vertex 43 51.55 2.68468
      vertex 43 52.7394 3.57009
      vertex 43 52.192 2.19203
    endloop
  endfacet
  facet normal -1 -0 0
    outer loop
      vertex 43 52.7394 3.57009
      vertex 43 51.55 2.68468
      vertex 43 52.25 3.89711
    endloop
  endfacet
  facet normal -1 -0 0
    outer loop
      vertex 43 52.25 3.89711
      vertex 43 51.55 2.68468
      vertex 43 51.7221 4.15746
    endloop
  endfacet
  facet normal -1 0 0
    outer loop
      vertex 43 50.8023 2.99437
      vertex 43 51.7221 4.15746
      vertex 43 51.55 2.68468
    endloop
  endfacet
  facet normal -1 -0 0
    outer loop
      vertex 43 51.7221 4.15746
      vertex 43 50.8023 2.99437
      vertex 43 51.1647 4.34667
    endloop
  endfacet
  facet normal -1 0 0
    outer loop
      vertex 43 50.8023 2.99437
      vertex 43 50.5874 4.4615
      vertex 43 51.1647 4.34667
    endloop
  endfacet
  facet normal -1 0 0
    outer loop
      vertex 43 50 3.1
      vertex 43 50.5874 4.4615
      vertex 43 50.8023 2.99437
    endloop
  endfacet
  facet normal -1 0 0
    outer loop
      vertex 43 50 3.1
      vertex 43 50 4.5
      vertex 43 50.5874 4.4615
    endloop
  endfacet
  facet normal -1 0 0
    outer loop
      vertex 43 50 3.1
      vertex 43 49.4126 4.4615
      vertex 43 50 4.5
    endloop
  endfacet
  facet normal -1 0 0
    outer loop
      vertex 43 49.1977 2.99437
      vertex 43 49.4126 4.4615
      vertex 43 50 3.1
    endloop
  endfacet
  facet normal -1 0 0
    outer loop
      vertex 43 49.1977 2.99437
      vertex 43 48.8353 4.34667
      vertex 43 49.4126 4.4615
    endloop
  endfacet
  facet normal -1 0 0
    outer loop
      vertex 43 48.2779 4.15746
      vertex 43 49.1977 2.99437
      vertex 43 48.45 2.68468
    endloop
  endfacet
  facet normal -1 0 0
    outer loop
      vertex 43 49.1977 2.99437
      vertex 43 48.2779 4.15746
      vertex 43 48.8353 4.34667
    endloop
  endfacet
  facet normal -1 0 0
    outer loop
      vertex 43 47.2606 3.57009
      vertex 43 48.45 2.68468
      vertex 43 47.808 2.19203
    endloop
  endfacet
  facet normal -1 0 0
    outer loop
      vertex 43 48.45 2.68468
      vertex 43 47.75 3.89711
      vertex 43 48.2779 4.15746
    endloop
  endfacet
  facet normal -1 0 0
    outer loop
      vertex 43 46.4299 2.73943
      vertex 43 47.808 2.19203
      vertex 43 47.3153 1.55
    endloop
  endfacet
  facet normal -1 0 0
    outer loop
      vertex 43 48.45 2.68468
      vertex 43 47.2606 3.57009
      vertex 43 47.75 3.89711
    endloop
  endfacet
  facet normal -1 0 0
    outer loop
      vertex 43 45.8425 1.72207
      vertex 43 47.3153 1.55
      vertex 43 47.0056 0.802339
    endloop
  endfacet
  facet normal -1 0 0
    outer loop
      vertex 43 45.5385 0.587367
      vertex 43 47.0056 0.802339
      vertex 43 46.9 0
    endloop
  endfacet
  facet normal -1 0 0
    outer loop
      vertex 43 47.808 2.19203
      vertex 43 46.818 3.18198
      vertex 43 47.2606 3.57009
    endloop
  endfacet
  facet normal -1 0 0
    outer loop
      vertex 43 45.8425 -1.72207
      vertex 43 47.3153 -1.55
      vertex 43 46.1029 -2.25
    endloop
  endfacet
  facet normal -1 -0 0
    outer loop
      vertex 43 47.3153 -1.55
      vertex 43 45.8425 -1.72207
      vertex 43 47.0056 -0.802339
    endloop
  endfacet
  facet normal -1 0 0
    outer loop
      vertex 43 47.808 2.19203
      vertex 43 46.4299 2.73943
      vertex 43 46.818 3.18198
    endloop
  endfacet
  facet normal -1 0 0
    outer loop
      vertex 43 45.6533 -1.16469
      vertex 43 47.0056 -0.802339
      vertex 43 45.8425 -1.72207
    endloop
  endfacet
  facet normal -1 0 0
    outer loop
      vertex 43 47.3153 1.55
      vertex 43 46.1029 2.25
      vertex 43 46.4299 2.73943
    endloop
  endfacet
  facet normal -1 0 0
    outer loop
      vertex 43 45.5385 -0.587367
      vertex 43 47.0056 -0.802339
      vertex 43 45.6533 -1.16469
    endloop
  endfacet
  facet normal -1 0 0
    outer loop
      vertex 43 47.3153 1.55
      vertex 43 45.8425 1.72207
      vertex 43 46.1029 2.25
    endloop
  endfacet
  facet normal -1 0 0
    outer loop
      vertex 43 47.0056 -0.802339
      vertex 43 45.5385 -0.587367
      vertex 43 46.9 0
    endloop
  endfacet
  facet normal -1 0 0
    outer loop
      vertex 43 47.0056 0.802339
      vertex 43 45.6533 1.16469
      vertex 43 45.8425 1.72207
    endloop
  endfacet
  facet normal -1 0 0
    outer loop
      vertex 43 45.5 0
      vertex 43 46.9 0
      vertex 43 45.5385 -0.587367
    endloop
  endfacet
  facet normal -1 -0 0
    outer loop
      vertex 43 47.0056 0.802339
      vertex 43 45.5385 0.587367
      vertex 43 45.6533 1.16469
    endloop
  endfacet
  facet normal -1 0 0
    outer loop
      vertex 43 46.9 0
      vertex 43 45.5 0
      vertex 43 45.5385 0.587367
    endloop
  endfacet
  facet normal -0 0.555586 0.831459
    outer loop
      vertex 43 52.7394 3.57009
      vertex 46 52.25 3.89711
      vertex 46 52.7394 3.57009
    endloop
  endfacet
  facet normal 0 0.555586 0.831459
    outer loop
      vertex 46 52.25 3.89711
      vertex 43 52.7394 3.57009
      vertex 43 52.25 3.89711
    endloop
  endfacet
  facet normal -0 0.0654027 0.997859
    outer loop
      vertex 43 50.5874 4.4615
      vertex 46 50 4.5
      vertex 46 50.5874 4.4615
    endloop
  endfacet
  facet normal 0 0.0654027 0.997859
    outer loop
      vertex 46 50 4.5
      vertex 43 50.5874 4.4615
      vertex 43 50 4.5
    endloop
  endfacet
  facet normal 0 -0.997859 -0.0654064
    outer loop
      vertex 43 45.5385 -0.587367
      vertex 46 45.5 0
      vertex 43 45.5 0
    endloop
  endfacet
  facet normal 0 -0.997859 -0.0654064
    outer loop
      vertex 46 45.5 0
      vertex 43 45.5385 -0.587367
      vertex 46 45.5385 -0.587367
    endloop
  endfacet
  facet normal 0 -0.0654027 -0.997859
    outer loop
      vertex 43 49.4126 -4.4615
      vertex 46 50 -4.5
      vertex 46 49.4126 -4.4615
    endloop
  endfacet
  facet normal -0 -0.0654027 -0.997859
    outer loop
      vertex 46 50 -4.5
      vertex 43 49.4126 -4.4615
      vertex 43 50 -4.5
    endloop
  endfacet
  facet normal 0 -0.321437 -0.946931
    outer loop
      vertex 43 48.2779 -4.15746
      vertex 46 48.8353 -4.34667
      vertex 46 48.2779 -4.15746
    endloop
  endfacet
  facet normal -0 -0.321437 -0.946931
    outer loop
      vertex 46 48.8353 -4.34667
      vertex 43 48.2779 -4.15746
      vertex 43 48.8353 -4.34667
    endloop
  endfacet
  facet normal 0 -0.555586 -0.831459
    outer loop
      vertex 43 47.2606 -3.57009
      vertex 46 47.75 -3.89711
      vertex 46 47.2606 -3.57009
    endloop
  endfacet
  facet normal -0 -0.555586 -0.831459
    outer loop
      vertex 46 47.75 -3.89711
      vertex 43 47.2606 -3.57009
      vertex 43 47.75 -3.89711
    endloop
  endfacet
  facet normal 0 -0.751845 -0.65934
    outer loop
      vertex 43 46.818 -3.18198
      vertex 46 46.4299 -2.73943
      vertex 43 46.4299 -2.73943
    endloop
  endfacet
  facet normal 0 -0.751845 -0.65934
    outer loop
      vertex 46 46.4299 -2.73943
      vertex 43 46.818 -3.18198
      vertex 46 46.818 -3.18198
    endloop
  endfacet
  facet normal 0 -0.896837 -0.442362
    outer loop
      vertex 43 46.1029 -2.25
      vertex 46 45.8425 -1.72207
      vertex 43 45.8425 -1.72207
    endloop
  endfacet
  facet normal 0 -0.896837 -0.442362
    outer loop
      vertex 46 45.8425 -1.72207
      vertex 43 46.1029 -2.25
      vertex 46 46.1029 -2.25
    endloop
  endfacet
  facet normal 0 0.659308 -0.751873
    outer loop
      vertex 43 52.7394 -3.57009
      vertex 46 53.182 -3.18198
      vertex 46 52.7394 -3.57009
    endloop
  endfacet
  facet normal 0 0.659308 -0.751873
    outer loop
      vertex 46 53.182 -3.18198
      vertex 43 52.7394 -3.57009
      vertex 43 53.182 -3.18198
    endloop
  endfacet
  facet normal 0 0.442314 -0.89686
    outer loop
      vertex 43 51.7221 -4.15746
      vertex 46 52.25 -3.89711
      vertex 46 51.7221 -4.15746
    endloop
  endfacet
  facet normal 0 0.442314 -0.89686
    outer loop
      vertex 46 52.25 -3.89711
      vertex 43 51.7221 -4.15746
      vertex 43 52.25 -3.89711
    endloop
  endfacet
  facet normal 0 0.195087 -0.980786
    outer loop
      vertex 43 50.5874 -4.4615
      vertex 46 51.1647 -4.34667
      vertex 46 50.5874 -4.4615
    endloop
  endfacet
  facet normal 0 0.195087 -0.980786
    outer loop
      vertex 46 51.1647 -4.34667
      vertex 43 50.5874 -4.4615
      vertex 43 51.1647 -4.34667
    endloop
  endfacet
  facet normal 0 0.831491 -0.555539
    outer loop
      vertex 46 53.5701 -2.73943
      vertex 43 53.8971 -2.25
      vertex 46 53.8971 -2.25
    endloop
  endfacet
  facet normal 0 0.831491 -0.555539
    outer loop
      vertex 43 53.8971 -2.25
      vertex 46 53.5701 -2.73943
      vertex 43 53.5701 -2.73943
    endloop
  endfacet
  facet normal 0 0.946933 -0.321432
    outer loop
      vertex 46 54.1575 -1.72207
      vertex 43 54.3467 -1.16469
      vertex 46 54.3467 -1.16469
    endloop
  endfacet
  facet normal 0 0.946933 -0.321432
    outer loop
      vertex 43 54.3467 -1.16469
      vertex 46 54.1575 -1.72207
      vertex 43 54.1575 -1.72207
    endloop
  endfacet
  facet normal 0 0.997859 -0.0654064
    outer loop
      vertex 46 54.4615 -0.587367
      vertex 43 54.5 0
      vertex 46 54.5 0
    endloop
  endfacet
  facet normal 0 0.997859 -0.0654064
    outer loop
      vertex 43 54.5 0
      vertex 46 54.4615 -0.587367
      vertex 43 54.4615 -0.587367
    endloop
  endfacet
  facet normal 0 -0.195087 -0.980786
    outer loop
      vertex 43 48.8353 -4.34667
      vertex 46 49.4126 -4.4615
      vertex 46 48.8353 -4.34667
    endloop
  endfacet
  facet normal -0 -0.195087 -0.980786
    outer loop
      vertex 46 49.4126 -4.4615
      vertex 43 48.8353 -4.34667
      vertex 43 49.4126 -4.4615
    endloop
  endfacet
  facet normal 0 -0.659308 -0.751873
    outer loop
      vertex 43 46.818 -3.18198
      vertex 46 47.2606 -3.57009
      vertex 46 46.818 -3.18198
    endloop
  endfacet
  facet normal -0 -0.659308 -0.751873
    outer loop
      vertex 46 47.2606 -3.57009
      vertex 43 46.818 -3.18198
      vertex 43 47.2606 -3.57009
    endloop
  endfacet
  facet normal 0 -0.831491 -0.555539
    outer loop
      vertex 43 46.4299 -2.73943
      vertex 46 46.1029 -2.25
      vertex 43 46.1029 -2.25
    endloop
  endfacet
  facet normal 0 -0.831491 -0.555539
    outer loop
      vertex 46 46.1029 -2.25
      vertex 43 46.4299 -2.73943
      vertex 46 46.4299 -2.73943
    endloop
  endfacet
  facet normal 0 -0.980797 -0.19503
    outer loop
      vertex 43 45.6533 -1.16469
      vertex 46 45.5385 -0.587367
      vertex 43 45.5385 -0.587367
    endloop
  endfacet
  facet normal 0 -0.980797 -0.19503
    outer loop
      vertex 46 45.5385 -0.587367
      vertex 43 45.6533 -1.16469
      vertex 46 45.6533 -1.16469
    endloop
  endfacet
  facet normal 0 -0.946933 -0.321432
    outer loop
      vertex 43 45.8425 -1.72207
      vertex 46 45.6533 -1.16469
      vertex 43 45.6533 -1.16469
    endloop
  endfacet
  facet normal 0 -0.946933 -0.321432
    outer loop
      vertex 46 45.6533 -1.16469
      vertex 43 45.8425 -1.72207
      vertex 46 45.8425 -1.72207
    endloop
  endfacet
  facet normal 0 0.555586 -0.831459
    outer loop
      vertex 43 52.25 -3.89711
      vertex 46 52.7394 -3.57009
      vertex 46 52.25 -3.89711
    endloop
  endfacet
  facet normal 0 0.555586 -0.831459
    outer loop
      vertex 46 52.7394 -3.57009
      vertex 43 52.25 -3.89711
      vertex 43 52.7394 -3.57009
    endloop
  endfacet
  facet normal 0 0.751845 -0.65934
    outer loop
      vertex 46 53.182 -3.18198
      vertex 43 53.5701 -2.73943
      vertex 46 53.5701 -2.73943
    endloop
  endfacet
  facet normal 0 0.751845 -0.65934
    outer loop
      vertex 43 53.5701 -2.73943
      vertex 46 53.182 -3.18198
      vertex 43 53.182 -3.18198
    endloop
  endfacet
  facet normal 0 0.980797 -0.19503
    outer loop
      vertex 46 54.3467 -1.16469
      vertex 43 54.4615 -0.587367
      vertex 46 54.4615 -0.587367
    endloop
  endfacet
  facet normal 0 0.980797 -0.19503
    outer loop
      vertex 43 54.4615 -0.587367
      vertex 46 54.3467 -1.16469
      vertex 43 54.3467 -1.16469
    endloop
  endfacet
  facet normal 0 -0.997853 0.065491
    outer loop
      vertex 26 47 0
      vertex 42.7 47.0257 0.391578
      vertex 26 47.0257 0.391578
    endloop
  endfacet
  facet normal 0 -0.997853 0.065491
    outer loop
      vertex 42.7 47.0257 0.391578
      vertex 26 47 0
      vertex 42.7 47 0
    endloop
  endfacet
  facet normal 0 0.997853 0.065491
    outer loop
      vertex 42.7 53 0
      vertex 26 52.9743 0.391578
      vertex 42.7 52.9743 0.391578
    endloop
  endfacet
  facet normal 0 0.997853 0.065491
    outer loop
      vertex 26 52.9743 0.391578
      vertex 42.7 53 0
      vertex 26 53 0
    endloop
  endfacet
  facet normal 0 -0.0654112 0.997858
    outer loop
      vertex 26 50 3
      vertex 42.7 49.6084 2.97433
      vertex 42.7 50 3
    endloop
  endfacet
  facet normal 0 -0.0654112 0.997858
    outer loop
      vertex 42.7 49.6084 2.97433
      vertex 26 50 3
      vertex 26 49.6084 2.97433
    endloop
  endfacet
  facet normal 0 0.0654112 -0.997858
    outer loop
      vertex 26 50 -3
      vertex 42.7 50.3916 -2.97433
      vertex 42.7 50 -3
    endloop
  endfacet
  facet normal 0 0.0654112 -0.997858
    outer loop
      vertex 42.7 50.3916 -2.97433
      vertex 26 50 -3
      vertex 26 50.3916 -2.97433
    endloop
  endfacet
  facet normal 0 -0.751768 0.659428
    outer loop
      vertex 26 47.6199 1.82628
      vertex 42.7 47.8787 2.12132
      vertex 26 47.8787 2.12132
    endloop
  endfacet
  facet normal 0 -0.751768 0.659428
    outer loop
      vertex 42.7 47.8787 2.12132
      vertex 26 47.6199 1.82628
      vertex 42.7 47.6199 1.82628
    endloop
  endfacet
  facet normal -0 0.659392 0.751799
    outer loop
      vertex 26 52.1213 2.12132
      vertex 42.7 51.8263 2.38006
      vertex 42.7 52.1213 2.12132
    endloop
  endfacet
  facet normal 0 0.659392 0.751799
    outer loop
      vertex 42.7 51.8263 2.38006
      vertex 26 52.1213 2.12132
      vertex 26 51.8263 2.38006
    endloop
  endfacet
  facet normal -0 0.321514 0.946905
    outer loop
      vertex 26 51.148 2.77164
      vertex 42.7 50.7765 2.89778
      vertex 42.7 51.148 2.77164
    endloop
  endfacet
  facet normal 0 0.321514 0.946905
    outer loop
      vertex 42.7 50.7765 2.89778
      vertex 26 51.148 2.77164
      vertex 26 50.7765 2.89778
    endloop
  endfacet
  facet normal 0 -0.896936 0.44216
    outer loop
      vertex 26 47.2284 1.14805
      vertex 42.7 47.4019 1.5
      vertex 26 47.4019 1.5
    endloop
  endfacet
  facet normal 0 -0.896936 0.44216
    outer loop
      vertex 42.7 47.4019 1.5
      vertex 26 47.2284 1.14805
      vertex 42.7 47.2284 1.14805
    endloop
  endfacet
  facet normal 0 -0.980813 0.19495
    outer loop
      vertex 26 47.0257 0.391578
      vertex 42.7 47.1022 0.776457
      vertex 26 47.1022 0.776457
    endloop
  endfacet
  facet normal 0 -0.980813 0.19495
    outer loop
      vertex 42.7 47.1022 0.776457
      vertex 26 47.0257 0.391578
      vertex 42.7 47.0257 0.391578
    endloop
  endfacet
  facet normal 0 -0.831485 0.555547
    outer loop
      vertex 26 47.4019 1.5
      vertex 42.7 47.6199 1.82628
      vertex 26 47.6199 1.82628
    endloop
  endfacet
  facet normal 0 -0.831485 0.555547
    outer loop
      vertex 42.7 47.6199 1.82628
      vertex 26 47.4019 1.5
      vertex 42.7 47.4019 1.5
    endloop
  endfacet
  facet normal 0 -0.442233 0.8969
    outer loop
      vertex 26 48.852 2.77164
      vertex 42.7 48.5 2.59808
      vertex 42.7 48.852 2.77164
    endloop
  endfacet
  facet normal 0 -0.442233 0.8969
    outer loop
      vertex 42.7 48.5 2.59808
      vertex 26 48.852 2.77164
      vertex 26 48.5 2.59808
    endloop
  endfacet
  facet normal 0 -0.321514 0.946905
    outer loop
      vertex 26 49.2235 2.89778
      vertex 42.7 48.852 2.77164
      vertex 42.7 49.2235 2.89778
    endloop
  endfacet
  facet normal 0 -0.321514 0.946905
    outer loop
      vertex 42.7 48.852 2.77164
      vertex 26 49.2235 2.89778
      vertex 26 48.852 2.77164
    endloop
  endfacet
  facet normal 0 -0.555558 0.831477
    outer loop
      vertex 26 48.5 2.59808
      vertex 42.7 48.1737 2.38006
      vertex 42.7 48.5 2.59808
    endloop
  endfacet
  facet normal 0 -0.555558 0.831477
    outer loop
      vertex 42.7 48.1737 2.38006
      vertex 26 48.5 2.59808
      vertex 26 48.1737 2.38006
    endloop
  endfacet
  facet normal 0 0.896936 0.44216
    outer loop
      vertex 42.7 52.7716 1.14805
      vertex 26 52.5981 1.5
      vertex 42.7 52.5981 1.5
    endloop
  endfacet
  facet normal 0 0.896936 0.44216
    outer loop
      vertex 26 52.5981 1.5
      vertex 42.7 52.7716 1.14805
      vertex 26 52.7716 1.14805
    endloop
  endfacet
  facet normal 0 0.831485 0.555547
    outer loop
      vertex 42.7 52.5981 1.5
      vertex 26 52.3801 1.82628
      vertex 42.7 52.3801 1.82628
    endloop
  endfacet
  facet normal 0 0.831485 0.555547
    outer loop
      vertex 26 52.3801 1.82628
      vertex 42.7 52.5981 1.5
      vertex 26 52.5981 1.5
    endloop
  endfacet
  facet normal 0 0.946883 0.321579
    outer loop
      vertex 42.7 52.8978 0.776457
      vertex 26 52.7716 1.14805
      vertex 42.7 52.7716 1.14805
    endloop
  endfacet
  facet normal 0 0.946883 0.321579
    outer loop
      vertex 26 52.7716 1.14805
      vertex 42.7 52.8978 0.776457
      vertex 26 52.8978 0.776457
    endloop
  endfacet
  facet normal -0 0.442233 0.8969
    outer loop
      vertex 26 51.5 2.59808
      vertex 42.7 51.148 2.77164
      vertex 42.7 51.5 2.59808
    endloop
  endfacet
  facet normal 0 0.442233 0.8969
    outer loop
      vertex 42.7 51.148 2.77164
      vertex 26 51.5 2.59808
      vertex 26 51.148 2.77164
    endloop
  endfacet
  facet normal -0 0.195062 0.980791
    outer loop
      vertex 26 50.7765 2.89778
      vertex 42.7 50.3916 2.97433
      vertex 42.7 50.7765 2.89778
    endloop
  endfacet
  facet normal 0 0.195062 0.980791
    outer loop
      vertex 42.7 50.3916 2.97433
      vertex 26 50.7765 2.89778
      vertex 26 50.3916 2.97433
    endloop
  endfacet
  facet normal 0 -0.659392 -0.751799
    outer loop
      vertex 26 47.8787 -2.12132
      vertex 42.7 48.1737 -2.38006
      vertex 42.7 47.8787 -2.12132
    endloop
  endfacet
  facet normal -0 -0.659392 -0.751799
    outer loop
      vertex 42.7 48.1737 -2.38006
      vertex 26 47.8787 -2.12132
      vertex 26 48.1737 -2.38006
    endloop
  endfacet
  facet normal 0 -0.442233 -0.8969
    outer loop
      vertex 26 48.5 -2.59808
      vertex 42.7 48.852 -2.77164
      vertex 42.7 48.5 -2.59808
    endloop
  endfacet
  facet normal -0 -0.442233 -0.8969
    outer loop
      vertex 42.7 48.852 -2.77164
      vertex 26 48.5 -2.59808
      vertex 26 48.852 -2.77164
    endloop
  endfacet
  facet normal 0 -0.946883 -0.321579
    outer loop
      vertex 26 47.2284 -1.14805
      vertex 42.7 47.1022 -0.776457
      vertex 26 47.1022 -0.776457
    endloop
  endfacet
  facet normal 0 -0.946883 -0.321579
    outer loop
      vertex 42.7 47.1022 -0.776457
      vertex 26 47.2284 -1.14805
      vertex 42.7 47.2284 -1.14805
    endloop
  endfacet
  facet normal 0 0.442233 -0.8969
    outer loop
      vertex 26 51.148 -2.77164
      vertex 42.7 51.5 -2.59808
      vertex 42.7 51.148 -2.77164
    endloop
  endfacet
  facet normal 0 0.442233 -0.8969
    outer loop
      vertex 42.7 51.5 -2.59808
      vertex 26 51.148 -2.77164
      vertex 26 51.5 -2.59808
    endloop
  endfacet
  facet normal 0 0.321514 -0.946905
    outer loop
      vertex 26 50.7765 -2.89778
      vertex 42.7 51.148 -2.77164
      vertex 42.7 50.7765 -2.89778
    endloop
  endfacet
  facet normal 0 0.321514 -0.946905
    outer loop
      vertex 42.7 51.148 -2.77164
      vertex 26 50.7765 -2.89778
      vertex 26 51.148 -2.77164
    endloop
  endfacet
  facet normal 0 0.896936 -0.44216
    outer loop
      vertex 42.7 52.5981 -1.5
      vertex 26 52.7716 -1.14805
      vertex 42.7 52.7716 -1.14805
    endloop
  endfacet
  facet normal 0 0.896936 -0.44216
    outer loop
      vertex 26 52.7716 -1.14805
      vertex 42.7 52.5981 -1.5
      vertex 26 52.5981 -1.5
    endloop
  endfacet
  facet normal 0 0.831485 -0.555547
    outer loop
      vertex 42.7 52.3801 -1.82628
      vertex 26 52.5981 -1.5
      vertex 42.7 52.5981 -1.5
    endloop
  endfacet
  facet normal 0 0.831485 -0.555547
    outer loop
      vertex 26 52.5981 -1.5
      vertex 42.7 52.3801 -1.82628
      vertex 26 52.3801 -1.82628
    endloop
  endfacet
  facet normal 0 -0.946883 0.321579
    outer loop
      vertex 26 47.1022 0.776457
      vertex 42.7 47.2284 1.14805
      vertex 26 47.2284 1.14805
    endloop
  endfacet
  facet normal 0 -0.946883 0.321579
    outer loop
      vertex 42.7 47.2284 1.14805
      vertex 26 47.1022 0.776457
      vertex 42.7 47.1022 0.776457
    endloop
  endfacet
  facet normal 0 -0.195062 0.980791
    outer loop
      vertex 26 49.6084 2.97433
      vertex 42.7 49.2235 2.89778
      vertex 42.7 49.6084 2.97433
    endloop
  endfacet
  facet normal 0 -0.195062 0.980791
    outer loop
      vertex 42.7 49.2235 2.89778
      vertex 26 49.6084 2.97433
      vertex 26 49.2235 2.89778
    endloop
  endfacet
  facet normal 0 -0.659392 0.751799
    outer loop
      vertex 26 48.1737 2.38006
      vertex 42.7 47.8787 2.12132
      vertex 42.7 48.1737 2.38006
    endloop
  endfacet
  facet normal 0 -0.659392 0.751799
    outer loop
      vertex 42.7 47.8787 2.12132
      vertex 26 48.1737 2.38006
      vertex 26 47.8787 2.12132
    endloop
  endfacet
  facet normal 0 0.980813 0.19495
    outer loop
      vertex 42.7 52.9743 0.391578
      vertex 26 52.8978 0.776457
      vertex 42.7 52.8978 0.776457
    endloop
  endfacet
  facet normal 0 0.980813 0.19495
    outer loop
      vertex 26 52.8978 0.776457
      vertex 42.7 52.9743 0.391578
      vertex 26 52.9743 0.391578
    endloop
  endfacet
  facet normal -1 0 0
    outer loop
      vertex 26 51.7 0
      vertex 26 53 0
      vertex 26 52.9743 -0.391578
    endloop
  endfacet
  facet normal -1 0 0
    outer loop
      vertex 26 51.6421 -0.439992
      vertex 26 52.9743 -0.391578
      vertex 26 52.8978 -0.776457
    endloop
  endfacet
  facet normal -1 0 0
    outer loop
      vertex 26 53 0
      vertex 26 51.7 0
      vertex 26 52.9743 0.391578
    endloop
  endfacet
  facet normal -1 0 0
    outer loop
      vertex 26 51.6421 -0.439992
      vertex 26 52.8978 -0.776457
      vertex 26 52.7716 -1.14805
    endloop
  endfacet
  facet normal -1 0 0
    outer loop
      vertex 26 51.6421 0.439992
      vertex 26 52.9743 0.391578
      vertex 26 51.7 0
    endloop
  endfacet
  facet normal -1 0 0
    outer loop
      vertex 26 51.4722 -0.849999
      vertex 26 52.7716 -1.14805
      vertex 26 52.5981 -1.5
    endloop
  endfacet
  facet normal -1 0 0
    outer loop
      vertex 26 52.9743 0.391578
      vertex 26 51.6421 0.439992
      vertex 26 52.8978 0.776457
    endloop
  endfacet
  facet normal -1 0 0
    outer loop
      vertex 26 51.4722 -0.849999
      vertex 26 52.5981 -1.5
      vertex 26 52.3801 -1.82628
    endloop
  endfacet
  facet normal -1 -0 0
    outer loop
      vertex 26 52.8978 0.776457
      vertex 26 51.6421 0.439992
      vertex 26 52.7716 1.14805
    endloop
  endfacet
  facet normal -1 0 0
    outer loop
      vertex 26 51.2021 -1.20208
      vertex 26 52.3801 -1.82628
      vertex 26 52.1213 -2.12132
    endloop
  endfacet
  facet normal -1 0 0
    outer loop
      vertex 26 51.4722 0.849999
      vertex 26 52.7716 1.14805
      vertex 26 51.6421 0.439992
    endloop
  endfacet
  facet normal -1 0 0
    outer loop
      vertex 26 51.2021 -1.20208
      vertex 26 52.1213 -2.12132
      vertex 26 51.8263 -2.38006
    endloop
  endfacet
  facet normal -1 -0 0
    outer loop
      vertex 26 52.7716 1.14805
      vertex 26 51.4722 0.849999
      vertex 26 52.5981 1.5
    endloop
  endfacet
  facet normal -1 -0 0
    outer loop
      vertex 26 52.5981 1.5
      vertex 26 51.4722 0.849999
      vertex 26 52.3801 1.82628
    endloop
  endfacet
  facet normal -1 -0 0
    outer loop
      vertex 26 52.9743 -0.391578
      vertex 26 51.6421 -0.439992
      vertex 26 51.7 0
    endloop
  endfacet
  facet normal -1 0 0
    outer loop
      vertex 26 50.85 -1.47224
      vertex 26 51.8263 -2.38006
      vertex 26 51.5 -2.59808
    endloop
  endfacet
  facet normal -1 0 0
    outer loop
      vertex 26 52.7716 -1.14805
      vertex 26 51.4722 -0.849999
      vertex 26 51.6421 -0.439992
    endloop
  endfacet
  facet normal -1 0 0
    outer loop
      vertex 26 52.3801 -1.82628
      vertex 26 51.2021 -1.20208
      vertex 26 51.4722 -0.849999
    endloop
  endfacet
  facet normal -1 0 0
    outer loop
      vertex 26 50.85 -1.47224
      vertex 26 51.5 -2.59808
      vertex 26 51.148 -2.77164
    endloop
  endfacet
  facet normal -1 0 0
    outer loop
      vertex 26 51.8263 -2.38006
      vertex 26 50.85 -1.47224
      vertex 26 51.2021 -1.20208
    endloop
  endfacet
  facet normal -1 0 0
    outer loop
      vertex 26 50.44 -1.64207
      vertex 26 51.148 -2.77164
      vertex 26 50.7765 -2.89778
    endloop
  endfacet
  facet normal -1 0 0
    outer loop
      vertex 26 51.148 -2.77164
      vertex 26 50.44 -1.64207
      vertex 26 50.85 -1.47224
    endloop
  endfacet
  facet normal -1 0 0
    outer loop
      vertex 26 50.3916 -2.97433
      vertex 26 50.44 -1.64207
      vertex 26 50.7765 -2.89778
    endloop
  endfacet
  facet normal -1 0 0
    outer loop
      vertex 26 50 -1.7
      vertex 26 50.3916 -2.97433
      vertex 26 50 -3
    endloop
  endfacet
  facet normal -1 0 0
    outer loop
      vertex 26 50.3916 -2.97433
      vertex 26 50 -1.7
      vertex 26 50.44 -1.64207
    endloop
  endfacet
  facet normal -1 0 0
    outer loop
      vertex 26 49.6084 -2.97433
      vertex 26 50 -1.7
      vertex 26 50 -3
    endloop
  endfacet
  facet normal -1 0 0
    outer loop
      vertex 26 49.6084 -2.97433
      vertex 26 49.56 -1.64207
      vertex 26 50 -1.7
    endloop
  endfacet
  facet normal -1 0 0
    outer loop
      vertex 26 49.2235 -2.89778
      vertex 26 49.56 -1.64207
      vertex 26 49.6084 -2.97433
    endloop
  endfacet
  facet normal -1 0 0
    outer loop
      vertex 26 48.852 -2.77164
      vertex 26 49.56 -1.64207
      vertex 26 49.2235 -2.89778
    endloop
  endfacet
  facet normal -1 -0 0
    outer loop
      vertex 26 49.56 -1.64207
      vertex 26 48.852 -2.77164
      vertex 26 49.15 -1.47224
    endloop
  endfacet
  facet normal -1 0 0
    outer loop
      vertex 26 48.5 -2.59808
      vertex 26 49.15 -1.47224
      vertex 26 48.852 -2.77164
    endloop
  endfacet
  facet normal -1 0 0
    outer loop
      vertex 26 48.1737 -2.38006
      vertex 26 49.15 -1.47224
      vertex 26 48.5 -2.59808
    endloop
  endfacet
  facet normal -1 -0 0
    outer loop
      vertex 26 49.15 -1.47224
      vertex 26 48.1737 -2.38006
      vertex 26 48.7979 -1.20208
    endloop
  endfacet
  facet normal -1 0 0
    outer loop
      vertex 26 47.8787 -2.12132
      vertex 26 48.7979 -1.20208
      vertex 26 48.1737 -2.38006
    endloop
  endfacet
  facet normal -1 0 0
    outer loop
      vertex 26 47.6199 -1.82628
      vertex 26 48.7979 -1.20208
      vertex 26 47.8787 -2.12132
    endloop
  endfacet
  facet normal -1 -0 0
    outer loop
      vertex 26 48.7979 -1.20208
      vertex 26 47.6199 -1.82628
      vertex 26 48.5278 -0.849999
    endloop
  endfacet
  facet normal -1 0 0
    outer loop
      vertex 26 51.2021 1.20208
      vertex 26 52.3801 1.82628
      vertex 26 51.4722 0.849999
    endloop
  endfacet
  facet normal -1 -0 0
    outer loop
      vertex 26 52.3801 1.82628
      vertex 26 51.2021 1.20208
      vertex 26 52.1213 2.12132
    endloop
  endfacet
  facet normal -1 -0 0
    outer loop
      vertex 26 52.1213 2.12132
      vertex 26 51.2021 1.20208
      vertex 26 51.8263 2.38006
    endloop
  endfacet
  facet normal -1 0 0
    outer loop
      vertex 26 50.85 1.47224
      vertex 26 51.8263 2.38006
      vertex 26 51.2021 1.20208
    endloop
  endfacet
  facet normal -1 -0 0
    outer loop
      vertex 26 51.8263 2.38006
      vertex 26 50.85 1.47224
      vertex 26 51.5 2.59808
    endloop
  endfacet
  facet normal -1 -0 0
    outer loop
      vertex 26 51.5 2.59808
      vertex 26 50.85 1.47224
      vertex 26 51.148 2.77164
    endloop
  endfacet
  facet normal -1 0 0
    outer loop
      vertex 26 50.44 1.64207
      vertex 26 51.148 2.77164
      vertex 26 50.85 1.47224
    endloop
  endfacet
  facet normal -1 -0 0
    outer loop
      vertex 26 51.148 2.77164
      vertex 26 50.44 1.64207
      vertex 26 50.7765 2.89778
    endloop
  endfacet
  facet normal -1 0 0
    outer loop
      vertex 26 50.44 1.64207
      vertex 26 50.3916 2.97433
      vertex 26 50.7765 2.89778
    endloop
  endfacet
  facet normal -1 0 0
    outer loop
      vertex 26 50 1.7
      vertex 26 50.3916 2.97433
      vertex 26 50.44 1.64207
    endloop
  endfacet
  facet normal -1 0 0
    outer loop
      vertex 26 50 1.7
      vertex 26 50 3
      vertex 26 50.3916 2.97433
    endloop
  endfacet
  facet normal -1 0 0
    outer loop
      vertex 26 50 1.7
      vertex 26 49.6084 2.97433
      vertex 26 50 3
    endloop
  endfacet
  facet normal -1 0 0
    outer loop
      vertex 26 49.56 1.64207
      vertex 26 49.6084 2.97433
      vertex 26 50 1.7
    endloop
  endfacet
  facet normal -1 0 0
    outer loop
      vertex 26 49.56 1.64207
      vertex 26 49.2235 2.89778
      vertex 26 49.6084 2.97433
    endloop
  endfacet
  facet normal -1 0 0
    outer loop
      vertex 26 48.852 2.77164
      vertex 26 49.56 1.64207
      vertex 26 49.15 1.47224
    endloop
  endfacet
  facet normal -1 0 0
    outer loop
      vertex 26 49.56 1.64207
      vertex 26 48.852 2.77164
      vertex 26 49.2235 2.89778
    endloop
  endfacet
  facet normal -1 0 0
    outer loop
      vertex 26 48.1737 2.38006
      vertex 26 49.15 1.47224
      vertex 26 48.7979 1.20208
    endloop
  endfacet
  facet normal -1 0 0
    outer loop
      vertex 26 47.6199 1.82628
      vertex 26 48.7979 1.20208
      vertex 26 48.5278 0.849999
    endloop
  endfacet
  facet normal -1 0 0
    outer loop
      vertex 26 49.15 1.47224
      vertex 26 48.5 2.59808
      vertex 26 48.852 2.77164
    endloop
  endfacet
  facet normal -1 0 0
    outer loop
      vertex 26 47.2284 1.14805
      vertex 26 48.5278 0.849999
      vertex 26 48.3579 0.439992
    endloop
  endfacet
  facet normal -1 0 0
    outer loop
      vertex 26 47.0257 0.391578
      vertex 26 48.3579 0.439992
      vertex 26 48.3 0
    endloop
  endfacet
  facet normal -1 0 0
    outer loop
      vertex 26 49.15 1.47224
      vertex 26 48.1737 2.38006
      vertex 26 48.5 2.59808
    endloop
  endfacet
  facet normal -1 0 0
    outer loop
      vertex 26 47.4019 -1.5
      vertex 26 48.5278 -0.849999
      vertex 26 47.6199 -1.82628
    endloop
  endfacet
  facet normal -1 0 0
    outer loop
      vertex 26 47.2284 -1.14805
      vertex 26 48.5278 -0.849999
      vertex 26 47.4019 -1.5
    endloop
  endfacet
  facet normal -1 0 0
    outer loop
      vertex 26 48.7979 1.20208
      vertex 26 47.8787 2.12132
      vertex 26 48.1737 2.38006
    endloop
  endfacet
  facet normal -1 -0 0
    outer loop
      vertex 26 48.5278 -0.849999
      vertex 26 47.2284 -1.14805
      vertex 26 48.3579 -0.439992
    endloop
  endfacet
  facet normal -1 0 0
    outer loop
      vertex 26 48.7979 1.20208
      vertex 26 47.6199 1.82628
      vertex 26 47.8787 2.12132
    endloop
  endfacet
  facet normal -1 0 0
    outer loop
      vertex 26 47.1022 -0.776457
      vertex 26 48.3579 -0.439992
      vertex 26 47.2284 -1.14805
    endloop
  endfacet
  facet normal -1 0 0
    outer loop
      vertex 26 48.5278 0.849999
      vertex 26 47.4019 1.5
      vertex 26 47.6199 1.82628
    endloop
  endfacet
  facet normal -1 0 0
    outer loop
      vertex 26 47.0257 -0.391578
      vertex 26 48.3579 -0.439992
      vertex 26 47.1022 -0.776457
    endloop
  endfacet
  facet normal -1 0 0
    outer loop
      vertex 26 48.5278 0.849999
      vertex 26 47.2284 1.14805
      vertex 26 47.4019 1.5
    endloop
  endfacet
  facet normal -1 0 0
    outer loop
      vertex 26 48.3579 -0.439992
      vertex 26 47.0257 -0.391578
      vertex 26 48.3 0
    endloop
  endfacet
  facet normal -1 0 0
    outer loop
      vertex 26 48.3579 0.439992
      vertex 26 47.1022 0.776457
      vertex 26 47.2284 1.14805
    endloop
  endfacet
  facet normal -1 0 0
    outer loop
      vertex 26 47 0
      vertex 26 48.3 0
      vertex 26 47.0257 -0.391578
    endloop
  endfacet
  facet normal -1 -0 0
    outer loop
      vertex 26 48.3579 0.439992
      vertex 26 47.0257 0.391578
      vertex 26 47.1022 0.776457
    endloop
  endfacet
  facet normal -1 0 0
    outer loop
      vertex 26 48.3 0
      vertex 26 47 0
      vertex 26 47.0257 0.391578
    endloop
  endfacet
  facet normal -0 0.555558 0.831477
    outer loop
      vertex 26 51.8263 2.38006
      vertex 42.7 51.5 2.59808
      vertex 42.7 51.8263 2.38006
    endloop
  endfacet
  facet normal 0 0.555558 0.831477
    outer loop
      vertex 42.7 51.5 2.59808
      vertex 26 51.8263 2.38006
      vertex 26 51.5 2.59808
    endloop
  endfacet
  facet normal -0 0.0654112 0.997858
    outer loop
      vertex 26 50.3916 2.97433
      vertex 42.7 50 3
      vertex 42.7 50.3916 2.97433
    endloop
  endfacet
  facet normal 0 0.0654112 0.997858
    outer loop
      vertex 42.7 50 3
      vertex 26 50.3916 2.97433
      vertex 26 50 3
    endloop
  endfacet
  facet normal 0 -0.997853 -0.065491
    outer loop
      vertex 26 47.0257 -0.391578
      vertex 42.7 47 0
      vertex 26 47 0
    endloop
  endfacet
  facet normal 0 -0.997853 -0.065491
    outer loop
      vertex 42.7 47 0
      vertex 26 47.0257 -0.391578
      vertex 42.7 47.0257 -0.391578
    endloop
  endfacet
  facet normal 0 -0.0654112 -0.997858
    outer loop
      vertex 26 49.6084 -2.97433
      vertex 42.7 50 -3
      vertex 42.7 49.6084 -2.97433
    endloop
  endfacet
  facet normal -0 -0.0654112 -0.997858
    outer loop
      vertex 42.7 50 -3
      vertex 26 49.6084 -2.97433
      vertex 26 50 -3
    endloop
  endfacet
  facet normal 0 -0.321514 -0.946905
    outer loop
      vertex 26 48.852 -2.77164
      vertex 42.7 49.2235 -2.89778
      vertex 42.7 48.852 -2.77164
    endloop
  endfacet
  facet normal -0 -0.321514 -0.946905
    outer loop
      vertex 42.7 49.2235 -2.89778
      vertex 26 48.852 -2.77164
      vertex 26 49.2235 -2.89778
    endloop
  endfacet
  facet normal 0 -0.555558 -0.831477
    outer loop
      vertex 26 48.1737 -2.38006
      vertex 42.7 48.5 -2.59808
      vertex 42.7 48.1737 -2.38006
    endloop
  endfacet
  facet normal -0 -0.555558 -0.831477
    outer loop
      vertex 42.7 48.5 -2.59808
      vertex 26 48.1737 -2.38006
      vertex 26 48.5 -2.59808
    endloop
  endfacet
  facet normal 0 -0.896936 -0.44216
    outer loop
      vertex 26 47.4019 -1.5
      vertex 42.7 47.2284 -1.14805
      vertex 26 47.2284 -1.14805
    endloop
  endfacet
  facet normal 0 -0.896936 -0.44216
    outer loop
      vertex 42.7 47.2284 -1.14805
      vertex 26 47.4019 -1.5
      vertex 42.7 47.4019 -1.5
    endloop
  endfacet
  facet normal 0 -0.751768 -0.659428
    outer loop
      vertex 26 47.8787 -2.12132
      vertex 42.7 47.6199 -1.82628
      vertex 26 47.6199 -1.82628
    endloop
  endfacet
  facet normal 0 -0.751768 -0.659428
    outer loop
      vertex 42.7 47.6199 -1.82628
      vertex 26 47.8787 -2.12132
      vertex 42.7 47.8787 -2.12132
    endloop
  endfacet
  facet normal 0 -0.831485 -0.555547
    outer loop
      vertex 26 47.6199 -1.82628
      vertex 42.7 47.4019 -1.5
      vertex 26 47.4019 -1.5
    endloop
  endfacet
  facet normal 0 -0.831485 -0.555547
    outer loop
      vertex 42.7 47.4019 -1.5
      vertex 26 47.6199 -1.82628
      vertex 42.7 47.6199 -1.82628
    endloop
  endfacet
  facet normal 0 0.659392 -0.751799
    outer loop
      vertex 26 51.8263 -2.38006
      vertex 42.7 52.1213 -2.12132
      vertex 42.7 51.8263 -2.38006
    endloop
  endfacet
  facet normal 0 0.659392 -0.751799
    outer loop
      vertex 42.7 52.1213 -2.12132
      vertex 26 51.8263 -2.38006
      vertex 26 52.1213 -2.12132
    endloop
  endfacet
  facet normal 0 0.555558 -0.831477
    outer loop
      vertex 26 51.5 -2.59808
      vertex 42.7 51.8263 -2.38006
      vertex 42.7 51.5 -2.59808
    endloop
  endfacet
  facet normal 0 0.555558 -0.831477
    outer loop
      vertex 42.7 51.8263 -2.38006
      vertex 26 51.5 -2.59808
      vertex 26 51.8263 -2.38006
    endloop
  endfacet
  facet normal 0 0.195062 -0.980791
    outer loop
      vertex 26 50.3916 -2.97433
      vertex 42.7 50.7765 -2.89778
      vertex 42.7 50.3916 -2.97433
    endloop
  endfacet
  facet normal 0 0.195062 -0.980791
    outer loop
      vertex 42.7 50.7765 -2.89778
      vertex 26 50.3916 -2.97433
      vertex 26 50.7765 -2.89778
    endloop
  endfacet
  facet normal 0 0.751768 -0.659428
    outer loop
      vertex 42.7 52.1213 -2.12132
      vertex 26 52.3801 -1.82628
      vertex 42.7 52.3801 -1.82628
    endloop
  endfacet
  facet normal 0 0.751768 -0.659428
    outer loop
      vertex 26 52.3801 -1.82628
      vertex 42.7 52.1213 -2.12132
      vertex 26 52.1213 -2.12132
    endloop
  endfacet
  facet normal 0 0.946883 -0.321579
    outer loop
      vertex 42.7 52.7716 -1.14805
      vertex 26 52.8978 -0.776457
      vertex 42.7 52.8978 -0.776457
    endloop
  endfacet
  facet normal 0 0.946883 -0.321579
    outer loop
      vertex 26 52.8978 -0.776457
      vertex 42.7 52.7716 -1.14805
      vertex 26 52.7716 -1.14805
    endloop
  endfacet
  facet normal 0 0.997853 -0.065491
    outer loop
      vertex 42.7 52.9743 -0.391578
      vertex 26 53 0
      vertex 42.7 53 0
    endloop
  endfacet
  facet normal 0 0.997853 -0.065491
    outer loop
      vertex 26 53 0
      vertex 42.7 52.9743 -0.391578
      vertex 26 52.9743 -0.391578
    endloop
  endfacet
  facet normal 0 0.751768 0.659428
    outer loop
      vertex 42.7 52.3801 1.82628
      vertex 26 52.1213 2.12132
      vertex 42.7 52.1213 2.12132
    endloop
  endfacet
  facet normal 0 0.751768 0.659428
    outer loop
      vertex 26 52.1213 2.12132
      vertex 42.7 52.3801 1.82628
      vertex 26 52.3801 1.82628
    endloop
  endfacet
  facet normal 0 -0.195062 -0.980791
    outer loop
      vertex 26 49.2235 -2.89778
      vertex 42.7 49.6084 -2.97433
      vertex 42.7 49.2235 -2.89778
    endloop
  endfacet
  facet normal -0 -0.195062 -0.980791
    outer loop
      vertex 42.7 49.6084 -2.97433
      vertex 26 49.2235 -2.89778
      vertex 26 49.6084 -2.97433
    endloop
  endfacet
  facet normal 0 -0.980813 -0.19495
    outer loop
      vertex 26 47.1022 -0.776457
      vertex 42.7 47.0257 -0.391578
      vertex 26 47.0257 -0.391578
    endloop
  endfacet
  facet normal 0 -0.980813 -0.19495
    outer loop
      vertex 42.7 47.0257 -0.391578
      vertex 26 47.1022 -0.776457
      vertex 42.7 47.1022 -0.776457
    endloop
  endfacet
  facet normal 0 0.980813 -0.19495
    outer loop
      vertex 42.7 52.8978 -0.776457
      vertex 26 52.9743 -0.391578
      vertex 42.7 52.9743 -0.391578
    endloop
  endfacet
  facet normal 0 0.980813 -0.19495
    outer loop
      vertex 26 52.9743 -0.391578
      vertex 42.7 52.8978 -0.776457
      vertex 26 52.8978 -0.776457
    endloop
  endfacet
  facet normal 0 -0.99145 -0.13049
    outer loop
      vertex 43 53.1 0
      vertex 46 52.9944 0.802339
      vertex 43 52.9944 0.802339
    endloop
  endfacet
  facet normal 0 -0.99145 -0.13049
    outer loop
      vertex 46 52.9944 0.802339
      vertex 43 53.1 0
      vertex 46 53.1 0
    endloop
  endfacet
  facet normal 0 0.608782 -0.793338
    outer loop
      vertex 43 47.808 2.19203
      vertex 46 48.45 2.68468
      vertex 46 47.808 2.19203
    endloop
  endfacet
  facet normal 0 0.608782 -0.793338
    outer loop
      vertex 46 48.45 2.68468
      vertex 43 47.808 2.19203
      vertex 43 48.45 2.68468
    endloop
  endfacet
  facet normal -0 0.130533 0.991444
    outer loop
      vertex 43 50 -3.1
      vertex 46 49.1977 -2.99437
      vertex 46 50 -3.1
    endloop
  endfacet
  facet normal 0 0.130533 0.991444
    outer loop
      vertex 46 49.1977 -2.99437
      vertex 43 50 -3.1
      vertex 43 49.1977 -2.99437
    endloop
  endfacet
  facet normal 0 -0.130533 0.991444
    outer loop
      vertex 43 50.8023 -2.99437
      vertex 46 50 -3.1
      vertex 46 50.8023 -2.99437
    endloop
  endfacet
  facet normal 0 -0.130533 0.991444
    outer loop
      vertex 46 50 -3.1
      vertex 43 50.8023 -2.99437
      vertex 43 50 -3.1
    endloop
  endfacet
  facet normal 0 0.793322 -0.608803
    outer loop
      vertex 46 47.3153 1.55
      vertex 43 47.808 2.19203
      vertex 46 47.808 2.19203
    endloop
  endfacet
  facet normal 0 0.793322 -0.608803
    outer loop
      vertex 43 47.808 2.19203
      vertex 46 47.3153 1.55
      vertex 43 47.3153 1.55
    endloop
  endfacet
  facet normal 0 0.923876 -0.382693
    outer loop
      vertex 46 47.0056 0.802339
      vertex 43 47.3153 1.55
      vertex 46 47.3153 1.55
    endloop
  endfacet
  facet normal 0 0.923876 -0.382693
    outer loop
      vertex 43 47.3153 1.55
      vertex 46 47.0056 0.802339
      vertex 43 47.0056 0.802339
    endloop
  endfacet
  facet normal 0 0.130533 -0.991444
    outer loop
      vertex 43 49.1977 2.99437
      vertex 46 50 3.1
      vertex 46 49.1977 2.99437
    endloop
  endfacet
  facet normal 0 0.130533 -0.991444
    outer loop
      vertex 46 50 3.1
      vertex 43 49.1977 2.99437
      vertex 43 50 3.1
    endloop
  endfacet
  facet normal 0 -0.130533 -0.991444
    outer loop
      vertex 43 50 3.1
      vertex 46 50.8023 2.99437
      vertex 46 50 3.1
    endloop
  endfacet
  facet normal -0 -0.130533 -0.991444
    outer loop
      vertex 46 50.8023 2.99437
      vertex 43 50 3.1
      vertex 43 50.8023 2.99437
    endloop
  endfacet
  facet normal 0 -0.923876 -0.382693
    outer loop
      vertex 43 52.9944 0.802339
      vertex 46 52.6847 1.55
      vertex 43 52.6847 1.55
    endloop
  endfacet
  facet normal 0 -0.923876 -0.382693
    outer loop
      vertex 46 52.6847 1.55
      vertex 43 52.9944 0.802339
      vertex 46 52.9944 0.802339
    endloop
  endfacet
  facet normal 0 0.99145 0.13049
    outer loop
      vertex 46 47.0056 -0.802339
      vertex 43 46.9 0
      vertex 46 46.9 0
    endloop
  endfacet
  facet normal 0 0.99145 0.13049
    outer loop
      vertex 43 46.9 0
      vertex 46 47.0056 -0.802339
      vertex 43 47.0056 -0.802339
    endloop
  endfacet
  facet normal 0 -0.99145 0.13049
    outer loop
      vertex 43 52.9944 -0.802339
      vertex 46 53.1 0
      vertex 43 53.1 0
    endloop
  endfacet
  facet normal 0 -0.99145 0.13049
    outer loop
      vertex 46 53.1 0
      vertex 43 52.9944 -0.802339
      vertex 46 52.9944 -0.802339
    endloop
  endfacet
  facet normal 0 0.382665 -0.923887
    outer loop
      vertex 43 48.45 2.68468
      vertex 46 49.1977 2.99437
      vertex 46 48.45 2.68468
    endloop
  endfacet
  facet normal 0 0.382665 -0.923887
    outer loop
      vertex 46 49.1977 2.99437
      vertex 43 48.45 2.68468
      vertex 43 49.1977 2.99437
    endloop
  endfacet
  facet normal 1 0 0
    outer loop
      vertex 42.7 51.7 0
      vertex 42.7 53 0
      vertex 42.7 52.9743 0.391578
    endloop
  endfacet
  facet normal 1 -0 0
    outer loop
      vertex 42.7 51.6421 0.439992
      vertex 42.7 52.9743 0.391578
      vertex 42.7 52.8978 0.776457
    endloop
  endfacet
  facet normal 1 0 0
    outer loop
      vertex 42.7 53 0
      vertex 42.7 51.7 0
      vertex 42.7 52.9743 -0.391578
    endloop
  endfacet
  facet normal 1 0 0
    outer loop
      vertex 42.7 51.6421 0.439992
      vertex 42.7 52.8978 0.776457
      vertex 42.7 52.7716 1.14805
    endloop
  endfacet
  facet normal 1 0 0
    outer loop
      vertex 42.7 51.6421 -0.439992
      vertex 42.7 52.9743 -0.391578
      vertex 42.7 51.7 0
    endloop
  endfacet
  facet normal 1 0 0
    outer loop
      vertex 42.7 51.4722 0.849999
      vertex 42.7 52.7716 1.14805
      vertex 42.7 52.5981 1.5
    endloop
  endfacet
  facet normal 1 0 0
    outer loop
      vertex 42.7 52.9743 -0.391578
      vertex 42.7 51.6421 -0.439992
      vertex 42.7 52.8978 -0.776457
    endloop
  endfacet
  facet normal 1 0 0
    outer loop
      vertex 42.7 51.4722 0.849999
      vertex 42.7 52.5981 1.5
      vertex 42.7 52.3801 1.82628
    endloop
  endfacet
  facet normal 1 0 0
    outer loop
      vertex 42.7 52.8978 -0.776457
      vertex 42.7 51.6421 -0.439992
      vertex 42.7 52.7716 -1.14805
    endloop
  endfacet
  facet normal 1 0 0
    outer loop
      vertex 42.7 51.2021 1.20208
      vertex 42.7 52.3801 1.82628
      vertex 42.7 52.1213 2.12132
    endloop
  endfacet
  facet normal 1 -0 0
    outer loop
      vertex 42.7 51.4722 -0.849999
      vertex 42.7 52.7716 -1.14805
      vertex 42.7 51.6421 -0.439992
    endloop
  endfacet
  facet normal 1 0 0
    outer loop
      vertex 42.7 51.2021 1.20208
      vertex 42.7 52.1213 2.12132
      vertex 42.7 51.8263 2.38006
    endloop
  endfacet
  facet normal 1 0 0
    outer loop
      vertex 42.7 52.7716 -1.14805
      vertex 42.7 51.4722 -0.849999
      vertex 42.7 52.5981 -1.5
    endloop
  endfacet
  facet normal 1 0 0
    outer loop
      vertex 42.7 52.5981 -1.5
      vertex 42.7 51.4722 -0.849999
      vertex 42.7 52.3801 -1.82628
    endloop
  endfacet
  facet normal 1 0 0
    outer loop
      vertex 42.7 52.9743 0.391578
      vertex 42.7 51.6421 0.439992
      vertex 42.7 51.7 0
    endloop
  endfacet
  facet normal 1 0 0
    outer loop
      vertex 42.7 50.85 1.47224
      vertex 42.7 51.8263 2.38006
      vertex 42.7 51.5 2.59808
    endloop
  endfacet
  facet normal 1 0 0
    outer loop
      vertex 42.7 52.7716 1.14805
      vertex 42.7 51.4722 0.849999
      vertex 42.7 51.6421 0.439992
    endloop
  endfacet
  facet normal 1 0 0
    outer loop
      vertex 42.7 52.3801 1.82628
      vertex 42.7 51.2021 1.20208
      vertex 42.7 51.4722 0.849999
    endloop
  endfacet
  facet normal 1 0 0
    outer loop
      vertex 42.7 50.85 1.47224
      vertex 42.7 51.5 2.59808
      vertex 42.7 51.148 2.77164
    endloop
  endfacet
  facet normal 1 0 0
    outer loop
      vertex 42.7 51.8263 2.38006
      vertex 42.7 50.85 1.47224
      vertex 42.7 51.2021 1.20208
    endloop
  endfacet
  facet normal 1 0 0
    outer loop
      vertex 42.7 50.44 1.64207
      vertex 42.7 51.148 2.77164
      vertex 42.7 50.7765 2.89778
    endloop
  endfacet
  facet normal 1 0 0
    outer loop
      vertex 42.7 51.148 2.77164
      vertex 42.7 50.44 1.64207
      vertex 42.7 50.85 1.47224
    endloop
  endfacet
  facet normal 1 0 0
    outer loop
      vertex 42.7 50.3916 2.97433
      vertex 42.7 50.44 1.64207
      vertex 42.7 50.7765 2.89778
    endloop
  endfacet
  facet normal 1 0 0
    outer loop
      vertex 42.7 50 1.7
      vertex 42.7 50.3916 2.97433
      vertex 42.7 50 3
    endloop
  endfacet
  facet normal 1 0 0
    outer loop
      vertex 42.7 50.3916 2.97433
      vertex 42.7 50 1.7
      vertex 42.7 50.44 1.64207
    endloop
  endfacet
  facet normal 1 -0 0
    outer loop
      vertex 42.7 49.6084 2.97433
      vertex 42.7 50 1.7
      vertex 42.7 50 3
    endloop
  endfacet
  facet normal 1 0 0
    outer loop
      vertex 42.7 49.6084 2.97433
      vertex 42.7 49.56 1.64207
      vertex 42.7 50 1.7
    endloop
  endfacet
  facet normal 1 -0 0
    outer loop
      vertex 42.7 49.2235 2.89778
      vertex 42.7 49.56 1.64207
      vertex 42.7 49.6084 2.97433
    endloop
  endfacet
  facet normal 1 -0 0
    outer loop
      vertex 42.7 48.852 2.77164
      vertex 42.7 49.56 1.64207
      vertex 42.7 49.2235 2.89778
    endloop
  endfacet
  facet normal 1 0 0
    outer loop
      vertex 42.7 49.56 1.64207
      vertex 42.7 48.852 2.77164
      vertex 42.7 49.15 1.47224
    endloop
  endfacet
  facet normal 1 -0 0
    outer loop
      vertex 42.7 48.5 2.59808
      vertex 42.7 49.15 1.47224
      vertex 42.7 48.852 2.77164
    endloop
  endfacet
  facet normal 1 -0 0
    outer loop
      vertex 42.7 48.1737 2.38006
      vertex 42.7 49.15 1.47224
      vertex 42.7 48.5 2.59808
    endloop
  endfacet
  facet normal 1 0 0
    outer loop
      vertex 42.7 49.15 1.47224
      vertex 42.7 48.1737 2.38006
      vertex 42.7 48.7979 1.20208
    endloop
  endfacet
  facet normal 1 -0 0
    outer loop
      vertex 42.7 47.8787 2.12132
      vertex 42.7 48.7979 1.20208
      vertex 42.7 48.1737 2.38006
    endloop
  endfacet
  facet normal 1 -0 0
    outer loop
      vertex 42.7 47.6199 1.82628
      vertex 42.7 48.7979 1.20208
      vertex 42.7 47.8787 2.12132
    endloop
  endfacet
  facet normal 1 0 0
    outer loop
      vertex 42.7 48.7979 1.20208
      vertex 42.7 47.6199 1.82628
      vertex 42.7 48.5278 0.849999
    endloop
  endfacet
  facet normal 1 -0 0
    outer loop
      vertex 42.7 51.2021 -1.20208
      vertex 42.7 52.3801 -1.82628
      vertex 42.7 51.4722 -0.849999
    endloop
  endfacet
  facet normal 1 0 0
    outer loop
      vertex 42.7 52.3801 -1.82628
      vertex 42.7 51.2021 -1.20208
      vertex 42.7 52.1213 -2.12132
    endloop
  endfacet
  facet normal 1 0 0
    outer loop
      vertex 42.7 52.1213 -2.12132
      vertex 42.7 51.2021 -1.20208
      vertex 42.7 51.8263 -2.38006
    endloop
  endfacet
  facet normal 1 -0 0
    outer loop
      vertex 42.7 50.85 -1.47224
      vertex 42.7 51.8263 -2.38006
      vertex 42.7 51.2021 -1.20208
    endloop
  endfacet
  facet normal 1 0 0
    outer loop
      vertex 42.7 51.8263 -2.38006
      vertex 42.7 50.85 -1.47224
      vertex 42.7 51.5 -2.59808
    endloop
  endfacet
  facet normal 1 0 0
    outer loop
      vertex 42.7 51.5 -2.59808
      vertex 42.7 50.85 -1.47224
      vertex 42.7 51.148 -2.77164
    endloop
  endfacet
  facet normal 1 -0 0
    outer loop
      vertex 42.7 50.44 -1.64207
      vertex 42.7 51.148 -2.77164
      vertex 42.7 50.85 -1.47224
    endloop
  endfacet
  facet normal 1 0 0
    outer loop
      vertex 42.7 51.148 -2.77164
      vertex 42.7 50.44 -1.64207
      vertex 42.7 50.7765 -2.89778
    endloop
  endfacet
  facet normal 1 0 0
    outer loop
      vertex 42.7 50.44 -1.64207
      vertex 42.7 50.3916 -2.97433
      vertex 42.7 50.7765 -2.89778
    endloop
  endfacet
  facet normal 1 -0 0
    outer loop
      vertex 42.7 50 -1.7
      vertex 42.7 50.3916 -2.97433
      vertex 42.7 50.44 -1.64207
    endloop
  endfacet
  facet normal 1 0 0
    outer loop
      vertex 42.7 50 -1.7
      vertex 42.7 50 -3
      vertex 42.7 50.3916 -2.97433
    endloop
  endfacet
  facet normal 1 0 0
    outer loop
      vertex 42.7 50 -1.7
      vertex 42.7 49.6084 -2.97433
      vertex 42.7 50 -3
    endloop
  endfacet
  facet normal 1 0 0
    outer loop
      vertex 42.7 49.56 -1.64207
      vertex 42.7 49.6084 -2.97433
      vertex 42.7 50 -1.7
    endloop
  endfacet
  facet normal 1 0 0
    outer loop
      vertex 42.7 49.56 -1.64207
      vertex 42.7 49.2235 -2.89778
      vertex 42.7 49.6084 -2.97433
    endloop
  endfacet
  facet normal 1 0 0
    outer loop
      vertex 42.7 48.852 -2.77164
      vertex 42.7 49.56 -1.64207
      vertex 42.7 49.15 -1.47224
    endloop
  endfacet
  facet normal 1 0 0
    outer loop
      vertex 42.7 49.56 -1.64207
      vertex 42.7 48.852 -2.77164
      vertex 42.7 49.2235 -2.89778
    endloop
  endfacet
  facet normal 1 0 0
    outer loop
      vertex 42.7 48.1737 -2.38006
      vertex 42.7 49.15 -1.47224
      vertex 42.7 48.7979 -1.20208
    endloop
  endfacet
  facet normal 1 0 0
    outer loop
      vertex 42.7 47.6199 -1.82628
      vertex 42.7 48.7979 -1.20208
      vertex 42.7 48.5278 -0.849999
    endloop
  endfacet
  facet normal 1 0 0
    outer loop
      vertex 42.7 49.15 -1.47224
      vertex 42.7 48.5 -2.59808
      vertex 42.7 48.852 -2.77164
    endloop
  endfacet
  facet normal 1 0 0
    outer loop
      vertex 42.7 47.2284 -1.14805
      vertex 42.7 48.5278 -0.849999
      vertex 42.7 48.3579 -0.439992
    endloop
  endfacet
  facet normal 1 -0 0
    outer loop
      vertex 42.7 47.0257 -0.391578
      vertex 42.7 48.3579 -0.439992
      vertex 42.7 48.3 0
    endloop
  endfacet
  facet normal 1 0 0
    outer loop
      vertex 42.7 49.15 -1.47224
      vertex 42.7 48.1737 -2.38006
      vertex 42.7 48.5 -2.59808
    endloop
  endfacet
  facet normal 1 -0 0
    outer loop
      vertex 42.7 47.4019 1.5
      vertex 42.7 48.5278 0.849999
      vertex 42.7 47.6199 1.82628
    endloop
  endfacet
  facet normal 1 -0 0
    outer loop
      vertex 42.7 47.2284 1.14805
      vertex 42.7 48.5278 0.849999
      vertex 42.7 47.4019 1.5
    endloop
  endfacet
  facet normal 1 0 0
    outer loop
      vertex 42.7 48.7979 -1.20208
      vertex 42.7 47.8787 -2.12132
      vertex 42.7 48.1737 -2.38006
    endloop
  endfacet
  facet normal 1 0 0
    outer loop
      vertex 42.7 48.5278 0.849999
      vertex 42.7 47.2284 1.14805
      vertex 42.7 48.3579 0.439992
    endloop
  endfacet
  facet normal 1 0 0
    outer loop
      vertex 42.7 48.7979 -1.20208
      vertex 42.7 47.6199 -1.82628
      vertex 42.7 47.8787 -2.12132
    endloop
  endfacet
  facet normal 1 -0 0
    outer loop
      vertex 42.7 47.1022 0.776457
      vertex 42.7 48.3579 0.439992
      vertex 42.7 47.2284 1.14805
    endloop
  endfacet
  facet normal 1 0 0
    outer loop
      vertex 42.7 48.5278 -0.849999
      vertex 42.7 47.4019 -1.5
      vertex 42.7 47.6199 -1.82628
    endloop
  endfacet
  facet normal 1 0 0
    outer loop
      vertex 42.7 47.0257 0.391578
      vertex 42.7 48.3579 0.439992
      vertex 42.7 47.1022 0.776457
    endloop
  endfacet
  facet normal 1 0 0
    outer loop
      vertex 42.7 48.5278 -0.849999
      vertex 42.7 47.2284 -1.14805
      vertex 42.7 47.4019 -1.5
    endloop
  endfacet
  facet normal 1 0 0
    outer loop
      vertex 42.7 48.3579 0.439992
      vertex 42.7 47.0257 0.391578
      vertex 42.7 48.3 0
    endloop
  endfacet
  facet normal 1 0 0
    outer loop
      vertex 42.7 48.3579 -0.439992
      vertex 42.7 47.1022 -0.776457
      vertex 42.7 47.2284 -1.14805
    endloop
  endfacet
  facet normal 1 0 0
    outer loop
      vertex 42.7 47 0
      vertex 42.7 48.3 0
      vertex 42.7 47.0257 0.391578
    endloop
  endfacet
  facet normal 1 0 0
    outer loop
      vertex 42.7 48.3579 -0.439992
      vertex 42.7 47.0257 -0.391578
      vertex 42.7 47.1022 -0.776457
    endloop
  endfacet
  facet normal 1 0 0
    outer loop
      vertex 42.7 48.3 0
      vertex 42.7 47 0
      vertex 42.7 47.0257 -0.391578
    endloop
  endfacet
  facet normal 0 -0.793322 -0.608803
    outer loop
      vertex 43 52.6847 1.55
      vertex 46 52.192 2.19203
      vertex 43 52.192 2.19203
    endloop
  endfacet
  facet normal 0 -0.793322 -0.608803
    outer loop
      vertex 46 52.192 2.19203
      vertex 43 52.6847 1.55
      vertex 46 52.6847 1.55
    endloop
  endfacet
  facet normal 0 -0.382665 -0.923887
    outer loop
      vertex 43 50.8023 2.99437
      vertex 46 51.55 2.68468
      vertex 46 50.8023 2.99437
    endloop
  endfacet
  facet normal -0 -0.382665 -0.923887
    outer loop
      vertex 46 51.55 2.68468
      vertex 43 50.8023 2.99437
      vertex 43 51.55 2.68468
    endloop
  endfacet
  facet normal 0 -0.608782 -0.793338
    outer loop
      vertex 43 51.55 2.68468
      vertex 46 52.192 2.19203
      vertex 46 51.55 2.68468
    endloop
  endfacet
  facet normal -0 -0.608782 -0.793338
    outer loop
      vertex 46 52.192 2.19203
      vertex 43 51.55 2.68468
      vertex 43 52.192 2.19203
    endloop
  endfacet
  facet normal 0 0.99145 -0.13049
    outer loop
      vertex 46 46.9 0
      vertex 43 47.0056 0.802339
      vertex 46 47.0056 0.802339
    endloop
  endfacet
  facet normal 0 0.99145 -0.13049
    outer loop
      vertex 43 47.0056 0.802339
      vertex 46 46.9 0
      vertex 43 46.9 0
    endloop
  endfacet
  facet normal -0 0.382665 0.923887
    outer loop
      vertex 43 49.1977 -2.99437
      vertex 46 48.45 -2.68468
      vertex 46 49.1977 -2.99437
    endloop
  endfacet
  facet normal 0 0.382665 0.923887
    outer loop
      vertex 46 48.45 -2.68468
      vertex 43 49.1977 -2.99437
      vertex 43 48.45 -2.68468
    endloop
  endfacet
  facet normal 0 -0.608782 0.793338
    outer loop
      vertex 43 52.192 -2.19203
      vertex 46 51.55 -2.68468
      vertex 46 52.192 -2.19203
    endloop
  endfacet
  facet normal 0 -0.608782 0.793338
    outer loop
      vertex 46 51.55 -2.68468
      vertex 43 52.192 -2.19203
      vertex 43 51.55 -2.68468
    endloop
  endfacet
  facet normal 0 -0.923876 0.382693
    outer loop
      vertex 43 52.6847 -1.55
      vertex 46 52.9944 -0.802339
      vertex 43 52.9944 -0.802339
    endloop
  endfacet
  facet normal 0 -0.923876 0.382693
    outer loop
      vertex 46 52.9944 -0.802339
      vertex 43 52.6847 -1.55
      vertex 46 52.6847 -1.55
    endloop
  endfacet
  facet normal 0 -0.793322 0.608803
    outer loop
      vertex 43 52.192 -2.19203
      vertex 46 52.6847 -1.55
      vertex 43 52.6847 -1.55
    endloop
  endfacet
  facet normal 0 -0.793322 0.608803
    outer loop
      vertex 46 52.6847 -1.55
      vertex 43 52.192 -2.19203
      vertex 46 52.192 -2.19203
    endloop
  endfacet
  facet normal 0 0.793322 0.608803
    outer loop
      vertex 46 47.808 -2.19203
      vertex 43 47.3153 -1.55
      vertex 46 47.3153 -1.55
    endloop
  endfacet
  facet normal 0 0.793322 0.608803
    outer loop
      vertex 43 47.3153 -1.55
      vertex 46 47.808 -2.19203
      vertex 43 47.808 -2.19203
    endloop
  endfacet
  facet normal 0 -0.382665 0.923887
    outer loop
      vertex 43 51.55 -2.68468
      vertex 46 50.8023 -2.99437
      vertex 46 51.55 -2.68468
    endloop
  endfacet
  facet normal 0 -0.382665 0.923887
    outer loop
      vertex 46 50.8023 -2.99437
      vertex 43 51.55 -2.68468
      vertex 43 50.8023 -2.99437
    endloop
  endfacet
  facet normal 0 0.923876 0.382693
    outer loop
      vertex 46 47.3153 -1.55
      vertex 43 47.0056 -0.802339
      vertex 46 47.0056 -0.802339
    endloop
  endfacet
  facet normal 0 0.923876 0.382693
    outer loop
      vertex 43 47.0056 -0.802339
      vertex 46 47.3153 -1.55
      vertex 43 47.3153 -1.55
    endloop
  endfacet
  facet normal -0 0.608782 0.793338
    outer loop
      vertex 43 48.45 -2.68468
      vertex 46 47.808 -2.19203
      vertex 46 48.45 -2.68468
    endloop
  endfacet
  facet normal 0 0.608782 0.793338
    outer loop
      vertex 46 47.808 -2.19203
      vertex 43 48.45 -2.68468
      vertex 43 47.808 -2.19203
    endloop
  endfacet
  facet normal 0 -0.991452 -0.130469
    outer loop
      vertex 26 51.7 0
      vertex 42.7 51.6421 0.439992
      vertex 26 51.6421 0.439992
    endloop
  endfacet
  facet normal 0 -0.991452 -0.130469
    outer loop
      vertex 42.7 51.6421 0.439992
      vertex 26 51.7 0
      vertex 42.7 51.7 0
    endloop
  endfacet
  facet normal 0 0.382688 -0.923878
    outer loop
      vertex 26 49.15 1.47224
      vertex 42.7 49.56 1.64207
      vertex 42.7 49.15 1.47224
    endloop
  endfacet
  facet normal 0 0.382688 -0.923878
    outer loop
      vertex 42.7 49.56 1.64207
      vertex 26 49.15 1.47224
      vertex 26 49.56 1.64207
    endloop
  endfacet
  facet normal 0 0.991452 0.130469
    outer loop
      vertex 42.7 48.3579 -0.439992
      vertex 26 48.3 0
      vertex 42.7 48.3 0
    endloop
  endfacet
  facet normal 0 0.991452 0.130469
    outer loop
      vertex 26 48.3 0
      vertex 42.7 48.3579 -0.439992
      vertex 26 48.3579 -0.439992
    endloop
  endfacet
  facet normal 0 -0.130533 0.991444
    outer loop
      vertex 26 50.44 -1.64207
      vertex 42.7 50 -1.7
      vertex 42.7 50.44 -1.64207
    endloop
  endfacet
  facet normal 0 -0.130533 0.991444
    outer loop
      vertex 42.7 50 -1.7
      vertex 26 50.44 -1.64207
      vertex 26 50 -1.7
    endloop
  endfacet
  facet normal 0 0.608739 -0.793371
    outer loop
      vertex 26 48.7979 1.20208
      vertex 42.7 49.15 1.47224
      vertex 42.7 48.7979 1.20208
    endloop
  endfacet
  facet normal 0 0.608739 -0.793371
    outer loop
      vertex 42.7 49.15 1.47224
      vertex 26 48.7979 1.20208
      vertex 26 49.15 1.47224
    endloop
  endfacet
  facet normal 0 0.130533 -0.991444
    outer loop
      vertex 26 49.56 1.64207
      vertex 42.7 50 1.7
      vertex 42.7 49.56 1.64207
    endloop
  endfacet
  facet normal 0 0.130533 -0.991444
    outer loop
      vertex 42.7 50 1.7
      vertex 26 49.56 1.64207
      vertex 26 50 1.7
    endloop
  endfacet
  facet normal 0 -0.130533 -0.991444
    outer loop
      vertex 26 50 1.7
      vertex 42.7 50.44 1.64207
      vertex 42.7 50 1.7
    endloop
  endfacet
  facet normal -0 -0.130533 -0.991444
    outer loop
      vertex 42.7 50.44 1.64207
      vertex 26 50 1.7
      vertex 26 50.44 1.64207
    endloop
  endfacet
  facet normal 0 -0.923824 -0.382817
    outer loop
      vertex 26 51.6421 0.439992
      vertex 42.7 51.4722 0.849999
      vertex 26 51.4722 0.849999
    endloop
  endfacet
  facet normal 0 -0.923824 -0.382817
    outer loop
      vertex 42.7 51.4722 0.849999
      vertex 26 51.6421 0.439992
      vertex 42.7 51.6421 0.439992
    endloop
  endfacet
  facet normal 0 0.923824 0.382817
    outer loop
      vertex 42.7 48.5278 -0.849999
      vertex 26 48.3579 -0.439992
      vertex 42.7 48.3579 -0.439992
    endloop
  endfacet
  facet normal 0 0.923824 0.382817
    outer loop
      vertex 26 48.3579 -0.439992
      vertex 42.7 48.5278 -0.849999
      vertex 26 48.5278 -0.849999
    endloop
  endfacet
  facet normal 0 -0.991452 0.130469
    outer loop
      vertex 26 51.6421 -0.439992
      vertex 42.7 51.7 0
      vertex 26 51.7 0
    endloop
  endfacet
  facet normal 0 -0.991452 0.130469
    outer loop
      vertex 42.7 51.7 0
      vertex 26 51.6421 -0.439992
      vertex 42.7 51.6421 -0.439992
    endloop
  endfacet
  facet normal 0 0.79342 -0.608675
    outer loop
      vertex 42.7 48.5278 0.849999
      vertex 26 48.7979 1.20208
      vertex 42.7 48.7979 1.20208
    endloop
  endfacet
  facet normal 0 0.79342 -0.608675
    outer loop
      vertex 26 48.7979 1.20208
      vertex 42.7 48.5278 0.849999
      vertex 26 48.5278 0.849999
    endloop
  endfacet
  facet normal 0 -0.79342 -0.608675
    outer loop
      vertex 26 51.4722 0.849999
      vertex 42.7 51.2021 1.20208
      vertex 26 51.2021 1.20208
    endloop
  endfacet
  facet normal 0 -0.79342 -0.608675
    outer loop
      vertex 42.7 51.2021 1.20208
      vertex 26 51.4722 0.849999
      vertex 42.7 51.4722 0.849999
    endloop
  endfacet
  facet normal 0 -0.382688 -0.923878
    outer loop
      vertex 26 50.44 1.64207
      vertex 42.7 50.85 1.47224
      vertex 42.7 50.44 1.64207
    endloop
  endfacet
  facet normal -0 -0.382688 -0.923878
    outer loop
      vertex 42.7 50.85 1.47224
      vertex 26 50.44 1.64207
      vertex 26 50.85 1.47224
    endloop
  endfacet
  facet normal 0 -0.608739 -0.793371
    outer loop
      vertex 26 50.85 1.47224
      vertex 42.7 51.2021 1.20208
      vertex 42.7 50.85 1.47224
    endloop
  endfacet
  facet normal -0 -0.608739 -0.793371
    outer loop
      vertex 42.7 51.2021 1.20208
      vertex 26 50.85 1.47224
      vertex 26 51.2021 1.20208
    endloop
  endfacet
  facet normal 0 0.991452 -0.130469
    outer loop
      vertex 42.7 48.3 0
      vertex 26 48.3579 0.439992
      vertex 42.7 48.3579 0.439992
    endloop
  endfacet
  facet normal 0 0.991452 -0.130469
    outer loop
      vertex 26 48.3579 0.439992
      vertex 42.7 48.3 0
      vertex 26 48.3 0
    endloop
  endfacet
  facet normal -0 0.130533 0.991444
    outer loop
      vertex 26 50 -1.7
      vertex 42.7 49.56 -1.64207
      vertex 42.7 50 -1.7
    endloop
  endfacet
  facet normal 0 0.130533 0.991444
    outer loop
      vertex 42.7 49.56 -1.64207
      vertex 26 50 -1.7
      vertex 26 49.56 -1.64207
    endloop
  endfacet
  facet normal -0 0.382688 0.923878
    outer loop
      vertex 26 49.56 -1.64207
      vertex 42.7 49.15 -1.47224
      vertex 42.7 49.56 -1.64207
    endloop
  endfacet
  facet normal 0 0.382688 0.923878
    outer loop
      vertex 42.7 49.15 -1.47224
      vertex 26 49.56 -1.64207
      vertex 26 49.15 -1.47224
    endloop
  endfacet
  facet normal -0 0.608739 0.793371
    outer loop
      vertex 26 49.15 -1.47224
      vertex 42.7 48.7979 -1.20208
      vertex 42.7 49.15 -1.47224
    endloop
  endfacet
  facet normal 0 0.608739 0.793371
    outer loop
      vertex 42.7 48.7979 -1.20208
      vertex 26 49.15 -1.47224
      vertex 26 48.7979 -1.20208
    endloop
  endfacet
  facet normal 0 -0.608739 0.793371
    outer loop
      vertex 26 51.2021 -1.20208
      vertex 42.7 50.85 -1.47224
      vertex 42.7 51.2021 -1.20208
    endloop
  endfacet
  facet normal 0 -0.608739 0.793371
    outer loop
      vertex 42.7 50.85 -1.47224
      vertex 26 51.2021 -1.20208
      vertex 26 50.85 -1.47224
    endloop
  endfacet
  facet normal 0 -0.923824 0.382817
    outer loop
      vertex 26 51.4722 -0.849999
      vertex 42.7 51.6421 -0.439992
      vertex 26 51.6421 -0.439992
    endloop
  endfacet
  facet normal 0 -0.923824 0.382817
    outer loop
      vertex 42.7 51.6421 -0.439992
      vertex 26 51.4722 -0.849999
      vertex 42.7 51.4722 -0.849999
    endloop
  endfacet
  facet normal 0 -0.79342 0.608675
    outer loop
      vertex 26 51.2021 -1.20208
      vertex 42.7 51.4722 -0.849999
      vertex 26 51.4722 -0.849999
    endloop
  endfacet
  facet normal 0 -0.79342 0.608675
    outer loop
      vertex 42.7 51.4722 -0.849999
      vertex 26 51.2021 -1.20208
      vertex 42.7 51.2021 -1.20208
    endloop
  endfacet
  facet normal 0 0.923824 -0.382817
    outer loop
      vertex 42.7 48.3579 0.439992
      vertex 26 48.5278 0.849999
      vertex 42.7 48.5278 0.849999
    endloop
  endfacet
  facet normal 0 0.923824 -0.382817
    outer loop
      vertex 26 48.5278 0.849999
      vertex 42.7 48.3579 0.439992
      vertex 26 48.3579 0.439992
    endloop
  endfacet
  facet normal 0 0.79342 0.608675
    outer loop
      vertex 42.7 48.7979 -1.20208
      vertex 26 48.5278 -0.849999
      vertex 42.7 48.5278 -0.849999
    endloop
  endfacet
  facet normal 0 0.79342 0.608675
    outer loop
      vertex 26 48.5278 -0.849999
      vertex 42.7 48.7979 -1.20208
      vertex 26 48.7979 -1.20208
    endloop
  endfacet
  facet normal 0 -0.382688 0.923878
    outer loop
      vertex 26 50.85 -1.47224
      vertex 42.7 50.44 -1.64207
      vertex 42.7 50.85 -1.47224
    endloop
  endfacet
  facet normal 0 -0.382688 0.923878
    outer loop
      vertex 42.7 50.44 -1.64207
      vertex 26 50.85 -1.47224
      vertex 26 50.44 -1.64207
    endloop
  endfacet
endsolid OpenSCAD_Model
