solid OpenSCAD_Model
  facet normal 0 -0.707107 0.707107
    outer loop
      vertex 14 -5.65685 0
      vertex 27.1 0 5.65685
      vertex 14 0 5.65685
    endloop
  endfacet
  facet normal 0 -0.707107 0.707107
    outer loop
      vertex 27.1 0 5.65685
      vertex 14 -5.65685 0
      vertex 27.1 -5.65685 0
    endloop
  endfacet
  facet normal 0 -0.707107 0.707107
    outer loop
      vertex -13 -5.65685 0
      vertex 0 0 5.65685
      vertex -13 0 5.65685
    endloop
  endfacet
  facet normal 0 -0.707107 0.707107
    outer loop
      vertex 0 0 5.65685
      vertex -13 -5.65685 0
      vertex 0 -5.65685 0
    endloop
  endfacet
  facet normal 0 -0.707107 -0.707107
    outer loop
      vertex 14 0 -5.65685
      vertex 27.1 -5.65685 0
      vertex 14 -5.65685 0
    endloop
  endfacet
  facet normal 0 -0.707107 -0.707107
    outer loop
      vertex 27.1 -5.65685 0
      vertex 14 0 -5.65685
      vertex 27.1 0 -5.65685
    endloop
  endfacet
  facet normal 0 -0.707107 -0.707107
    outer loop
      vertex -13 0 -5.65685
      vertex 0 -5.65685 0
      vertex -13 -5.65685 0
    endloop
  endfacet
  facet normal 0 -0.707107 -0.707107
    outer loop
      vertex 0 -5.65685 0
      vertex -13 0 -5.65685
      vertex 0 0 -5.65685
    endloop
  endfacet
  facet normal 0 0.707107 0.707107
    outer loop
      vertex 27.1 5.65685 0
      vertex 14 0 5.65685
      vertex 27.1 0 5.65685
    endloop
  endfacet
  facet normal 0 0.707107 0.707107
    outer loop
      vertex 14 0 5.65685
      vertex 27.1 5.65685 0
      vertex 14 5.65685 0
    endloop
  endfacet
  facet normal 0 0.707107 0.707107
    outer loop
      vertex 0 5.65685 0
      vertex -13 0 5.65685
      vertex 0 0 5.65685
    endloop
  endfacet
  facet normal 0 0.707107 0.707107
    outer loop
      vertex -13 0 5.65685
      vertex 0 5.65685 0
      vertex -13 5.65685 0
    endloop
  endfacet
  facet normal 1 0 0
    outer loop
      vertex 27.1 0 5.65685
      vertex 27.1 0 -5.65685
      vertex 27.1 5.65685 0
    endloop
  endfacet
  facet normal 1 0 -0
    outer loop
      vertex 27.1 0 -5.65685
      vertex 27.1 0 5.65685
      vertex 27.1 -5.65685 0
    endloop
  endfacet
  facet normal 0 0.707107 -0.707107
    outer loop
      vertex 27.1 0 -5.65685
      vertex 14 5.65685 0
      vertex 27.1 5.65685 0
    endloop
  endfacet
  facet normal 0 0.707107 -0.707107
    outer loop
      vertex 14 5.65685 0
      vertex 27.1 0 -5.65685
      vertex 14 0 -5.65685
    endloop
  endfacet
  facet normal 0 0.707107 -0.707107
    outer loop
      vertex 0 0 -5.65685
      vertex -13 5.65685 0
      vertex 0 5.65685 0
    endloop
  endfacet
  facet normal 0 0.707107 -0.707107
    outer loop
      vertex -13 5.65685 0
      vertex 0 0 -5.65685
      vertex -13 0 -5.65685
    endloop
  endfacet
  facet normal -1 -0 0
    outer loop
      vertex -13 5.65685 0
      vertex -13 1.72263 -0.22679
      vertex -13 1.7375 0
    endloop
  endfacet
  facet normal -1 0 0
    outer loop
      vertex -13 5.65685 0
      vertex -13 1.6783 -0.449698
      vertex -13 1.72263 -0.22679
    endloop
  endfacet
  facet normal -1 0 0
    outer loop
      vertex -13 5.65685 0
      vertex -13 1.60524 -0.664912
      vertex -13 1.6783 -0.449698
    endloop
  endfacet
  facet normal -1 0 0
    outer loop
      vertex -13 5.65685 0
      vertex -13 1.50472 -0.86875
      vertex -13 1.60524 -0.664912
    endloop
  endfacet
  facet normal -1 0 0
    outer loop
      vertex -13 5.65685 0
      vertex -13 1.37845 -1.05772
      vertex -13 1.50472 -0.86875
    endloop
  endfacet
  facet normal -1 0 0
    outer loop
      vertex -13 5.65685 0
      vertex -13 1.2286 -1.2286
      vertex -13 1.37845 -1.05772
    endloop
  endfacet
  facet normal -1 0 0
    outer loop
      vertex -13 0 -5.65685
      vertex -13 1.2286 -1.2286
      vertex -13 5.65685 0
    endloop
  endfacet
  facet normal -1 0 0
    outer loop
      vertex -13 1.2286 -1.2286
      vertex -13 0 -5.65685
      vertex -13 1.05772 -1.37845
    endloop
  endfacet
  facet normal -1 0 0
    outer loop
      vertex -13 1.05772 -1.37845
      vertex -13 0 -5.65685
      vertex -13 0.86875 -1.50472
    endloop
  endfacet
  facet normal -1 0 0
    outer loop
      vertex -13 0.86875 -1.50472
      vertex -13 0 -5.65685
      vertex -13 0.664912 -1.60524
    endloop
  endfacet
  facet normal -1 0 0
    outer loop
      vertex -13 0.664912 -1.60524
      vertex -13 0 -5.65685
      vertex -13 0.449698 -1.6783
    endloop
  endfacet
  facet normal -1 0 0
    outer loop
      vertex -13 0 -5.65685
      vertex -13 0.22679 -1.72263
      vertex -13 0.449698 -1.6783
    endloop
  endfacet
  facet normal -1 0 0
    outer loop
      vertex -13 0 -5.65685
      vertex -13 0 -1.7375
      vertex -13 0.22679 -1.72263
    endloop
  endfacet
  facet normal -1 0 0
    outer loop
      vertex -13 0 -5.65685
      vertex -13 -0.22679 -1.72263
      vertex -13 0 -1.7375
    endloop
  endfacet
  facet normal -1 0 0
    outer loop
      vertex -13 0 -5.65685
      vertex -13 -0.449698 -1.6783
      vertex -13 -0.22679 -1.72263
    endloop
  endfacet
  facet normal -1 0 0
    outer loop
      vertex -13 0 -5.65685
      vertex -13 -0.664912 -1.60524
      vertex -13 -0.449698 -1.6783
    endloop
  endfacet
  facet normal -1 0 0
    outer loop
      vertex -13 0 -5.65685
      vertex -13 -0.86875 -1.50472
      vertex -13 -0.664912 -1.60524
    endloop
  endfacet
  facet normal -1 0 0
    outer loop
      vertex -13 0 -5.65685
      vertex -13 -1.05772 -1.37845
      vertex -13 -0.86875 -1.50472
    endloop
  endfacet
  facet normal -1 0 0
    outer loop
      vertex -13 0 -5.65685
      vertex -13 -1.2286 -1.2286
      vertex -13 -1.05772 -1.37845
    endloop
  endfacet
  facet normal -1 0 0
    outer loop
      vertex -13 -5.65685 0
      vertex -13 -1.2286 -1.2286
      vertex -13 0 -5.65685
    endloop
  endfacet
  facet normal -1 0 0
    outer loop
      vertex -13 -1.2286 -1.2286
      vertex -13 -5.65685 0
      vertex -13 -1.37845 -1.05772
    endloop
  endfacet
  facet normal -1 0 0
    outer loop
      vertex -13 -1.37845 -1.05772
      vertex -13 -5.65685 0
      vertex -13 -1.50472 -0.86875
    endloop
  endfacet
  facet normal -1 0 0
    outer loop
      vertex -13 -1.50472 -0.86875
      vertex -13 -5.65685 0
      vertex -13 -1.60524 -0.664912
    endloop
  endfacet
  facet normal -1 0 0
    outer loop
      vertex -13 -1.72263 -0.22679
      vertex -13 -5.65685 0
      vertex -13 -1.7375 0
    endloop
  endfacet
  facet normal -1 0 0
    outer loop
      vertex -13 -1.6783 -0.449698
      vertex -13 -5.65685 0
      vertex -13 -1.72263 -0.22679
    endloop
  endfacet
  facet normal -1 0 0
    outer loop
      vertex -13 -1.60524 -0.664912
      vertex -13 -5.65685 0
      vertex -13 -1.6783 -0.449698
    endloop
  endfacet
  facet normal -1 0 0
    outer loop
      vertex -13 1.72263 0.22679
      vertex -13 5.65685 0
      vertex -13 1.7375 0
    endloop
  endfacet
  facet normal -1 0 0
    outer loop
      vertex -13 1.6783 0.449698
      vertex -13 5.65685 0
      vertex -13 1.72263 0.22679
    endloop
  endfacet
  facet normal -1 0 0
    outer loop
      vertex -13 1.60524 0.664912
      vertex -13 5.65685 0
      vertex -13 1.6783 0.449698
    endloop
  endfacet
  facet normal -1 0 0
    outer loop
      vertex -13 1.50472 0.86875
      vertex -13 5.65685 0
      vertex -13 1.60524 0.664912
    endloop
  endfacet
  facet normal -1 0 0
    outer loop
      vertex -13 1.37845 1.05772
      vertex -13 5.65685 0
      vertex -13 1.50472 0.86875
    endloop
  endfacet
  facet normal -1 0 0
    outer loop
      vertex -13 1.2286 1.2286
      vertex -13 5.65685 0
      vertex -13 1.37845 1.05772
    endloop
  endfacet
  facet normal -1 0 0
    outer loop
      vertex -13 0 5.65685
      vertex -13 1.2286 1.2286
      vertex -13 1.05772 1.37845
    endloop
  endfacet
  facet normal -1 0 0
    outer loop
      vertex -13 0 5.65685
      vertex -13 1.05772 1.37845
      vertex -13 0.86875 1.50472
    endloop
  endfacet
  facet normal -1 0 0
    outer loop
      vertex -13 0 5.65685
      vertex -13 0.86875 1.50472
      vertex -13 0.664912 1.60524
    endloop
  endfacet
  facet normal -1 0 0
    outer loop
      vertex -13 0 5.65685
      vertex -13 0.664912 1.60524
      vertex -13 0.449698 1.6783
    endloop
  endfacet
  facet normal -1 0 0
    outer loop
      vertex -13 1.2286 1.2286
      vertex -13 0 5.65685
      vertex -13 5.65685 0
    endloop
  endfacet
  facet normal -1 0 0
    outer loop
      vertex -13 0.22679 1.72263
      vertex -13 0 5.65685
      vertex -13 0.449698 1.6783
    endloop
  endfacet
  facet normal -1 0 0
    outer loop
      vertex -13 0 1.7375
      vertex -13 0 5.65685
      vertex -13 0.22679 1.72263
    endloop
  endfacet
  facet normal -1 0 0
    outer loop
      vertex -13 -0.22679 1.72263
      vertex -13 0 5.65685
      vertex -13 0 1.7375
    endloop
  endfacet
  facet normal -1 0 0
    outer loop
      vertex -13 -0.449698 1.6783
      vertex -13 0 5.65685
      vertex -13 -0.22679 1.72263
    endloop
  endfacet
  facet normal -1 0 0
    outer loop
      vertex -13 -0.664912 1.60524
      vertex -13 0 5.65685
      vertex -13 -0.449698 1.6783
    endloop
  endfacet
  facet normal -1 0 0
    outer loop
      vertex -13 -0.86875 1.50472
      vertex -13 0 5.65685
      vertex -13 -0.664912 1.60524
    endloop
  endfacet
  facet normal -1 0 0
    outer loop
      vertex -13 -1.05772 1.37845
      vertex -13 0 5.65685
      vertex -13 -0.86875 1.50472
    endloop
  endfacet
  facet normal -1 0 0
    outer loop
      vertex -13 -1.2286 1.2286
      vertex -13 0 5.65685
      vertex -13 -1.05772 1.37845
    endloop
  endfacet
  facet normal -1 0 0
    outer loop
      vertex -13 -5.65685 0
      vertex -13 -1.2286 1.2286
      vertex -13 -1.37845 1.05772
    endloop
  endfacet
  facet normal -1 0 0
    outer loop
      vertex -13 -5.65685 0
      vertex -13 -1.37845 1.05772
      vertex -13 -1.50472 0.86875
    endloop
  endfacet
  facet normal -1 0 0
    outer loop
      vertex -13 -5.65685 0
      vertex -13 -1.50472 0.86875
      vertex -13 -1.60524 0.664912
    endloop
  endfacet
  facet normal -1 0 0
    outer loop
      vertex -13 -5.65685 0
      vertex -13 -1.60524 0.664912
      vertex -13 -1.6783 0.449698
    endloop
  endfacet
  facet normal -1 -0 0
    outer loop
      vertex -13 -1.2286 1.2286
      vertex -13 -5.65685 0
      vertex -13 0 5.65685
    endloop
  endfacet
  facet normal -1 -0 0
    outer loop
      vertex -13 -1.72263 0.22679
      vertex -13 -5.65685 0
      vertex -13 -1.6783 0.449698
    endloop
  endfacet
  facet normal -1 0 0
    outer loop
      vertex -13 -5.65685 0
      vertex -13 -1.72263 0.22679
      vertex -13 -1.7375 0
    endloop
  endfacet
  facet normal 0.164728 0.984228 -0.0645028
    outer loop
      vertex 14 5.60846 -0.738367
      vertex 0 8 0
      vertex 14 5.65685 0
    endloop
  endfacet
  facet normal 0.164727 -0.984228 -0.0645041
    outer loop
      vertex 8.53978 -6.5145 -0.857651
      vertex 14 -5.60846 -0.738367
      vertex 10.4808 -6.20962 -0.552764
    endloop
  endfacet
  facet normal 0.164727 -0.741564 -0.650344
    outer loop
      vertex 0 -6.34683 -4.87009
      vertex 0 -5.65685 -5.65685
      vertex 14 -4 -4
    endloop
  endfacet
  facet normal 0.164727 0.0645029 0.984228
    outer loop
      vertex 14 0 5.65685
      vertex 14 0.738367 5.60846
      vertex 10.4808 0.552764 6.20962
    endloop
  endfacet
  facet normal 0.164728 -0.0645028 -0.984228
    outer loop
      vertex 14 -0.738367 -5.60846
      vertex 0 0 -8
      vertex 14 0 -5.65685
    endloop
  endfacet
  facet normal 0.164727 0.884618 -0.436253
    outer loop
      vertex 14 4.89898 -2.82843
      vertex 0 6.9282 -4
      vertex 0 7.39104 -3.06147
    endloop
  endfacet
  facet normal 0.164727 0.650344 -0.741564
    outer loop
      vertex 0 4.87009 -6.34683
      vertex 0 5.65685 -5.65685
      vertex 14 4 -4
    endloop
  endfacet
  facet normal 0.164728 0.984227 0.0645086
    outer loop
      vertex 14 5.60846 0.738367
      vertex 0 8 0
      vertex 0 7.93156 1.04421
    endloop
  endfacet
  facet normal 0.164727 0.741564 0.650344
    outer loop
      vertex 14 4 4
      vertex 0 6.34683 4.87009
      vertex 0 5.65685 5.65685
    endloop
  endfacet
  facet normal 0 -0.946931 -0.321438
    outer loop
      vertex 0 -7.39104 -3.06147
      vertex 2.04992e-06 -7.72741 -2.07055
      vertex 0 -7.72741 -2.07055
    endloop
  endfacet
  facet normal 0.164728 -0.933995 -0.317047
    outer loop
      vertex 2.04992e-06 -7.72741 -2.07055
      vertex 0 -7.39104 -3.06147
      vertex 14 -5.22625 -2.16478
    endloop
  endfacet
  facet normal 0.164727 -0.884618 -0.436253
    outer loop
      vertex 0 -6.9282 -4
      vertex 14 -4.89898 -2.82843
      vertex 0 -7.39104 -3.06147
    endloop
  endfacet
  facet normal 0.164727 -0.820113 -0.547977
    outer loop
      vertex 0 -6.9282 -4
      vertex 0 -6.34683 -4.87009
      vertex 14 -4.89898 -2.82843
    endloop
  endfacet
  facet normal 0.164727 0.547977 -0.820113
    outer loop
      vertex 0 4 -6.9282
      vertex 0 4.87009 -6.34683
      vertex 14 2.82843 -4.89898
    endloop
  endfacet
  facet normal 0.164728 0.884624 -0.43624
    outer loop
      vertex 14 4.89898 -2.82843
      vertex 0 7.39104 -3.06147
      vertex 14 5.22625 -2.16478
    endloop
  endfacet
  facet normal 0.164728 0.933995 0.317047
    outer loop
      vertex 14 5.22625 2.16478
      vertex 0 7.72741 2.07055
      vertex 0 7.39104 3.06147
    endloop
  endfacet
  facet normal -1 0 0
    outer loop
      vertex 0 0 -5.65685
      vertex 0 5.65685 -5.65685
      vertex 0 4.87009 -6.34683
    endloop
  endfacet
  facet normal -1 0 0
    outer loop
      vertex 0 0 -5.65685
      vertex 0 4.87009 -6.34683
      vertex 0 4 -6.9282
    endloop
  endfacet
  facet normal -1 0 0
    outer loop
      vertex 0 0 -5.65685
      vertex 0 4 -6.9282
      vertex 0 3.06147 -7.39104
    endloop
  endfacet
  facet normal -1 0 0
    outer loop
      vertex 0 0 -5.65685
      vertex 0 3.06147 -7.39104
      vertex 0 2.07055 -7.72741
    endloop
  endfacet
  facet normal -1 0 0
    outer loop
      vertex 0 0 -5.65685
      vertex 0 2.07055 -7.72741
      vertex 0 1.04421 -7.93156
    endloop
  endfacet
  facet normal -1 0 0
    outer loop
      vertex 0 0 -5.65685
      vertex 0 1.04421 -7.93156
      vertex 0 0 -8
    endloop
  endfacet
  facet normal -1 0 0
    outer loop
      vertex 0 5.65685 -5.65685
      vertex 0 0 -5.65685
      vertex 0 5.65685 0
    endloop
  endfacet
  facet normal -1 0 0
    outer loop
      vertex 0 -1.04421 -7.93156
      vertex 0 0 -5.65685
      vertex 0 0 -8
    endloop
  endfacet
  facet normal -1 0 0
    outer loop
      vertex 0 -2.07055 -7.72741
      vertex 0 0 -5.65685
      vertex 0 -1.04421 -7.93156
    endloop
  endfacet
  facet normal -1 0 0
    outer loop
      vertex 0 -3.06147 -7.39104
      vertex 0 0 -5.65685
      vertex 0 -2.07055 -7.72741
    endloop
  endfacet
  facet normal -1 0 0
    outer loop
      vertex 0 -4 -6.9282
      vertex 0 0 -5.65685
      vertex 0 -3.06147 -7.39104
    endloop
  endfacet
  facet normal -1 0 0
    outer loop
      vertex 0 -4.87009 -6.34683
      vertex 0 0 -5.65685
      vertex 0 -4 -6.9282
    endloop
  endfacet
  facet normal -1 0 0
    outer loop
      vertex 0 -5.65685 -5.65685
      vertex 0 0 -5.65685
      vertex 0 -4.87009 -6.34683
    endloop
  endfacet
  facet normal -1 0 0
    outer loop
      vertex 0 -5.65685 -5.65685
      vertex 0 -5.65685 0
      vertex 0 0 -5.65685
    endloop
  endfacet
  facet normal -1 0 -0
    outer loop
      vertex 0 -5.65685 0
      vertex 0 -5.65685 -5.65685
      vertex 0 -6.34683 -4.87009
    endloop
  endfacet
  facet normal -1 0 0
    outer loop
      vertex 0 5.65685 0
      vertex 0 8 0
      vertex 0 7.93156 -1.04421
    endloop
  endfacet
  facet normal -1 0 0
    outer loop
      vertex 0 5.65685 0
      vertex 0 7.93156 -1.04421
      vertex 0 7.72741 -2.07055
    endloop
  endfacet
  facet normal -1 0 0
    outer loop
      vertex 0 8 0
      vertex 0 5.65685 0
      vertex 0 7.93156 1.04421
    endloop
  endfacet
  facet normal -1 0 0
    outer loop
      vertex 0 5.65685 0
      vertex 0 7.72741 -2.07055
      vertex 0 7.39104 -3.06147
    endloop
  endfacet
  facet normal -1 -0 0
    outer loop
      vertex 0 7.93156 1.04421
      vertex 0 5.65685 0
      vertex 0 7.72741 2.07055
    endloop
  endfacet
  facet normal -1 0 0
    outer loop
      vertex 0 5.65685 0
      vertex 0 7.39104 -3.06147
      vertex 0 6.9282 -4
    endloop
  endfacet
  facet normal -1 -0 0
    outer loop
      vertex 0 7.72741 2.07055
      vertex 0 5.65685 0
      vertex 0 7.39104 3.06147
    endloop
  endfacet
  facet normal -1 0 0
    outer loop
      vertex 0 5.65685 0
      vertex 0 6.9282 -4
      vertex 0 6.34683 -4.87009
    endloop
  endfacet
  facet normal -1 -0 0
    outer loop
      vertex 0 7.39104 3.06147
      vertex 0 5.65685 0
      vertex 0 6.9282 4
    endloop
  endfacet
  facet normal -1 0 0
    outer loop
      vertex 0 5.65685 0
      vertex 0 6.34683 -4.87009
      vertex 0 5.65685 -5.65685
    endloop
  endfacet
  facet normal -1 -0 0
    outer loop
      vertex 0 6.9282 4
      vertex 0 5.65685 0
      vertex 0 6.34683 4.87009
    endloop
  endfacet
  facet normal -1 0 0
    outer loop
      vertex 0 5.65685 0
      vertex 0 5.65685 5.65685
      vertex 0 6.34683 4.87009
    endloop
  endfacet
  facet normal -1 0 0
    outer loop
      vertex 0 0 5.65685
      vertex 0 5.65685 5.65685
      vertex 0 5.65685 0
    endloop
  endfacet
  facet normal -1 0 0
    outer loop
      vertex 0 5.65685 5.65685
      vertex 0 0 5.65685
      vertex 0 4.87009 6.34683
    endloop
  endfacet
  facet normal -1 -0 0
    outer loop
      vertex 0 4.87009 6.34683
      vertex 0 0 5.65685
      vertex 0 4 6.9282
    endloop
  endfacet
  facet normal -1 -0 0
    outer loop
      vertex 0 4 6.9282
      vertex 0 0 5.65685
      vertex 0 3.06147 7.39104
    endloop
  endfacet
  facet normal -1 -0 0
    outer loop
      vertex 0 3.06147 7.39104
      vertex 0 0 5.65685
      vertex 0 2.07055 7.72741
    endloop
  endfacet
  facet normal -1 0 0
    outer loop
      vertex 0 -5.65685 0
      vertex 0 2.07055 7.72741
      vertex 0 0 5.65685
    endloop
  endfacet
  facet normal -1 0 0
    outer loop
      vertex 0 -6.9282 -4
      vertex 0 -5.65685 0
      vertex 0 -6.34683 -4.87009
    endloop
  endfacet
  facet normal -1 0 0
    outer loop
      vertex 0 -7.39104 -3.06147
      vertex 0 -5.65685 0
      vertex 0 -6.9282 -4
    endloop
  endfacet
  facet normal -1 -0 0
    outer loop
      vertex 0 -5.65685 0
      vertex 0 -7.72741 -2.07055
      vertex 0 2.07055 7.72741
    endloop
  endfacet
  facet normal -1 0 0
    outer loop
      vertex 0 -7.72741 -2.07055
      vertex 0 -5.65685 0
      vertex 0 -7.39104 -3.06147
    endloop
  endfacet
  facet normal 0.164728 0.741574 0.650332
    outer loop
      vertex 14 4.48788 3.44367
      vertex 0 6.34683 4.87009
      vertex 14 4 4
    endloop
  endfacet
  facet normal 0.164727 -0.96739 -0.19241
    outer loop
      vertex 6.76231e-06 -7.72741 -2.07055
      vertex 14 -5.60846 -0.738367
      vertex 8.53978 -6.5145 -0.857651
    endloop
  endfacet
  facet normal 0 -0.0376478 -0.999291
    outer loop
      vertex 14 -5.22625 -2.16478
      vertex 3.21111e-06 -7.72741 -2.07055
      vertex 2.04992e-06 -7.72741 -2.07055
    endloop
  endfacet
  facet normal 0.164728 -0.933994 -0.31705
    outer loop
      vertex 3.21111e-06 -7.72741 -2.07055
      vertex 14 -5.22625 -2.16478
      vertex 14 -5.4641 -1.4641
    endloop
  endfacet
  facet normal 0.164727 -0.984228 -0.0645029
    outer loop
      vertex 14 -5.60846 -0.738367
      vertex 14 -5.65685 0
      vertex 10.4808 -6.20962 -0.552764
    endloop
  endfacet
  facet normal 0.164728 -0.884624 -0.43624
    outer loop
      vertex 0 -7.39104 -3.06147
      vertex 14 -4.89898 -2.82843
      vertex 14 -5.22625 -2.16478
    endloop
  endfacet
  facet normal 0.164728 -0.43624 -0.884624
    outer loop
      vertex 14 -2.82843 -4.89898
      vertex 0 -3.06147 -7.39104
      vertex 14 -2.16478 -5.22625
    endloop
  endfacet
  facet normal 0.164727 -0.436253 -0.884618
    outer loop
      vertex 0 -4 -6.9282
      vertex 0 -3.06147 -7.39104
      vertex 14 -2.82843 -4.89898
    endloop
  endfacet
  facet normal 1 0 0
    outer loop
      vertex 14 0 -5.65685
      vertex 14 -1.4641 -5.4641
      vertex 14 -0.738367 -5.60846
    endloop
  endfacet
  facet normal 1 0 0
    outer loop
      vertex 14 0 -5.65685
      vertex 14 -2.16478 -5.22625
      vertex 14 -1.4641 -5.4641
    endloop
  endfacet
  facet normal 1 0 0
    outer loop
      vertex 14 0 -5.65685
      vertex 14 -2.82843 -4.89898
      vertex 14 -2.16478 -5.22625
    endloop
  endfacet
  facet normal 1 0 0
    outer loop
      vertex 14 0 -5.65685
      vertex 14 -3.44367 -4.48788
      vertex 14 -2.82843 -4.89898
    endloop
  endfacet
  facet normal 1 0 0
    outer loop
      vertex 14 0 -5.65685
      vertex 14 -4 -4
      vertex 14 -3.44367 -4.48788
    endloop
  endfacet
  facet normal 1 0 0
    outer loop
      vertex 14 0 -5.65685
      vertex 14 -4.48788 -3.44367
      vertex 14 -4 -4
    endloop
  endfacet
  facet normal 1 0 0
    outer loop
      vertex 14 0 -5.65685
      vertex 14 -4.89898 -2.82843
      vertex 14 -4.48788 -3.44367
    endloop
  endfacet
  facet normal 1 0 0
    outer loop
      vertex 14 0 -5.65685
      vertex 14 -5.22625 -2.16478
      vertex 14 -4.89898 -2.82843
    endloop
  endfacet
  facet normal 1 0 0
    outer loop
      vertex 14 0 -5.65685
      vertex 14 -5.4641 -1.4641
      vertex 14 -5.22625 -2.16478
    endloop
  endfacet
  facet normal 1 0 0
    outer loop
      vertex 14 0 -5.65685
      vertex 14 -5.60846 -0.738367
      vertex 14 -5.4641 -1.4641
    endloop
  endfacet
  facet normal 1 -0 -0
    outer loop
      vertex 14 -5.60846 -0.738367
      vertex 14 0 -5.65685
      vertex 14 -5.65685 0
    endloop
  endfacet
  facet normal 1 0 0
    outer loop
      vertex 14 -5.65685 6.13886e-07
      vertex 14 0 5.65685
      vertex 14 -6.13886e-07 5.65685
    endloop
  endfacet
  facet normal 1 0 0
    outer loop
      vertex 14 0 5.65685
      vertex 14 -5.65685 6.13886e-07
      vertex 14 -5.65685 0
    endloop
  endfacet
  facet normal 1 0 0
    outer loop
      vertex 14 5.65685 0
      vertex 14 5.4641 -1.4641
      vertex 14 5.60846 -0.738367
    endloop
  endfacet
  facet normal 1 0 0
    outer loop
      vertex 14 5.65685 0
      vertex 14 5.22625 -2.16478
      vertex 14 5.4641 -1.4641
    endloop
  endfacet
  facet normal 1 0 0
    outer loop
      vertex 14 5.65685 0
      vertex 14 4.89898 -2.82843
      vertex 14 5.22625 -2.16478
    endloop
  endfacet
  facet normal 1 0 0
    outer loop
      vertex 14 5.65685 0
      vertex 14 4.48788 -3.44367
      vertex 14 4.89898 -2.82843
    endloop
  endfacet
  facet normal 1 0 0
    outer loop
      vertex 14 5.65685 0
      vertex 14 4 -4
      vertex 14 4.48788 -3.44367
    endloop
  endfacet
  facet normal 1 0 0
    outer loop
      vertex 14 5.65685 0
      vertex 14 3.44367 -4.48788
      vertex 14 4 -4
    endloop
  endfacet
  facet normal 1 0 0
    outer loop
      vertex 14 5.65685 0
      vertex 14 2.82843 -4.89898
      vertex 14 3.44367 -4.48788
    endloop
  endfacet
  facet normal 1 0 0
    outer loop
      vertex 14 5.65685 0
      vertex 14 2.16478 -5.22625
      vertex 14 2.82843 -4.89898
    endloop
  endfacet
  facet normal 1 0 0
    outer loop
      vertex 14 5.65685 0
      vertex 14 1.4641 -5.4641
      vertex 14 2.16478 -5.22625
    endloop
  endfacet
  facet normal 1 0 0
    outer loop
      vertex 14 5.65685 0
      vertex 14 0.738367 -5.60846
      vertex 14 1.4641 -5.4641
    endloop
  endfacet
  facet normal 1 0 -0
    outer loop
      vertex 14 0.738367 -5.60846
      vertex 14 5.65685 0
      vertex 14 0 -5.65685
    endloop
  endfacet
  facet normal 1 0 0
    outer loop
      vertex 14 5.4641 1.4641
      vertex 14 5.65685 0
      vertex 14 5.60846 0.738367
    endloop
  endfacet
  facet normal 1 0 0
    outer loop
      vertex 14 5.22625 2.16478
      vertex 14 5.65685 0
      vertex 14 5.4641 1.4641
    endloop
  endfacet
  facet normal 1 0 0
    outer loop
      vertex 14 4.89898 2.82843
      vertex 14 5.65685 0
      vertex 14 5.22625 2.16478
    endloop
  endfacet
  facet normal 1 0 0
    outer loop
      vertex 14 4.48788 3.44367
      vertex 14 5.65685 0
      vertex 14 4.89898 2.82843
    endloop
  endfacet
  facet normal 1 0 0
    outer loop
      vertex 14 4 4
      vertex 14 5.65685 0
      vertex 14 4.48788 3.44367
    endloop
  endfacet
  facet normal 1 0 0
    outer loop
      vertex 14 3.44367 4.48788
      vertex 14 5.65685 0
      vertex 14 4 4
    endloop
  endfacet
  facet normal 1 0 0
    outer loop
      vertex 14 2.82843 4.89898
      vertex 14 5.65685 0
      vertex 14 3.44367 4.48788
    endloop
  endfacet
  facet normal 1 0 0
    outer loop
      vertex 14 2.16478 5.22625
      vertex 14 5.65685 0
      vertex 14 2.82843 4.89898
    endloop
  endfacet
  facet normal 1 0 0
    outer loop
      vertex 14 1.4641 5.4641
      vertex 14 5.65685 0
      vertex 14 2.16478 5.22625
    endloop
  endfacet
  facet normal 1 0 0
    outer loop
      vertex 14 0.738367 5.60846
      vertex 14 5.65685 0
      vertex 14 1.4641 5.4641
    endloop
  endfacet
  facet normal 1 0 0
    outer loop
      vertex 14 5.65685 0
      vertex 14 0.738367 5.60846
      vertex 14 0 5.65685
    endloop
  endfacet
  facet normal 0.164728 0.54799 -0.820105
    outer loop
      vertex 14 2.82843 -4.89898
      vertex 0 4.87009 -6.34683
      vertex 14 3.44367 -4.48788
    endloop
  endfacet
  facet normal 0.164728 0.317047 -0.933995
    outer loop
      vertex 0 2.07055 -7.72741
      vertex 0 3.06147 -7.39104
      vertex 14 2.16478 -5.22625
    endloop
  endfacet
  facet normal 0.164728 0.650332 -0.741574
    outer loop
      vertex 14 3.44367 -4.48788
      vertex 0 4.87009 -6.34683
      vertex 14 4 -4
    endloop
  endfacet
  facet normal 0.164727 0.820113 -0.547977
    outer loop
      vertex 14 4.89898 -2.82843
      vertex 0 6.34683 -4.87009
      vertex 0 6.9282 -4
    endloop
  endfacet
  facet normal 0.164728 0.933995 -0.317047
    outer loop
      vertex 14 5.22625 -2.16478
      vertex 0 7.39104 -3.06147
      vertex 0 7.72741 -2.07055
    endloop
  endfacet
  facet normal 0.164728 0.933994 -0.31705
    outer loop
      vertex 14 5.22625 -2.16478
      vertex 0 7.72741 -2.07055
      vertex 14 5.4641 -1.4641
    endloop
  endfacet
  facet normal 0.164728 0.967387 0.192424
    outer loop
      vertex 14 5.60846 0.738367
      vertex 0 7.93156 1.04421
      vertex 0 7.72741 2.07055
    endloop
  endfacet
  facet normal 0.164728 0.967386 0.192429
    outer loop
      vertex 14 5.60846 0.738367
      vertex 0 7.72741 2.07055
      vertex 14 5.4641 1.4641
    endloop
  endfacet
  facet normal 0.164728 0.43624 0.884624
    outer loop
      vertex 14 2.16478 5.22625
      vertex 14 2.82843 4.89898
      vertex 0 3.06147 7.39104
    endloop
  endfacet
  facet normal 0.164727 0.436253 0.884618
    outer loop
      vertex 0 3.06147 7.39104
      vertex 14 2.82843 4.89898
      vertex 0 4 6.9282
    endloop
  endfacet
  facet normal 0.164728 0.984228 0.0645028
    outer loop
      vertex 14 5.65685 0
      vertex 0 8 0
      vertex 14 5.60846 0.738367
    endloop
  endfacet
  facet normal 0.164728 0.884624 0.43624
    outer loop
      vertex 14 5.22625 2.16478
      vertex 0 7.39104 3.06147
      vertex 14 4.89898 2.82843
    endloop
  endfacet
  facet normal 0.164727 0.884618 0.436253
    outer loop
      vertex 14 4.89898 2.82843
      vertex 0 7.39104 3.06147
      vertex 0 6.9282 4
    endloop
  endfacet
  facet normal 0.164727 0.820113 0.547977
    outer loop
      vertex 14 4.89898 2.82843
      vertex 0 6.9282 4
      vertex 0 6.34683 4.87009
    endloop
  endfacet
  facet normal 0.164728 -0.967386 -0.192429
    outer loop
      vertex 6.76231e-06 -7.72741 -2.07055
      vertex 14 -5.4641 -1.4641
      vertex 14 -5.60846 -0.738367
    endloop
  endfacet
  facet normal 0 0.258818 -0.965926
    outer loop
      vertex 14 -5.4641 -1.4641
      vertex 6.76231e-06 -7.72741 -2.07055
      vertex 3.21111e-06 -7.72741 -2.07055
    endloop
  endfacet
  facet normal 0.164728 -0.820105 -0.54799
    outer loop
      vertex 0 -6.34683 -4.87009
      vertex 14 -4.48788 -3.44367
      vertex 14 -4.89898 -2.82843
    endloop
  endfacet
  facet normal 0.164728 -0.741574 -0.650332
    outer loop
      vertex 0 -6.34683 -4.87009
      vertex 14 -4 -4
      vertex 14 -4.48788 -3.44367
    endloop
  endfacet
  facet normal 0.164727 -0.547977 -0.820113
    outer loop
      vertex 0 -4.87009 -6.34683
      vertex 0 -4 -6.9282
      vertex 14 -2.82843 -4.89898
    endloop
  endfacet
  facet normal 0.164728 -0.317047 -0.933995
    outer loop
      vertex 0 -3.06147 -7.39104
      vertex 0 -2.07055 -7.72741
      vertex 14 -2.16478 -5.22625
    endloop
  endfacet
  facet normal 0.164728 -0.31705 -0.933994
    outer loop
      vertex 14 -2.16478 -5.22625
      vertex 0 -2.07055 -7.72741
      vertex 14 -1.4641 -5.4641
    endloop
  endfacet
  facet normal 0.164728 0.967387 -0.192424
    outer loop
      vertex 14 5.60846 -0.738367
      vertex 0 7.72741 -2.07055
      vertex 0 7.93156 -1.04421
    endloop
  endfacet
  facet normal 0.164728 0.984227 -0.0645086
    outer loop
      vertex 14 5.60846 -0.738367
      vertex 0 7.93156 -1.04421
      vertex 0 8 0
    endloop
  endfacet
  facet normal 0.164728 0.43624 -0.884624
    outer loop
      vertex 14 2.16478 -5.22625
      vertex 0 3.06147 -7.39104
      vertex 14 2.82843 -4.89898
    endloop
  endfacet
  facet normal 0.164727 0.436253 -0.884618
    outer loop
      vertex 0 3.06147 -7.39104
      vertex 0 4 -6.9282
      vertex 14 2.82843 -4.89898
    endloop
  endfacet
  facet normal 0.164728 0.741574 -0.650332
    outer loop
      vertex 14 4 -4
      vertex 0 6.34683 -4.87009
      vertex 14 4.48788 -3.44367
    endloop
  endfacet
  facet normal 0.164727 0.741564 -0.650344
    outer loop
      vertex 14 4 -4
      vertex 0 5.65685 -5.65685
      vertex 0 6.34683 -4.87009
    endloop
  endfacet
  facet normal 0.164727 0.547977 0.820113
    outer loop
      vertex 14 2.82843 4.89898
      vertex 0 4.87009 6.34683
      vertex 0 4 6.9282
    endloop
  endfacet
  facet normal 0.164728 0.317047 0.933995
    outer loop
      vertex 0 3.06147 7.39104
      vertex 2.04992e-06 2.07055 7.72741
      vertex 14 2.16478 5.22625
    endloop
  endfacet
  facet normal 0 0.321438 0.946931
    outer loop
      vertex 2.04992e-06 2.07055 7.72741
      vertex 0 3.06147 7.39104
      vertex 0 2.07055 7.72741
    endloop
  endfacet
  facet normal 0.164728 0.192429 0.967386
    outer loop
      vertex 14 1.4641 5.4641
      vertex 6.76231e-06 2.07055 7.72741
      vertex 14 0.738367 5.60846
    endloop
  endfacet
  facet normal 0 0.965926 -0.258818
    outer loop
      vertex 6.76231e-06 2.07055 7.72741
      vertex 14 1.4641 5.4641
      vertex 3.21111e-06 2.07055 7.72741
    endloop
  endfacet
  facet normal 0.164728 0.933994 0.31705
    outer loop
      vertex 14 5.4641 1.4641
      vertex 0 7.72741 2.07055
      vertex 14 5.22625 2.16478
    endloop
  endfacet
  facet normal 0.164728 0.820105 0.54799
    outer loop
      vertex 14 4.48788 3.44367
      vertex 14 4.89898 2.82843
      vertex 0 6.34683 4.87009
    endloop
  endfacet
  facet normal 0.164728 -0.192424 -0.967387
    outer loop
      vertex 0 -2.07055 -7.72741
      vertex 0 -1.04421 -7.93156
      vertex 14 -0.738367 -5.60846
    endloop
  endfacet
  facet normal 0.164728 -0.0645086 -0.984227
    outer loop
      vertex 0 -1.04421 -7.93156
      vertex 0 0 -8
      vertex 14 -0.738367 -5.60846
    endloop
  endfacet
  facet normal 0.164727 -0.650344 -0.741564
    outer loop
      vertex 0 -5.65685 -5.65685
      vertex 0 -4.87009 -6.34683
      vertex 14 -4 -4
    endloop
  endfacet
  facet normal 0.164728 0.967386 -0.192429
    outer loop
      vertex 14 5.4641 -1.4641
      vertex 0 7.72741 -2.07055
      vertex 14 5.60846 -0.738367
    endloop
  endfacet
  facet normal 0.164728 0.0645028 -0.984228
    outer loop
      vertex 14 0 -5.65685
      vertex 0 0 -8
      vertex 14 0.738367 -5.60846
    endloop
  endfacet
  facet normal 0.164728 0.820105 -0.54799
    outer loop
      vertex 14 4.48788 -3.44367
      vertex 0 6.34683 -4.87009
      vertex 14 4.89898 -2.82843
    endloop
  endfacet
  facet normal 0.164727 0.19241 0.96739
    outer loop
      vertex 8.53978 0.857651 6.5145
      vertex 14 0.738367 5.60846
      vertex 6.76231e-06 2.07055 7.72741
    endloop
  endfacet
  facet normal 0.164727 0.0645041 0.984228
    outer loop
      vertex 10.4808 0.552764 6.20962
      vertex 14 0.738367 5.60846
      vertex 8.53978 0.857651 6.5145
    endloop
  endfacet
  facet normal 0.164727 0.650344 0.741564
    outer loop
      vertex 0 4.87009 6.34683
      vertex 14 4 4
      vertex 0 5.65685 5.65685
    endloop
  endfacet
  facet normal 0.164728 -0.192429 -0.967386
    outer loop
      vertex 14 -1.4641 -5.4641
      vertex 0 -2.07055 -7.72741
      vertex 14 -0.738367 -5.60846
    endloop
  endfacet
  facet normal 0.164728 -0.650332 -0.741574
    outer loop
      vertex 14 -4 -4
      vertex 0 -4.87009 -6.34683
      vertex 14 -3.44367 -4.48788
    endloop
  endfacet
  facet normal 0.164728 -0.54799 -0.820105
    outer loop
      vertex 0 -4.87009 -6.34683
      vertex 14 -2.82843 -4.89898
      vertex 14 -3.44367 -4.48788
    endloop
  endfacet
  facet normal 0.164728 0.192424 -0.967387
    outer loop
      vertex 0 1.04421 -7.93156
      vertex 0 2.07055 -7.72741
      vertex 14 0.738367 -5.60846
    endloop
  endfacet
  facet normal 0.164728 0.0645086 -0.984227
    outer loop
      vertex 0 0 -8
      vertex 0 1.04421 -7.93156
      vertex 14 0.738367 -5.60846
    endloop
  endfacet
  facet normal 0.164728 0.192429 -0.967386
    outer loop
      vertex 14 0.738367 -5.60846
      vertex 0 2.07055 -7.72741
      vertex 14 1.4641 -5.4641
    endloop
  endfacet
  facet normal 0.164728 0.31705 -0.933994
    outer loop
      vertex 14 1.4641 -5.4641
      vertex 0 2.07055 -7.72741
      vertex 14 2.16478 -5.22625
    endloop
  endfacet
  facet normal 0.164728 0.31705 0.933994
    outer loop
      vertex 14 2.16478 5.22625
      vertex 3.21111e-06 2.07055 7.72741
      vertex 14 1.4641 5.4641
    endloop
  endfacet
  facet normal 0 0.999291 0.0376478
    outer loop
      vertex 3.21111e-06 2.07055 7.72741
      vertex 14 2.16478 5.22625
      vertex 2.04992e-06 2.07055 7.72741
    endloop
  endfacet
  facet normal 0.164728 0.650332 0.741574
    outer loop
      vertex 14 3.44367 4.48788
      vertex 14 4 4
      vertex 0 4.87009 6.34683
    endloop
  endfacet
  facet normal 0.164728 0.54799 0.820105
    outer loop
      vertex 14 2.82843 4.89898
      vertex 14 3.44367 4.48788
      vertex 0 4.87009 6.34683
    endloop
  endfacet
  facet normal 0 0 0
    outer loop
      vertex 2.04992e-06 2.07055 7.72741
      vertex 6.76231e-06 2.07055 7.72741
      vertex 3.21111e-06 2.07055 7.72741
    endloop
  endfacet
  facet normal 0 -0.707107 0.707107
    outer loop
      vertex 6.76231e-06 -7.72741 -2.07055
      vertex 6.76231e-06 2.07055 7.72741
      vertex 2.04992e-06 2.07055 7.72741
    endloop
  endfacet
  facet normal 9.10817e-07 -0.707107 0.707107
    outer loop
      vertex 6.76231e-06 2.07055 7.72741
      vertex 8.53978 -6.5145 -0.857651
      vertex 8.53978 0.857651 6.5145
    endloop
  endfacet
  facet normal -2.55008e-06 -0.707107 0.707107
    outer loop
      vertex 8.53978 0.857651 6.5145
      vertex 8.53978 -6.5145 -0.857651
      vertex 10.4808 0.552764 6.20962
    endloop
  endfacet
  facet normal -1 -0 0
    outer loop
      vertex 14 0 5.65685
      vertex 14 -5.65685 6.13886e-07
      vertex 14 -6.13886e-07 5.65685
    endloop
  endfacet
  facet normal -2.55008e-06 -0.707107 0.707107
    outer loop
      vertex 10.4808 -6.20962 -0.552764
      vertex 10.4808 0.552764 6.20962
      vertex 8.53978 -6.5145 -0.857651
    endloop
  endfacet
  facet normal 0 -0.707107 0.707107
    outer loop
      vertex 0 -7.72741 -2.07055
      vertex 2.04992e-06 2.07055 7.72741
      vertex 0 2.07055 7.72741
    endloop
  endfacet
  facet normal -1 0 0
    outer loop
      vertex 14 0 5.65685
      vertex 14 -5.65685 0
      vertex 14 -5.65685 6.13886e-07
    endloop
  endfacet
  facet normal 1.20557e-06 -0.707107 0.707107
    outer loop
      vertex 14 0 5.65685
      vertex 10.4808 -6.20962 -0.552764
      vertex 14 -5.65685 0
    endloop
  endfacet
  facet normal 1.20557e-06 -0.707107 0.707107
    outer loop
      vertex 10.4808 0.552764 6.20962
      vertex 10.4808 -6.20962 -0.552764
      vertex 14 0 5.65685
    endloop
  endfacet
  facet normal 9.10817e-07 -0.707107 0.707107
    outer loop
      vertex 6.76231e-06 2.07055 7.72741
      vertex 6.76231e-06 -7.72741 -2.07055
      vertex 8.53978 -6.5145 -0.857651
    endloop
  endfacet
  facet normal 0 -0.707107 0.707107
    outer loop
      vertex 2.04992e-06 2.07055 7.72741
      vertex 3.21111e-06 -7.72741 -2.07055
      vertex 6.76231e-06 -7.72741 -2.07055
    endloop
  endfacet
  facet normal 0 -0.707107 0.707107
    outer loop
      vertex 2.04992e-06 2.07055 7.72741
      vertex 0 -7.72741 -2.07055
      vertex 3.21111e-06 -7.72741 -2.07055
    endloop
  endfacet
  facet normal 0 0 0
    outer loop
      vertex 3.21111e-06 -7.72741 -2.07055
      vertex 0 -7.72741 -2.07055
      vertex 2.04992e-06 -7.72741 -2.07055
    endloop
  endfacet
  facet normal 0 0.659327 -0.751857
    outer loop
      vertex -13 -1.2286 1.2286
      vertex 6 -1.05772 1.37845
      vertex 6 -1.2286 1.2286
    endloop
  endfacet
  facet normal 0 0.659327 -0.751857
    outer loop
      vertex 6 -1.05772 1.37845
      vertex -13 -1.2286 1.2286
      vertex -13 -1.05772 1.37845
    endloop
  endfacet
  facet normal 0 -0.751857 0.659327
    outer loop
      vertex -13 1.2286 -1.2286
      vertex 6 1.37845 -1.05772
      vertex -13 1.37845 -1.05772
    endloop
  endfacet
  facet normal 0 -0.751857 0.659327
    outer loop
      vertex 6 1.37845 -1.05772
      vertex -13 1.2286 -1.2286
      vertex 6 1.2286 -1.2286
    endloop
  endfacet
  facet normal 0 -0.751857 -0.659327
    outer loop
      vertex -13 1.37845 1.05772
      vertex 6 1.2286 1.2286
      vertex -13 1.2286 1.2286
    endloop
  endfacet
  facet normal 0 -0.751857 -0.659327
    outer loop
      vertex 6 1.2286 1.2286
      vertex -13 1.37845 1.05772
      vertex 6 1.37845 1.05772
    endloop
  endfacet
  facet normal 0 0.751857 0.659327
    outer loop
      vertex 6 -1.2286 -1.2286
      vertex -13 -1.37845 -1.05772
      vertex 6 -1.37845 -1.05772
    endloop
  endfacet
  facet normal 0 0.751857 0.659327
    outer loop
      vertex -13 -1.37845 -1.05772
      vertex 6 -1.2286 -1.2286
      vertex -13 -1.2286 -1.2286
    endloop
  endfacet
  facet normal 0 -0.0654268 -0.997857
    outer loop
      vertex -13 0 1.7375
      vertex 6 0.22679 1.72263
      vertex 6 0 1.7375
    endloop
  endfacet
  facet normal -0 -0.0654268 -0.997857
    outer loop
      vertex 6 0.22679 1.72263
      vertex -13 0 1.7375
      vertex -13 0.22679 1.72263
    endloop
  endfacet
  facet normal 0 -0.997857 -0.0654268
    outer loop
      vertex -13 1.7375 0
      vertex 6 1.72263 0.22679
      vertex -13 1.72263 0.22679
    endloop
  endfacet
  facet normal 0 -0.997857 -0.0654268
    outer loop
      vertex 6 1.72263 0.22679
      vertex -13 1.7375 0
      vertex 6 1.7375 0
    endloop
  endfacet
  facet normal 0 -0.946924 -0.321458
    outer loop
      vertex -13 1.6783 0.449698
      vertex 6 1.60524 0.664912
      vertex -13 1.60524 0.664912
    endloop
  endfacet
  facet normal 0 -0.946924 -0.321458
    outer loop
      vertex 6 1.60524 0.664912
      vertex -13 1.6783 0.449698
      vertex 6 1.6783 0.449698
    endloop
  endfacet
  facet normal 0 0.980793 -0.195052
    outer loop
      vertex 6 -1.72263 0.22679
      vertex -13 -1.6783 0.449698
      vertex 6 -1.6783 0.449698
    endloop
  endfacet
  facet normal 0 0.980793 -0.195052
    outer loop
      vertex -13 -1.6783 0.449698
      vertex 6 -1.72263 0.22679
      vertex -13 -1.72263 0.22679
    endloop
  endfacet
  facet normal 0 0.321458 -0.946924
    outer loop
      vertex -13 -0.664912 1.60524
      vertex 6 -0.449698 1.6783
      vertex 6 -0.664912 1.60524
    endloop
  endfacet
  facet normal 0 0.321458 -0.946924
    outer loop
      vertex 6 -0.449698 1.6783
      vertex -13 -0.664912 1.60524
      vertex -13 -0.449698 1.6783
    endloop
  endfacet
  facet normal 0 0.555583 -0.831461
    outer loop
      vertex -13 -1.05772 1.37845
      vertex 6 -0.86875 1.50472
      vertex 6 -1.05772 1.37845
    endloop
  endfacet
  facet normal 0 0.555583 -0.831461
    outer loop
      vertex 6 -0.86875 1.50472
      vertex -13 -1.05772 1.37845
      vertex -13 -0.86875 1.50472
    endloop
  endfacet
  facet normal 0 -0.442282 -0.896876
    outer loop
      vertex -13 0.664912 1.60524
      vertex 6 0.86875 1.50472
      vertex 6 0.664912 1.60524
    endloop
  endfacet
  facet normal -0 -0.442282 -0.896876
    outer loop
      vertex 6 0.86875 1.50472
      vertex -13 0.664912 1.60524
      vertex -13 0.86875 1.50472
    endloop
  endfacet
  facet normal 0 -0.555583 -0.831461
    outer loop
      vertex -13 0.86875 1.50472
      vertex 6 1.05772 1.37845
      vertex 6 0.86875 1.50472
    endloop
  endfacet
  facet normal -0 -0.555583 -0.831461
    outer loop
      vertex 6 1.05772 1.37845
      vertex -13 0.86875 1.50472
      vertex -13 1.05772 1.37845
    endloop
  endfacet
  facet normal 0 -0.195052 -0.980793
    outer loop
      vertex -13 0.22679 1.72263
      vertex 6 0.449698 1.6783
      vertex 6 0.22679 1.72263
    endloop
  endfacet
  facet normal -0 -0.195052 -0.980793
    outer loop
      vertex 6 0.449698 1.6783
      vertex -13 0.22679 1.72263
      vertex -13 0.449698 1.6783
    endloop
  endfacet
  facet normal 0 -0.946924 0.321458
    outer loop
      vertex -13 1.60524 -0.664912
      vertex 6 1.6783 -0.449698
      vertex -13 1.6783 -0.449698
    endloop
  endfacet
  facet normal 0 -0.946924 0.321458
    outer loop
      vertex 6 1.6783 -0.449698
      vertex -13 1.60524 -0.664912
      vertex 6 1.60524 -0.664912
    endloop
  endfacet
  facet normal 0 -0.980793 0.195052
    outer loop
      vertex -13 1.6783 -0.449698
      vertex 6 1.72263 -0.22679
      vertex -13 1.72263 -0.22679
    endloop
  endfacet
  facet normal 0 -0.980793 0.195052
    outer loop
      vertex 6 1.72263 -0.22679
      vertex -13 1.6783 -0.449698
      vertex 6 1.6783 -0.449698
    endloop
  endfacet
  facet normal 0 -0.896876 0.442282
    outer loop
      vertex -13 1.50472 -0.86875
      vertex 6 1.60524 -0.664912
      vertex -13 1.60524 -0.664912
    endloop
  endfacet
  facet normal 0 -0.896876 0.442282
    outer loop
      vertex 6 1.60524 -0.664912
      vertex -13 1.50472 -0.86875
      vertex 6 1.50472 -0.86875
    endloop
  endfacet
  facet normal 0 -0.980793 -0.195052
    outer loop
      vertex -13 1.72263 0.22679
      vertex 6 1.6783 0.449698
      vertex -13 1.6783 0.449698
    endloop
  endfacet
  facet normal 0 -0.980793 -0.195052
    outer loop
      vertex 6 1.6783 0.449698
      vertex -13 1.72263 0.22679
      vertex 6 1.72263 0.22679
    endloop
  endfacet
  facet normal 0 -0.831461 -0.555583
    outer loop
      vertex -13 1.50472 0.86875
      vertex 6 1.37845 1.05772
      vertex -13 1.37845 1.05772
    endloop
  endfacet
  facet normal 0 -0.831461 -0.555583
    outer loop
      vertex 6 1.37845 1.05772
      vertex -13 1.50472 0.86875
      vertex 6 1.50472 0.86875
    endloop
  endfacet
  facet normal 0 0.831461 0.555583
    outer loop
      vertex 6 -1.37845 -1.05772
      vertex -13 -1.50472 -0.86875
      vertex 6 -1.50472 -0.86875
    endloop
  endfacet
  facet normal 0 0.831461 0.555583
    outer loop
      vertex -13 -1.50472 -0.86875
      vertex 6 -1.37845 -1.05772
      vertex -13 -1.37845 -1.05772
    endloop
  endfacet
  facet normal 0 0.442282 -0.896876
    outer loop
      vertex -13 -0.86875 1.50472
      vertex 6 -0.664912 1.60524
      vertex 6 -0.86875 1.50472
    endloop
  endfacet
  facet normal 0 0.442282 -0.896876
    outer loop
      vertex 6 -0.664912 1.60524
      vertex -13 -0.86875 1.50472
      vertex -13 -0.664912 1.60524
    endloop
  endfacet
  facet normal 0 0.0654268 -0.997857
    outer loop
      vertex -13 -0.22679 1.72263
      vertex 6 0 1.7375
      vertex 6 -0.22679 1.72263
    endloop
  endfacet
  facet normal 0 0.0654268 -0.997857
    outer loop
      vertex 6 0 1.7375
      vertex -13 -0.22679 1.72263
      vertex -13 0 1.7375
    endloop
  endfacet
  facet normal 0 0.195052 -0.980793
    outer loop
      vertex -13 -0.449698 1.6783
      vertex 6 -0.22679 1.72263
      vertex 6 -0.449698 1.6783
    endloop
  endfacet
  facet normal 0 0.195052 -0.980793
    outer loop
      vertex 6 -0.22679 1.72263
      vertex -13 -0.449698 1.6783
      vertex -13 -0.22679 1.72263
    endloop
  endfacet
  facet normal 0 -0.659327 -0.751857
    outer loop
      vertex -13 1.05772 1.37845
      vertex 6 1.2286 1.2286
      vertex 6 1.05772 1.37845
    endloop
  endfacet
  facet normal -0 -0.659327 -0.751857
    outer loop
      vertex 6 1.2286 1.2286
      vertex -13 1.05772 1.37845
      vertex -13 1.2286 1.2286
    endloop
  endfacet
  facet normal 0 -0.321458 -0.946924
    outer loop
      vertex -13 0.449698 1.6783
      vertex 6 0.664912 1.60524
      vertex 6 0.449698 1.6783
    endloop
  endfacet
  facet normal -0 -0.321458 -0.946924
    outer loop
      vertex 6 0.664912 1.60524
      vertex -13 0.449698 1.6783
      vertex -13 0.664912 1.60524
    endloop
  endfacet
  facet normal 0 -0.997857 0.0654268
    outer loop
      vertex -13 1.72263 -0.22679
      vertex 6 1.7375 0
      vertex -13 1.7375 0
    endloop
  endfacet
  facet normal 0 -0.997857 0.0654268
    outer loop
      vertex 6 1.7375 0
      vertex -13 1.72263 -0.22679
      vertex 6 1.72263 -0.22679
    endloop
  endfacet
  facet normal 0 -0.831461 0.555583
    outer loop
      vertex -13 1.37845 -1.05772
      vertex 6 1.50472 -0.86875
      vertex -13 1.50472 -0.86875
    endloop
  endfacet
  facet normal 0 -0.831461 0.555583
    outer loop
      vertex 6 1.50472 -0.86875
      vertex -13 1.37845 -1.05772
      vertex 6 1.37845 -1.05772
    endloop
  endfacet
  facet normal 0 -0.896876 -0.442282
    outer loop
      vertex -13 1.60524 0.664912
      vertex 6 1.50472 0.86875
      vertex -13 1.50472 0.86875
    endloop
  endfacet
  facet normal 0 -0.896876 -0.442282
    outer loop
      vertex 6 1.50472 0.86875
      vertex -13 1.60524 0.664912
      vertex 6 1.60524 0.664912
    endloop
  endfacet
  facet normal 0 0.751857 -0.659327
    outer loop
      vertex 6 -1.37845 1.05772
      vertex -13 -1.2286 1.2286
      vertex 6 -1.2286 1.2286
    endloop
  endfacet
  facet normal 0 0.751857 -0.659327
    outer loop
      vertex -13 -1.2286 1.2286
      vertex 6 -1.37845 1.05772
      vertex -13 -1.37845 1.05772
    endloop
  endfacet
  facet normal 0 0.997857 -0.0654268
    outer loop
      vertex 6 -1.7375 0
      vertex -13 -1.72263 0.22679
      vertex 6 -1.72263 0.22679
    endloop
  endfacet
  facet normal 0 0.997857 -0.0654268
    outer loop
      vertex -13 -1.72263 0.22679
      vertex 6 -1.7375 0
      vertex -13 -1.7375 0
    endloop
  endfacet
  facet normal -0 0.442282 0.896876
    outer loop
      vertex -13 -0.664912 -1.60524
      vertex 6 -0.86875 -1.50472
      vertex 6 -0.664912 -1.60524
    endloop
  endfacet
  facet normal 0 0.442282 0.896876
    outer loop
      vertex 6 -0.86875 -1.50472
      vertex -13 -0.664912 -1.60524
      vertex -13 -0.86875 -1.50472
    endloop
  endfacet
  facet normal 0 -0.321458 0.946924
    outer loop
      vertex -13 0.664912 -1.60524
      vertex 6 0.449698 -1.6783
      vertex 6 0.664912 -1.60524
    endloop
  endfacet
  facet normal 0 -0.321458 0.946924
    outer loop
      vertex 6 0.449698 -1.6783
      vertex -13 0.664912 -1.60524
      vertex -13 0.449698 -1.6783
    endloop
  endfacet
  facet normal -1 0 0
    outer loop
      vertex 6 1.72263 -0.22679
      vertex 6 1.72263 0.22679
      vertex 6 1.7375 0
    endloop
  endfacet
  facet normal -1 0 0
    outer loop
      vertex 6 1.6783 -0.449698
      vertex 6 1.72263 0.22679
      vertex 6 1.72263 -0.22679
    endloop
  endfacet
  facet normal -1 0 0
    outer loop
      vertex 6 1.6783 -0.449698
      vertex 6 1.6783 0.449698
      vertex 6 1.72263 0.22679
    endloop
  endfacet
  facet normal -1 0 0
    outer loop
      vertex 6 1.60524 -0.664912
      vertex 6 1.6783 0.449698
      vertex 6 1.6783 -0.449698
    endloop
  endfacet
  facet normal -1 0 0
    outer loop
      vertex 6 1.60524 -0.664912
      vertex 6 1.60524 0.664912
      vertex 6 1.6783 0.449698
    endloop
  endfacet
  facet normal -1 0 0
    outer loop
      vertex 6 1.50472 -0.86875
      vertex 6 1.60524 0.664912
      vertex 6 1.60524 -0.664912
    endloop
  endfacet
  facet normal -1 0 0
    outer loop
      vertex 6 1.50472 -0.86875
      vertex 6 1.50472 0.86875
      vertex 6 1.60524 0.664912
    endloop
  endfacet
  facet normal -1 0 0
    outer loop
      vertex 6 1.37845 -1.05772
      vertex 6 1.50472 0.86875
      vertex 6 1.50472 -0.86875
    endloop
  endfacet
  facet normal -1 0 0
    outer loop
      vertex 6 1.37845 -1.05772
      vertex 6 1.37845 1.05772
      vertex 6 1.50472 0.86875
    endloop
  endfacet
  facet normal -1 0 0
    outer loop
      vertex 6 1.2286 -1.2286
      vertex 6 1.37845 1.05772
      vertex 6 1.37845 -1.05772
    endloop
  endfacet
  facet normal -1 0 0
    outer loop
      vertex 6 1.2286 -1.2286
      vertex 6 1.2286 1.2286
      vertex 6 1.37845 1.05772
    endloop
  endfacet
  facet normal -1 0 0
    outer loop
      vertex 6 1.05772 -1.37845
      vertex 6 1.2286 1.2286
      vertex 6 1.2286 -1.2286
    endloop
  endfacet
  facet normal -1 0 0
    outer loop
      vertex 6 1.05772 -1.37845
      vertex 6 1.05772 1.37845
      vertex 6 1.2286 1.2286
    endloop
  endfacet
  facet normal -1 0 0
    outer loop
      vertex 6 0.86875 -1.50472
      vertex 6 1.05772 1.37845
      vertex 6 1.05772 -1.37845
    endloop
  endfacet
  facet normal -1 0 0
    outer loop
      vertex 6 0.86875 -1.50472
      vertex 6 0.86875 1.50472
      vertex 6 1.05772 1.37845
    endloop
  endfacet
  facet normal -1 0 0
    outer loop
      vertex 6 0.664912 -1.60524
      vertex 6 0.86875 1.50472
      vertex 6 0.86875 -1.50472
    endloop
  endfacet
  facet normal -1 0 0
    outer loop
      vertex 6 0.664912 -1.60524
      vertex 6 0.664912 1.60524
      vertex 6 0.86875 1.50472
    endloop
  endfacet
  facet normal -1 0 0
    outer loop
      vertex 6 0.449698 -1.6783
      vertex 6 0.664912 1.60524
      vertex 6 0.664912 -1.60524
    endloop
  endfacet
  facet normal -1 0 0
    outer loop
      vertex 6 0.449698 -1.6783
      vertex 6 0.449698 1.6783
      vertex 6 0.664912 1.60524
    endloop
  endfacet
  facet normal -1 0 0
    outer loop
      vertex 6 0.22679 -1.72263
      vertex 6 0.449698 1.6783
      vertex 6 0.449698 -1.6783
    endloop
  endfacet
  facet normal -1 0 0
    outer loop
      vertex 6 0.22679 -1.72263
      vertex 6 0.22679 1.72263
      vertex 6 0.449698 1.6783
    endloop
  endfacet
  facet normal -1 0 0
    outer loop
      vertex 6 0 -1.7375
      vertex 6 0.22679 1.72263
      vertex 6 0.22679 -1.72263
    endloop
  endfacet
  facet normal -1 0 0
    outer loop
      vertex 6 0 -1.7375
      vertex 6 0 1.7375
      vertex 6 0.22679 1.72263
    endloop
  endfacet
  facet normal -1 0 0
    outer loop
      vertex 6 -0.22679 -1.72263
      vertex 6 0 1.7375
      vertex 6 0 -1.7375
    endloop
  endfacet
  facet normal -1 0 0
    outer loop
      vertex 6 -0.22679 -1.72263
      vertex 6 -0.22679 1.72263
      vertex 6 0 1.7375
    endloop
  endfacet
  facet normal -1 0 0
    outer loop
      vertex 6 -0.449698 -1.6783
      vertex 6 -0.22679 1.72263
      vertex 6 -0.22679 -1.72263
    endloop
  endfacet
  facet normal -1 0 0
    outer loop
      vertex 6 -0.449698 -1.6783
      vertex 6 -0.449698 1.6783
      vertex 6 -0.22679 1.72263
    endloop
  endfacet
  facet normal -1 0 0
    outer loop
      vertex 6 -0.664912 -1.60524
      vertex 6 -0.449698 1.6783
      vertex 6 -0.449698 -1.6783
    endloop
  endfacet
  facet normal -1 0 0
    outer loop
      vertex 6 -0.664912 -1.60524
      vertex 6 -0.664912 1.60524
      vertex 6 -0.449698 1.6783
    endloop
  endfacet
  facet normal -1 0 0
    outer loop
      vertex 6 -0.86875 -1.50472
      vertex 6 -0.664912 1.60524
      vertex 6 -0.664912 -1.60524
    endloop
  endfacet
  facet normal -1 0 0
    outer loop
      vertex 6 -0.86875 -1.50472
      vertex 6 -0.86875 1.50472
      vertex 6 -0.664912 1.60524
    endloop
  endfacet
  facet normal -1 0 0
    outer loop
      vertex 6 -1.05772 -1.37845
      vertex 6 -0.86875 1.50472
      vertex 6 -0.86875 -1.50472
    endloop
  endfacet
  facet normal -1 0 0
    outer loop
      vertex 6 -1.05772 -1.37845
      vertex 6 -1.05772 1.37845
      vertex 6 -0.86875 1.50472
    endloop
  endfacet
  facet normal -1 0 0
    outer loop
      vertex 6 -1.2286 -1.2286
      vertex 6 -1.05772 1.37845
      vertex 6 -1.05772 -1.37845
    endloop
  endfacet
  facet normal -1 0 0
    outer loop
      vertex 6 -1.2286 -1.2286
      vertex 6 -1.2286 1.2286
      vertex 6 -1.05772 1.37845
    endloop
  endfacet
  facet normal -1 0 0
    outer loop
      vertex 6 -1.37845 -1.05772
      vertex 6 -1.2286 1.2286
      vertex 6 -1.2286 -1.2286
    endloop
  endfacet
  facet normal -1 0 0
    outer loop
      vertex 6 -1.37845 -1.05772
      vertex 6 -1.37845 1.05772
      vertex 6 -1.2286 1.2286
    endloop
  endfacet
  facet normal -1 0 0
    outer loop
      vertex 6 -1.50472 -0.86875
      vertex 6 -1.37845 1.05772
      vertex 6 -1.37845 -1.05772
    endloop
  endfacet
  facet normal -1 0 0
    outer loop
      vertex 6 -1.50472 -0.86875
      vertex 6 -1.50472 0.86875
      vertex 6 -1.37845 1.05772
    endloop
  endfacet
  facet normal -1 0 0
    outer loop
      vertex 6 -1.60524 -0.664912
      vertex 6 -1.50472 0.86875
      vertex 6 -1.50472 -0.86875
    endloop
  endfacet
  facet normal -1 0 0
    outer loop
      vertex 6 -1.60524 -0.664912
      vertex 6 -1.60524 0.664912
      vertex 6 -1.50472 0.86875
    endloop
  endfacet
  facet normal -1 0 0
    outer loop
      vertex 6 -1.6783 -0.449698
      vertex 6 -1.60524 0.664912
      vertex 6 -1.60524 -0.664912
    endloop
  endfacet
  facet normal -1 0 0
    outer loop
      vertex 6 -1.6783 -0.449698
      vertex 6 -1.6783 0.449698
      vertex 6 -1.60524 0.664912
    endloop
  endfacet
  facet normal -1 0 0
    outer loop
      vertex 6 -1.72263 -0.22679
      vertex 6 -1.6783 0.449698
      vertex 6 -1.6783 -0.449698
    endloop
  endfacet
  facet normal -1 0 0
    outer loop
      vertex 6 -1.72263 -0.22679
      vertex 6 -1.72263 0.22679
      vertex 6 -1.6783 0.449698
    endloop
  endfacet
  facet normal -1 0 -0
    outer loop
      vertex 6 -1.72263 0.22679
      vertex 6 -1.72263 -0.22679
      vertex 6 -1.7375 0
    endloop
  endfacet
  facet normal 0 0.946924 0.321458
    outer loop
      vertex 6 -1.60524 -0.664912
      vertex -13 -1.6783 -0.449698
      vertex 6 -1.6783 -0.449698
    endloop
  endfacet
  facet normal 0 0.946924 0.321458
    outer loop
      vertex -13 -1.6783 -0.449698
      vertex 6 -1.60524 -0.664912
      vertex -13 -1.60524 -0.664912
    endloop
  endfacet
  facet normal 0 0.831461 -0.555583
    outer loop
      vertex 6 -1.50472 0.86875
      vertex -13 -1.37845 1.05772
      vertex 6 -1.37845 1.05772
    endloop
  endfacet
  facet normal 0 0.831461 -0.555583
    outer loop
      vertex -13 -1.37845 1.05772
      vertex 6 -1.50472 0.86875
      vertex -13 -1.50472 0.86875
    endloop
  endfacet
  facet normal 0 0.980793 0.195052
    outer loop
      vertex 6 -1.6783 -0.449698
      vertex -13 -1.72263 -0.22679
      vertex 6 -1.72263 -0.22679
    endloop
  endfacet
  facet normal 0 0.980793 0.195052
    outer loop
      vertex -13 -1.72263 -0.22679
      vertex 6 -1.6783 -0.449698
      vertex -13 -1.6783 -0.449698
    endloop
  endfacet
  facet normal 0 0.946924 -0.321458
    outer loop
      vertex 6 -1.6783 0.449698
      vertex -13 -1.60524 0.664912
      vertex 6 -1.60524 0.664912
    endloop
  endfacet
  facet normal 0 0.946924 -0.321458
    outer loop
      vertex -13 -1.60524 0.664912
      vertex 6 -1.6783 0.449698
      vertex -13 -1.6783 0.449698
    endloop
  endfacet
  facet normal -0 0.555583 0.831461
    outer loop
      vertex -13 -0.86875 -1.50472
      vertex 6 -1.05772 -1.37845
      vertex 6 -0.86875 -1.50472
    endloop
  endfacet
  facet normal 0 0.555583 0.831461
    outer loop
      vertex 6 -1.05772 -1.37845
      vertex -13 -0.86875 -1.50472
      vertex -13 -1.05772 -1.37845
    endloop
  endfacet
  facet normal 0 -0.442282 0.896876
    outer loop
      vertex -13 0.86875 -1.50472
      vertex 6 0.664912 -1.60524
      vertex 6 0.86875 -1.50472
    endloop
  endfacet
  facet normal 0 -0.442282 0.896876
    outer loop
      vertex 6 0.664912 -1.60524
      vertex -13 0.86875 -1.50472
      vertex -13 0.664912 -1.60524
    endloop
  endfacet
  facet normal 0 -0.659327 0.751857
    outer loop
      vertex -13 1.2286 -1.2286
      vertex 6 1.05772 -1.37845
      vertex 6 1.2286 -1.2286
    endloop
  endfacet
  facet normal 0 -0.659327 0.751857
    outer loop
      vertex 6 1.05772 -1.37845
      vertex -13 1.2286 -1.2286
      vertex -13 1.05772 -1.37845
    endloop
  endfacet
  facet normal 0 0.896876 0.442282
    outer loop
      vertex 6 -1.50472 -0.86875
      vertex -13 -1.60524 -0.664912
      vertex 6 -1.60524 -0.664912
    endloop
  endfacet
  facet normal 0 0.896876 0.442282
    outer loop
      vertex -13 -1.60524 -0.664912
      vertex 6 -1.50472 -0.86875
      vertex -13 -1.50472 -0.86875
    endloop
  endfacet
  facet normal 0 0.997857 0.0654268
    outer loop
      vertex 6 -1.72263 -0.22679
      vertex -13 -1.7375 0
      vertex 6 -1.7375 0
    endloop
  endfacet
  facet normal 0 0.997857 0.0654268
    outer loop
      vertex -13 -1.7375 0
      vertex 6 -1.72263 -0.22679
      vertex -13 -1.72263 -0.22679
    endloop
  endfacet
  facet normal 0 0.896876 -0.442282
    outer loop
      vertex 6 -1.60524 0.664912
      vertex -13 -1.50472 0.86875
      vertex 6 -1.50472 0.86875
    endloop
  endfacet
  facet normal 0 0.896876 -0.442282
    outer loop
      vertex -13 -1.50472 0.86875
      vertex 6 -1.60524 0.664912
      vertex -13 -1.60524 0.664912
    endloop
  endfacet
  facet normal -0 0.659327 0.751857
    outer loop
      vertex -13 -1.05772 -1.37845
      vertex 6 -1.2286 -1.2286
      vertex 6 -1.05772 -1.37845
    endloop
  endfacet
  facet normal 0 0.659327 0.751857
    outer loop
      vertex 6 -1.2286 -1.2286
      vertex -13 -1.05772 -1.37845
      vertex -13 -1.2286 -1.2286
    endloop
  endfacet
  facet normal -0 0.321458 0.946924
    outer loop
      vertex -13 -0.449698 -1.6783
      vertex 6 -0.664912 -1.60524
      vertex 6 -0.449698 -1.6783
    endloop
  endfacet
  facet normal 0 0.321458 0.946924
    outer loop
      vertex 6 -0.664912 -1.60524
      vertex -13 -0.449698 -1.6783
      vertex -13 -0.664912 -1.60524
    endloop
  endfacet
  facet normal 0 -0.0654268 0.997857
    outer loop
      vertex -13 0.22679 -1.72263
      vertex 6 0 -1.7375
      vertex 6 0.22679 -1.72263
    endloop
  endfacet
  facet normal 0 -0.0654268 0.997857
    outer loop
      vertex 6 0 -1.7375
      vertex -13 0.22679 -1.72263
      vertex -13 0 -1.7375
    endloop
  endfacet
  facet normal 0 -0.195052 0.980793
    outer loop
      vertex -13 0.449698 -1.6783
      vertex 6 0.22679 -1.72263
      vertex 6 0.449698 -1.6783
    endloop
  endfacet
  facet normal 0 -0.195052 0.980793
    outer loop
      vertex 6 0.22679 -1.72263
      vertex -13 0.449698 -1.6783
      vertex -13 0.22679 -1.72263
    endloop
  endfacet
  facet normal 0 -0.555583 0.831461
    outer loop
      vertex -13 1.05772 -1.37845
      vertex 6 0.86875 -1.50472
      vertex 6 1.05772 -1.37845
    endloop
  endfacet
  facet normal 0 -0.555583 0.831461
    outer loop
      vertex 6 0.86875 -1.50472
      vertex -13 1.05772 -1.37845
      vertex -13 0.86875 -1.50472
    endloop
  endfacet
  facet normal -0 0.0654268 0.997857
    outer loop
      vertex -13 0 -1.7375
      vertex 6 -0.22679 -1.72263
      vertex 6 0 -1.7375
    endloop
  endfacet
  facet normal 0 0.0654268 0.997857
    outer loop
      vertex 6 -0.22679 -1.72263
      vertex -13 0 -1.7375
      vertex -13 -0.22679 -1.72263
    endloop
  endfacet
  facet normal -0 0.195052 0.980793
    outer loop
      vertex -13 -0.22679 -1.72263
      vertex 6 -0.449698 -1.6783
      vertex 6 -0.22679 -1.72263
    endloop
  endfacet
  facet normal 0 0.195052 0.980793
    outer loop
      vertex 6 -0.449698 -1.6783
      vertex -13 -0.22679 -1.72263
      vertex -13 -0.449698 -1.6783
    endloop
  endfacet
endsolid OpenSCAD_Model
