solid OpenSCAD_Model
  facet normal -0 0 1
    outer loop
      vertex -12.623 4.64648 3
      vertex -11.4375 1.70088 3
      vertex -9.74023 4.64648 3
    endloop
  endfacet
  facet normal 0 0 1
    outer loop
      vertex -12.623 4.64648 3
      vertex -13.2676 -0.261035 3
      vertex -11.4375 1.70088 3
    endloop
  endfacet
  facet normal 0 0 1
    outer loop
      vertex -11.6608 -1.1292 3
      vertex -13.2676 -0.261035 3
      vertex -14.7448 -1.63301 3
    endloop
  endfacet
  facet normal 0 0 1
    outer loop
      vertex -14.7448 -1.63301 3
      vertex -14.4915 -4.72354 3
      vertex -12.0775 -4.72354 3
    endloop
  endfacet
  facet normal 0 0 1
    outer loop
      vertex -9.74023 4.64648 3
      vertex -11.1953 -1.45391 3
      vertex -8.70378 -4.72354 3
    endloop
  endfacet
  facet normal 0 0 1
    outer loop
      vertex -11.1953 -1.45391 3
      vertex -10.9583 -4.72354 3
      vertex -8.70378 -4.72354 3
    endloop
  endfacet
  facet normal 0 0 1
    outer loop
      vertex -9.74023 4.64648 3
      vertex -11.4375 1.70088 3
      vertex -11.1953 -1.45391 3
    endloop
  endfacet
  facet normal 0 0 1
    outer loop
      vertex -11.4375 1.70088 3
      vertex -13.2676 -0.261035 3
      vertex -11.6608 -1.1292 3
    endloop
  endfacet
  facet normal 0 0 1
    outer loop
      vertex -11.6608 -1.1292 3
      vertex -14.7448 -1.63301 3
      vertex -12.0775 -4.72354 3
    endloop
  endfacet
  facet normal 0 0 1
    outer loop
      vertex -13.2676 -0.261035 3
      vertex -14.9987 1.92646 3
      vertex -14.7448 -1.63301 3
    endloop
  endfacet
  facet normal 0 0 1
    outer loop
      vertex -13.2676 -0.261035 3
      vertex -13.9681 4.64648 3
      vertex -14.9987 1.92646 3
    endloop
  endfacet
  facet normal 0 0 1
    outer loop
      vertex -14.9987 1.92646 3
      vertex -16.8672 4.64648 3
      vertex -15.2565 -1.43477 3
    endloop
  endfacet
  facet normal 0 0 1
    outer loop
      vertex -15.2565 -1.43477 3
      vertex -17.8978 -4.72354 3
      vertex -15.6432 -4.72354 3
    endloop
  endfacet
  facet normal 0 0 1
    outer loop
      vertex -15.2565 -1.43477 3
      vertex -16.8672 4.64648 3
      vertex -17.8978 -4.72354 3
    endloop
  endfacet
  facet normal 0 -0 1
    outer loop
      vertex -14.9987 1.92646 3
      vertex -13.9681 4.64648 3
      vertex -16.8672 4.64648 3
    endloop
  endfacet
  facet normal 0 0 1
    outer loop
      vertex -19.1947 4.70049 3
      vertex -20.3561 3.25195 3
      vertex -18.681 4.44414 3
    endloop
  endfacet
  facet normal 0 -0 1
    outer loop
      vertex -20.2845 2.48223 3
      vertex -18.196 2.9334 3
      vertex -20.3561 3.25195 3
    endloop
  endfacet
  facet normal 0 -0 1
    outer loop
      vertex -23.9837 -4.72354 3
      vertex -23.9837 4.64648 3
      vertex -26.2767 -4.72354 3
    endloop
  endfacet
  facet normal 0 0 1
    outer loop
      vertex -26.2767 -4.72354 3
      vertex -23.9837 4.64648 3
      vertex -26.2767 4.64648 3
    endloop
  endfacet
  facet normal -0 0 1
    outer loop
      vertex -29.4238 -2.84844 3
      vertex -29.4238 -4.0584 3
      vertex -27.1914 -2.84844 3
    endloop
  endfacet
  facet normal 0 0 1
    outer loop
      vertex -27.5605 4.27598 3
      vertex -29.4954 3.321 3
      vertex -27.252 3.72637 3
    endloop
  endfacet
  facet normal 0 0 1
    outer loop
      vertex -27.252 3.72637 3
      vertex -29.4954 3.321 3
      vertex -29.4238 2.47607 3
    endloop
  endfacet
  facet normal 0 0 1
    outer loop
      vertex -27.1914 2.26758 3
      vertex -27.252 3.72637 3
      vertex -29.4238 2.47607 3
    endloop
  endfacet
  facet normal 0 0 1
    outer loop
      vertex -26.7116 -1.63301 3
      vertex -27.1914 -1.63301 3
      vertex -27.1914 -2.84844 3
    endloop
  endfacet
  facet normal 0 0 1
    outer loop
      vertex -27.1914 -1.63301 3
      vertex -29.4238 -2.84844 3
      vertex -27.1914 -2.84844 3
    endloop
  endfacet
  facet normal 0 -0 1
    outer loop
      vertex -26.7116 -2.84844 3
      vertex -26.7116 -1.63301 3
      vertex -27.1914 -2.84844 3
    endloop
  endfacet
  facet normal 0 0 1
    outer loop
      vertex -27.1914 -2.84844 3
      vertex -29.4238 -4.0584 3
      vertex -27.1914 -4.0584 3
    endloop
  endfacet
  facet normal 0 0 1
    outer loop
      vertex -30.0247 -2.84844 3
      vertex -29.4238 -2.84844 3
      vertex -29.4238 -1.63301 3
    endloop
  endfacet
  facet normal -0 0 1
    outer loop
      vertex -30.0247 -1.63301 3
      vertex -30.0247 -2.84844 3
      vertex -29.4238 -1.63301 3
    endloop
  endfacet
  facet normal 0 0 1
    outer loop
      vertex -27.1914 2.26758 3
      vertex -29.4238 -1.63301 3
      vertex -27.1914 -1.63301 3
    endloop
  endfacet
  facet normal 0 0 1
    outer loop
      vertex -28.1341 4.58291 3
      vertex -29.4954 3.321 3
      vertex -27.5605 4.27598 3
    endloop
  endfacet
  facet normal 0 0 1
    outer loop
      vertex -33.0065 -1.81279 3
      vertex -32.9297 -3.17246 3
      vertex -32.1165 -3.08154 3
    endloop
  endfacet
  facet normal 0 0 1
    outer loop
      vertex -28.1341 4.58291 3
      vertex -29.2201 4.64648 3
      vertex -29.4954 3.321 3
    endloop
  endfacet
  facet normal -0 0 1
    outer loop
      vertex -29.4238 -1.63301 3
      vertex -29.4238 -2.84844 3
      vertex -27.1914 -1.63301 3
    endloop
  endfacet
  facet normal 0 0 1
    outer loop
      vertex -27.1914 2.26758 3
      vertex -29.4238 2.47607 3
      vertex -29.4238 -1.63301 3
    endloop
  endfacet
  facet normal 0 0 1
    outer loop
      vertex -29.4954 3.321 3
      vertex -30.1185 4.64648 3
      vertex -30.1185 3.40781 3
    endloop
  endfacet
  facet normal 0 -0 1
    outer loop
      vertex -29.4954 3.321 3
      vertex -29.2201 4.64648 3
      vertex -30.1185 4.64648 3
    endloop
  endfacet
  facet normal 0 -0 1
    outer loop
      vertex -32.6758 2.55127 3
      vertex -30.5703 3.26904 3
      vertex -32.7422 3.26357 3
    endloop
  endfacet
  facet normal 0 0 1
    outer loop
      vertex -18.681 4.44414 3
      vertex -18.3171 3.89248 3
      vertex -18.4688 4.21924 3
    endloop
  endfacet
  facet normal 0 0 1
    outer loop
      vertex -18.681 4.44414 3
      vertex -20.3561 3.25195 3
      vertex -18.3171 3.89248 3
    endloop
  endfacet
  facet normal 0 -0 1
    outer loop
      vertex -18.2604 1.57783 3
      vertex -18.1953 2.30244 3
      vertex -20.2845 2.48223 3
    endloop
  endfacet
  facet normal 0 -0 1
    outer loop
      vertex -18.4544 1.12734 3
      vertex -18.2604 1.57783 3
      vertex -18.9056 0.788965 3
    endloop
  endfacet
  facet normal 0 0 1
    outer loop
      vertex -18.9056 0.788965 3
      vertex -20.3672 1.68311 3
      vertex -19.7389 0.398633 3
    endloop
  endfacet
  facet normal 0 0 1
    outer loop
      vertex -19.7389 0.398633 3
      vertex -20.5671 1.37207 3
      vertex -20.9902 0.994727 3
    endloop
  endfacet
  facet normal 0 -0 1
    outer loop
      vertex -20.9134 -0.209082 3
      vertex -19.7389 0.398633 3
      vertex -20.9902 0.994727 3
    endloop
  endfacet
  facet normal 0 0 1
    outer loop
      vertex -20.8164 4.32383 3
      vertex -20.6543 3.42559 3
      vertex -20.4694 3.38184 3
    endloop
  endfacet
  facet normal 0 0 1
    outer loop
      vertex -23.2174 4.64648 3
      vertex -20.9238 3.29229 3
      vertex -21.0508 3.96357 3
    endloop
  endfacet
  facet normal 0 0 1
    outer loop
      vertex -18.1953 -0.574121 3
      vertex -20.2845 -0.863281 3
      vertex -18.2441 -1.3623 3
    endloop
  endfacet
  facet normal 0 -0 1
    outer loop
      vertex -22.8711 -2.28447 3
      vertex -20.9023 -1.62754 3
      vertex -23.1016 -1.71982 3
    endloop
  endfacet
  facet normal 0 0 1
    outer loop
      vertex -23.1016 -1.71982 3
      vertex -20.9023 -1.62754 3
      vertex -20.9902 -0.846191 3
    endloop
  endfacet
  facet normal 0 0 1
    outer loop
      vertex -20.9023 -1.62754 3
      vertex -22.4121 -2.75 3
      vertex -21.6999 -3.06719 3
    endloop
  endfacet
  facet normal -0 0 1
    outer loop
      vertex -20.6211 -1.81279 3
      vertex -20.709 -3.17246 3
      vertex -20.4375 -1.77314 3
    endloop
  endfacet
  facet normal 0 0 1
    outer loop
      vertex -20.7904 -1.76631 3
      vertex -21.6999 -3.06719 3
      vertex -20.709 -3.17246 3
    endloop
  endfacet
  facet normal 0 0 1
    outer loop
      vertex -20.709 -3.17246 3
      vertex -19.8548 -3.08018 3
      vertex -20.4375 -1.77314 3
    endloop
  endfacet
  facet normal -0 0 1
    outer loop
      vertex -20.4375 -1.77314 3
      vertex -19.1771 -2.80195 3
      vertex -20.3398 -1.65625 3
    endloop
  endfacet
  facet normal 0 0 1
    outer loop
      vertex -20.2845 -0.863281 3
      vertex -18.1953 -0.574121 3
      vertex -20.2845 -0.0586914 3
    endloop
  endfacet
  facet normal -0 0 1
    outer loop
      vertex -20.3398 -1.65625 3
      vertex -18.3887 -1.94541 3
      vertex -18.2441 -1.3623 3
    endloop
  endfacet
  facet normal 0 -0 1
    outer loop
      vertex -18.1953 -0.574121 3
      vertex -18.1953 -0.0586914 3
      vertex -20.2845 -0.0586914 3
    endloop
  endfacet
  facet normal 0 0 1
    outer loop
      vertex -18.2441 -1.3623 3
      vertex -20.2845 -0.863281 3
      vertex -20.3398 -1.65625 3
    endloop
  endfacet
  facet normal 0 0 1
    outer loop
      vertex -18.3887 -1.94541 3
      vertex -20.3398 -1.65625 3
      vertex -18.6849 -2.40273 3
    endloop
  endfacet
  facet normal 0 0 1
    outer loop
      vertex -18.6849 -2.40273 3
      vertex -20.3398 -1.65625 3
      vertex -19.1771 -2.80195 3
    endloop
  endfacet
  facet normal 0 0 1
    outer loop
      vertex -19.1771 -2.80195 3
      vertex -20.4375 -1.77314 3
      vertex -19.8548 -3.08018 3
    endloop
  endfacet
  facet normal 0 0 1
    outer loop
      vertex -20.6211 -1.81279 3
      vertex -20.7904 -1.76631 3
      vertex -20.709 -3.17246 3
    endloop
  endfacet
  facet normal 0 0 1
    outer loop
      vertex -20.7904 -1.76631 3
      vertex -20.9023 -1.62754 3
      vertex -21.6999 -3.06719 3
    endloop
  endfacet
  facet normal 0 0 1
    outer loop
      vertex -20.9023 -1.62754 3
      vertex -22.8711 -2.28447 3
      vertex -22.4121 -2.75 3
    endloop
  endfacet
  facet normal 0 0 1
    outer loop
      vertex -23.2174 0.791699 3
      vertex -23.1016 -1.71982 3
      vertex -20.9902 -0.846191 3
    endloop
  endfacet
  facet normal 0 0 1
    outer loop
      vertex -20.9134 -0.209082 3
      vertex -23.2174 0.791699 3
      vertex -20.9902 -0.846191 3
    endloop
  endfacet
  facet normal 0 0 1
    outer loop
      vertex -19.7559 4.78525 3
      vertex -20.3561 3.25195 3
      vertex -19.1947 4.70049 3
    endloop
  endfacet
  facet normal 0 0 1
    outer loop
      vertex -21.0508 4.64648 3
      vertex -23.2174 4.64648 3
      vertex -21.0508 3.96357 3
    endloop
  endfacet
  facet normal -0 0 1
    outer loop
      vertex -23.2174 0.791699 3
      vertex -20.9134 -0.209082 3
      vertex -20.9902 0.994727 3
    endloop
  endfacet
  facet normal -0 0 1
    outer loop
      vertex -20.8164 4.32383 3
      vertex -20.4694 3.38184 3
      vertex -20.5215 4.58291 3
    endloop
  endfacet
  facet normal 0 0 1
    outer loop
      vertex -20.4694 3.38184 3
      vertex -19.7559 4.78525 3
      vertex -20.1706 4.73467 3
    endloop
  endfacet
  facet normal -0 0 1
    outer loop
      vertex -20.4694 3.38184 3
      vertex -20.3561 3.25195 3
      vertex -19.7559 4.78525 3
    endloop
  endfacet
  facet normal -0 0 1
    outer loop
      vertex -21.0508 3.96357 3
      vertex -20.6543 3.42559 3
      vertex -20.8164 4.32383 3
    endloop
  endfacet
  facet normal 0 -0 1
    outer loop
      vertex -18.9056 0.788965 3
      vertex -18.2604 1.57783 3
      vertex -20.3672 1.68311 3
    endloop
  endfacet
  facet normal 0 -0 1
    outer loop
      vertex -20.9902 2.57451 3
      vertex -20.9238 3.29229 3
      vertex -23.2174 4.64648 3
    endloop
  endfacet
  facet normal 0 -0 1
    outer loop
      vertex -20.9238 3.29229 3
      vertex -20.6543 3.42559 3
      vertex -21.0508 3.96357 3
    endloop
  endfacet
  facet normal 0 0 1
    outer loop
      vertex -23.2174 0.791699 3
      vertex -20.9902 2.57451 3
      vertex -23.2174 4.64648 3
    endloop
  endfacet
  facet normal 0 0 1
    outer loop
      vertex -23.2174 0.791699 3
      vertex -20.9902 0.994727 3
      vertex -20.9902 2.57451 3
    endloop
  endfacet
  facet normal 0 0 1
    outer loop
      vertex -19.7389 0.398633 3
      vertex -20.3672 1.68311 3
      vertex -20.5671 1.37207 3
    endloop
  endfacet
  facet normal 0 0 1
    outer loop
      vertex -18.2604 1.57783 3
      vertex -20.2845 2.48223 3
      vertex -20.3672 1.68311 3
    endloop
  endfacet
  facet normal 0 0 1
    outer loop
      vertex -18.196 2.9334 3
      vertex -20.2845 2.48223 3
      vertex -18.1953 2.30244 3
    endloop
  endfacet
  facet normal 0 0 1
    outer loop
      vertex -18.3171 3.89248 3
      vertex -20.3561 3.25195 3
      vertex -18.196 2.9334 3
    endloop
  endfacet
  facet normal -0 0 1
    outer loop
      vertex -20.5215 4.58291 3
      vertex -20.4694 3.38184 3
      vertex -20.1706 4.73467 3
    endloop
  endfacet
  facet normal 0 0 1
    outer loop
      vertex -30.7318 3.7209 3
      vertex -32.7422 3.26357 3
      vertex -30.5703 3.26904 3
    endloop
  endfacet
  facet normal 0 0 1
    outer loop
      vertex -32.7422 3.26357 3
      vertex -30.9727 4.10234 3
      vertex -31.3158 4.40244 3
    endloop
  endfacet
  facet normal 0 0 1
    outer loop
      vertex -32.7422 3.26357 3
      vertex -31.3158 4.40244 3
      vertex -31.7721 4.61777 3
    endloop
  endfacet
  facet normal 0 0 1
    outer loop
      vertex -35.4434 -1.55234 3
      vertex -35.0462 -2.32754 3
      vertex -33.2656 -1.65625 3
    endloop
  endfacet
  facet normal 0 0 1
    outer loop
      vertex -30.9785 -2.38428 3
      vertex -32.7422 -1.65625 3
      vertex -31.4635 -2.80811 3
    endloop
  endfacet
  facet normal 0 0 1
    outer loop
      vertex -32.9297 -3.17246 3
      vertex -33.0065 -1.81279 3
      vertex -33.6257 -3.11299 3
    endloop
  endfacet
  facet normal 0 0 1
    outer loop
      vertex -33.3262 -0.915234 3
      vertex -35.5534 -0.336914 3
      vertex -35.4434 -1.55234 3
    endloop
  endfacet
  facet normal 0 0 1
    outer loop
      vertex -33.2656 -1.65625 3
      vertex -34.6921 -2.66729 3
      vertex -34.2142 -2.93525 3
    endloop
  endfacet
  facet normal 0 0 1
    outer loop
      vertex -33.3262 -0.915234 3
      vertex -35.4434 -1.55234 3
      vertex -33.2656 -1.65625 3
    endloop
  endfacet
  facet normal 0 0 1
    outer loop
      vertex -33.2656 -1.65625 3
      vertex -35.0462 -2.32754 3
      vertex -34.6921 -2.66729 3
    endloop
  endfacet
  facet normal 0 0 1
    outer loop
      vertex -30.6699 -1.8415 3
      vertex -32.7422 -1.65625 3
      vertex -30.9785 -2.38428 3
    endloop
  endfacet
  facet normal 0 -0 1
    outer loop
      vertex -30.6699 -1.8415 3
      vertex -30.5046 -1.12236 3
      vertex -32.6758 -0.915234 3
    endloop
  endfacet
  facet normal 0 0 1
    outer loop
      vertex -35.5534 1.54434 3
      vertex -33.3268 2.62646 3
      vertex -35.4544 3.0667 3
    endloop
  endfacet
  facet normal -0 0 1
    outer loop
      vertex -35.5534 1.54434 3
      vertex -33.3262 -0.915234 3
      vertex -33.3268 2.62646 3
    endloop
  endfacet
  facet normal 0 0 1
    outer loop
      vertex -35.2982 3.53223 3
      vertex -33.3268 2.62646 3
      vertex -33.2604 3.2752 3
    endloop
  endfacet
  facet normal 0 0 1
    outer loop
      vertex -31.7721 4.61777 3
      vertex -33.0234 4.78525 3
      vertex -33.0013 3.42559 3
    endloop
  endfacet
  facet normal -0 0 1
    outer loop
      vertex -34.6576 4.33272 3
      vertex -33.2604 3.2752 3
      vertex -34.1921 4.58906 3
    endloop
  endfacet
  facet normal -0 0 1
    outer loop
      vertex -34.1921 4.58906 3
      vertex -33.2604 3.2752 3
      vertex -33.6465 4.73604 3
    endloop
  endfacet
  facet normal 0 0 1
    outer loop
      vertex -39.0534 -1.76904 3
      vertex -39.1035 -2.9585 3
      vertex -38.7819 -2.69668 3
    endloop
  endfacet
  facet normal 0 0 1
    outer loop
      vertex -34.6576 4.33272 3
      vertex -35.0299 3.96973 3
      vertex -33.2604 3.2752 3
    endloop
  endfacet
  facet normal 0 0 1
    outer loop
      vertex -33.0013 3.42559 3
      vertex -33.6465 4.73604 3
      vertex -33.2604 3.2752 3
    endloop
  endfacet
  facet normal 0 0 1
    outer loop
      vertex -33.0013 3.42559 3
      vertex -33.0234 4.78525 3
      vertex -33.6465 4.73604 3
    endloop
  endfacet
  facet normal 0 0 1
    outer loop
      vertex -30.4492 1.79932 3
      vertex -32.6758 -0.915234 3
      vertex -30.4492 -0.16875 3
    endloop
  endfacet
  facet normal 0 0 1
    outer loop
      vertex -35.0299 3.96973 3
      vertex -35.2982 3.53223 3
      vertex -33.2604 3.2752 3
    endloop
  endfacet
  facet normal 0 0 1
    outer loop
      vertex -35.2982 3.53223 3
      vertex -35.4544 3.0667 3
      vertex -33.3268 2.62646 3
    endloop
  endfacet
  facet normal 0 0 1
    outer loop
      vertex -33.3262 -0.915234 3
      vertex -35.5534 1.54434 3
      vertex -35.5534 -0.336914 3
    endloop
  endfacet
  facet normal 0 0 1
    outer loop
      vertex -33.0065 -1.81279 3
      vertex -33.2656 -1.65625 3
      vertex -33.6257 -3.11299 3
    endloop
  endfacet
  facet normal 0 0 1
    outer loop
      vertex -33.2656 -1.65625 3
      vertex -34.2142 -2.93525 3
      vertex -33.6257 -3.11299 3
    endloop
  endfacet
  facet normal 0 0 1
    outer loop
      vertex -32.7422 -1.65625 3
      vertex -32.1165 -3.08154 3
      vertex -31.4635 -2.80811 3
    endloop
  endfacet
  facet normal -0 0 1
    outer loop
      vertex -33.0065 -1.81279 3
      vertex -32.1165 -3.08154 3
      vertex -32.7422 -1.65625 3
    endloop
  endfacet
  facet normal 0 0 1
    outer loop
      vertex -32.6758 -0.915234 3
      vertex -32.7422 -1.65625 3
      vertex -30.6699 -1.8415 3
    endloop
  endfacet
  facet normal 0 0 1
    outer loop
      vertex -30.4492 -0.16875 3
      vertex -32.6758 -0.915234 3
      vertex -30.5046 -1.12236 3
    endloop
  endfacet
  facet normal 0 0 1
    outer loop
      vertex -30.5703 3.26904 3
      vertex -32.6758 2.55127 3
      vertex -30.4492 1.79932 3
    endloop
  endfacet
  facet normal 0 0 1
    outer loop
      vertex -32.6758 2.55127 3
      vertex -32.6758 -0.915234 3
      vertex -30.4492 1.79932 3
    endloop
  endfacet
  facet normal -0 0 1
    outer loop
      vertex -33.0013 3.42559 3
      vertex -32.7422 3.26357 3
      vertex -31.7721 4.61777 3
    endloop
  endfacet
  facet normal 0 0 1
    outer loop
      vertex -32.7422 3.26357 3
      vertex -30.7318 3.7209 3
      vertex -30.9727 4.10234 3
    endloop
  endfacet
  facet normal 0 0 1
    outer loop
      vertex -38.5521 -3.03369 3
      vertex -36.2865 -3.03369 3
      vertex -38.5137 -2.32754 3
    endloop
  endfacet
  facet normal -0 0 1
    outer loop
      vertex -40.4342 -3.10205 3
      vertex -39.9134 -3.17246 3
      vertex -39.1471 -1.63916 3
    endloop
  endfacet
  facet normal 0 0 1
    outer loop
      vertex -38.5137 -2.32754 3
      vertex -38.5742 -1.60977 3
      vertex -38.679 -1.76221 3
    endloop
  endfacet
  facet normal 0 0 1
    outer loop
      vertex -39.9134 -3.17246 3
      vertex -39.4824 -3.11914 3
      vertex -39.0534 -1.76904 3
    endloop
  endfacet
  facet normal -0 0 1
    outer loop
      vertex -38.8717 -1.81279 3
      vertex -38.5137 -2.32754 3
      vertex -38.679 -1.76221 3
    endloop
  endfacet
  facet normal 0 0 1
    outer loop
      vertex -39.0534 -1.76904 3
      vertex -38.7819 -2.69668 3
      vertex -38.8717 -1.81279 3
    endloop
  endfacet
  facet normal 0 0 1
    outer loop
      vertex -39.0534 -1.76904 3
      vertex -39.4824 -3.11914 3
      vertex -39.1035 -2.9585 3
    endloop
  endfacet
  facet normal -0 -0 1
    outer loop
      vertex -38.5137 -2.32754 3
      vertex -36.2865 -3.03369 3
      vertex -38.5742 -1.60977 3
    endloop
  endfacet
  facet normal 0 0 1
    outer loop
      vertex -38.8717 -1.81279 3
      vertex -38.7819 -2.69668 3
      vertex -38.5137 -2.32754 3
    endloop
  endfacet
  facet normal -0 0 1
    outer loop
      vertex -38.5137 4.64648 3
      vertex -38.5137 -0.544727 3
      vertex -36.2865 4.64648 3
    endloop
  endfacet
  facet normal -0 0 1
    outer loop
      vertex -38.5137 -0.544727 3
      vertex -36.2865 -3.03369 3
      vertex -36.2865 4.64648 3
    endloop
  endfacet
  facet normal -0 0 1
    outer loop
      vertex -38.5742 -1.60977 3
      vertex -36.2865 -3.03369 3
      vertex -38.5137 -0.544727 3
    endloop
  endfacet
  facet normal 0 0 1
    outer loop
      vertex -39.1471 -1.63916 3
      vertex -39.9134 -3.17246 3
      vertex -39.0534 -1.76904 3
    endloop
  endfacet
  facet normal -0 0 1
    outer loop
      vertex -40.8503 -2.88877 3
      vertex -40.4342 -3.10205 3
      vertex -39.1471 -1.63916 3
    endloop
  endfacet
  facet normal -0 0 1
    outer loop
      vertex -41.1497 -2.56748 3
      vertex -40.8503 -2.88877 3
      vertex -39.1471 -1.63916 3
    endloop
  endfacet
  facet normal -0 0 1
    outer loop
      vertex -41.319 -2.171 3
      vertex -41.1497 -2.56748 3
      vertex -39.1471 -1.63916 3
    endloop
  endfacet
  facet normal 0 0 1
    outer loop
      vertex -41.4238 -0.736133 3
      vertex -41.319 -2.171 3
      vertex -39.1471 -1.63916 3
    endloop
  endfacet
  facet normal 0 0 1
    outer loop
      vertex -39.1966 -0.672559 3
      vertex -41.4238 -0.736133 3
      vertex -39.1471 -1.63916 3
    endloop
  endfacet
  facet normal 0 0 1
    outer loop
      vertex -39.1966 -0.672559 3
      vertex -41.4238 4.64648 3
      vertex -41.4238 -0.736133 3
    endloop
  endfacet
  facet normal 0 -0 1
    outer loop
      vertex -39.1966 -0.672559 3
      vertex -39.1966 4.64648 3
      vertex -41.4238 4.64648 3
    endloop
  endfacet
  facet normal -0 0 -1
    outer loop
      vertex -9.74023 4.64648 2
      vertex -11.4375 1.70088 2
      vertex -12.623 4.64648 2
    endloop
  endfacet
  facet normal -0 0 -1
    outer loop
      vertex -11.4375 1.70088 2
      vertex -13.2676 -0.261035 2
      vertex -12.623 4.64648 2
    endloop
  endfacet
  facet normal 0 0 -1
    outer loop
      vertex -14.7448 -1.63301 2
      vertex -13.2676 -0.261035 2
      vertex -11.6608 -1.1292 2
    endloop
  endfacet
  facet normal 0 0 -1
    outer loop
      vertex -12.0775 -4.72354 2
      vertex -14.4915 -4.72354 2
      vertex -14.7448 -1.63301 2
    endloop
  endfacet
  facet normal 0 0 -1
    outer loop
      vertex -8.70378 -4.72354 2
      vertex -11.1953 -1.45391 2
      vertex -9.74023 4.64648 2
    endloop
  endfacet
  facet normal 0 0 -1
    outer loop
      vertex -8.70378 -4.72354 2
      vertex -10.9583 -4.72354 2
      vertex -11.1953 -1.45391 2
    endloop
  endfacet
  facet normal 0 0 -1
    outer loop
      vertex -11.1953 -1.45391 2
      vertex -11.4375 1.70088 2
      vertex -9.74023 4.64648 2
    endloop
  endfacet
  facet normal 0 0 -1
    outer loop
      vertex -11.6608 -1.1292 2
      vertex -13.2676 -0.261035 2
      vertex -11.4375 1.70088 2
    endloop
  endfacet
  facet normal 0 0 -1
    outer loop
      vertex -12.0775 -4.72354 2
      vertex -14.7448 -1.63301 2
      vertex -11.6608 -1.1292 2
    endloop
  endfacet
  facet normal 0 0 -1
    outer loop
      vertex -14.7448 -1.63301 2
      vertex -14.9987 1.92646 2
      vertex -13.2676 -0.261035 2
    endloop
  endfacet
  facet normal 0 0 -1
    outer loop
      vertex -14.9987 1.92646 2
      vertex -13.9681 4.64648 2
      vertex -13.2676 -0.261035 2
    endloop
  endfacet
  facet normal 0 0 -1
    outer loop
      vertex -15.2565 -1.43477 2
      vertex -16.8672 4.64648 2
      vertex -14.9987 1.92646 2
    endloop
  endfacet
  facet normal 0 0 -1
    outer loop
      vertex -15.6432 -4.72354 2
      vertex -17.8978 -4.72354 2
      vertex -15.2565 -1.43477 2
    endloop
  endfacet
  facet normal 0 0 -1
    outer loop
      vertex -17.8978 -4.72354 2
      vertex -16.8672 4.64648 2
      vertex -15.2565 -1.43477 2
    endloop
  endfacet
  facet normal 0 0 -1
    outer loop
      vertex -16.8672 4.64648 2
      vertex -13.9681 4.64648 2
      vertex -14.9987 1.92646 2
    endloop
  endfacet
  facet normal -0 0 -1
    outer loop
      vertex -18.681 4.44414 2
      vertex -20.3561 3.25195 2
      vertex -19.1947 4.70049 2
    endloop
  endfacet
  facet normal 0 0 -1
    outer loop
      vertex -20.3561 3.25195 2
      vertex -18.196 2.9334 2
      vertex -20.2845 2.48223 2
    endloop
  endfacet
  facet normal 0 0 -1
    outer loop
      vertex -26.2767 -4.72354 2
      vertex -23.9837 4.64648 2
      vertex -23.9837 -4.72354 2
    endloop
  endfacet
  facet normal 0 0 -1
    outer loop
      vertex -26.2767 4.64648 2
      vertex -23.9837 4.64648 2
      vertex -26.2767 -4.72354 2
    endloop
  endfacet
  facet normal -0 0 -1
    outer loop
      vertex -27.1914 -2.84844 2
      vertex -29.4238 -4.0584 2
      vertex -29.4238 -2.84844 2
    endloop
  endfacet
  facet normal -0 0 -1
    outer loop
      vertex -27.252 3.72637 2
      vertex -29.4954 3.321 2
      vertex -27.5605 4.27598 2
    endloop
  endfacet
  facet normal 0 0 -1
    outer loop
      vertex -29.4238 2.47607 2
      vertex -29.4954 3.321 2
      vertex -27.252 3.72637 2
    endloop
  endfacet
  facet normal 0 0 -1
    outer loop
      vertex -29.4238 2.47607 2
      vertex -27.252 3.72637 2
      vertex -27.1914 2.26758 2
    endloop
  endfacet
  facet normal 0 0 -1
    outer loop
      vertex -27.1914 -2.84844 2
      vertex -27.1914 -1.63301 2
      vertex -26.7116 -1.63301 2
    endloop
  endfacet
  facet normal 0 0 -1
    outer loop
      vertex -27.1914 -2.84844 2
      vertex -29.4238 -2.84844 2
      vertex -27.1914 -1.63301 2
    endloop
  endfacet
  facet normal 0 0 -1
    outer loop
      vertex -27.1914 -2.84844 2
      vertex -26.7116 -1.63301 2
      vertex -26.7116 -2.84844 2
    endloop
  endfacet
  facet normal 0 0 -1
    outer loop
      vertex -27.1914 -4.0584 2
      vertex -29.4238 -4.0584 2
      vertex -27.1914 -2.84844 2
    endloop
  endfacet
  facet normal 0 -0 -1
    outer loop
      vertex -29.4238 -1.63301 2
      vertex -29.4238 -2.84844 2
      vertex -30.0247 -2.84844 2
    endloop
  endfacet
  facet normal -0 0 -1
    outer loop
      vertex -29.4238 -1.63301 2
      vertex -30.0247 -2.84844 2
      vertex -30.0247 -1.63301 2
    endloop
  endfacet
  facet normal 0 0 -1
    outer loop
      vertex -27.1914 -1.63301 2
      vertex -29.4238 -1.63301 2
      vertex -27.1914 2.26758 2
    endloop
  endfacet
  facet normal -0 0 -1
    outer loop
      vertex -27.5605 4.27598 2
      vertex -29.4954 3.321 2
      vertex -28.1341 4.58291 2
    endloop
  endfacet
  facet normal -0 0 -1
    outer loop
      vertex -32.1165 -3.08154 2
      vertex -32.9297 -3.17246 2
      vertex -33.0065 -1.81279 2
    endloop
  endfacet
  facet normal 0 0 -1
    outer loop
      vertex -29.4954 3.321 2
      vertex -29.2201 4.64648 2
      vertex -28.1341 4.58291 2
    endloop
  endfacet
  facet normal -0 0 -1
    outer loop
      vertex -27.1914 -1.63301 2
      vertex -29.4238 -2.84844 2
      vertex -29.4238 -1.63301 2
    endloop
  endfacet
  facet normal 0 0 -1
    outer loop
      vertex -29.4238 -1.63301 2
      vertex -29.4238 2.47607 2
      vertex -27.1914 2.26758 2
    endloop
  endfacet
  facet normal 0 0 -1
    outer loop
      vertex -30.1185 3.40781 2
      vertex -30.1185 4.64648 2
      vertex -29.4954 3.321 2
    endloop
  endfacet
  facet normal 0 0 -1
    outer loop
      vertex -30.1185 4.64648 2
      vertex -29.2201 4.64648 2
      vertex -29.4954 3.321 2
    endloop
  endfacet
  facet normal 0 0 -1
    outer loop
      vertex -32.7422 3.26357 2
      vertex -30.5703 3.26904 2
      vertex -32.6758 2.55127 2
    endloop
  endfacet
  facet normal -0 -0 -1
    outer loop
      vertex -18.4688 4.21924 2
      vertex -18.3171 3.89248 2
      vertex -18.681 4.44414 2
    endloop
  endfacet
  facet normal -0 0 -1
    outer loop
      vertex -18.3171 3.89248 2
      vertex -20.3561 3.25195 2
      vertex -18.681 4.44414 2
    endloop
  endfacet
  facet normal 0 0 -1
    outer loop
      vertex -20.2845 2.48223 2
      vertex -18.1953 2.30244 2
      vertex -18.2604 1.57783 2
    endloop
  endfacet
  facet normal 0 0 -1
    outer loop
      vertex -18.9056 0.788965 2
      vertex -18.2604 1.57783 2
      vertex -18.4544 1.12734 2
    endloop
  endfacet
  facet normal 0 0 -1
    outer loop
      vertex -19.7389 0.398633 2
      vertex -20.3672 1.68311 2
      vertex -18.9056 0.788965 2
    endloop
  endfacet
  facet normal 0 0 -1
    outer loop
      vertex -20.9902 0.994727 2
      vertex -20.5671 1.37207 2
      vertex -19.7389 0.398633 2
    endloop
  endfacet
  facet normal 0 0 -1
    outer loop
      vertex -20.9902 0.994727 2
      vertex -19.7389 0.398633 2
      vertex -20.9134 -0.209082 2
    endloop
  endfacet
  facet normal 0 0 -1
    outer loop
      vertex -20.4694 3.38184 2
      vertex -20.6543 3.42559 2
      vertex -20.8164 4.32383 2
    endloop
  endfacet
  facet normal -0 -0 -1
    outer loop
      vertex -21.0508 3.96357 2
      vertex -20.9238 3.29229 2
      vertex -23.2174 4.64648 2
    endloop
  endfacet
  facet normal 0 0 -1
    outer loop
      vertex -18.2441 -1.3623 2
      vertex -20.2845 -0.863281 2
      vertex -18.1953 -0.574121 2
    endloop
  endfacet
  facet normal 0 0 -1
    outer loop
      vertex -23.1016 -1.71982 2
      vertex -20.9023 -1.62754 2
      vertex -22.8711 -2.28447 2
    endloop
  endfacet
  facet normal 0 -0 -1
    outer loop
      vertex -20.9902 -0.846191 2
      vertex -20.9023 -1.62754 2
      vertex -23.1016 -1.71982 2
    endloop
  endfacet
  facet normal 0 0 -1
    outer loop
      vertex -21.6999 -3.06719 2
      vertex -22.4121 -2.75 2
      vertex -20.9023 -1.62754 2
    endloop
  endfacet
  facet normal 0 0 -1
    outer loop
      vertex -20.4375 -1.77314 2
      vertex -20.709 -3.17246 2
      vertex -20.6211 -1.81279 2
    endloop
  endfacet
  facet normal 0 0 -1
    outer loop
      vertex -20.709 -3.17246 2
      vertex -21.6999 -3.06719 2
      vertex -20.7904 -1.76631 2
    endloop
  endfacet
  facet normal 0 -0 -1
    outer loop
      vertex -20.4375 -1.77314 2
      vertex -19.8548 -3.08018 2
      vertex -20.709 -3.17246 2
    endloop
  endfacet
  facet normal 0 -0 -1
    outer loop
      vertex -20.3398 -1.65625 2
      vertex -19.1771 -2.80195 2
      vertex -20.4375 -1.77314 2
    endloop
  endfacet
  facet normal 0 0 -1
    outer loop
      vertex -20.2845 -0.0586914 2
      vertex -18.1953 -0.574121 2
      vertex -20.2845 -0.863281 2
    endloop
  endfacet
  facet normal 0 0 -1
    outer loop
      vertex -18.2441 -1.3623 2
      vertex -18.3887 -1.94541 2
      vertex -20.3398 -1.65625 2
    endloop
  endfacet
  facet normal 0 0 -1
    outer loop
      vertex -20.2845 -0.0586914 2
      vertex -18.1953 -0.0586914 2
      vertex -18.1953 -0.574121 2
    endloop
  endfacet
  facet normal 0 0 -1
    outer loop
      vertex -20.3398 -1.65625 2
      vertex -20.2845 -0.863281 2
      vertex -18.2441 -1.3623 2
    endloop
  endfacet
  facet normal 0 0 -1
    outer loop
      vertex -18.6849 -2.40273 2
      vertex -20.3398 -1.65625 2
      vertex -18.3887 -1.94541 2
    endloop
  endfacet
  facet normal 0 0 -1
    outer loop
      vertex -19.1771 -2.80195 2
      vertex -20.3398 -1.65625 2
      vertex -18.6849 -2.40273 2
    endloop
  endfacet
  facet normal 0 0 -1
    outer loop
      vertex -19.8548 -3.08018 2
      vertex -20.4375 -1.77314 2
      vertex -19.1771 -2.80195 2
    endloop
  endfacet
  facet normal 0 0 -1
    outer loop
      vertex -20.709 -3.17246 2
      vertex -20.7904 -1.76631 2
      vertex -20.6211 -1.81279 2
    endloop
  endfacet
  facet normal 0 0 -1
    outer loop
      vertex -21.6999 -3.06719 2
      vertex -20.9023 -1.62754 2
      vertex -20.7904 -1.76631 2
    endloop
  endfacet
  facet normal 0 0 -1
    outer loop
      vertex -22.4121 -2.75 2
      vertex -22.8711 -2.28447 2
      vertex -20.9023 -1.62754 2
    endloop
  endfacet
  facet normal -0 0 -1
    outer loop
      vertex -20.9902 -0.846191 2
      vertex -23.1016 -1.71982 2
      vertex -23.2174 0.791699 2
    endloop
  endfacet
  facet normal 0 0 -1
    outer loop
      vertex -20.9902 -0.846191 2
      vertex -23.2174 0.791699 2
      vertex -20.9134 -0.209082 2
    endloop
  endfacet
  facet normal -0 0 -1
    outer loop
      vertex -19.1947 4.70049 2
      vertex -20.3561 3.25195 2
      vertex -19.7559 4.78525 2
    endloop
  endfacet
  facet normal 0 0 -1
    outer loop
      vertex -21.0508 3.96357 2
      vertex -23.2174 4.64648 2
      vertex -21.0508 4.64648 2
    endloop
  endfacet
  facet normal 0 -0 -1
    outer loop
      vertex -20.9902 0.994727 2
      vertex -20.9134 -0.209082 2
      vertex -23.2174 0.791699 2
    endloop
  endfacet
  facet normal 0 -0 -1
    outer loop
      vertex -20.5215 4.58291 2
      vertex -20.4694 3.38184 2
      vertex -20.8164 4.32383 2
    endloop
  endfacet
  facet normal 0 -0 -1
    outer loop
      vertex -20.1706 4.73467 2
      vertex -19.7559 4.78525 2
      vertex -20.4694 3.38184 2
    endloop
  endfacet
  facet normal 0 0 -1
    outer loop
      vertex -19.7559 4.78525 2
      vertex -20.3561 3.25195 2
      vertex -20.4694 3.38184 2
    endloop
  endfacet
  facet normal 0 -0 -1
    outer loop
      vertex -20.8164 4.32383 2
      vertex -20.6543 3.42559 2
      vertex -21.0508 3.96357 2
    endloop
  endfacet
  facet normal 0 0 -1
    outer loop
      vertex -20.3672 1.68311 2
      vertex -18.2604 1.57783 2
      vertex -18.9056 0.788965 2
    endloop
  endfacet
  facet normal 0 0 -1
    outer loop
      vertex -23.2174 4.64648 2
      vertex -20.9238 3.29229 2
      vertex -20.9902 2.57451 2
    endloop
  endfacet
  facet normal 0 0 -1
    outer loop
      vertex -21.0508 3.96357 2
      vertex -20.6543 3.42559 2
      vertex -20.9238 3.29229 2
    endloop
  endfacet
  facet normal 0 0 -1
    outer loop
      vertex -23.2174 4.64648 2
      vertex -20.9902 2.57451 2
      vertex -23.2174 0.791699 2
    endloop
  endfacet
  facet normal 0 -0 -1
    outer loop
      vertex -20.9902 2.57451 2
      vertex -20.9902 0.994727 2
      vertex -23.2174 0.791699 2
    endloop
  endfacet
  facet normal 0 0 -1
    outer loop
      vertex -20.5671 1.37207 2
      vertex -20.3672 1.68311 2
      vertex -19.7389 0.398633 2
    endloop
  endfacet
  facet normal 0 0 -1
    outer loop
      vertex -20.3672 1.68311 2
      vertex -20.2845 2.48223 2
      vertex -18.2604 1.57783 2
    endloop
  endfacet
  facet normal 0 0 -1
    outer loop
      vertex -18.1953 2.30244 2
      vertex -20.2845 2.48223 2
      vertex -18.196 2.9334 2
    endloop
  endfacet
  facet normal 0 0 -1
    outer loop
      vertex -18.196 2.9334 2
      vertex -20.3561 3.25195 2
      vertex -18.3171 3.89248 2
    endloop
  endfacet
  facet normal 0 0 -1
    outer loop
      vertex -20.1706 4.73467 2
      vertex -20.4694 3.38184 2
      vertex -20.5215 4.58291 2
    endloop
  endfacet
  facet normal -0 0 -1
    outer loop
      vertex -30.5703 3.26904 2
      vertex -32.7422 3.26357 2
      vertex -30.7318 3.7209 2
    endloop
  endfacet
  facet normal 0 -0 -1
    outer loop
      vertex -31.3158 4.40244 2
      vertex -30.9727 4.10234 2
      vertex -32.7422 3.26357 2
    endloop
  endfacet
  facet normal 0 -0 -1
    outer loop
      vertex -31.7721 4.61777 2
      vertex -31.3158 4.40244 2
      vertex -32.7422 3.26357 2
    endloop
  endfacet
  facet normal -0 0 -1
    outer loop
      vertex -33.2656 -1.65625 2
      vertex -35.0462 -2.32754 2
      vertex -35.4434 -1.55234 2
    endloop
  endfacet
  facet normal 0 0 -1
    outer loop
      vertex -31.4635 -2.80811 2
      vertex -32.7422 -1.65625 2
      vertex -30.9785 -2.38428 2
    endloop
  endfacet
  facet normal 0 0 -1
    outer loop
      vertex -33.6257 -3.11299 2
      vertex -33.0065 -1.81279 2
      vertex -32.9297 -3.17246 2
    endloop
  endfacet
  facet normal 0 0 -1
    outer loop
      vertex -35.4434 -1.55234 2
      vertex -35.5534 -0.336914 2
      vertex -33.3262 -0.915234 2
    endloop
  endfacet
  facet normal 0 0 -1
    outer loop
      vertex -34.2142 -2.93525 2
      vertex -34.6921 -2.66729 2
      vertex -33.2656 -1.65625 2
    endloop
  endfacet
  facet normal 0 0 -1
    outer loop
      vertex -33.2656 -1.65625 2
      vertex -35.4434 -1.55234 2
      vertex -33.3262 -0.915234 2
    endloop
  endfacet
  facet normal 0 0 -1
    outer loop
      vertex -34.6921 -2.66729 2
      vertex -35.0462 -2.32754 2
      vertex -33.2656 -1.65625 2
    endloop
  endfacet
  facet normal 0 0 -1
    outer loop
      vertex -30.9785 -2.38428 2
      vertex -32.7422 -1.65625 2
      vertex -30.6699 -1.8415 2
    endloop
  endfacet
  facet normal 0 0 -1
    outer loop
      vertex -32.6758 -0.915234 2
      vertex -30.5046 -1.12236 2
      vertex -30.6699 -1.8415 2
    endloop
  endfacet
  facet normal 0 -0 -1
    outer loop
      vertex -35.4544 3.0667 2
      vertex -33.3268 2.62646 2
      vertex -35.5534 1.54434 2
    endloop
  endfacet
  facet normal 0 -0 -1
    outer loop
      vertex -33.3268 2.62646 2
      vertex -33.3262 -0.915234 2
      vertex -35.5534 1.54434 2
    endloop
  endfacet
  facet normal -0 0 -1
    outer loop
      vertex -33.2604 3.2752 2
      vertex -33.3268 2.62646 2
      vertex -35.2982 3.53223 2
    endloop
  endfacet
  facet normal 0 0 -1
    outer loop
      vertex -33.0013 3.42559 2
      vertex -33.0234 4.78525 2
      vertex -31.7721 4.61777 2
    endloop
  endfacet
  facet normal 0 -0 -1
    outer loop
      vertex -34.1921 4.58906 2
      vertex -33.2604 3.2752 2
      vertex -34.6576 4.33272 2
    endloop
  endfacet
  facet normal 0 -0 -1
    outer loop
      vertex -33.6465 4.73604 2
      vertex -33.2604 3.2752 2
      vertex -34.1921 4.58906 2
    endloop
  endfacet
  facet normal -0 0 -1
    outer loop
      vertex -38.7819 -2.69668 2
      vertex -39.1035 -2.9585 2
      vertex -39.0534 -1.76904 2
    endloop
  endfacet
  facet normal 0 0 -1
    outer loop
      vertex -33.2604 3.2752 2
      vertex -35.0299 3.96973 2
      vertex -34.6576 4.33272 2
    endloop
  endfacet
  facet normal 0 0 -1
    outer loop
      vertex -33.2604 3.2752 2
      vertex -33.6465 4.73604 2
      vertex -33.0013 3.42559 2
    endloop
  endfacet
  facet normal 0 0 -1
    outer loop
      vertex -33.6465 4.73604 2
      vertex -33.0234 4.78525 2
      vertex -33.0013 3.42559 2
    endloop
  endfacet
  facet normal -0 0 -1
    outer loop
      vertex -30.4492 -0.16875 2
      vertex -32.6758 -0.915234 2
      vertex -30.4492 1.79932 2
    endloop
  endfacet
  facet normal 0 0 -1
    outer loop
      vertex -33.2604 3.2752 2
      vertex -35.2982 3.53223 2
      vertex -35.0299 3.96973 2
    endloop
  endfacet
  facet normal 0 0 -1
    outer loop
      vertex -33.3268 2.62646 2
      vertex -35.4544 3.0667 2
      vertex -35.2982 3.53223 2
    endloop
  endfacet
  facet normal 0 0 -1
    outer loop
      vertex -35.5534 -0.336914 2
      vertex -35.5534 1.54434 2
      vertex -33.3262 -0.915234 2
    endloop
  endfacet
  facet normal 0 0 -1
    outer loop
      vertex -33.6257 -3.11299 2
      vertex -33.2656 -1.65625 2
      vertex -33.0065 -1.81279 2
    endloop
  endfacet
  facet normal 0 0 -1
    outer loop
      vertex -33.6257 -3.11299 2
      vertex -34.2142 -2.93525 2
      vertex -33.2656 -1.65625 2
    endloop
  endfacet
  facet normal -0 0 -1
    outer loop
      vertex -31.4635 -2.80811 2
      vertex -32.1165 -3.08154 2
      vertex -32.7422 -1.65625 2
    endloop
  endfacet
  facet normal 0 -0 -1
    outer loop
      vertex -32.7422 -1.65625 2
      vertex -32.1165 -3.08154 2
      vertex -33.0065 -1.81279 2
    endloop
  endfacet
  facet normal 0 0 -1
    outer loop
      vertex -30.6699 -1.8415 2
      vertex -32.7422 -1.65625 2
      vertex -32.6758 -0.915234 2
    endloop
  endfacet
  facet normal 0 0 -1
    outer loop
      vertex -30.5046 -1.12236 2
      vertex -32.6758 -0.915234 2
      vertex -30.4492 -0.16875 2
    endloop
  endfacet
  facet normal 0 0 -1
    outer loop
      vertex -30.4492 1.79932 2
      vertex -32.6758 2.55127 2
      vertex -30.5703 3.26904 2
    endloop
  endfacet
  facet normal -0 0 -1
    outer loop
      vertex -30.4492 1.79932 2
      vertex -32.6758 -0.915234 2
      vertex -32.6758 2.55127 2
    endloop
  endfacet
  facet normal 0 0 -1
    outer loop
      vertex -31.7721 4.61777 2
      vertex -32.7422 3.26357 2
      vertex -33.0013 3.42559 2
    endloop
  endfacet
  facet normal 0 -0 -1
    outer loop
      vertex -30.9727 4.10234 2
      vertex -30.7318 3.7209 2
      vertex -32.7422 3.26357 2
    endloop
  endfacet
  facet normal 0 -0 -1
    outer loop
      vertex -38.5137 -2.32754 2
      vertex -36.2865 -3.03369 2
      vertex -38.5521 -3.03369 2
    endloop
  endfacet
  facet normal 0 0 -1
    outer loop
      vertex -39.1471 -1.63916 2
      vertex -39.9134 -3.17246 2
      vertex -40.4342 -3.10205 2
    endloop
  endfacet
  facet normal 0 0 -1
    outer loop
      vertex -38.679 -1.76221 2
      vertex -38.5742 -1.60977 2
      vertex -38.5137 -2.32754 2
    endloop
  endfacet
  facet normal 0 0 -1
    outer loop
      vertex -39.0534 -1.76904 2
      vertex -39.4824 -3.11914 2
      vertex -39.9134 -3.17246 2
    endloop
  endfacet
  facet normal 0 -0 -1
    outer loop
      vertex -38.679 -1.76221 2
      vertex -38.5137 -2.32754 2
      vertex -38.8717 -1.81279 2
    endloop
  endfacet
  facet normal -0 -0 -1
    outer loop
      vertex -38.8717 -1.81279 2
      vertex -38.7819 -2.69668 2
      vertex -39.0534 -1.76904 2
    endloop
  endfacet
  facet normal -0 0 -1
    outer loop
      vertex -39.1035 -2.9585 2
      vertex -39.4824 -3.11914 2
      vertex -39.0534 -1.76904 2
    endloop
  endfacet
  facet normal 0 0 -1
    outer loop
      vertex -38.5742 -1.60977 2
      vertex -36.2865 -3.03369 2
      vertex -38.5137 -2.32754 2
    endloop
  endfacet
  facet normal -0 0 -1
    outer loop
      vertex -38.5137 -2.32754 2
      vertex -38.7819 -2.69668 2
      vertex -38.8717 -1.81279 2
    endloop
  endfacet
  facet normal -0 0 -1
    outer loop
      vertex -36.2865 4.64648 2
      vertex -38.5137 -0.544727 2
      vertex -38.5137 4.64648 2
    endloop
  endfacet
  facet normal 0 -0 -1
    outer loop
      vertex -36.2865 4.64648 2
      vertex -36.2865 -3.03369 2
      vertex -38.5137 -0.544727 2
    endloop
  endfacet
  facet normal 0 -0 -1
    outer loop
      vertex -38.5137 -0.544727 2
      vertex -36.2865 -3.03369 2
      vertex -38.5742 -1.60977 2
    endloop
  endfacet
  facet normal -0 0 -1
    outer loop
      vertex -39.0534 -1.76904 2
      vertex -39.9134 -3.17246 2
      vertex -39.1471 -1.63916 2
    endloop
  endfacet
  facet normal 0 0 -1
    outer loop
      vertex -39.1471 -1.63916 2
      vertex -40.4342 -3.10205 2
      vertex -40.8503 -2.88877 2
    endloop
  endfacet
  facet normal 0 0 -1
    outer loop
      vertex -39.1471 -1.63916 2
      vertex -40.8503 -2.88877 2
      vertex -41.1497 -2.56748 2
    endloop
  endfacet
  facet normal 0 0 -1
    outer loop
      vertex -39.1471 -1.63916 2
      vertex -41.1497 -2.56748 2
      vertex -41.319 -2.171 2
    endloop
  endfacet
  facet normal -0 0 -1
    outer loop
      vertex -39.1471 -1.63916 2
      vertex -41.319 -2.171 2
      vertex -41.4238 -0.736133 2
    endloop
  endfacet
  facet normal 0 0 -1
    outer loop
      vertex -39.1471 -1.63916 2
      vertex -41.4238 -0.736133 2
      vertex -39.1966 -0.672559 2
    endloop
  endfacet
  facet normal 0 0 -1
    outer loop
      vertex -41.4238 -0.736133 2
      vertex -41.4238 4.64648 2
      vertex -39.1966 -0.672559 2
    endloop
  endfacet
  facet normal 0 0 -1
    outer loop
      vertex -41.4238 4.64648 2
      vertex -39.1966 4.64648 2
      vertex -39.1966 -0.672559 2
    endloop
  endfacet
  facet normal -0.991484 0.130231 0
    outer loop
      vertex -12.623 4.64648 3
      vertex -13.2676 -0.261035 2
      vertex -13.2676 -0.261035 3
    endloop
  endfacet
  facet normal -0.991484 0.130231 0
    outer loop
      vertex -12.623 4.64648 3
      vertex -12.623 4.64648 2
      vertex -13.2676 -0.261035 2
    endloop
  endfacet
  facet normal 0 1 0
    outer loop
      vertex -9.74023 4.64648 3
      vertex -12.623 4.64648 2
      vertex -12.623 4.64648 3
    endloop
  endfacet
  facet normal 0 1 0
    outer loop
      vertex -9.74023 4.64648 3
      vertex -9.74023 4.64648 2
      vertex -12.623 4.64648 2
    endloop
  endfacet
  facet normal 0.993938 0.109943 0
    outer loop
      vertex -8.70378 -4.72354 3
      vertex -9.74023 4.64648 2
      vertex -9.74023 4.64648 3
    endloop
  endfacet
  facet normal 0.993938 0.109943 0
    outer loop
      vertex -8.70378 -4.72354 3
      vertex -8.70378 -4.72354 2
      vertex -9.74023 4.64648 2
    endloop
  endfacet
  facet normal 0 -1 0
    outer loop
      vertex -10.9583 -4.72354 3
      vertex -8.70378 -4.72354 2
      vertex -8.70378 -4.72354 3
    endloop
  endfacet
  facet normal 0 -1 0
    outer loop
      vertex -10.9583 -4.72354 3
      vertex -10.9583 -4.72354 2
      vertex -8.70378 -4.72354 2
    endloop
  endfacet
  facet normal -0.997383 -0.0722956 0
    outer loop
      vertex -11.1953 -1.45391 3
      vertex -10.9583 -4.72354 2
      vertex -10.9583 -4.72354 3
    endloop
  endfacet
  facet normal -0.997383 -0.0722956 -0
    outer loop
      vertex -11.1953 -1.45391 3
      vertex -11.1953 -1.45391 2
      vertex -10.9583 -4.72354 2
    endloop
  endfacet
  facet normal -0.997066 -0.0765469 0
    outer loop
      vertex -11.4375 1.70088 3
      vertex -11.1953 -1.45391 2
      vertex -11.1953 -1.45391 3
    endloop
  endfacet
  facet normal -0.997066 -0.0765469 -0
    outer loop
      vertex -11.4375 1.70088 3
      vertex -11.4375 1.70088 2
      vertex -11.1953 -1.45391 2
    endloop
  endfacet
  facet normal 0.996902 -0.0786579 0
    outer loop
      vertex -11.6608 -1.1292 3
      vertex -11.4375 1.70088 2
      vertex -11.4375 1.70088 3
    endloop
  endfacet
  facet normal 0.996902 -0.0786579 0
    outer loop
      vertex -11.6608 -1.1292 3
      vertex -11.6608 -1.1292 2
      vertex -11.4375 1.70088 2
    endloop
  endfacet
  facet normal 0.993347 -0.115161 0
    outer loop
      vertex -12.0775 -4.72354 3
      vertex -11.6608 -1.1292 2
      vertex -11.6608 -1.1292 3
    endloop
  endfacet
  facet normal 0.993347 -0.115161 0
    outer loop
      vertex -12.0775 -4.72354 3
      vertex -12.0775 -4.72354 2
      vertex -11.6608 -1.1292 2
    endloop
  endfacet
  facet normal 0 -1 0
    outer loop
      vertex -14.4915 -4.72354 3
      vertex -12.0775 -4.72354 2
      vertex -12.0775 -4.72354 3
    endloop
  endfacet
  facet normal 0 -1 0
    outer loop
      vertex -14.4915 -4.72354 3
      vertex -14.4915 -4.72354 2
      vertex -12.0775 -4.72354 2
    endloop
  endfacet
  facet normal -0.996658 -0.0816862 0
    outer loop
      vertex -14.7448 -1.63301 3
      vertex -14.4915 -4.72354 2
      vertex -14.4915 -4.72354 3
    endloop
  endfacet
  facet normal -0.996658 -0.0816862 -0
    outer loop
      vertex -14.7448 -1.63301 3
      vertex -14.7448 -1.63301 2
      vertex -14.4915 -4.72354 2
    endloop
  endfacet
  facet normal -0.997466 -0.0711501 0
    outer loop
      vertex -14.9987 1.92646 3
      vertex -14.7448 -1.63301 2
      vertex -14.7448 -1.63301 3
    endloop
  endfacet
  facet normal -0.997466 -0.0711501 -0
    outer loop
      vertex -14.9987 1.92646 3
      vertex -14.9987 1.92646 2
      vertex -14.7448 -1.63301 2
    endloop
  endfacet
  facet normal 0.997072 -0.0764735 0
    outer loop
      vertex -15.2565 -1.43477 3
      vertex -14.9987 1.92646 2
      vertex -14.9987 1.92646 3
    endloop
  endfacet
  facet normal 0.997072 -0.0764735 0
    outer loop
      vertex -15.2565 -1.43477 3
      vertex -15.2565 -1.43477 2
      vertex -14.9987 1.92646 2
    endloop
  endfacet
  facet normal 0.993158 -0.116777 0
    outer loop
      vertex -15.6432 -4.72354 3
      vertex -15.2565 -1.43477 2
      vertex -15.2565 -1.43477 3
    endloop
  endfacet
  facet normal 0.993158 -0.116777 0
    outer loop
      vertex -15.6432 -4.72354 3
      vertex -15.6432 -4.72354 2
      vertex -15.2565 -1.43477 2
    endloop
  endfacet
  facet normal 0 -1 0
    outer loop
      vertex -17.8978 -4.72354 3
      vertex -15.6432 -4.72354 2
      vertex -15.6432 -4.72354 3
    endloop
  endfacet
  facet normal 0 -1 0
    outer loop
      vertex -17.8978 -4.72354 3
      vertex -17.8978 -4.72354 2
      vertex -15.6432 -4.72354 2
    endloop
  endfacet
  facet normal -0.994006 0.10933 0
    outer loop
      vertex -16.8672 4.64648 3
      vertex -17.8978 -4.72354 2
      vertex -17.8978 -4.72354 3
    endloop
  endfacet
  facet normal -0.994006 0.10933 0
    outer loop
      vertex -16.8672 4.64648 3
      vertex -16.8672 4.64648 2
      vertex -17.8978 -4.72354 2
    endloop
  endfacet
  facet normal 0 1 0
    outer loop
      vertex -13.9681 4.64648 3
      vertex -16.8672 4.64648 2
      vertex -16.8672 4.64648 3
    endloop
  endfacet
  facet normal 0 1 0
    outer loop
      vertex -13.9681 4.64648 3
      vertex -13.9681 4.64648 2
      vertex -16.8672 4.64648 2
    endloop
  endfacet
  facet normal 0.989966 0.141308 0
    outer loop
      vertex -13.2676 -0.261035 3
      vertex -13.9681 4.64648 2
      vertex -13.9681 4.64648 3
    endloop
  endfacet
  facet normal 0.989966 0.141308 0
    outer loop
      vertex -13.2676 -0.261035 3
      vertex -13.2676 -0.261035 2
      vertex -13.9681 4.64648 2
    endloop
  endfacet
  facet normal 0 -1 0
    outer loop
      vertex -26.2767 -4.72354 3
      vertex -23.9837 -4.72354 2
      vertex -23.9837 -4.72354 3
    endloop
  endfacet
  facet normal 0 -1 0
    outer loop
      vertex -26.2767 -4.72354 3
      vertex -26.2767 -4.72354 2
      vertex -23.9837 -4.72354 2
    endloop
  endfacet
  facet normal -1 -0 0
    outer loop
      vertex -26.2767 4.64648 3
      vertex -26.2767 -4.72354 2
      vertex -26.2767 -4.72354 3
    endloop
  endfacet
  facet normal -1 0 -0
    outer loop
      vertex -26.2767 4.64648 3
      vertex -26.2767 4.64648 2
      vertex -26.2767 -4.72354 2
    endloop
  endfacet
  facet normal 0 1 0
    outer loop
      vertex -23.9837 4.64648 3
      vertex -26.2767 4.64648 2
      vertex -26.2767 4.64648 3
    endloop
  endfacet
  facet normal 0 1 0
    outer loop
      vertex -23.9837 4.64648 3
      vertex -23.9837 4.64648 2
      vertex -26.2767 4.64648 2
    endloop
  endfacet
  facet normal 1 -0 0
    outer loop
      vertex -23.9837 -4.72354 3
      vertex -23.9837 4.64648 2
      vertex -23.9837 4.64648 3
    endloop
  endfacet
  facet normal 1 0 0
    outer loop
      vertex -23.9837 -4.72354 3
      vertex -23.9837 -4.72354 2
      vertex -23.9837 4.64648 2
    endloop
  endfacet
  facet normal 0.471797 0.881707 0
    outer loop
      vertex -27.5605 4.27598 3
      vertex -28.1341 4.58291 2
      vertex -28.1341 4.58291 3
    endloop
  endfacet
  facet normal 0.471797 0.881707 0
    outer loop
      vertex -27.5605 4.27598 3
      vertex -27.5605 4.27598 2
      vertex -28.1341 4.58291 2
    endloop
  endfacet
  facet normal 0.87202 0.489471 0
    outer loop
      vertex -27.252 3.72637 3
      vertex -27.5605 4.27598 2
      vertex -27.5605 4.27598 3
    endloop
  endfacet
  facet normal 0.87202 0.489471 0
    outer loop
      vertex -27.252 3.72637 3
      vertex -27.252 3.72637 2
      vertex -27.5605 4.27598 2
    endloop
  endfacet
  facet normal 0.999138 0.0415055 0
    outer loop
      vertex -27.1914 2.26758 3
      vertex -27.252 3.72637 2
      vertex -27.252 3.72637 3
    endloop
  endfacet
  facet normal 0.999138 0.0415055 0
    outer loop
      vertex -27.1914 2.26758 3
      vertex -27.1914 2.26758 2
      vertex -27.252 3.72637 2
    endloop
  endfacet
  facet normal 1 -0 0
    outer loop
      vertex -27.1914 -1.63301 3
      vertex -27.1914 2.26758 2
      vertex -27.1914 2.26758 3
    endloop
  endfacet
  facet normal 1 0 0
    outer loop
      vertex -27.1914 -1.63301 3
      vertex -27.1914 -1.63301 2
      vertex -27.1914 2.26758 2
    endloop
  endfacet
  facet normal 0 1 0
    outer loop
      vertex -26.7116 -1.63301 3
      vertex -27.1914 -1.63301 2
      vertex -27.1914 -1.63301 3
    endloop
  endfacet
  facet normal 0 1 0
    outer loop
      vertex -26.7116 -1.63301 3
      vertex -26.7116 -1.63301 2
      vertex -27.1914 -1.63301 2
    endloop
  endfacet
  facet normal 1 -0 0
    outer loop
      vertex -26.7116 -2.84844 3
      vertex -26.7116 -1.63301 2
      vertex -26.7116 -1.63301 3
    endloop
  endfacet
  facet normal 1 0 0
    outer loop
      vertex -26.7116 -2.84844 3
      vertex -26.7116 -2.84844 2
      vertex -26.7116 -1.63301 2
    endloop
  endfacet
  facet normal 0 -1 0
    outer loop
      vertex -27.1914 -2.84844 3
      vertex -26.7116 -2.84844 2
      vertex -26.7116 -2.84844 3
    endloop
  endfacet
  facet normal 0 -1 0
    outer loop
      vertex -27.1914 -2.84844 3
      vertex -27.1914 -2.84844 2
      vertex -26.7116 -2.84844 2
    endloop
  endfacet
  facet normal 1 -0 0
    outer loop
      vertex -27.1914 -4.0584 3
      vertex -27.1914 -2.84844 2
      vertex -27.1914 -2.84844 3
    endloop
  endfacet
  facet normal 1 0 0
    outer loop
      vertex -27.1914 -4.0584 3
      vertex -27.1914 -4.0584 2
      vertex -27.1914 -2.84844 2
    endloop
  endfacet
  facet normal 0 -1 0
    outer loop
      vertex -29.4238 -4.0584 3
      vertex -27.1914 -4.0584 2
      vertex -27.1914 -4.0584 3
    endloop
  endfacet
  facet normal 0 -1 0
    outer loop
      vertex -29.4238 -4.0584 3
      vertex -29.4238 -4.0584 2
      vertex -27.1914 -4.0584 2
    endloop
  endfacet
  facet normal -1 -0 0
    outer loop
      vertex -29.4238 -2.84844 3
      vertex -29.4238 -4.0584 2
      vertex -29.4238 -4.0584 3
    endloop
  endfacet
  facet normal -1 0 -0
    outer loop
      vertex -29.4238 -2.84844 3
      vertex -29.4238 -2.84844 2
      vertex -29.4238 -4.0584 2
    endloop
  endfacet
  facet normal 0 -1 0
    outer loop
      vertex -30.0247 -2.84844 3
      vertex -29.4238 -2.84844 2
      vertex -29.4238 -2.84844 3
    endloop
  endfacet
  facet normal 0 -1 0
    outer loop
      vertex -30.0247 -2.84844 3
      vertex -30.0247 -2.84844 2
      vertex -29.4238 -2.84844 2
    endloop
  endfacet
  facet normal -1 -0 0
    outer loop
      vertex -30.0247 -1.63301 3
      vertex -30.0247 -2.84844 2
      vertex -30.0247 -2.84844 3
    endloop
  endfacet
  facet normal -1 0 -0
    outer loop
      vertex -30.0247 -1.63301 3
      vertex -30.0247 -1.63301 2
      vertex -30.0247 -2.84844 2
    endloop
  endfacet
  facet normal 0 1 0
    outer loop
      vertex -29.4238 -1.63301 3
      vertex -30.0247 -1.63301 2
      vertex -30.0247 -1.63301 3
    endloop
  endfacet
  facet normal 0 1 0
    outer loop
      vertex -29.4238 -1.63301 3
      vertex -29.4238 -1.63301 2
      vertex -30.0247 -1.63301 2
    endloop
  endfacet
  facet normal -1 -0 0
    outer loop
      vertex -29.4238 2.47607 3
      vertex -29.4238 -1.63301 2
      vertex -29.4238 -1.63301 3
    endloop
  endfacet
  facet normal -1 0 -0
    outer loop
      vertex -29.4238 2.47607 3
      vertex -29.4238 2.47607 2
      vertex -29.4238 -1.63301 2
    endloop
  endfacet
  facet normal -0.996429 -0.0844381 0
    outer loop
      vertex -29.4954 3.321 3
      vertex -29.4238 2.47607 2
      vertex -29.4238 2.47607 3
    endloop
  endfacet
  facet normal -0.996429 -0.0844381 -0
    outer loop
      vertex -29.4954 3.321 3
      vertex -29.4954 3.321 2
      vertex -29.4238 2.47607 2
    endloop
  endfacet
  facet normal -0.137987 -0.990434 0
    outer loop
      vertex -30.1185 3.40781 3
      vertex -29.4954 3.321 2
      vertex -29.4954 3.321 3
    endloop
  endfacet
  facet normal -0.137987 -0.990434 -0
    outer loop
      vertex -30.1185 3.40781 3
      vertex -30.1185 3.40781 2
      vertex -29.4954 3.321 2
    endloop
  endfacet
  facet normal -1 -0 0
    outer loop
      vertex -30.1185 4.64648 3
      vertex -30.1185 3.40781 2
      vertex -30.1185 3.40781 3
    endloop
  endfacet
  facet normal -1 0 -0
    outer loop
      vertex -30.1185 4.64648 3
      vertex -30.1185 4.64648 2
      vertex -30.1185 3.40781 2
    endloop
  endfacet
  facet normal 0 1 0
    outer loop
      vertex -29.2201 4.64648 3
      vertex -30.1185 4.64648 2
      vertex -30.1185 4.64648 3
    endloop
  endfacet
  facet normal 0 1 0
    outer loop
      vertex -29.2201 4.64648 3
      vertex -29.2201 4.64648 2
      vertex -30.1185 4.64648 2
    endloop
  endfacet
  facet normal 0.0584359 0.998291 0
    outer loop
      vertex -28.1341 4.58291 3
      vertex -29.2201 4.64648 2
      vertex -29.2201 4.64648 3
    endloop
  endfacet
  facet normal 0.0584359 0.998291 0
    outer loop
      vertex -28.1341 4.58291 3
      vertex -28.1341 4.58291 2
      vertex -29.2201 4.64648 2
    endloop
  endfacet
  facet normal 0.446517 0.894775 0
    outer loop
      vertex -18.681 4.44414 3
      vertex -19.1947 4.70049 2
      vertex -19.1947 4.70049 3
    endloop
  endfacet
  facet normal 0.446517 0.894775 0
    outer loop
      vertex -18.681 4.44414 3
      vertex -18.681 4.44414 2
      vertex -19.1947 4.70049 2
    endloop
  endfacet
  facet normal 0.727345 0.686272 0
    outer loop
      vertex -18.4688 4.21924 3
      vertex -18.681 4.44414 2
      vertex -18.681 4.44414 3
    endloop
  endfacet
  facet normal 0.727345 0.686272 0
    outer loop
      vertex -18.4688 4.21924 3
      vertex -18.4688 4.21924 2
      vertex -18.681 4.44414 2
    endloop
  endfacet
  facet normal 0.90702 0.421088 0
    outer loop
      vertex -18.3171 3.89248 3
      vertex -18.4688 4.21924 2
      vertex -18.4688 4.21924 3
    endloop
  endfacet
  facet normal 0.90702 0.421088 0
    outer loop
      vertex -18.3171 3.89248 3
      vertex -18.3171 3.89248 2
      vertex -18.4688 4.21924 2
    endloop
  endfacet
  facet normal 0.992122 0.125272 0
    outer loop
      vertex -18.196 2.9334 3
      vertex -18.3171 3.89248 2
      vertex -18.3171 3.89248 3
    endloop
  endfacet
  facet normal 0.992122 0.125272 0
    outer loop
      vertex -18.196 2.9334 3
      vertex -18.196 2.9334 2
      vertex -18.3171 3.89248 2
    endloop
  endfacet
  facet normal 0.999999 0.00110942 0
    outer loop
      vertex -18.1953 2.30244 3
      vertex -18.196 2.9334 2
      vertex -18.196 2.9334 3
    endloop
  endfacet
  facet normal 0.999999 0.00110942 0
    outer loop
      vertex -18.1953 2.30244 3
      vertex -18.1953 2.30244 2
      vertex -18.196 2.9334 2
    endloop
  endfacet
  facet normal 0.995989 -0.089481 0
    outer loop
      vertex -18.2604 1.57783 3
      vertex -18.1953 2.30244 2
      vertex -18.1953 2.30244 3
    endloop
  endfacet
  facet normal 0.995989 -0.089481 0
    outer loop
      vertex -18.2604 1.57783 3
      vertex -18.2604 1.57783 2
      vertex -18.1953 2.30244 2
    endloop
  endfacet
  facet normal 0.918455 -0.395525 0
    outer loop
      vertex -18.4544 1.12734 3
      vertex -18.2604 1.57783 2
      vertex -18.2604 1.57783 3
    endloop
  endfacet
  facet normal 0.918455 -0.395525 0
    outer loop
      vertex -18.4544 1.12734 3
      vertex -18.4544 1.12734 2
      vertex -18.2604 1.57783 2
    endloop
  endfacet
  facet normal 0.599972 -0.800021 0
    outer loop
      vertex -18.9056 0.788965 3
      vertex -18.4544 1.12734 2
      vertex -18.4544 1.12734 3
    endloop
  endfacet
  facet normal 0.599972 -0.800021 0
    outer loop
      vertex -18.9056 0.788965 3
      vertex -18.9056 0.788965 2
      vertex -18.4544 1.12734 2
    endloop
  endfacet
  facet normal 0.424187 -0.905575 0
    outer loop
      vertex -19.7389 0.398633 3
      vertex -18.9056 0.788965 2
      vertex -18.9056 0.788965 3
    endloop
  endfacet
  facet normal 0.424187 -0.905575 0
    outer loop
      vertex -19.7389 0.398633 3
      vertex -19.7389 0.398633 2
      vertex -18.9056 0.788965 2
    endloop
  endfacet
  facet normal 0.459551 -0.888151 0
    outer loop
      vertex -20.9134 -0.209082 3
      vertex -19.7389 0.398633 2
      vertex -19.7389 0.398633 3
    endloop
  endfacet
  facet normal 0.459551 -0.888151 0
    outer loop
      vertex -20.9134 -0.209082 3
      vertex -20.9134 -0.209082 2
      vertex -19.7389 0.398633 2
    endloop
  endfacet
  facet normal 0.992813 -0.119678 0
    outer loop
      vertex -20.9902 -0.846191 3
      vertex -20.9134 -0.209082 2
      vertex -20.9134 -0.209082 3
    endloop
  endfacet
  facet normal 0.992813 -0.119678 0
    outer loop
      vertex -20.9902 -0.846191 3
      vertex -20.9902 -0.846191 2
      vertex -20.9134 -0.209082 2
    endloop
  endfacet
  facet normal 0.993732 0.111793 0
    outer loop
      vertex -20.9023 -1.62754 3
      vertex -20.9902 -0.846191 2
      vertex -20.9902 -0.846191 3
    endloop
  endfacet
  facet normal 0.993732 0.111793 0
    outer loop
      vertex -20.9023 -1.62754 3
      vertex -20.9023 -1.62754 2
      vertex -20.9902 -0.846191 2
    endloop
  endfacet
  facet normal 0.778444 0.627714 0
    outer loop
      vertex -20.7904 -1.76631 3
      vertex -20.9023 -1.62754 2
      vertex -20.9023 -1.62754 3
    endloop
  endfacet
  facet normal 0.778444 0.627714 0
    outer loop
      vertex -20.7904 -1.76631 3
      vertex -20.7904 -1.76631 2
      vertex -20.9023 -1.62754 2
    endloop
  endfacet
  facet normal 0.264746 0.964318 0
    outer loop
      vertex -20.6211 -1.81279 3
      vertex -20.7904 -1.76631 2
      vertex -20.7904 -1.76631 3
    endloop
  endfacet
  facet normal 0.264746 0.964318 0
    outer loop
      vertex -20.6211 -1.81279 3
      vertex -20.6211 -1.81279 2
      vertex -20.7904 -1.76631 2
    endloop
  endfacet
  facet normal -0.211092 0.977466 0
    outer loop
      vertex -20.4375 -1.77314 3
      vertex -20.6211 -1.81279 2
      vertex -20.6211 -1.81279 3
    endloop
  endfacet
  facet normal -0.211092 0.977466 0
    outer loop
      vertex -20.4375 -1.77314 3
      vertex -20.4375 -1.77314 2
      vertex -20.6211 -1.81279 2
    endloop
  endfacet
  facet normal -0.767279 0.641314 0
    outer loop
      vertex -20.3398 -1.65625 3
      vertex -20.4375 -1.77314 2
      vertex -20.4375 -1.77314 3
    endloop
  endfacet
  facet normal -0.767279 0.641314 0
    outer loop
      vertex -20.3398 -1.65625 3
      vertex -20.3398 -1.65625 2
      vertex -20.4375 -1.77314 2
    endloop
  endfacet
  facet normal -0.997577 0.0695689 0
    outer loop
      vertex -20.2845 -0.863281 3
      vertex -20.3398 -1.65625 2
      vertex -20.3398 -1.65625 3
    endloop
  endfacet
  facet normal -0.997577 0.0695689 0
    outer loop
      vertex -20.2845 -0.863281 3
      vertex -20.2845 -0.863281 2
      vertex -20.3398 -1.65625 2
    endloop
  endfacet
  facet normal -1 -0 0
    outer loop
      vertex -20.2845 -0.0586914 3
      vertex -20.2845 -0.863281 2
      vertex -20.2845 -0.863281 3
    endloop
  endfacet
  facet normal -1 0 -0
    outer loop
      vertex -20.2845 -0.0586914 3
      vertex -20.2845 -0.0586914 2
      vertex -20.2845 -0.863281 2
    endloop
  endfacet
  facet normal 0 1 0
    outer loop
      vertex -18.1953 -0.0586914 3
      vertex -20.2845 -0.0586914 2
      vertex -20.2845 -0.0586914 3
    endloop
  endfacet
  facet normal 0 1 0
    outer loop
      vertex -18.1953 -0.0586914 3
      vertex -18.1953 -0.0586914 2
      vertex -20.2845 -0.0586914 2
    endloop
  endfacet
  facet normal 1 -0 0
    outer loop
      vertex -18.1953 -0.574121 3
      vertex -18.1953 -0.0586914 2
      vertex -18.1953 -0.0586914 3
    endloop
  endfacet
  facet normal 1 0 0
    outer loop
      vertex -18.1953 -0.574121 3
      vertex -18.1953 -0.574121 2
      vertex -18.1953 -0.0586914 2
    endloop
  endfacet
  facet normal 0.998089 -0.0617965 0
    outer loop
      vertex -18.2441 -1.3623 3
      vertex -18.1953 -0.574121 2
      vertex -18.1953 -0.574121 3
    endloop
  endfacet
  facet normal 0.998089 -0.0617965 0
    outer loop
      vertex -18.2441 -1.3623 3
      vertex -18.2441 -1.3623 2
      vertex -18.1953 -0.574121 2
    endloop
  endfacet
  facet normal 0.970602 -0.24069 0
    outer loop
      vertex -18.3887 -1.94541 3
      vertex -18.2441 -1.3623 2
      vertex -18.2441 -1.3623 3
    endloop
  endfacet
  facet normal 0.970602 -0.24069 0
    outer loop
      vertex -18.3887 -1.94541 3
      vertex -18.3887 -1.94541 2
      vertex -18.2441 -1.3623 2
    endloop
  endfacet
  facet normal 0.83933 -0.543623 0
    outer loop
      vertex -18.6849 -2.40273 3
      vertex -18.3887 -1.94541 2
      vertex -18.3887 -1.94541 3
    endloop
  endfacet
  facet normal 0.83933 -0.543623 0
    outer loop
      vertex -18.6849 -2.40273 3
      vertex -18.6849 -2.40273 2
      vertex -18.3887 -1.94541 2
    endloop
  endfacet
  facet normal 0.629934 -0.776649 0
    outer loop
      vertex -19.1771 -2.80195 3
      vertex -18.6849 -2.40273 2
      vertex -18.6849 -2.40273 3
    endloop
  endfacet
  facet normal 0.629934 -0.776649 0
    outer loop
      vertex -19.1771 -2.80195 3
      vertex -19.1771 -2.80195 2
      vertex -18.6849 -2.40273 2
    endloop
  endfacet
  facet normal 0.379789 -0.925073 0
    outer loop
      vertex -19.8548 -3.08018 3
      vertex -19.1771 -2.80195 2
      vertex -19.1771 -2.80195 3
    endloop
  endfacet
  facet normal 0.379789 -0.925073 0
    outer loop
      vertex -19.8548 -3.08018 3
      vertex -19.8548 -3.08018 2
      vertex -19.1771 -2.80195 2
    endloop
  endfacet
  facet normal 0.107406 -0.994215 0
    outer loop
      vertex -20.709 -3.17246 3
      vertex -19.8548 -3.08018 2
      vertex -19.8548 -3.08018 3
    endloop
  endfacet
  facet normal 0.107406 -0.994215 0
    outer loop
      vertex -20.709 -3.17246 3
      vertex -20.709 -3.17246 2
      vertex -19.8548 -3.08018 2
    endloop
  endfacet
  facet normal -0.105642 -0.994404 0
    outer loop
      vertex -21.6999 -3.06719 3
      vertex -20.709 -3.17246 2
      vertex -20.709 -3.17246 3
    endloop
  endfacet
  facet normal -0.105642 -0.994404 -0
    outer loop
      vertex -21.6999 -3.06719 3
      vertex -21.6999 -3.06719 2
      vertex -20.709 -3.17246 2
    endloop
  endfacet
  facet normal -0.406842 -0.913499 0
    outer loop
      vertex -22.4121 -2.75 3
      vertex -21.6999 -3.06719 2
      vertex -21.6999 -3.06719 3
    endloop
  endfacet
  facet normal -0.406842 -0.913499 -0
    outer loop
      vertex -22.4121 -2.75 3
      vertex -22.4121 -2.75 2
      vertex -21.6999 -3.06719 2
    endloop
  endfacet
  facet normal -0.712083 -0.702095 0
    outer loop
      vertex -22.8711 -2.28447 3
      vertex -22.4121 -2.75 2
      vertex -22.4121 -2.75 3
    endloop
  endfacet
  facet normal -0.712083 -0.702095 -0
    outer loop
      vertex -22.8711 -2.28447 3
      vertex -22.8711 -2.28447 2
      vertex -22.4121 -2.75 2
    endloop
  endfacet
  facet normal -0.92583 -0.37794 0
    outer loop
      vertex -23.1016 -1.71982 3
      vertex -22.8711 -2.28447 2
      vertex -22.8711 -2.28447 3
    endloop
  endfacet
  facet normal -0.92583 -0.37794 -0
    outer loop
      vertex -23.1016 -1.71982 3
      vertex -23.1016 -1.71982 2
      vertex -22.8711 -2.28447 2
    endloop
  endfacet
  facet normal -0.998939 -0.0460586 0
    outer loop
      vertex -23.2174 0.791699 3
      vertex -23.1016 -1.71982 2
      vertex -23.1016 -1.71982 3
    endloop
  endfacet
  facet normal -0.998939 -0.0460586 -0
    outer loop
      vertex -23.2174 0.791699 3
      vertex -23.2174 0.791699 2
      vertex -23.1016 -1.71982 2
    endloop
  endfacet
  facet normal -1 -0 0
    outer loop
      vertex -23.2174 4.64648 3
      vertex -23.2174 0.791699 2
      vertex -23.2174 0.791699 3
    endloop
  endfacet
  facet normal -1 0 -0
    outer loop
      vertex -23.2174 4.64648 3
      vertex -23.2174 4.64648 2
      vertex -23.2174 0.791699 2
    endloop
  endfacet
  facet normal 0 1 0
    outer loop
      vertex -21.0508 4.64648 3
      vertex -23.2174 4.64648 2
      vertex -23.2174 4.64648 3
    endloop
  endfacet
  facet normal 0 1 0
    outer loop
      vertex -21.0508 4.64648 3
      vertex -21.0508 4.64648 2
      vertex -23.2174 4.64648 2
    endloop
  endfacet
  facet normal 1 -0 0
    outer loop
      vertex -21.0508 3.96357 3
      vertex -21.0508 4.64648 2
      vertex -21.0508 4.64648 3
    endloop
  endfacet
  facet normal 1 0 0
    outer loop
      vertex -21.0508 3.96357 3
      vertex -21.0508 3.96357 2
      vertex -21.0508 4.64648 2
    endloop
  endfacet
  facet normal -0.838198 0.545366 0
    outer loop
      vertex -20.8164 4.32383 3
      vertex -21.0508 3.96357 2
      vertex -21.0508 3.96357 3
    endloop
  endfacet
  facet normal -0.838198 0.545366 0
    outer loop
      vertex -20.8164 4.32383 3
      vertex -20.8164 4.32383 2
      vertex -21.0508 3.96357 2
    endloop
  endfacet
  facet normal -0.660007 0.751259 0
    outer loop
      vertex -20.5215 4.58291 3
      vertex -20.8164 4.32383 2
      vertex -20.8164 4.32383 3
    endloop
  endfacet
  facet normal -0.660007 0.751259 0
    outer loop
      vertex -20.5215 4.58291 3
      vertex -20.5215 4.58291 2
      vertex -20.8164 4.32383 2
    endloop
  endfacet
  facet normal -0.396954 0.917838 0
    outer loop
      vertex -20.1706 4.73467 3
      vertex -20.5215 4.58291 2
      vertex -20.5215 4.58291 3
    endloop
  endfacet
  facet normal -0.396954 0.917838 0
    outer loop
      vertex -20.1706 4.73467 3
      vertex -20.1706 4.73467 2
      vertex -20.5215 4.58291 2
    endloop
  endfacet
  facet normal -0.12107 0.992644 0
    outer loop
      vertex -19.7559 4.78525 3
      vertex -20.1706 4.73467 2
      vertex -20.1706 4.73467 3
    endloop
  endfacet
  facet normal -0.12107 0.992644 0
    outer loop
      vertex -19.7559 4.78525 3
      vertex -19.7559 4.78525 2
      vertex -20.1706 4.73467 2
    endloop
  endfacet
  facet normal 0.14934 0.988786 0
    outer loop
      vertex -19.1947 4.70049 3
      vertex -19.7559 4.78525 2
      vertex -19.7559 4.78525 3
    endloop
  endfacet
  facet normal 0.14934 0.988786 0
    outer loop
      vertex -19.1947 4.70049 3
      vertex -19.1947 4.70049 2
      vertex -19.7559 4.78525 2
    endloop
  endfacet
  facet normal 0.995748 -0.0921142 0
    outer loop
      vertex -20.9902 2.57451 3
      vertex -20.9902 2.57451 2
      vertex -20.9238 3.29229 3
    endloop
  endfacet
  facet normal 0.995748 -0.0921142 0
    outer loop
      vertex -20.9238 3.29229 2
      vertex -20.9238 3.29229 3
      vertex -20.9902 2.57451 2
    endloop
  endfacet
  facet normal 1 -0 0
    outer loop
      vertex -20.9902 0.994727 3
      vertex -20.9902 0.994727 2
      vertex -20.9902 2.57451 3
    endloop
  endfacet
  facet normal 1 0 -0
    outer loop
      vertex -20.9902 2.57451 2
      vertex -20.9902 2.57451 3
      vertex -20.9902 0.994727 2
    endloop
  endfacet
  facet normal -0.665599 0.74631 0
    outer loop
      vertex -20.5671 1.37207 3
      vertex -20.5671 1.37207 2
      vertex -20.9902 0.994727 3
    endloop
  endfacet
  facet normal -0.665599 0.74631 0
    outer loop
      vertex -20.9902 0.994727 2
      vertex -20.9902 0.994727 3
      vertex -20.5671 1.37207 2
    endloop
  endfacet
  facet normal -0.841245 0.540654 0
    outer loop
      vertex -20.3672 1.68311 3
      vertex -20.3672 1.68311 2
      vertex -20.5671 1.37207 3
    endloop
  endfacet
  facet normal -0.841245 0.540654 0
    outer loop
      vertex -20.5671 1.37207 2
      vertex -20.5671 1.37207 3
      vertex -20.3672 1.68311 2
    endloop
  endfacet
  facet normal -0.994688 0.102939 0
    outer loop
      vertex -20.2845 2.48223 3
      vertex -20.2845 2.48223 2
      vertex -20.3672 1.68311 3
    endloop
  endfacet
  facet normal -0.994688 0.102939 0
    outer loop
      vertex -20.3672 1.68311 2
      vertex -20.3672 1.68311 3
      vertex -20.2845 2.48223 2
    endloop
  endfacet
  facet normal -0.995701 -0.092621 -0
    outer loop
      vertex -20.3561 3.25195 3
      vertex -20.3561 3.25195 2
      vertex -20.2845 2.48223 3
    endloop
  endfacet
  facet normal -0.995701 -0.092621 0
    outer loop
      vertex -20.2845 2.48223 2
      vertex -20.2845 2.48223 3
      vertex -20.3561 3.25195 2
    endloop
  endfacet
  facet normal -0.753593 -0.657341 -0
    outer loop
      vertex -20.4694 3.38184 3
      vertex -20.4694 3.38184 2
      vertex -20.3561 3.25195 3
    endloop
  endfacet
  facet normal -0.753593 -0.657341 0
    outer loop
      vertex -20.3561 3.25195 2
      vertex -20.3561 3.25195 3
      vertex -20.4694 3.38184 2
    endloop
  endfacet
  facet normal -0.230257 -0.97313 -0
    outer loop
      vertex -20.6543 3.42559 3
      vertex -20.6543 3.42559 2
      vertex -20.4694 3.38184 3
    endloop
  endfacet
  facet normal -0.230257 -0.97313 0
    outer loop
      vertex -20.4694 3.38184 2
      vertex -20.4694 3.38184 3
      vertex -20.6543 3.42559 2
    endloop
  endfacet
  facet normal 0.443351 -0.896348 0
    outer loop
      vertex -20.9238 3.29229 3
      vertex -20.9238 3.29229 2
      vertex -20.6543 3.42559 3
    endloop
  endfacet
  facet normal 0.443351 -0.896348 0
    outer loop
      vertex -20.6543 3.42559 2
      vertex -20.6543 3.42559 3
      vertex -20.9238 3.29229 2
    endloop
  endfacet
  facet normal 0.426771 0.90436 0
    outer loop
      vertex -31.3158 4.40244 3
      vertex -31.7721 4.61777 2
      vertex -31.7721 4.61777 3
    endloop
  endfacet
  facet normal 0.426771 0.90436 0
    outer loop
      vertex -31.3158 4.40244 3
      vertex -31.3158 4.40244 2
      vertex -31.7721 4.61777 2
    endloop
  endfacet
  facet normal 0.658365 0.752699 0
    outer loop
      vertex -30.9727 4.10234 3
      vertex -31.3158 4.40244 2
      vertex -31.3158 4.40244 3
    endloop
  endfacet
  facet normal 0.658365 0.752699 0
    outer loop
      vertex -30.9727 4.10234 3
      vertex -30.9727 4.10234 2
      vertex -31.3158 4.40244 2
    endloop
  endfacet
  facet normal 0.845498 0.533978 0
    outer loop
      vertex -30.7318 3.7209 3
      vertex -30.9727 4.10234 2
      vertex -30.9727 4.10234 3
    endloop
  endfacet
  facet normal 0.845498 0.533978 0
    outer loop
      vertex -30.7318 3.7209 3
      vertex -30.7318 3.7209 2
      vertex -30.9727 4.10234 2
    endloop
  endfacet
  facet normal 0.941662 0.336561 0
    outer loop
      vertex -30.5703 3.26904 3
      vertex -30.7318 3.7209 2
      vertex -30.7318 3.7209 3
    endloop
  endfacet
  facet normal 0.941662 0.336561 0
    outer loop
      vertex -30.5703 3.26904 3
      vertex -30.5703 3.26904 2
      vertex -30.7318 3.7209 2
    endloop
  endfacet
  facet normal 0.996623 0.0821184 0
    outer loop
      vertex -30.4492 1.79932 3
      vertex -30.5703 3.26904 2
      vertex -30.5703 3.26904 3
    endloop
  endfacet
  facet normal 0.996623 0.0821184 0
    outer loop
      vertex -30.4492 1.79932 3
      vertex -30.4492 1.79932 2
      vertex -30.5703 3.26904 2
    endloop
  endfacet
  facet normal 1 -0 0
    outer loop
      vertex -30.4492 -0.16875 3
      vertex -30.4492 1.79932 2
      vertex -30.4492 1.79932 3
    endloop
  endfacet
  facet normal 1 0 0
    outer loop
      vertex -30.4492 -0.16875 3
      vertex -30.4492 -0.16875 2
      vertex -30.4492 1.79932 2
    endloop
  endfacet
  facet normal 0.998317 -0.0579972 0
    outer loop
      vertex -30.5046 -1.12236 3
      vertex -30.4492 -0.16875 2
      vertex -30.4492 -0.16875 3
    endloop
  endfacet
  facet normal 0.998317 -0.0579972 0
    outer loop
      vertex -30.5046 -1.12236 3
      vertex -30.5046 -1.12236 2
      vertex -30.4492 -0.16875 2
    endloop
  endfacet
  facet normal 0.974585 -0.224016 0
    outer loop
      vertex -30.6699 -1.8415 3
      vertex -30.5046 -1.12236 2
      vertex -30.5046 -1.12236 3
    endloop
  endfacet
  facet normal 0.974585 -0.224016 0
    outer loop
      vertex -30.6699 -1.8415 3
      vertex -30.6699 -1.8415 2
      vertex -30.5046 -1.12236 2
    endloop
  endfacet
  facet normal 0.869317 -0.494254 0
    outer loop
      vertex -30.9785 -2.38428 3
      vertex -30.6699 -1.8415 2
      vertex -30.6699 -1.8415 3
    endloop
  endfacet
  facet normal 0.869317 -0.494254 0
    outer loop
      vertex -30.9785 -2.38428 3
      vertex -30.9785 -2.38428 2
      vertex -30.6699 -1.8415 2
    endloop
  endfacet
  facet normal 0.658025 -0.752996 0
    outer loop
      vertex -31.4635 -2.80811 3
      vertex -30.9785 -2.38428 2
      vertex -30.9785 -2.38428 3
    endloop
  endfacet
  facet normal 0.658025 -0.752996 0
    outer loop
      vertex -31.4635 -2.80811 3
      vertex -31.4635 -2.80811 2
      vertex -30.9785 -2.38428 2
    endloop
  endfacet
  facet normal 0.386236 -0.9224 0
    outer loop
      vertex -32.1165 -3.08154 3
      vertex -31.4635 -2.80811 2
      vertex -31.4635 -2.80811 3
    endloop
  endfacet
  facet normal 0.386236 -0.9224 0
    outer loop
      vertex -32.1165 -3.08154 3
      vertex -32.1165 -3.08154 2
      vertex -31.4635 -2.80811 2
    endloop
  endfacet
  facet normal 0.111113 -0.993808 0
    outer loop
      vertex -32.9297 -3.17246 3
      vertex -32.1165 -3.08154 2
      vertex -32.1165 -3.08154 3
    endloop
  endfacet
  facet normal 0.111113 -0.993808 0
    outer loop
      vertex -32.9297 -3.17246 3
      vertex -32.9297 -3.17246 2
      vertex -32.1165 -3.08154 2
    endloop
  endfacet
  facet normal -0.0851352 -0.996369 0
    outer loop
      vertex -33.6257 -3.11299 3
      vertex -32.9297 -3.17246 2
      vertex -32.9297 -3.17246 3
    endloop
  endfacet
  facet normal -0.0851352 -0.996369 -0
    outer loop
      vertex -33.6257 -3.11299 3
      vertex -33.6257 -3.11299 2
      vertex -32.9297 -3.17246 2
    endloop
  endfacet
  facet normal -0.289123 -0.957292 0
    outer loop
      vertex -34.2142 -2.93525 3
      vertex -33.6257 -3.11299 2
      vertex -33.6257 -3.11299 3
    endloop
  endfacet
  facet normal -0.289123 -0.957292 -0
    outer loop
      vertex -34.2142 -2.93525 3
      vertex -34.2142 -2.93525 2
      vertex -33.6257 -3.11299 2
    endloop
  endfacet
  facet normal -0.48907 -0.872244 0
    outer loop
      vertex -34.6921 -2.66729 3
      vertex -34.2142 -2.93525 2
      vertex -34.2142 -2.93525 3
    endloop
  endfacet
  facet normal -0.48907 -0.872244 -0
    outer loop
      vertex -34.6921 -2.66729 3
      vertex -34.6921 -2.66729 2
      vertex -34.2142 -2.93525 2
    endloop
  endfacet
  facet normal -0.692335 -0.721577 0
    outer loop
      vertex -35.0462 -2.32754 3
      vertex -34.6921 -2.66729 2
      vertex -34.6921 -2.66729 3
    endloop
  endfacet
  facet normal -0.692335 -0.721577 -0
    outer loop
      vertex -35.0462 -2.32754 3
      vertex -35.0462 -2.32754 2
      vertex -34.6921 -2.66729 2
    endloop
  endfacet
  facet normal -0.889975 -0.456009 0
    outer loop
      vertex -35.4434 -1.55234 3
      vertex -35.0462 -2.32754 2
      vertex -35.0462 -2.32754 3
    endloop
  endfacet
  facet normal -0.889975 -0.456009 -0
    outer loop
      vertex -35.4434 -1.55234 3
      vertex -35.4434 -1.55234 2
      vertex -35.0462 -2.32754 2
    endloop
  endfacet
  facet normal -0.99593 -0.0901349 0
    outer loop
      vertex -35.5534 -0.336914 3
      vertex -35.4434 -1.55234 2
      vertex -35.4434 -1.55234 3
    endloop
  endfacet
  facet normal -0.99593 -0.0901349 -0
    outer loop
      vertex -35.5534 -0.336914 3
      vertex -35.5534 -0.336914 2
      vertex -35.4434 -1.55234 2
    endloop
  endfacet
  facet normal -1 -0 0
    outer loop
      vertex -35.5534 1.54434 3
      vertex -35.5534 -0.336914 2
      vertex -35.5534 -0.336914 3
    endloop
  endfacet
  facet normal -1 0 -0
    outer loop
      vertex -35.5534 1.54434 3
      vertex -35.5534 1.54434 2
      vertex -35.5534 -0.336914 2
    endloop
  endfacet
  facet normal -0.997892 0.0648935 0
    outer loop
      vertex -35.4544 3.0667 3
      vertex -35.5534 1.54434 2
      vertex -35.5534 1.54434 3
    endloop
  endfacet
  facet normal -0.997892 0.0648935 0
    outer loop
      vertex -35.4544 3.0667 3
      vertex -35.4544 3.0667 2
      vertex -35.5534 1.54434 2
    endloop
  endfacet
  facet normal -0.948056 0.318103 0
    outer loop
      vertex -35.2982 3.53223 3
      vertex -35.4544 3.0667 2
      vertex -35.4544 3.0667 3
    endloop
  endfacet
  facet normal -0.948056 0.318103 0
    outer loop
      vertex -35.2982 3.53223 3
      vertex -35.2982 3.53223 2
      vertex -35.4544 3.0667 2
    endloop
  endfacet
  facet normal -0.852467 0.522781 0
    outer loop
      vertex -35.0299 3.96973 3
      vertex -35.2982 3.53223 2
      vertex -35.2982 3.53223 3
    endloop
  endfacet
  facet normal -0.852467 0.522781 0
    outer loop
      vertex -35.0299 3.96973 3
      vertex -35.0299 3.96973 2
      vertex -35.2982 3.53223 2
    endloop
  endfacet
  facet normal -0.698098 0.716003 0
    outer loop
      vertex -34.6576 4.33272 3
      vertex -35.0299 3.96973 2
      vertex -35.0299 3.96973 3
    endloop
  endfacet
  facet normal -0.698098 0.716003 0
    outer loop
      vertex -34.6576 4.33272 3
      vertex -34.6576 4.33272 2
      vertex -35.0299 3.96973 2
    endloop
  endfacet
  facet normal -0.482374 0.875965 0
    outer loop
      vertex -34.1921 4.58906 3
      vertex -34.6576 4.33272 2
      vertex -34.6576 4.33272 3
    endloop
  endfacet
  facet normal -0.482374 0.875965 0
    outer loop
      vertex -34.1921 4.58906 3
      vertex -34.1921 4.58906 2
      vertex -34.6576 4.33272 2
    endloop
  endfacet
  facet normal -0.260118 0.965577 0
    outer loop
      vertex -33.6465 4.73604 3
      vertex -34.1921 4.58906 2
      vertex -34.1921 4.58906 3
    endloop
  endfacet
  facet normal -0.260118 0.965577 0
    outer loop
      vertex -33.6465 4.73604 3
      vertex -33.6465 4.73604 2
      vertex -34.1921 4.58906 2
    endloop
  endfacet
  facet normal -0.0787309 0.996896 0
    outer loop
      vertex -33.0234 4.78525 3
      vertex -33.6465 4.73604 2
      vertex -33.6465 4.73604 3
    endloop
  endfacet
  facet normal -0.0787309 0.996896 0
    outer loop
      vertex -33.0234 4.78525 3
      vertex -33.0234 4.78525 2
      vertex -33.6465 4.73604 2
    endloop
  endfacet
  facet normal 0.132662 0.991161 0
    outer loop
      vertex -31.7721 4.61777 3
      vertex -33.0234 4.78525 2
      vertex -33.0234 4.78525 3
    endloop
  endfacet
  facet normal 0.132662 0.991161 0
    outer loop
      vertex -31.7721 4.61777 3
      vertex -31.7721 4.61777 2
      vertex -33.0234 4.78525 2
    endloop
  endfacet
  facet normal 0.994803 -0.10182 0
    outer loop
      vertex -33.3268 2.62646 3
      vertex -33.3268 2.62646 2
      vertex -33.2604 3.2752 3
    endloop
  endfacet
  facet normal 0.994803 -0.10182 0
    outer loop
      vertex -33.2604 3.2752 2
      vertex -33.2604 3.2752 3
      vertex -33.3268 2.62646 2
    endloop
  endfacet
  facet normal 1 0.00016941 0
    outer loop
      vertex -33.3262 -0.915234 3
      vertex -33.3262 -0.915234 2
      vertex -33.3268 2.62646 3
    endloop
  endfacet
  facet normal 1 0.00016941 -0
    outer loop
      vertex -33.3268 2.62646 2
      vertex -33.3268 2.62646 3
      vertex -33.3262 -0.915234 2
    endloop
  endfacet
  facet normal 0.996673 0.0815075 0
    outer loop
      vertex -33.2656 -1.65625 3
      vertex -33.2656 -1.65625 2
      vertex -33.3262 -0.915234 3
    endloop
  endfacet
  facet normal 0.996673 0.0815075 -0
    outer loop
      vertex -33.3262 -0.915234 2
      vertex -33.3262 -0.915234 3
      vertex -33.2656 -1.65625 2
    endloop
  endfacet
  facet normal 0.517117 0.855915 0
    outer loop
      vertex -33.0065 -1.81279 3
      vertex -33.0065 -1.81279 2
      vertex -33.2656 -1.65625 3
    endloop
  endfacet
  facet normal 0.517117 0.855915 -0
    outer loop
      vertex -33.2656 -1.65625 2
      vertex -33.2656 -1.65625 3
      vertex -33.0065 -1.81279 2
    endloop
  endfacet
  facet normal -0.509604 0.860409 0
    outer loop
      vertex -32.7422 -1.65625 3
      vertex -32.7422 -1.65625 2
      vertex -33.0065 -1.81279 3
    endloop
  endfacet
  facet normal -0.509604 0.860409 0
    outer loop
      vertex -33.0065 -1.81279 2
      vertex -33.0065 -1.81279 3
      vertex -32.7422 -1.65625 2
    endloop
  endfacet
  facet normal -0.996009 0.0892491 0
    outer loop
      vertex -32.6758 -0.915234 3
      vertex -32.6758 -0.915234 2
      vertex -32.7422 -1.65625 3
    endloop
  endfacet
  facet normal -0.996009 0.0892491 0
    outer loop
      vertex -32.7422 -1.65625 2
      vertex -32.7422 -1.65625 3
      vertex -32.6758 -0.915234 2
    endloop
  endfacet
  facet normal -1 -0 -0
    outer loop
      vertex -32.6758 2.55127 3
      vertex -32.6758 2.55127 2
      vertex -32.6758 -0.915234 3
    endloop
  endfacet
  facet normal -1 0 0
    outer loop
      vertex -32.6758 -0.915234 2
      vertex -32.6758 -0.915234 3
      vertex -32.6758 2.55127 2
    endloop
  endfacet
  facet normal -0.995683 -0.0928167 -0
    outer loop
      vertex -32.7422 3.26357 3
      vertex -32.7422 3.26357 2
      vertex -32.6758 2.55127 3
    endloop
  endfacet
  facet normal -0.995683 -0.0928167 0
    outer loop
      vertex -32.6758 2.55127 2
      vertex -32.6758 2.55127 3
      vertex -32.7422 3.26357 2
    endloop
  endfacet
  facet normal -0.530193 -0.847877 -0
    outer loop
      vertex -33.0013 3.42559 3
      vertex -33.0013 3.42559 2
      vertex -32.7422 3.26357 3
    endloop
  endfacet
  facet normal -0.530193 -0.847877 0
    outer loop
      vertex -32.7422 3.26357 2
      vertex -32.7422 3.26357 3
      vertex -33.0013 3.42559 2
    endloop
  endfacet
  facet normal 0.501998 -0.864869 0
    outer loop
      vertex -33.2604 3.2752 3
      vertex -33.2604 3.2752 2
      vertex -33.0013 3.42559 3
    endloop
  endfacet
  facet normal 0.501998 -0.864869 0
    outer loop
      vertex -33.0013 3.42559 2
      vertex -33.0013 3.42559 3
      vertex -33.2604 3.2752 2
    endloop
  endfacet
  facet normal 0.998691 0.0511434 0
    outer loop
      vertex -39.1471 -1.63916 3
      vertex -39.1966 -0.672559 2
      vertex -39.1966 -0.672559 3
    endloop
  endfacet
  facet normal 0.998691 0.0511434 0
    outer loop
      vertex -39.1471 -1.63916 3
      vertex -39.1471 -1.63916 2
      vertex -39.1966 -0.672559 2
    endloop
  endfacet
  facet normal 0.810982 0.585071 0
    outer loop
      vertex -39.0534 -1.76904 3
      vertex -39.1471 -1.63916 2
      vertex -39.1471 -1.63916 3
    endloop
  endfacet
  facet normal 0.810982 0.585071 0
    outer loop
      vertex -39.0534 -1.76904 3
      vertex -39.0534 -1.76904 2
      vertex -39.1471 -1.63916 2
    endloop
  endfacet
  facet normal 0.234091 0.972215 0
    outer loop
      vertex -38.8717 -1.81279 3
      vertex -39.0534 -1.76904 2
      vertex -39.0534 -1.76904 3
    endloop
  endfacet
  facet normal 0.234091 0.972215 0
    outer loop
      vertex -38.8717 -1.81279 3
      vertex -38.8717 -1.81279 2
      vertex -39.0534 -1.76904 2
    endloop
  endfacet
  facet normal -0.253881 0.967236 0
    outer loop
      vertex -38.679 -1.76221 3
      vertex -38.8717 -1.81279 2
      vertex -38.8717 -1.81279 3
    endloop
  endfacet
  facet normal -0.253881 0.967236 0
    outer loop
      vertex -38.679 -1.76221 3
      vertex -38.679 -1.76221 2
      vertex -38.8717 -1.81279 2
    endloop
  endfacet
  facet normal -0.824048 0.56652 0
    outer loop
      vertex -38.5742 -1.60977 3
      vertex -38.679 -1.76221 2
      vertex -38.679 -1.76221 3
    endloop
  endfacet
  facet normal -0.824048 0.56652 0
    outer loop
      vertex -38.5742 -1.60977 3
      vertex -38.5742 -1.60977 2
      vertex -38.679 -1.76221 2
    endloop
  endfacet
  facet normal -0.99839 0.0567138 0
    outer loop
      vertex -38.5137 -0.544727 3
      vertex -38.5742 -1.60977 2
      vertex -38.5742 -1.60977 3
    endloop
  endfacet
  facet normal -0.99839 0.0567138 0
    outer loop
      vertex -38.5137 -0.544727 3
      vertex -38.5137 -0.544727 2
      vertex -38.5742 -1.60977 2
    endloop
  endfacet
  facet normal -1 -0 0
    outer loop
      vertex -38.5137 4.64648 3
      vertex -38.5137 -0.544727 2
      vertex -38.5137 -0.544727 3
    endloop
  endfacet
  facet normal -1 0 -0
    outer loop
      vertex -38.5137 4.64648 3
      vertex -38.5137 4.64648 2
      vertex -38.5137 -0.544727 2
    endloop
  endfacet
  facet normal 0 1 0
    outer loop
      vertex -36.2865 4.64648 3
      vertex -38.5137 4.64648 2
      vertex -38.5137 4.64648 3
    endloop
  endfacet
  facet normal 0 1 0
    outer loop
      vertex -36.2865 4.64648 3
      vertex -36.2865 4.64648 2
      vertex -38.5137 4.64648 2
    endloop
  endfacet
  facet normal 1 -0 0
    outer loop
      vertex -36.2865 -3.03369 3
      vertex -36.2865 4.64648 2
      vertex -36.2865 4.64648 3
    endloop
  endfacet
  facet normal 1 0 0
    outer loop
      vertex -36.2865 -3.03369 3
      vertex -36.2865 -3.03369 2
      vertex -36.2865 4.64648 2
    endloop
  endfacet
  facet normal 0 -1 0
    outer loop
      vertex -38.5521 -3.03369 3
      vertex -36.2865 -3.03369 2
      vertex -36.2865 -3.03369 3
    endloop
  endfacet
  facet normal 0 -1 0
    outer loop
      vertex -38.5521 -3.03369 3
      vertex -38.5521 -3.03369 2
      vertex -36.2865 -3.03369 2
    endloop
  endfacet
  facet normal -0.998525 0.0542992 0
    outer loop
      vertex -38.5137 -2.32754 3
      vertex -38.5521 -3.03369 2
      vertex -38.5521 -3.03369 3
    endloop
  endfacet
  facet normal -0.998525 0.0542992 0
    outer loop
      vertex -38.5137 -2.32754 3
      vertex -38.5137 -2.32754 2
      vertex -38.5521 -3.03369 2
    endloop
  endfacet
  facet normal 0.809013 -0.587791 0
    outer loop
      vertex -38.7819 -2.69668 3
      vertex -38.5137 -2.32754 2
      vertex -38.5137 -2.32754 3
    endloop
  endfacet
  facet normal 0.809013 -0.587791 0
    outer loop
      vertex -38.7819 -2.69668 3
      vertex -38.7819 -2.69668 2
      vertex -38.5137 -2.32754 2
    endloop
  endfacet
  facet normal 0.631348 -0.7755 0
    outer loop
      vertex -39.1035 -2.9585 3
      vertex -38.7819 -2.69668 2
      vertex -38.7819 -2.69668 3
    endloop
  endfacet
  facet normal 0.631348 -0.7755 0
    outer loop
      vertex -39.1035 -2.9585 3
      vertex -39.1035 -2.9585 2
      vertex -38.7819 -2.69668 2
    endloop
  endfacet
  facet normal 0.390333 -0.920674 0
    outer loop
      vertex -39.4824 -3.11914 3
      vertex -39.1035 -2.9585 2
      vertex -39.1035 -2.9585 3
    endloop
  endfacet
  facet normal 0.390333 -0.920674 0
    outer loop
      vertex -39.4824 -3.11914 3
      vertex -39.4824 -3.11914 2
      vertex -39.1035 -2.9585 2
    endloop
  endfacet
  facet normal 0.122776 -0.992434 0
    outer loop
      vertex -39.9134 -3.17246 3
      vertex -39.4824 -3.11914 2
      vertex -39.4824 -3.11914 3
    endloop
  endfacet
  facet normal 0.122776 -0.992434 0
    outer loop
      vertex -39.9134 -3.17246 3
      vertex -39.9134 -3.17246 2
      vertex -39.4824 -3.11914 2
    endloop
  endfacet
  facet normal -0.133977 -0.990984 0
    outer loop
      vertex -40.4342 -3.10205 3
      vertex -39.9134 -3.17246 2
      vertex -39.9134 -3.17246 3
    endloop
  endfacet
  facet normal -0.133977 -0.990984 -0
    outer loop
      vertex -40.4342 -3.10205 3
      vertex -40.4342 -3.10205 2
      vertex -39.9134 -3.17246 2
    endloop
  endfacet
  facet normal -0.456139 -0.889908 0
    outer loop
      vertex -40.8503 -2.88877 3
      vertex -40.4342 -3.10205 2
      vertex -40.4342 -3.10205 3
    endloop
  endfacet
  facet normal -0.456139 -0.889908 -0
    outer loop
      vertex -40.8503 -2.88877 3
      vertex -40.8503 -2.88877 2
      vertex -40.4342 -3.10205 2
    endloop
  endfacet
  facet normal -0.73159 -0.681745 0
    outer loop
      vertex -41.1497 -2.56748 3
      vertex -40.8503 -2.88877 2
      vertex -40.8503 -2.88877 3
    endloop
  endfacet
  facet normal -0.73159 -0.681745 -0
    outer loop
      vertex -41.1497 -2.56748 3
      vertex -41.1497 -2.56748 2
      vertex -40.8503 -2.88877 2
    endloop
  endfacet
  facet normal -0.919665 -0.392704 0
    outer loop
      vertex -41.319 -2.171 3
      vertex -41.1497 -2.56748 2
      vertex -41.1497 -2.56748 3
    endloop
  endfacet
  facet normal -0.919665 -0.392704 -0
    outer loop
      vertex -41.319 -2.171 3
      vertex -41.319 -2.171 2
      vertex -41.1497 -2.56748 2
    endloop
  endfacet
  facet normal -0.997343 -0.0728441 0
    outer loop
      vertex -41.4238 -0.736133 3
      vertex -41.319 -2.171 2
      vertex -41.319 -2.171 3
    endloop
  endfacet
  facet normal -0.997343 -0.0728441 -0
    outer loop
      vertex -41.4238 -0.736133 3
      vertex -41.4238 -0.736133 2
      vertex -41.319 -2.171 2
    endloop
  endfacet
  facet normal -1 -0 0
    outer loop
      vertex -41.4238 4.64648 3
      vertex -41.4238 -0.736133 2
      vertex -41.4238 -0.736133 3
    endloop
  endfacet
  facet normal -1 0 -0
    outer loop
      vertex -41.4238 4.64648 3
      vertex -41.4238 4.64648 2
      vertex -41.4238 -0.736133 2
    endloop
  endfacet
  facet normal 0 1 0
    outer loop
      vertex -39.1966 4.64648 3
      vertex -41.4238 4.64648 2
      vertex -41.4238 4.64648 3
    endloop
  endfacet
  facet normal 0 1 0
    outer loop
      vertex -39.1966 4.64648 3
      vertex -39.1966 4.64648 2
      vertex -41.4238 4.64648 2
    endloop
  endfacet
  facet normal 1 -0 0
    outer loop
      vertex -39.1966 -0.672559 3
      vertex -39.1966 4.64648 2
      vertex -39.1966 4.64648 3
    endloop
  endfacet
  facet normal 1 0 0
    outer loop
      vertex -39.1966 -0.672559 3
      vertex -39.1966 -0.672559 2
      vertex -39.1966 4.64648 2
    endloop
  endfacet
endsolid OpenSCAD_Model
